<svg xmlns="http://www.w3.org/2000/svg" width="640" height="640" viewBox="0 0 640 640" version="1.1">
	<path d="M 308.484 132.093 C 306.968 141.069, 310.311 153.580, 315.741 159.250 L 318.374 162 315.187 162 C 313.434 162, 312 162.362, 312 162.804 C 312 164.444, 318.646 169.953, 323 171.921 C 328.473 174.396, 332.945 174.469, 339.369 172.188 L 344.238 170.459 350.221 173.425 C 355.036 175.811, 357.543 176.401, 363.059 176.445 L 369.912 176.500 366.501 178.251 C 359.854 181.662, 351.456 183.112, 333 184.034 C 322.825 184.542, 311.800 185.627, 308.500 186.443 C 305.200 187.260, 302.156 187.945, 301.737 187.964 C 301.317 187.984, 301.705 186.313, 302.599 184.250 C 303.493 182.188, 304.263 178.025, 304.310 175 C 304.409 168.604, 301.981 163.198, 296.838 158.362 C 293.891 155.592, 288.083 152, 286.550 152 C 286.247 152, 286 152.713, 286 153.583 C 286 154.454, 285.663 154.994, 285.250 154.782 C 278.861 151.508, 273.723 149.610, 270.157 149.208 C 265.958 148.735, 265.805 148.810, 266.503 151.009 C 267.121 152.958, 266.952 153.196, 265.378 152.591 C 262.468 151.475, 251.475 150.664, 248.698 151.361 C 246.859 151.822, 246.316 152.494, 246.675 153.865 C 247.099 155.486, 246.446 155.800, 241.832 156.195 C 238.900 156.446, 234.307 157.629, 231.626 158.824 C 227.647 160.598, 226.967 161.255, 227.921 162.405 C 228.877 163.557, 228.076 164.276, 223.514 166.365 C 217.446 169.143, 205 177.021, 205 178.084 C 205 178.447, 206.807 179.033, 209.015 179.386 C 211.224 179.740, 214.835 180.750, 217.040 181.633 C 220.112 182.862, 220.800 183.537, 219.983 184.521 C 219.184 185.483, 219.617 186.292, 221.709 187.749 C 226.172 190.859, 230.766 191.999, 238.899 192.015 C 243.080 192.024, 247.175 192.482, 248 193.034 C 249.298 193.903, 249.239 194.237, 247.559 195.519 C 246.491 196.334, 243.791 197.003, 241.559 197.006 C 234.139 197.016, 225.570 198.939, 219.500 201.956 C 212.215 205.577, 206.211 210.895, 208.095 212.059 C 209.034 212.639, 208.412 213.909, 205.742 216.864 C 202.509 220.442, 199 225.952, 199 227.450 C 199 227.753, 199.713 228, 200.583 228 C 201.454 228, 202.014 228.338, 201.828 228.750 C 201.641 229.162, 200.265 231.825, 198.769 234.667 C 197.274 237.509, 195.755 241.680, 195.394 243.936 C 194.807 247.611, 194.926 247.966, 196.543 247.345 C 198.024 246.777, 198.206 246.997, 197.560 248.576 C 195.174 254.403, 191.392 273.726, 192.434 274.767 C 192.716 275.050, 194.746 273.656, 196.944 271.670 C 200.280 268.655, 211.656 262, 213.471 262 C 213.762 262, 214 262.724, 214 263.608 C 214 264.852, 214.623 265.071, 216.750 264.574 C 218.262 264.220, 222.088 262.673, 225.250 261.136 C 230.470 258.599, 231 258.510, 231 260.170 C 231 261.177, 231.253 262, 231.562 262 C 231.871 262, 234.600 260.829, 237.626 259.397 C 240.652 257.966, 245.597 254.478, 248.614 251.647 C 252.678 247.835, 255.320 244.037, 258.801 237 C 261.891 230.753, 264.143 227.381, 265.378 227.152 C 266.947 226.861, 267.170 227.272, 266.735 229.652 C 266.449 231.218, 265.052 235.200, 263.631 238.500 C 261.940 242.427, 261.039 246.355, 261.024 249.867 C 261.002 254.848, 261.152 255.193, 263.121 254.679 C 265.136 254.152, 265.208 254.376, 264.568 259.202 C 264.197 261.995, 263.620 265.652, 263.285 267.327 L 262.675 270.374 268.588 267.066 C 271.839 265.247, 276.376 262.238, 278.668 260.379 C 280.961 258.521, 283.098 257, 283.418 257 C 283.738 257, 284 257.675, 284 258.500 C 284 259.325, 284.373 260, 284.829 260 C 286.836 260, 295.194 253.501, 297.876 249.854 C 300.550 246.219, 300.919 246.020, 301.917 247.676 C 302.929 249.356, 303.261 249.223, 306.116 246 C 309.222 242.492, 313.972 233.595, 313.990 231.250 C 314.002 229.755, 315.630 229.593, 316.500 231 C 316.840 231.550, 317.488 232, 317.940 232 C 319.277 232, 321 223.584, 321 217.057 C 321 212.154, 321.307 211, 322.611 211 C 323.929 211, 324.096 210.323, 323.526 207.285 C 323.142 205.241, 322.193 202.339, 321.415 200.836 C 319.556 197.241, 314.579 193.609, 309 191.778 L 304.500 190.300 309.500 189.119 C 312.250 188.469, 322.825 187.503, 333 186.970 C 343.175 186.438, 353.300 185.563, 355.500 185.025 C 357.700 184.488, 359.760 184.037, 360.078 184.024 C 360.395 184.011, 357.245 187.539, 353.078 191.865 C 333.511 212.174, 320.700 237.365, 316.282 264.218 C 315.351 269.873, 314.499 274.646, 314.388 274.824 C 314.277 275.002, 312.783 274.422, 311.068 273.535 C 309.353 272.648, 305.421 271.455, 302.330 270.884 C 293.278 269.211, 285.629 271.052, 269.500 278.786 C 255.538 285.482, 255.477 285.500, 246.811 285.500 L 238.121 285.500 240.311 287.845 C 243.461 291.219, 249.765 294.685, 255.234 296.049 L 259.967 297.229 254.234 303.521 C 250.153 307.999, 246.510 313.753, 241.598 323.483 C 236.250 334.076, 233.729 337.963, 230.396 340.749 C 228.030 342.726, 226.325 344.717, 226.606 345.172 C 226.888 345.627, 230.290 346, 234.166 346 C 240.487 346, 241.140 346.181, 240.492 347.750 C 236.156 358.267, 235.696 360.828, 234.961 378.500 C 234.443 390.988, 233.718 397.849, 232.596 400.906 C 231.707 403.329, 231.202 405.535, 231.474 405.808 C 231.747 406.080, 234.677 404.962, 237.985 403.322 L 244 400.341 244 407.557 C 244 415.063, 245.904 422.681, 251.859 439 C 253.683 443.998, 254.969 449.472, 254.980 452.285 C 254.998 456.705, 255.148 456.991, 256.936 456.034 C 258 455.465, 260.138 453.208, 261.686 451.021 C 263.234 448.833, 264.837 447.033, 265.250 447.021 C 265.663 447.010, 266 447.813, 266 448.806 C 266 449.799, 266.935 453.379, 268.077 456.762 C 270.183 462.998, 275.436 470.987, 284.500 481.736 C 287.250 484.998, 290.458 488.979, 291.629 490.583 L 293.759 493.500 294.982 489 C 295.655 486.525, 296.635 483.693, 297.161 482.707 C 297.969 481.190, 298.565 481.807, 301.027 486.707 C 302.628 489.893, 306.764 495.886, 310.219 500.024 C 313.673 504.162, 317.288 508.662, 318.250 510.024 L 320 512.500 321.641 510.221 C 322.544 508.967, 326.360 504.242, 330.122 499.721 C 333.884 495.199, 337.983 489.145, 339.231 486.267 C 340.479 483.389, 341.766 481.026, 342.092 481.017 C 342.417 481.008, 343.501 483.700, 344.500 487 C 345.499 490.300, 346.583 492.997, 346.908 492.992 C 347.234 492.988, 348.485 491.301, 349.689 489.242 C 350.894 487.184, 354.577 482.416, 357.876 478.646 C 361.174 474.876, 365.061 470.076, 366.513 467.981 C 369.942 463.033, 373.946 453.252, 373.976 449.750 C 373.989 448.238, 374.337 447.011, 374.750 447.024 C 375.163 447.037, 376.850 448.878, 378.500 451.115 C 380.150 453.353, 382.288 455.608, 383.250 456.127 C 384.787 456.955, 385 456.566, 385 452.929 C 385 450.546, 387.334 441.895, 390.500 432.544 C 395.272 418.451, 396 415.286, 396 408.650 C 396 404.442, 396.171 401, 396.379 401 C 396.588 401, 399.317 402.171, 402.443 403.603 C 405.570 405.034, 408.357 405.977, 408.636 405.697 C 408.915 405.418, 408.380 403.009, 407.447 400.345 C 406.252 396.931, 405.540 390.330, 405.039 378 C 404.346 360.962, 403.671 357.244, 399.546 347.750 C 398.866 346.184, 399.474 346, 405.311 346 C 408.900 346, 412.570 345.719, 413.466 345.375 C 414.765 344.876, 414.385 344.267, 411.591 342.368 C 407.151 339.351, 403.754 334.272, 397.052 320.633 C 393.269 312.933, 390.004 307.940, 385.853 303.502 L 379.994 297.239 384.747 296.054 C 390.233 294.685, 396.536 291.223, 399.689 287.845 L 401.879 285.500 393.189 285.500 C 384.526 285.500, 384.458 285.480, 370.500 278.795 C 351.529 269.710, 342.827 268.367, 330.624 272.642 C 328.493 273.389, 326.536 274, 326.276 274 C 326.016 274, 326.123 271.188, 326.514 267.750 C 328.571 249.644, 337.454 227.501, 348.679 212.500 C 354.580 204.613, 371.967 187.158, 376.154 184.918 C 378.053 183.901, 378.220 183.984, 377.588 185.631 C 375.793 190.310, 374.834 197.692, 375.434 202.217 C 375.796 204.941, 377.009 209.622, 378.131 212.619 L 380.170 218.070 376.706 221.904 C 374.800 224.013, 372.681 227.438, 371.995 229.514 C 370.180 235.013, 371.225 244.537, 374.311 250.627 C 377.017 255.968, 381.616 262, 382.980 262 C 383.422 262, 384.061 260.895, 384.400 259.544 C 384.739 258.193, 385.483 255.859, 386.055 254.356 L 387.093 251.624 389.149 255.062 C 393.748 262.755, 396.567 264.579, 414 271.139 C 420.919 273.742, 423.461 275.321, 427.664 279.625 L 432.828 284.913 433.544 276.313 C 434.470 265.199, 433.533 255.505, 430.836 248.275 C 429.269 244.077, 427.079 240.929, 422.815 236.750 L 416.949 231 423.475 231 C 427.064 231, 429.998 230.662, 429.996 230.250 C 429.990 229.038, 425.993 222.828, 422.382 218.421 C 420.541 216.175, 416.680 213.055, 413.802 211.489 C 409.760 209.289, 407.189 208.624, 402.513 208.570 C 397.615 208.513, 395.199 209.120, 389.857 211.750 C 386.226 213.537, 383.010 215, 382.710 215 C 382.410 215, 381.341 212.863, 380.333 210.250 C 379.135 207.147, 378.500 202.875, 378.500 197.929 C 378.500 191.470, 378.945 189.488, 381.532 184.429 C 384.202 179.207, 386.122 177.307, 397.634 168.500 C 413.669 156.231, 422.317 148.767, 425.220 144.690 C 426.815 142.451, 427.429 140.149, 427.429 136.405 C 427.429 130.909, 425.893 128, 422.991 128 C 422.021 128, 418.738 131.037, 415.697 134.750 C 404.870 147.966, 384.519 166.142, 375 171.098 C 371.530 172.904, 368.897 173.440, 363.500 173.439 C 357.830 173.437, 355.508 172.920, 351.276 170.715 C 346.382 168.165, 346.114 167.831, 347.026 165.431 C 349.488 158.956, 347.047 147.958, 342.188 143.638 C 340.129 141.806, 340.084 141.816, 339.466 144.280 L 338.837 146.785 334.669 142.642 C 332.046 140.036, 327.904 137.449, 323.500 135.665 C 319.650 134.106, 315.068 131.743, 313.317 130.415 C 311.566 129.087, 309.918 128, 309.655 128 C 309.391 128, 308.865 129.842, 308.484 132.093 M 421.098 134.149 C 419.781 137.927, 419.705 141.985, 420.914 143.896 C 421.597 144.973, 422.163 144.585, 423.399 142.195 C 425.060 138.983, 425.440 135.310, 424.393 132.582 C 423.457 130.143, 422.303 130.692, 421.098 134.149 M 311.283 139.833 C 311.610 143.740, 312.734 148.863, 313.779 151.218 C 314.824 153.573, 317.552 157.186, 319.840 159.247 C 322.128 161.308, 324 163.221, 324 163.497 C 324 163.774, 322.613 164, 320.917 164 C 318.912 164, 317.967 164.437, 318.217 165.250 C 318.841 167.288, 327.135 171, 331.063 171 C 335.190 171, 341 169.226, 341 167.965 C 341 167.504, 336.702 165.021, 331.448 162.449 C 326.194 159.876, 322.077 157.590, 322.299 157.368 C 322.521 157.146, 324.671 157.846, 327.077 158.923 C 329.483 160, 331.570 160.764, 331.714 160.619 C 331.858 160.475, 329.811 158.110, 327.164 155.364 C 324.517 152.618, 320.860 148.150, 319.038 145.436 C 316.014 140.932, 316.316 141.139, 322.482 147.793 C 331.236 157.240, 340.083 164.483, 341.019 162.969 C 341.455 162.264, 341.966 162.720, 342.361 164.165 C 342.892 166.104, 343.167 166.245, 343.985 165 C 345.343 162.930, 345.250 153.643, 343.839 150.547 C 342.614 147.858, 341.031 147.146, 340.955 149.250 C 340.930 149.938, 340.331 151.850, 339.624 153.500 L 338.339 156.500 336.637 151.394 C 335.701 148.585, 333.928 145.341, 332.697 144.185 C 330.933 142.528, 321.962 137.832, 311.594 133.139 C 311.068 132.902, 310.938 135.716, 311.283 139.833 M 405.500 149.511 C 398.900 156.117, 387.658 166.017, 380.519 171.511 C 357.030 189.586, 341.243 207.527, 331.254 227.500 C 325.794 238.415, 322.540 247.817, 320.148 259.581 C 316.559 277.240, 316.623 278.889, 320.851 277.547 C 322.334 277.077, 322.900 275.205, 323.819 267.733 C 326.116 249.040, 331.315 234.207, 341.158 218.262 C 348.993 205.569, 366.520 188.245, 387 172.949 C 400.629 162.770, 420.130 147.204, 419.956 146.642 C 419.932 146.564, 419.369 144.475, 418.706 142 L 417.500 137.500 405.500 149.511 M 270 154.392 C 270 155.826, 269.887 156.995, 269.750 156.989 C 269.613 156.983, 267.291 156.308, 264.591 155.489 C 261.891 154.670, 257.546 154, 254.935 154 C 250.680 154, 250.241 154.207, 250.710 156 C 251.156 157.706, 250.738 158.002, 247.867 158.016 C 244.228 158.033, 233.285 160.382, 232.311 161.355 C 231.983 161.683, 232.280 162.632, 232.970 163.464 C 234.006 164.712, 233.900 165.086, 232.363 165.603 C 228.339 166.956, 214.059 174.223, 213.061 175.427 C 212.247 176.408, 213.507 177.340, 218.529 179.475 C 223.949 181.778, 224.954 182.570, 224.454 184.145 C 223.526 187.070, 229.445 189.025, 240.010 189.283 C 250.104 189.529, 252.743 190.904, 251.630 195.338 C 250.855 198.427, 247.304 199.637, 237 200.324 C 232.875 200.599, 227.015 201.757, 223.979 202.898 C 218.570 204.930, 210.284 210.879, 212.750 210.959 C 215.064 211.035, 214.028 212.842, 208.500 218.370 C 205.475 221.395, 203 224.349, 203 224.935 C 203 225.521, 203.675 226, 204.500 226 C 206.513 226, 206.390 227.637, 204.134 230.846 C 201.835 234.118, 199.495 238.717, 198.511 241.901 C 197.911 243.844, 198.071 244.187, 199.353 243.695 C 200.223 243.361, 201.156 243.443, 201.425 243.878 C 201.693 244.313, 200.846 247.824, 199.541 251.681 C 198.236 255.538, 196.845 260.849, 196.450 263.483 L 195.732 268.273 200.116 265.559 C 202.527 264.066, 206.955 261.719, 209.956 260.344 C 214.848 258.102, 215.531 258.006, 216.566 259.422 C 217.201 260.290, 218.372 261, 219.169 261 C 219.966 261, 223.227 259.429, 226.417 257.508 C 232.197 254.027, 234 253.807, 234 256.579 C 234 257.759, 234.791 257.637, 238.099 255.949 C 245.589 252.128, 250.874 246.216, 256.090 235.820 C 260.514 227.005, 262.998 224, 265.863 224 C 267.613 224, 270 227.071, 269.999 229.321 C 269.999 230.520, 268.649 234.353, 266.999 237.840 C 263.796 244.612, 263.011 251, 265.383 251 C 267.265 251, 267.830 253.712, 267.236 259.895 L 266.737 265.088 270.127 263.087 C 271.992 261.987, 275.915 259.040, 278.846 256.539 C 284.015 252.127, 286 251.578, 286 254.559 C 286 255.352, 286.255 256, 286.567 256 C 288.259 256, 294.437 250.104, 297.179 245.873 C 298.916 243.193, 300.725 241, 301.200 241 C 301.674 241, 302.322 241.675, 302.638 242.500 C 302.955 243.325, 303.607 244, 304.087 244 C 305.547 244, 310.846 233.871, 311.542 229.751 C 312.126 226.294, 312.475 225.915, 314.826 226.191 C 317.190 226.469, 317.525 226.094, 318.132 222.500 C 318.752 218.832, 318.602 216.191, 317.444 210.364 C 317.143 208.851, 317.610 208.074, 319.047 207.698 C 320.921 207.208, 320.973 206.921, 319.745 203.910 C 317.770 199.070, 312.371 195.208, 305.708 193.870 C 302.543 193.235, 299.660 193.007, 299.302 193.365 C 298.944 193.723, 299.067 195.695, 299.576 197.748 C 300.300 200.674, 301.579 202.181, 305.500 204.725 C 310.512 207.978, 315.013 212.627, 314.963 214.500 C 314.949 215.050, 313.989 214.229, 312.831 212.676 C 311.109 210.367, 304.021 205, 302.694 205 C 302.503 205, 303.383 208.037, 304.648 211.750 C 306.050 215.864, 306.910 220.648, 306.851 224 L 306.753 229.500 305.849 223.188 C 304.975 217.087, 303.999 214.145, 298.707 201.659 L 296.232 195.817 293.652 201.270 C 289.279 210.515, 288.993 213.549, 291.652 222.491 C 293.129 227.459, 293.949 232.634, 293.863 236.444 L 293.726 242.500 293.023 236.500 C 292.337 230.646, 289.198 218.430, 288.563 219.143 C 288.388 219.339, 287.026 223.775, 285.536 229 C 283.052 237.713, 274.349 256.682, 273.311 255.644 C 273.068 255.401, 274.313 252.344, 276.077 248.851 C 279.973 241.139, 284.211 229, 283.007 229 C 282.527 229, 279.066 232.021, 275.317 235.713 C 271.265 239.703, 269.244 241.224, 270.335 239.463 C 271.345 237.833, 274.865 234.025, 278.158 231 L 284.145 225.500 287.055 214.129 C 288.655 207.875, 291.065 200.788, 292.412 198.379 C 293.867 195.776, 294.381 194.019, 293.680 194.046 C 293.031 194.071, 289.125 195.758, 285 197.796 C 277.666 201.418, 277.416 201.666, 273.706 209 C 271.620 213.125, 270.221 215.150, 270.598 213.500 C 270.975 211.850, 272.151 208.769, 273.212 206.653 C 274.272 204.537, 274.981 202.648, 274.788 202.455 C 274.594 202.261, 270.775 204.168, 266.301 206.691 C 259.528 210.511, 257.758 212.051, 255.728 215.890 C 254.387 218.425, 252.257 223.797, 250.995 227.828 C 248.785 234.881, 242.593 245.898, 239.903 247.560 C 239.190 248.001, 239.536 247.042, 240.673 245.431 C 244.009 240.698, 247.124 234.052, 250.013 225.500 C 251.500 221.100, 253.080 216.643, 253.524 215.595 C 254.307 213.751, 254.240 213.746, 251.416 215.431 C 249.812 216.388, 245.134 219.720, 241.019 222.836 C 233.707 228.373, 233.470 228.691, 230.483 237 C 228.802 241.675, 226.206 247.292, 224.714 249.482 C 221.546 254.131, 221.097 253.644, 224.006 248.714 C 225.110 246.844, 227.113 242.078, 228.458 238.123 L 230.904 230.932 228.202 232.863 C 226.716 233.925, 220.652 239.770, 214.726 245.851 C 208.800 251.933, 204.301 256.285, 204.727 255.523 C 206.541 252.282, 220.547 237.102, 225.971 232.500 C 229.212 229.750, 231.894 227.230, 231.932 226.899 C 232.031 226.026, 223.167 227.612, 218.500 229.303 C 216.300 230.100, 212.813 231.752, 210.750 232.975 C 205.345 236.178, 206.128 234.766, 211.750 231.170 C 216.034 228.431, 219.797 227.178, 232.500 224.262 C 234.739 223.748, 240.437 220.516, 245.442 216.922 L 254.384 210.500 243.980 210.213 C 238.257 210.055, 231.355 210.401, 228.642 210.983 C 225.928 211.565, 223.507 211.840, 223.260 211.594 C 221.988 210.322, 232.087 208.757, 244.500 208.303 C 258.252 207.799, 258.620 207.726, 265.301 204.157 C 272.688 200.211, 272.697 200.246, 263.721 197.948 C 261.093 197.275, 259.085 196.582, 259.258 196.408 C 259.432 196.235, 263.084 196.702, 267.373 197.447 L 275.172 198.801 284.187 195.027 L 293.203 191.252 287.351 189.212 C 284.133 188.090, 277.675 185.567, 273 183.604 C 268.325 181.642, 263.792 180.028, 262.926 180.018 C 262.061 180.008, 257.594 181.125, 253 182.500 C 248.406 183.875, 242.814 184.947, 240.574 184.882 L 236.500 184.765 241.243 183.966 C 243.851 183.527, 249.026 182.153, 252.743 180.912 C 259.242 178.743, 259.386 178.626, 256.500 177.846 C 250.979 176.353, 232.605 174.768, 227.639 175.356 C 224.938 175.676, 223.052 175.614, 223.446 175.219 C 223.841 174.824, 228.965 174.259, 234.832 173.965 L 245.500 173.429 241 171.237 C 238.357 169.949, 237.289 169.035, 238.412 169.022 C 239.464 169.010, 242.335 170.178, 244.793 171.619 C 247.250 173.059, 253.365 175.266, 258.380 176.524 C 263.396 177.781, 268.340 179.146, 269.366 179.557 C 270.966 180.197, 271.084 180.031, 270.192 178.402 C 268.262 174.878, 259.538 167.159, 254.500 164.519 C 251.750 163.077, 250.625 162.203, 252 162.577 C 255.835 163.620, 261.401 166.625, 264.814 169.497 C 266.509 170.923, 269.505 174.282, 271.472 176.962 C 274.438 181.002, 276.311 182.359, 282.454 184.917 C 286.528 186.613, 290.637 188, 291.585 188 C 293.158 188, 293.172 187.846, 291.744 186.250 C 290.882 185.287, 288.480 180.913, 286.406 176.529 C 284.332 172.145, 280.804 166.543, 278.567 164.079 C 274.687 159.806, 274.649 159.705, 277.748 161.867 C 281.373 164.397, 286.565 171.453, 288.154 176.012 C 288.727 177.655, 289.569 179, 290.026 179 C 290.482 179, 291.141 176.412, 291.490 173.250 C 292.541 163.702, 292.962 163.945, 292.427 173.791 C 291.975 182.107, 292.143 183.392, 294.029 186.041 C 295.188 187.668, 296.443 188.998, 296.818 188.996 C 297.805 188.991, 300.978 180.910, 301.672 176.635 C 302.534 171.324, 299.728 164.925, 294.373 159.990 C 290.114 156.064, 289.772 155.928, 288.491 157.661 C 287.179 159.437, 287.035 159.438, 284.316 157.695 C 280.717 155.389, 276.126 153.321, 272.695 152.459 C 270.284 151.855, 270 152.058, 270 154.392 M 235 168.500 C 235 168.775, 235.225 169, 235.500 169 C 235.775 169, 236 168.775, 236 168.500 C 236 168.225, 235.775 168, 235.500 168 C 235.225 168, 235 168.225, 235 168.500 M 395.826 211.979 C 392.369 213.023, 385 217.164, 385 218.063 C 385 218.445, 386.406 219.340, 388.124 220.051 C 390.419 221.002, 391.944 221.067, 393.874 220.296 C 399.165 218.181, 400.436 217.910, 397.750 219.468 C 396.238 220.346, 395 221.165, 395 221.289 C 395 221.413, 398.488 221.364, 402.750 221.179 C 407.012 220.994, 411.507 221.224, 412.739 221.689 C 414.134 222.217, 409.744 222.529, 401.090 222.518 C 387.792 222.501, 387.245 222.580, 388.209 224.385 C 388.762 225.422, 392.058 229.071, 395.532 232.495 C 401.122 238.003, 402.621 238.913, 408.563 240.405 C 415.844 242.234, 419.981 244.068, 421.815 246.277 C 422.506 247.109, 421.042 246.746, 418.242 245.392 C 415.634 244.130, 411.800 242.798, 409.723 242.432 L 405.946 241.767 411.396 247.350 C 414.394 250.420, 417.934 254.410, 419.264 256.216 C 422.287 260.324, 426.302 267, 425.748 267 C 425.519 267, 423.633 264.533, 421.557 261.518 C 417.797 256.059, 409.231 247.489, 399.133 239.085 L 393.828 234.670 394.527 239.585 C 394.912 242.288, 396.006 246.863, 396.958 249.750 C 397.910 252.637, 398.546 255, 398.370 255 C 397.366 255, 394.786 248.115, 393.500 242 C 392.681 238.107, 391.343 233.702, 390.526 232.211 C 389.049 229.514, 385.488 224.999, 384.840 225.001 C 384.653 225.001, 384.433 226.164, 384.350 227.586 C 384.157 230.935, 379.777 246.110, 379.177 245.511 C 378.925 245.258, 379.748 240.836, 381.007 235.683 C 382.435 229.837, 383.033 225.268, 382.597 223.531 L 381.898 220.747 379.320 223.123 C 375.636 226.520, 374 231.057, 374 237.881 C 374 242.643, 374.646 245.064, 377.250 250.055 C 379.038 253.481, 380.950 256.333, 381.500 256.392 C 382.050 256.452, 383.400 253.694, 384.500 250.265 C 385.600 246.835, 386.732 244.023, 387.015 244.015 C 387.299 244.007, 388.341 246.282, 389.331 249.070 C 390.322 251.859, 392.662 255.833, 394.531 257.903 C 398.075 261.826, 400.091 262.888, 413.788 268.051 C 418.346 269.769, 424.083 272.707, 426.538 274.581 L 431 277.987 431 268.099 C 431 256.221, 428.607 247.371, 423.835 241.603 C 422.062 239.459, 417.983 236.007, 414.771 233.931 L 408.931 230.156 414.216 229.110 C 417.122 228.535, 421.075 227.938, 423 227.782 L 426.500 227.500 419.500 220.339 C 414.432 215.155, 411.396 212.880, 408.500 212.095 C 403.922 210.855, 399.680 210.816, 395.826 211.979 M 221 212.500 C 221 212.775, 221.225 213, 221.500 213 C 221.775 213, 222 212.775, 222 212.500 C 222 212.225, 221.775 212, 221.500 212 C 221.225 212, 221 212.225, 221 212.500 M 287.500 274.064 C 285.300 274.608, 277.997 277.768, 271.271 281.085 C 264.545 284.403, 256.268 287.683, 252.879 288.374 L 246.716 289.631 252.108 292.017 C 256.699 294.049, 259.133 294.409, 268.500 294.442 C 277.406 294.474, 281.011 294.016, 287.437 292.039 C 291.855 290.680, 297.252 288.164, 299.609 286.365 C 301.939 284.586, 305.230 282.415, 306.923 281.540 C 308.615 280.665, 310 279.674, 310 279.338 C 310 279.002, 305.837 278.962, 300.750 279.248 C 294.419 279.604, 289.370 280.555, 284.750 282.260 C 281.038 283.631, 278 284.557, 278 284.320 C 278 283.566, 287.296 279.741, 292.495 278.357 C 295.248 277.624, 300.650 276.982, 304.500 276.930 L 311.500 276.837 308.079 275.346 C 303.750 273.459, 292.725 272.772, 287.500 274.064 M 334.734 274.417 C 332.112 275.122, 329.737 275.930, 329.455 276.212 C 329.173 276.494, 333.118 276.955, 338.221 277.236 C 345.167 277.619, 349.208 278.439, 354.293 280.497 C 358.029 282.010, 360.916 283.418, 360.707 283.626 C 360.499 283.835, 357.667 283.061, 354.414 281.907 C 350.859 280.646, 344.811 279.593, 339.250 279.268 C 334.163 278.971, 330 279.002, 330 279.338 C 330 279.674, 331.462 280.697, 333.250 281.611 C 335.038 282.526, 338.112 284.540, 340.081 286.087 C 342.051 287.635, 347.226 290.137, 351.581 291.648 C 358.419 294.021, 361.069 294.397, 371 294.410 C 380.988 294.423, 383.209 294.110, 387.892 292.028 L 393.284 289.631 387.325 288.416 C 384.048 287.747, 376.326 284.672, 370.165 281.583 C 353.504 273.227, 345.315 271.571, 334.734 274.417 M 313.160 285.750 C 307.540 291.375, 304.404 297.436, 302.908 305.565 C 302.307 308.829, 301.569 311.725, 301.269 312 C 300.258 312.924, 301.947 301.511, 303.491 296.983 C 304.332 294.517, 306.808 290.137, 308.994 287.250 C 311.181 284.363, 312.733 282, 312.445 282 C 312.156 282, 310.251 282.856, 308.210 283.902 C 299.567 288.333, 292.828 298.285, 291.553 308.500 C 290.727 315.117, 293.127 324.081, 297.442 330.500 C 299.291 333.250, 304.119 339.110, 308.171 343.522 C 312.223 347.934, 316.596 353.028, 317.888 354.842 L 320.236 358.141 322.027 355.196 C 323.012 353.576, 327.278 348.482, 331.507 343.875 C 335.736 339.269, 340.711 333.250, 342.563 330.500 C 346.785 324.229, 349.416 314.383, 348.545 308.113 C 348.193 305.576, 346.560 300.713, 344.917 297.306 C 341.905 291.060, 337.776 286.951, 331.054 283.510 L 327.609 281.746 330.360 285.016 C 331.873 286.814, 334.293 290.583, 335.739 293.393 C 337.951 297.692, 338.405 300.003, 338.612 308 L 338.858 317.500 338.007 309.406 C 337.092 300.693, 335.374 295.624, 331.373 289.830 C 328.519 285.697, 322.282 281, 319.649 281 C 318.690 281, 315.769 283.137, 313.160 285.750 M 283.965 297.337 C 280.370 299.136, 275.420 301.995, 272.965 303.690 C 268.870 306.517, 261.265 313.824, 255.990 320 L 253.854 322.500 255.630 319.271 C 258.256 314.498, 267.727 304.908, 273.960 300.712 L 279.420 297.036 272.460 297.646 C 268.311 298.009, 264.199 299.038, 262.279 300.192 C 256.654 303.572, 251.203 310.893, 244.513 324.049 C 240.938 331.079, 236.845 338.219, 235.418 339.915 L 232.822 343 236.846 343 C 242.447 343, 253.469 340.559, 261.476 337.545 C 269.894 334.377, 280.833 327.182, 285.472 321.762 C 288.760 317.920, 289 317.178, 289 310.831 C 289 306.557, 289.709 302.155, 290.904 299.011 C 292.171 295.675, 292.422 294.011, 291.654 294.032 C 291.019 294.050, 287.559 295.537, 283.965 297.337 M 349.204 299.250 C 350.416 302.413, 351.278 307.245, 351.373 311.406 L 351.530 318.311 357.325 324.075 C 360.876 327.608, 366.203 331.444, 371.086 333.984 C 379.728 338.480, 395.586 343, 402.717 343 L 407.178 343 404.582 339.915 C 403.155 338.219, 399.062 331.079, 395.487 324.049 C 388.799 310.895, 383.348 303.575, 377.721 300.189 C 375.826 299.048, 371.619 297.982, 367.500 297.598 L 360.500 296.946 363.904 299.052 C 369.730 302.657, 375.920 308.275, 380.373 314 C 387.251 322.844, 386.865 323.033, 379.007 314.668 C 370.725 305.852, 362.545 299.894, 353.900 296.381 C 350.677 295.071, 347.849 294, 347.616 294 C 347.383 294, 348.098 296.363, 349.204 299.250 M 284.983 328.025 C 279.526 336.060, 275.560 344.635, 273.527 352.794 C 270.472 365.051, 270.145 365.942, 270.701 360.500 C 271.469 352.970, 273.820 344.352, 277.052 337.226 L 279.949 330.836 276.724 333.003 C 274.951 334.196, 270.489 336.590, 266.808 338.325 C 260.605 341.249, 260.039 341.786, 259.058 345.683 C 257.691 351.113, 257.713 358.536, 259.115 365.201 C 259.728 368.115, 261.811 374.658, 263.744 379.741 L 267.257 388.981 270.502 386.132 C 272.287 384.565, 277.861 380.466, 282.888 377.022 C 295.811 368.171, 303.335 359.294, 306.108 349.624 C 306.868 346.973, 306.372 346.012, 300.928 339.596 C 297.617 335.693, 293.750 330.137, 292.336 327.250 C 290.922 324.363, 289.610 322, 289.420 322 C 289.230 322, 287.233 324.711, 284.983 328.025 M 347.782 327.060 C 346.386 330.052, 342.483 335.743, 339.110 339.707 L 332.975 346.914 334.832 351.801 C 338.642 361.828, 345.616 369.403, 359.784 378.906 C 363.240 381.224, 367.574 384.443, 369.414 386.059 L 372.761 388.998 376.993 377.749 C 380.355 368.810, 381.327 364.754, 381.727 358 C 382.011 353.211, 381.752 347.753, 381.134 345.500 C 380.137 341.865, 379.420 341.212, 373.269 338.335 C 369.546 336.595, 365.049 334.196, 363.276 333.003 L 360.051 330.836 363.060 337.472 C 366.335 344.695, 368.529 352.676, 369.390 360.500 C 369.787 364.103, 369.261 362.847, 367.505 356 C 364.922 345.926, 357.825 330.611, 353.137 324.996 L 350.320 321.621 347.782 327.060 M 251.587 349.966 C 249.574 353.797, 247.068 360.209, 246.019 364.216 C 244.969 368.222, 244.085 370.357, 244.055 368.960 C 243.975 365.273, 246.721 355.317, 249.492 349.250 C 251.946 343.875, 251.732 343.429, 247.270 344.625 C 244.616 345.336, 240.757 352.989, 239.115 360.799 C 238.502 363.714, 237.997 370.914, 237.992 376.799 C 237.988 382.685, 237.519 390.369, 236.951 393.875 C 236.382 397.381, 236.160 400.493, 236.458 400.791 C 237.410 401.743, 248.031 393.800, 251.455 389.576 C 253.272 387.334, 255.738 383.558, 256.934 381.183 L 259.109 376.867 257.054 368.743 C 254.871 360.108, 254.497 352.871, 255.919 346.750 C 256.398 344.688, 256.443 343, 256.019 343 C 255.595 343, 253.601 346.134, 251.587 349.966 M 384.200 347.250 C 385.487 352.785, 384.589 365.222, 382.464 371.286 C 381.046 375.333, 380.985 376.550, 382.067 379.161 C 384.478 384.983, 391.713 393.615, 397.275 397.307 C 400.335 399.338, 403.314 401, 403.895 401 C 404.629 401, 404.637 400.176, 403.923 398.297 C 403.357 396.810, 402.890 391.072, 402.884 385.547 C 402.864 367.529, 400.115 352.563, 395.749 346.704 C 395.062 345.781, 392.995 344.731, 391.156 344.370 L 387.813 343.713 389.794 347.606 C 392.441 352.810, 396.013 364.565, 395.946 367.855 C 395.916 369.376, 394.946 367.301, 393.664 362.974 C 392.438 358.834, 390.462 353.580, 389.272 351.297 C 384.353 341.860, 382.628 340.483, 384.200 347.250 M 307.191 355.368 C 304.555 363.399, 304.283 374.828, 306.524 383.432 C 307.363 386.651, 307.843 389.490, 307.592 389.741 C 306.578 390.755, 303.814 378.992, 303.297 371.458 L 302.744 363.417 297.287 369.138 L 291.829 374.860 292.965 380.332 C 294.443 387.451, 299.666 395.859, 309.129 406.355 C 313.325 411.009, 317.487 415.858, 318.379 417.131 L 320 419.445 321.699 416.973 C 322.634 415.613, 325.926 411.800, 329.016 408.500 C 332.105 405.200, 336.279 400.444, 338.290 397.930 C 342.461 392.716, 346.545 384.252, 347.542 378.753 C 348.184 375.213, 347.903 374.662, 342.433 368.754 C 339.016 365.064, 335.347 359.700, 333.477 355.663 L 330.309 348.823 327.241 352.696 C 325.553 354.826, 323.376 358.241, 322.401 360.285 C 321.427 362.328, 320.375 364, 320.063 364 C 319.751 364, 318.452 362.032, 317.176 359.626 C 315.900 357.220, 313.624 353.776, 312.118 351.973 L 309.382 348.695 307.191 355.368 M 350.428 378.779 C 349.079 384.947, 346.849 390.560, 343.956 395.068 C 342.270 397.696, 340.240 400.386, 339.445 401.046 C 338.650 401.705, 338 403.139, 338 404.232 C 338 407.932, 344.023 417.548, 351.348 425.543 C 355.358 429.919, 359.770 435.182, 361.153 437.237 L 363.667 440.974 369.815 430.652 C 377.633 417.529, 380.580 410.832, 382.011 402.938 C 383.226 396.242, 382.623 387.404, 380.624 382.574 L 379.412 379.648 377.206 385.413 C 375.993 388.584, 375 391.813, 375 392.589 C 375 394.841, 373.638 394.255, 369.946 390.418 C 368.051 388.448, 365.755 386.430, 364.845 385.933 C 363.329 385.107, 363.299 385.449, 364.490 389.963 C 366.522 397.664, 367.268 406.474, 366.378 412.233 C 365.605 417.229, 365.528 416.935, 364.888 406.500 C 364.483 399.881, 363.384 392.895, 362.132 388.960 C 360.345 383.347, 359.409 381.969, 355.536 379.239 L 351.024 376.058 350.428 378.779 M 284.294 379.312 C 278.946 382.961, 275.960 391.931, 275.083 406.975 C 274.496 417.057, 274.440 417.264, 273.742 411.886 C 272.970 405.929, 274.183 393.280, 275.979 388.556 C 276.571 386.998, 276.856 385.522, 276.611 385.278 C 276.367 385.033, 273.846 387.070, 271.009 389.804 C 268.172 392.539, 265.695 394.264, 265.503 393.638 C 262.966 385.342, 261.707 381.937, 261.021 381.513 C 259.427 380.528, 258 387.381, 258.026 395.899 C 258.059 407.024, 260.413 413.927, 269.385 429.220 L 276.261 440.939 279.092 437.032 C 280.649 434.883, 285.031 429.714, 288.830 425.546 C 295.607 418.112, 302 407.897, 302 404.504 C 302 403.560, 300.709 401.148, 299.131 399.144 C 295.097 394.021, 291.166 385.893, 290.397 381.083 C 290.038 378.837, 289.239 377.028, 288.622 377.062 C 288.005 377.096, 286.057 378.109, 284.294 379.312 M 249.554 395.944 C 246.753 398.867, 246.736 398.962, 247.221 409.194 C 247.644 418.107, 248.263 420.987, 251.806 430.500 C 254.059 436.550, 256.401 443.446, 257.010 445.824 C 257.921 449.382, 258.367 449.940, 259.530 448.975 C 261.604 447.254, 267 436.042, 267 433.453 C 267 432.228, 265.013 427.462, 262.585 422.863 C 257.613 413.447, 255.030 405.580, 254.937 399.568 C 254.878 395.803, 254.797 395.686, 253.842 398 C 253.263 399.402, 253.021 404.232, 253.291 409 C 253.634 415.056, 253.496 416.781, 252.812 415 C 252.284 413.625, 251.998 408.112, 252.176 402.749 C 252.354 397.386, 252.472 392.998, 252.437 392.999 C 252.402 393, 251.105 394.325, 249.554 395.944 M 388.427 399.699 C 388.780 403.440, 388.652 408.525, 388.143 411 C 387.281 415.201, 387.211 414.935, 387.094 407 C 386.937 396.314, 385.522 393.507, 384.705 402.261 C 384.026 409.524, 381.449 416.691, 376.446 425.227 C 374.551 428.461, 373 432.136, 373 433.394 C 373 436.029, 378.372 447.234, 380.470 448.975 C 381.633 449.940, 382.080 449.382, 382.993 445.824 C 383.604 443.446, 385.626 437.450, 387.488 432.500 C 392.340 419.596, 393.248 415.525, 393.330 406.301 C 393.399 398.557, 393.247 397.958, 390.595 395.500 L 387.787 392.898 388.427 399.699 M 303.412 410.619 C 302.422 415.896, 303.574 429.807, 305.423 434.906 C 306.302 437.329, 306.835 439.498, 306.608 439.725 C 305.698 440.636, 301.930 428.455, 301.238 422.364 L 300.500 415.869 296.669 420.900 L 292.838 425.930 294.404 431.215 C 296.602 438.631, 300.648 445.142, 309.230 455.073 C 313.305 459.788, 317.417 464.738, 318.369 466.073 L 320.099 468.500 322.290 465.534 C 323.495 463.903, 327.570 458.983, 331.344 454.601 C 335.118 450.219, 339.268 444.951, 340.566 442.895 C 343.641 438.025, 347.238 427.287, 346.507 425.163 C 346.192 424.248, 344.381 421.700, 342.482 419.500 L 339.030 415.500 339.015 420.145 C 339.001 424.459, 335.343 438.676, 334.471 437.804 C 334.257 437.590, 334.779 434.744, 335.632 431.479 C 336.642 427.608, 337.063 422.518, 336.841 416.853 C 336.653 412.074, 336.154 407.819, 335.732 407.397 C 334.724 406.391, 327.757 413.241, 323.702 419.224 C 321.941 421.822, 320.260 423.960, 319.966 423.974 C 319.672 423.988, 318.648 422.674, 317.690 421.053 C 315.526 417.390, 306.103 407, 304.945 407 C 304.475 407, 303.785 408.628, 303.412 410.619 M 386.079 417.583 C 386.127 418.748, 386.364 418.985, 386.683 418.188 C 386.972 417.466, 386.936 416.603, 386.604 416.271 C 386.272 415.939, 386.036 416.529, 386.079 417.583 M 286.671 431.942 C 283.151 435.839, 283 436.305, 283 443.293 C 283 447.301, 283.690 453.262, 284.532 456.540 C 285.375 459.818, 286.297 463.400, 286.580 464.500 C 287.090 466.477, 287.082 466.478, 285.876 464.532 C 284.049 461.584, 281.004 449.198, 280.968 444.568 C 280.941 441.123, 280.750 440.755, 279.718 442.163 C 279.048 443.078, 277.994 444.653, 277.376 445.663 C 276.382 447.286, 275.921 446.831, 273.417 441.750 C 271.859 438.587, 270.247 436, 269.837 436 C 269.426 436, 268.775 437.683, 268.389 439.739 C 266.717 448.653, 273.007 464.032, 282.897 475.214 C 286.163 478.906, 289.537 482.929, 290.395 484.153 C 291.252 485.378, 292.139 486.181, 292.365 485.940 C 293.968 484.224, 303.098 463.523, 303.973 459.620 C 305.027 454.919, 304.961 454.656, 301.721 450.639 C 296.721 444.439, 293.919 439.437, 292.036 433.353 L 290.343 427.878 286.671 431.942 M 349 429.266 C 349 432.918, 344.536 442.507, 340.121 448.341 C 335.719 454.156, 335.490 454.764, 336.178 458.796 C 336.885 462.937, 346.943 486.061, 347.985 485.941 C 348.268 485.908, 351.650 482.107, 355.500 477.495 C 364.195 467.077, 370.581 455.204, 371.516 447.715 C 372.267 441.704, 371.389 435.642, 369.900 436.562 C 369.384 436.881, 367.791 439.453, 366.359 442.278 L 363.756 447.415 361.659 443.457 L 359.562 439.500 358.881 446.777 C 358.272 453.285, 354.224 467.558, 353.261 466.594 C 353.052 466.386, 353.576 463.804, 354.424 460.857 C 356.900 452.253, 358.062 441.810, 356.980 437.890 C 355.890 433.941, 349 426.496, 349 429.266 M 333 439.500 C 333 439.775, 333.225 440, 333.500 440 C 333.775 440, 334 439.775, 334 439.500 C 334 439.225, 333.775 439, 333.500 439 C 333.225 439, 333 439.225, 333 439.500 M 307.318 465.972 C 307.656 470.356, 308.999 477.122, 310.302 481.007 C 311.605 484.893, 312.259 487.659, 311.755 487.155 C 310.190 485.590, 306 473.067, 306 469.955 C 306 468.330, 305.663 467.011, 305.250 467.024 C 304.837 467.037, 303.504 469.314, 302.287 472.084 L 300.073 477.120 302.028 482.347 C 303.145 485.332, 307.242 491.631, 311.582 497.036 C 315.761 502.241, 319.535 506.500, 319.967 506.500 C 321.714 506.500, 334.419 490.085, 337.230 484.196 L 340.239 477.893 337.674 472.223 C 336.217 469.002, 334.919 467.190, 334.669 468.027 C 334.427 468.837, 333.737 471.852, 333.137 474.728 C 331.969 480.323, 329.241 487.575, 328.561 486.894 C 328.334 486.667, 329.041 483.836, 330.132 480.603 C 331.224 477.370, 332.343 470.850, 332.620 466.113 L 333.122 457.500 328.658 462.363 C 326.203 465.037, 323.373 468.749, 322.369 470.613 C 321.366 472.476, 320.310 473.991, 320.023 473.980 C 319.735 473.969, 318.232 471.832, 316.683 469.230 C 313.755 464.315, 308.516 458, 307.366 458 C 307.002 458, 306.980 461.587, 307.318 465.972" stroke="none"  fill-rule="evenodd"/>
</svg>