<svg xmlns="http://www.w3.org/2000/svg" width="640" height="640" viewBox="0 0 640 640" version="1.1">
	<path d="M 270 157.663 C 238.529 159.339, 207.023 162.550, 192.896 165.522 C 188.872 166.368, 184.213 167.870, 182.540 168.859 L 179.500 170.658 179.745 180.079 C 180.065 192.401, 184.372 295.704, 187.497 366 C 188.853 396.525, 190.244 428.700, 190.588 437.500 C 191.079 450.100, 191.610 454.350, 193.085 457.500 C 196.295 464.352, 208.070 470.859, 224.714 474.977 C 236.453 477.881, 258.402 480.796, 278.292 482.090 C 298.972 483.436, 362.140 482.771, 377.500 481.046 C 405.948 477.850, 420.413 474.699, 432.565 469.051 C 441.883 464.721, 447.667 459.511, 448.426 454.765 C 448.713 452.969, 450.323 419.550, 452.003 380.500 C 453.683 341.450, 456.401 278.450, 458.043 240.500 L 461.028 171.500 458.934 169.775 C 456.243 167.558, 452.055 166.388, 438.500 164.066 C 424.985 161.751, 400.360 159.338, 376.639 158.004 C 360.909 157.120, 284.774 156.876, 270 157.663 M 283.250 161.065 C 256.420 161.927, 238.251 163.260, 215 166.073 C 198.215 168.105, 185 170.740, 185 172.055 C 185 173.028, 187.561 173.598, 200 175.392 C 227.404 179.343, 265.892 181.229, 319.500 181.248 C 363.381 181.263, 394.280 180.132, 422.278 177.486 C 438.908 175.915, 455 173.205, 455 171.976 C 455 170.850, 443.748 168.417, 430 166.570 C 409.881 163.867, 383.830 162.003, 352.213 161.005 C 318.951 159.956, 317.748 159.957, 283.250 161.065 M 183.448 184.610 C 183.789 189.500, 185.181 220.500, 186.540 253.500 C 187.900 286.500, 189.932 333.975, 191.056 359 L 193.100 404.500 195.800 406.771 C 202.072 412.045, 219.255 418.299, 238.685 422.380 C 245.183 423.745, 258.150 425.886, 267.500 427.138 C 282.402 429.134, 288.819 429.418, 319.500 429.441 C 356.873 429.468, 367.420 428.637, 395.500 423.453 C 412.194 420.372, 424.467 416.789, 434.500 412.069 C 448.030 405.704, 446.689 409.603, 448.456 371.500 C 450.314 331.443, 452.447 282.043, 454.456 232.500 C 455.282 212.150, 456.232 191.049, 456.569 185.608 C 457.130 176.534, 457.039 175.771, 455.465 176.375 C 452.039 177.690, 436.165 180.077, 421.500 181.482 C 392.931 184.220, 353.240 185.274, 301.500 184.666 C 253.302 184.101, 233.815 183.286, 212.500 180.945 C 201.499 179.737, 187.215 177.403, 184.539 176.377 C 182.976 175.777, 182.882 176.489, 183.448 184.610 M 450.653 195.678 C 450.357 197.230, 448.665 221.450, 446.893 249.500 C 445.121 277.550, 443.543 300.664, 443.388 300.864 C 443.232 301.065, 441.168 300.300, 438.802 299.164 C 434.110 296.912, 423.084 293.788, 413.250 291.924 L 407 290.740 407 283.271 C 407 275.051, 405.269 270.061, 401.579 267.643 C 400.341 266.833, 384.068 261.867, 365.415 256.609 C 346.762 251.351, 329.928 246.587, 328.007 246.024 C 326.085 245.461, 322.539 245, 320.126 245 C 315.196 245, 242.056 265.262, 238.444 267.629 C 234.738 270.057, 233 275.038, 233 283.230 L 233 290.657 222.400 292.881 C 213.357 294.779, 205.173 297.297, 197.750 300.467 C 196.254 301.105, 196.005 300.654, 196.031 297.357 C 196.049 295.236, 194.586 271.225, 192.781 244 C 189.343 192.137, 187.972 188.513, 189.943 236.500 C 191.806 281.842, 193.980 323.922, 195.060 335.500 C 197.114 357.540, 202.796 378.781, 209.979 391.273 C 213.864 398.030, 213.867 398.041, 211.010 396.007 C 208.157 393.975, 202.455 386.748, 199.960 382 C 199.237 380.625, 197.589 376.575, 196.297 373 L 193.948 366.500 194.562 383 C 195.058 396.333, 195.509 399.980, 196.911 402 C 201.019 407.918, 219.059 414.883, 242 419.407 C 295.496 429.957, 362.059 428.820, 411.051 416.519 C 422.289 413.697, 429.642 411.007, 436.418 407.236 C 444.406 402.792, 444.749 401.870, 445.450 383 L 446.063 366.500 443.781 373 C 440.093 383.509, 432.842 394.409, 427.712 397.154 C 425.700 398.231, 425.700 398.231, 427.721 395.366 C 431.431 390.108, 434.767 382.563, 437.838 372.484 C 441.430 360.694, 443.558 350.050, 444.929 337 C 446.552 321.562, 452.282 194.440, 451.412 193.178 C 451.290 193.002, 450.948 194.127, 450.653 195.678 M 317.500 248.795 C 312.355 249.770, 243.400 269.298, 242.664 269.988 C 242.204 270.420, 259.416 276.638, 280.914 283.806 L 320 296.840 359.086 283.806 C 380.584 276.638, 397.796 270.417, 397.336 269.983 C 396.447 269.143, 328.925 250.132, 323 249.053 C 321.075 248.703, 318.600 248.587, 317.500 248.795 M 313 254.985 C 311.625 255.439, 300.927 258.618, 289.226 262.049 C 277.526 265.479, 268.147 268.481, 268.386 268.719 C 268.881 269.214, 296.333 262.316, 308.926 258.532 C 313.561 257.139, 318.671 256, 320.282 256 C 321.893 256, 325.914 256.700, 329.216 257.556 C 332.519 258.412, 335.440 258.894, 335.706 258.627 C 336.535 257.799, 322.474 253.996, 318.892 254.079 C 317.026 254.122, 314.375 254.530, 313 254.985 M 237.448 275.274 C 237.180 275.974, 237.081 286.433, 237.230 298.516 L 237.500 320.485 247 321.675 C 257.668 323.011, 284.777 324.739, 304.750 325.357 L 318 325.767 318 312.967 L 318 300.167 278.750 287.083 C 257.162 279.887, 239.148 274, 238.718 274 C 238.289 274, 237.717 274.573, 237.448 275.274 M 360.750 287.151 L 322 300.167 322 312.979 L 322 325.792 336.750 325.356 C 355.060 324.816, 378.099 323.352, 392.268 321.828 L 403.036 320.670 402.768 297.598 C 402.540 277.980, 402.275 274.497, 401 274.331 C 400.175 274.223, 382.063 279.992, 360.750 287.151 M 219.185 296.527 C 207.797 299.161, 198.301 303.053, 197.376 305.463 C 195.680 309.883, 206.237 314.668, 225.981 318.430 L 233 319.768 233 306.884 C 233 295.254, 232.830 294.007, 231.250 294.070 C 230.287 294.108, 224.858 295.214, 219.185 296.527 M 407 306.796 L 407 319.768 414.019 318.430 C 433.587 314.702, 444.319 309.879, 442.661 305.558 C 442.351 304.751, 440.269 303.158, 438.035 302.018 C 433.870 299.893, 418.840 295.666, 411.250 294.485 L 407 293.824 407 306.796 M 242.893 311.995 C 246.138 313.414, 268.788 317.535, 283.500 319.384 C 296.593 321.029, 312.093 322.261, 310.500 321.530 C 309.632 321.132, 255.514 312.877, 244.500 311.462 C 241.096 311.025, 240.857 311.104, 242.893 311.995 M 367.500 315.502 C 352.650 317.831, 337.800 320.220, 334.500 320.810 C 328.666 321.853, 328.750 321.868, 337.500 321.369 C 342.450 321.086, 352.960 319.965, 360.855 318.878 C 375.270 316.893, 398.921 312.413, 399.841 311.493 C 400.833 310.500, 393.928 311.356, 367.500 315.502 M 438.751 315.068 C 434.654 317.230, 419.295 321.490, 411.750 322.556 L 407 323.227 406.996 349.864 C 406.993 374.837, 406.866 376.707, 404.970 379.818 C 403.767 381.790, 401.233 383.883, 398.723 384.977 C 396.400 385.989, 392.700 387.591, 390.500 388.536 L 386.500 390.254 396.235 392.594 C 401.590 393.881, 407.288 395.614, 408.897 396.447 C 410.507 397.279, 412.932 399.376, 414.285 401.105 L 416.746 404.250 420.766 398.875 C 422.976 395.919, 426.345 390.350, 428.252 386.500 C 436.213 370.425, 439.919 353.296, 442.475 320.750 C 442.810 316.488, 442.952 313.020, 442.792 313.044 C 442.631 313.069, 440.813 313.979, 438.751 315.068 M 198.185 325.694 C 199.187 342.038, 200.621 351.596, 204.081 365 C 207.260 377.314, 213.565 391.299, 219.586 399.392 L 223.226 404.285 225.701 401.123 C 227.062 399.383, 229.536 397.257, 231.198 396.397 C 232.861 395.538, 238.712 393.827, 244.202 392.596 L 254.183 390.357 245.875 386.920 C 239.550 384.302, 237.023 382.673, 235.284 380.093 C 233.047 376.774, 233 376.153, 233 350.036 L 233 323.367 223.721 321.619 C 218.618 320.658, 211.306 318.759, 207.471 317.399 C 203.637 316.038, 199.816 314.692, 198.980 314.406 C 197.651 313.952, 197.551 315.365, 198.185 325.694 M 237 349.833 C 237 375.438, 237.039 375.932, 239.250 378.415 C 240.784 380.138, 253.290 385.881, 278.570 396.471 C 298.958 405.012, 316.170 412, 316.820 412 C 317.708 412, 318 401.767, 318 370.659 L 318 329.318 295.750 328.656 C 275.276 328.046, 249.101 326.048, 240.535 324.441 L 237 323.777 237 349.833 M 390 325.542 C 376.712 327.318, 349.824 329, 334.723 329 L 322 329 322 370.500 C 322 401.730, 322.292 412, 323.180 412 C 324.124 412, 389.003 385.145, 398.365 380.879 C 399.693 380.274, 401.279 378.683, 401.890 377.343 C 402.611 375.761, 403 365.977, 403 349.453 C 403 325.827, 402.874 324.010, 401.250 324.136 C 400.288 324.211, 395.225 324.844, 390 325.542 M 252.500 393.654 C 236.056 397.128, 229.869 399.507, 227.948 403.098 C 225.623 407.442, 232.735 411.627, 249.689 415.891 C 273.843 421.966, 312.203 424.369, 347 421.988 C 378.481 419.833, 405.057 413.826, 410.975 407.527 C 413.150 405.212, 413.189 404.937, 411.671 402.621 C 409.711 399.630, 401.982 396.614, 390.495 394.357 C 383.148 392.913, 381.415 392.869, 377.746 394.035 L 373.500 395.385 380.500 396.123 C 394.247 397.573, 405 401.727, 405 405.587 C 405 407.003, 399.464 410.993, 397.500 410.993 C 396.950 410.993, 397.962 410.101, 399.750 409.011 C 401.538 407.921, 403 406.416, 403 405.667 C 403 403.316, 394.014 400.113, 380.300 397.577 L 372.100 396.061 348.576 406.030 C 329.213 414.237, 324.159 416, 320 416 C 315.842 416, 310.792 414.239, 291.468 406.049 L 267.988 396.099 260.244 397.579 C 244.943 400.505, 237 403.268, 237 405.667 C 237 406.416, 238.463 407.921, 240.250 409.011 C 242.037 410.101, 243.050 410.993, 242.500 410.993 C 241.950 410.993, 240.007 410.082, 238.182 408.970 C 236.202 407.762, 234.992 406.294, 235.182 405.329 C 235.978 401.281, 246.188 397.468, 259.363 396.300 C 265.697 395.738, 266.044 395.590, 263.863 394.381 C 261.571 393.110, 256.586 392.791, 252.500 393.654 M 193.463 414.872 C 193.737 417.417, 194.243 427.600, 194.587 437.500 L 195.213 455.500 199.509 459.640 C 202.459 462.483, 206.420 464.794, 212.152 467.018 C 245.399 479.915, 331.688 483.641, 394.765 474.903 C 418.058 471.676, 435.659 465.569, 441.788 458.588 L 444.779 455.182 445.406 438.341 C 445.751 429.078, 446.273 418.908, 446.567 415.741 L 447.101 409.982 440.776 413.459 C 428.289 420.323, 402.925 427.066, 377 430.414 C 345.601 434.470, 303.775 434.897, 272.150 431.487 C 242.295 428.267, 216.521 422.066, 201.355 414.455 L 192.963 410.244 193.463 414.872 M 199.373 420.750 C 199.665 422.262, 200.206 430.597, 200.574 439.270 C 201.348 457.490, 201.690 458.289, 210.482 462.448 C 221.247 467.541, 241.902 471.345, 274 474.146 C 292.471 475.758, 346.936 475.750, 366.500 474.133 C 406.590 470.819, 431.617 464.742, 437.059 457 C 438.463 455.002, 439.022 450.891, 439.841 436.516 C 440.404 426.625, 440.737 418.404, 440.581 418.247 C 440.424 418.091, 436.098 419.585, 430.966 421.566 C 425.834 423.548, 414.646 426.953, 406.104 429.133 C 397.561 431.312, 390.387 433.280, 390.162 433.505 C 389.402 434.264, 421.940 429.152, 423.334 428.292 C 424.102 427.819, 423.834 434.981, 422.379 453.840 C 421.821 461.067, 421.759 461.203, 418.373 462.617 C 412.784 464.953, 395.354 468.806, 383 470.438 C 364.345 472.902, 345.026 473.992, 320 473.992 C 294.984 473.992, 275.373 472.887, 257.500 470.469 C 244.815 468.754, 227.046 464.882, 221.800 462.690 L 218.195 461.183 217.581 452.342 C 217.244 447.479, 216.714 439.950, 216.403 435.612 C 215.879 428.294, 215.969 427.774, 217.647 428.418 C 220.513 429.518, 241.872 433.006, 245.349 432.942 C 247.082 432.910, 241.750 431.161, 233.500 429.056 C 225.250 426.951, 214.292 423.602, 209.150 421.614 C 204.007 419.626, 199.584 418, 199.320 418 C 199.057 418, 199.080 419.238, 199.373 420.750 M 249.333 433.667 C 249.700 434.033, 250.300 434.033, 250.667 433.667 C 251.033 433.300, 250.733 433, 250 433 C 249.267 433, 248.967 433.300, 249.333 433.667" stroke="none"  fill-rule="evenodd"/>
</svg>