<?xml version="1.0" encoding="UTF-8" standalone="no"?>
<!DOCTYPE svg PUBLIC "-//W3C//DTD SVG 1.1//EN" "http://www.w3.org/Graphics/SVG/1.1/DTD/svg11.dtd">
<svg width="100%" height="100%" viewBox="0 0 2550 3300" version="1.1" xmlns="http://www.w3.org/2000/svg" xmlns:xlink="http://www.w3.org/1999/xlink" xml:space="preserve" xmlns:serif="http://www.serif.com/" style="fill-rule:evenodd;clip-rule:evenodd;stroke-linejoin:round;stroke-miterlimit:2;">
    <g transform="matrix(1.34631,0,0,1.34631,337.25,202.754)">
        <g transform="matrix(1,0,0,1,-250.5,-48)">
            <g id="change1_1">
                <path d="M192.174,17.813C192.321,17.164 192.608,16.535 192.908,15.935C193.129,15.492 193.515,15.259 194.001,15.614C194.2,15.946 193.933,16.151 193.829,16.394C192.851,18.674 193.206,19.914 195.233,21.296C195.373,21.391 195.519,21.479 195.654,21.581C195.882,21.752 196.112,21.934 195.933,22.268C195.775,22.563 195.526,22.598 195.217,22.535C193.421,22.168 191.76,19.649 192.174,17.813ZM286.95,16.712C287.199,16.716 287.38,16.591 287.508,16.404C287.729,16.08 287.505,15.878 287.262,15.726C286.93,15.518 286.57,15.355 286.234,15.152C284.885,14.335 283.97,13.318 284.562,11.578C284.649,11.324 284.609,11.014 284.253,10.855C283.884,10.84 283.708,11.095 283.544,11.413C282.487,13.456 284.546,16.663 286.95,16.712ZM283.572,38.246C282.91,37.269 281.616,37.157 280.954,36.202C280.237,35.17 280.701,33.993 280.384,32.749C279.356,33.571 279.151,35.443 279.819,36.599C280.637,38.015 282.208,38.73 283.572,38.246ZM237.597,15.436C235.209,14.043 234.151,12.081 234.486,9.398C233.322,10.412 233.307,12.295 234.178,13.729C235.088,15.227 236.11,15.818 237.597,15.436ZM368.548,69.093C368.838,69.162 369.101,69.204 369.291,68.919C369.553,68.526 369.307,68.258 368.999,68.113C367.495,67.401 366.31,66.493 366.467,64.581C366.491,64.288 366.226,64.089 365.889,64.122C365.62,64.148 365.528,64.344 365.483,64.576C365.429,64.849 365.374,65.122 365.357,65.208C365.412,67.089 366.787,68.674 368.548,69.093ZM227.172,44.222C227.6,44.293 227.981,44.35 228.109,43.842C228.222,43.397 227.822,43.231 227.523,43.173C225.965,42.868 225.32,41.801 225.055,40.37C225.029,40.233 224.873,40.121 224.754,39.967C223.892,40.227 223.998,40.866 224.159,41.451C224.582,42.988 225.553,43.951 227.172,44.222ZM421.863,60.553C422.144,60.663 422.426,60.734 422.608,60.439C422.773,60.172 422.703,59.872 422.464,59.678C421.603,58.983 420.952,58.177 420.847,57.018C420.825,56.775 420.573,56.685 420.323,56.652C419.968,56.697 419.946,56.979 419.91,57.264C419.753,58.489 420.715,60.105 421.863,60.553ZM384.541,42.163C384.82,42.367 385.191,42.48 385.452,42.17C385.711,41.863 385.541,41.539 385.282,41.289C384.59,40.619 383.937,39.931 383.83,38.902C383.801,38.631 383.55,38.59 383.338,38.53C382.872,38.564 382.848,38.907 382.835,39.252C382.784,40.584 383.554,41.444 384.541,42.163ZM412.177,51.7C412.4,51.875 412.717,51.936 412.947,51.728C413.252,51.452 413.162,51.099 412.916,50.844C412.378,50.285 411.747,49.805 411.706,48.922C411.691,48.607 411.432,48.439 411.116,48.473C410.643,48.525 410.722,48.924 410.694,49.106C410.626,50.395 411.375,51.07 412.177,51.7ZM398.378,74.958C398.665,75.041 398.97,75.068 399.125,74.791C399.269,74.534 399.191,74.197 398.94,74.046C398.269,73.641 397.959,73.013 397.704,72.319C397.601,72.037 397.344,71.863 397.036,71.969C396.725,72.076 396.717,72.38 396.715,72.661C396.701,73.635 397.472,74.696 398.378,74.958ZM196.696,20.998C196.924,21.151 197.194,21.349 197.437,21.077C197.712,20.769 197.604,20.436 197.31,20.201C196.622,19.649 195.914,19.122 195.214,18.584C195.091,18.669 194.967,18.754 194.843,18.839C194.849,20.008 195.863,20.439 196.696,20.998ZM238.129,14.732C238.288,14.766 238.454,14.786 238.574,14.623C238.721,14.425 238.745,14.173 238.626,14.005C238.184,13.381 237.682,12.807 236.822,12.33C236.663,13.447 237.329,14.565 238.129,14.732ZM228.676,43.229C228.846,43.367 229.07,43.46 229.284,43.517C229.648,43.614 229.768,43.361 229.85,42.975C229.553,42.303 228.82,42.059 228.214,41.7C227.97,41.556 227.565,41.769 227.577,42.067C227.603,42.718 228.257,42.89 228.676,43.229ZM285.397,37.508C285.501,36.604 284.805,35.618 284.102,35.648C283.957,35.655 283.774,35.769 283.687,35.89C283.554,36.075 283.535,36.315 283.708,36.506C284.165,37.012 284.724,37.345 285.397,37.508ZM288.361,14.943C288.706,14.274 288.173,13.855 287.833,13.399C287.743,13.279 287.571,13.219 287.254,13.012C286.766,13.999 287.306,14.502 287.781,14.998C287.946,15.171 288.26,15.139 288.361,14.943ZM370.692,67.823C370.983,67.878 371.236,67.775 371.279,67.357C371.11,66.806 370.673,66.512 370.087,66.456C369.766,66.426 369.564,66.655 369.612,66.978C369.701,67.581 370.199,67.729 370.692,67.823ZM387.129,41.565C387.327,41.62 387.512,41.369 387.603,40.992C387.395,40.671 387.31,40.117 386.716,40.015C386.49,39.976 386.281,40.218 386.287,40.453C386.299,41.008 386.603,41.418 387.129,41.565ZM400.425,74.563C400.695,74.467 400.876,74.29 400.857,73.975C400.838,73.642 400.615,73.495 400.32,73.519C400.011,73.544 399.84,73.757 399.882,74.075C399.921,74.371 400.099,74.55 400.425,74.563ZM423.628,60.263C423.948,60.218 424.035,59.979 424.027,59.692C424.02,59.441 423.863,59.299 423.617,59.3C423.329,59.301 423.045,59.406 423.071,59.736C423.092,60.009 423.322,60.195 423.628,60.263ZM413.561,50.503C413.766,50.486 413.98,50.393 413.994,50.069C413.974,49.846 413.752,49.755 413.556,49.738C413.331,49.718 413.154,49.858 413.155,50.125C413.155,50.395 413.332,50.523 413.561,50.503ZM500.7,21.522C500.6,22.061 500.182,22.284 499.811,22.522C492.739,27.067 485.377,30.963 477.18,33.147C470.993,34.795 464.797,34.821 458.521,33.892C451.397,32.837 444.548,30.668 437.607,28.871C434.929,28.178 432.189,27.74 429.563,26.84C428.7,26.544 427.784,26.526 426.878,26.482C426.432,26.46 425.969,26.5 425.558,26.331C423.303,26.471 421.049,26.633 418.797,26.829C416.285,27.049 413.776,27.283 411.269,27.536C414.245,28.038 417.127,28.975 419.921,30.268C422.949,31.669 425.92,33.196 428.913,34.673C429.216,34.823 429.52,34.991 429.78,35.203C430.676,35.935 430.567,36.787 429.524,37.334C429.425,37.386 429.317,37.425 429.209,37.458C424.875,38.753 420.446,39.285 415.962,38.679C411.33,38.052 407.661,35.543 404.476,32.25C403.728,31.476 402.973,30.722 402.113,30.06C400.607,28.9 398.976,29.052 397.279,29.4C396.763,29.506 396.313,29.527 395.904,29.498C391.147,30.249 386.415,31.134 381.724,32.229C367.105,35.642 352.5,39.109 337.916,42.664C339.974,42.632 342.035,42.687 344.096,42.822C350.509,43.243 356.739,44.702 362.75,46.979C364.046,47.47 364.849,47.275 365.885,46.372C369.854,42.912 374.562,40.906 379.673,39.79C379.761,39.77 379.851,39.751 379.94,39.736C380.201,36.991 382.327,34.939 385.043,34.969C387.829,35 390.213,37.403 390.23,40.199C390.247,43.106 388.025,45.341 385.099,45.359C382.432,45.375 380.362,43.603 379.97,41.137C378.841,41.541 377.691,41.887 376.559,42.284C373.166,43.474 370.062,45.207 367.169,47.327C366.905,47.52 366.573,47.672 366.544,48.069C366.575,48.337 366.782,48.444 366.989,48.53C373.788,51.333 380.446,54.489 387.559,56.497C389.046,56.917 390.203,56.832 391.497,55.938C395.399,53.241 399.914,52.141 404.488,51.259C405.596,51.045 406.724,50.935 407.829,50.71C408.092,50.657 408.306,50.652 408.472,50.721C408.414,50.416 408.384,50.098 408.399,49.762C408.507,47.385 410.344,45.485 412.739,45.472C414.989,45.46 416.786,47.388 416.772,49.799C416.757,52.213 414.802,54.208 412.481,54.093C410.973,54.018 409.462,53.095 408.779,51.639C408.644,51.872 408.319,51.929 408.083,51.988C406.44,52.397 404.778,52.728 403.133,53.131C399.83,53.939 396.599,54.963 393.553,56.505C393.201,56.684 392.852,56.871 392.516,57.078C392.439,57.126 392.423,57.272 392.317,57.516C394.771,58.226 397.277,58.435 399.77,58.706C404.355,59.205 408.923,58.917 413.49,58.433C414.276,58.35 415.075,58.357 415.867,58.381C416.222,58.391 416.718,58.263 416.934,58.57C416.884,56.118 419.162,54.026 421.53,53.991C424.359,53.95 426.597,56.054 426.617,58.775C426.637,61.517 424.447,63.673 421.659,63.658C418.998,63.643 417.149,61.871 416.962,59.273C416.793,59.539 416.382,59.559 416.04,59.605C415.145,59.726 414.247,59.832 413.357,59.986C404.628,61.498 396.007,60.899 387.463,58.691C386.936,58.554 386.405,58.294 385.717,58.478C385.785,59.413 386.312,60.161 386.7,60.94C388.39,64.339 390.767,67.191 393.695,69.596C394.057,69.893 394.391,70.222 394.733,70.543C395.552,69.505 396.845,68.879 398.48,68.862C400.987,68.836 403.125,70.813 403.07,73.323C403.015,75.855 401.357,78.003 398.36,78.116C395.803,78.213 393.788,76.128 393.775,73.497C393.771,72.832 393.882,72.224 394.084,71.678C393.994,71.62 393.902,71.564 393.814,71.504C389.373,68.496 386.052,64.577 384.255,59.485C383.758,58.078 382.958,57.315 381.518,56.846C376.507,55.214 371.759,52.909 366.894,50.902C363.543,49.519 360.158,48.235 356.677,47.216C356.082,47.042 355.495,46.834 354.784,46.828C354.382,47.56 354.564,48.34 354.664,49.097C355.205,53.211 357.012,56.745 359.673,59.873C360.663,61.037 361.701,62.162 362.715,63.306C362.903,63.517 363.087,63.732 363.269,63.947C364.038,62.04 365.952,60.715 368.264,60.715C371.587,60.715 373.947,63.066 373.931,66.363C373.916,69.451 371.661,71.59 368.466,71.546C365.338,71.503 362.936,69.056 362.901,65.878C362.898,65.669 362.935,65.471 362.957,65.269C362.847,65.226 362.74,65.163 362.646,65.076C358.096,60.883 353.843,56.507 353.331,49.844C353.297,49.393 353.222,48.945 353.164,48.496C352.853,46.101 352.842,46.154 350.444,45.661C344.458,44.431 338.403,44.44 332.348,44.687C330.754,44.752 329.168,44.983 327.582,45.215C322.64,46.437 317.696,47.653 312.761,48.901C318.172,48.999 323.455,50.276 328.644,52.442C334.103,54.72 339.112,57.814 344.043,61.037C348.83,64.166 353.586,67.343 358.354,70.5C358.637,70.688 358.931,70.866 359.188,71.086C359.609,71.446 360.169,71.79 359.852,72.474C359.582,73.056 359.032,73.181 358.425,73.19C356.948,73.212 355.498,72.92 354.029,72.825C347.094,72.377 340.149,72.016 333.362,70.285C327.84,68.876 323.236,65.87 318.893,62.35C317.045,60.852 315.193,59.359 313.332,57.877C308.933,54.373 303.842,52.901 298.305,53.087C297.688,53.108 297.05,53.093 296.411,53.119C295.433,53.374 294.454,53.621 293.476,53.877C293.468,53.882 293.46,53.885 293.453,53.889C293.304,53.983 293.159,54.011 293.025,53.994C291.763,54.324 290.497,54.64 289.235,54.972C283.559,56.469 277.85,57.83 272.107,59.027C275.829,59.136 279.511,59.63 283.156,60.654C288.628,62.192 293.605,64.717 298.2,67.967C307.191,74.325 316.535,80.065 326.49,84.791C326.845,84.96 327.208,85.15 327.502,85.406C328.367,86.158 328.185,87.069 327.087,87.469C325.682,87.982 324.176,87.967 322.727,88.057C313.801,88.613 305.105,87.57 296.799,84.039C292.135,82.056 288.114,79.202 284.751,75.401C281.972,72.261 279.164,69.146 276.153,66.222C275.952,66.027 275.716,65.866 275.497,65.69C275.38,65.582 275.263,65.474 275.146,65.366C275.053,65.207 274.924,65.104 274.73,65.101C274.69,64.929 274.575,64.838 274.417,64.795C274.461,64.953 274.551,65.068 274.724,65.107C274.725,65.302 274.83,65.43 274.989,65.523C275.09,65.649 275.19,65.775 275.291,65.901C279.935,71.582 282.074,78.513 284.883,85.111C285.151,85.741 285.501,86.448 284.838,86.977C284.303,87.404 283.644,87.184 283.077,86.861C278.73,84.384 274.556,81.679 271.297,77.79C269.345,75.46 268.334,72.742 267.99,69.747C267.783,67.951 267.553,66.158 267.323,64.365C267.2,63.398 266.859,62.504 266.386,61.655C266.076,61.097 265.953,60.619 265.998,60.227C264.183,60.559 262.367,60.892 260.543,61.179C254.843,62.078 249.104,62.647 243.338,63.033C233.774,63.675 224.203,63.766 214.63,63.617C214.126,63.609 213.622,63.592 213.117,63.582C224.046,65.878 234.055,70.356 243.065,77.254C248.324,81.279 253.683,85.169 259.338,88.634C259.674,88.839 260.016,89.061 260.289,89.339C261.057,90.12 260.858,90.878 259.793,91.231C259.367,91.372 258.914,91.477 258.468,91.504C256.322,91.633 254.174,91.729 252.028,91.837C244.622,91.934 238.025,89.662 232.166,85.142C228.483,82.301 225.008,79.221 221.69,75.976C216.615,71.011 210.889,67.05 204.397,64.188C203.519,63.801 202.664,63.378 201.695,63.226C201.617,63.213 201.552,63.175 201.477,63.157C198.059,62.966 194.642,62.721 191.231,62.377C180.292,61.273 169.476,59.566 158.765,57.348C161.406,58.816 163.856,60.602 166.121,62.689C166.537,63.073 167.028,63.41 167.341,63.866C168.864,66.084 171.141,66.458 173.571,66.529C180.256,66.722 186.669,68.187 192.838,70.739C197.107,72.505 200.925,75.03 204.561,77.85C207.156,79.862 209.761,81.861 212.362,83.865C212.542,84.003 212.736,84.123 212.907,84.269C213.324,84.625 213.589,85.054 213.333,85.607C213.104,86.103 212.629,86.141 212.165,86.085C211.437,85.999 210.716,85.843 209.987,85.771C206.558,85.433 203.131,85.074 199.697,84.796C194.052,84.34 188.928,82.387 184.065,79.586C180.172,77.344 176.663,74.58 173.168,71.79C173.075,71.682 172.957,71.547 172.828,71.677C172.702,71.804 172.828,71.931 172.933,72.029C176.351,78.429 177.212,85.552 178.712,92.494C178.772,92.768 178.769,93.057 178.771,93.34C178.775,94.849 178.219,95.232 176.899,94.536C175.493,93.794 174.243,92.805 173.017,91.8C168.585,88.168 165.409,83.631 163.309,78.31C161.88,74.689 162.142,70.996 162.709,67.278C162.879,66.162 163.055,65.047 163.221,63.93C163.388,62.808 162.958,61.992 162.041,61.315C159.183,59.204 156.1,57.504 152.863,56.063C144.497,54.178 136.191,51.999 127.941,49.538C120.818,47.413 113.725,45.188 106.627,42.981C112.953,46.351 118.498,50.822 123.137,56.623C127.108,61.587 131.736,65.943 136.476,70.17C136.94,70.584 137.384,71.022 137.815,71.47C138.231,71.904 138.471,72.421 138.202,73.014C137.941,73.588 137.38,73.549 136.873,73.532C135.05,73.469 133.313,72.93 131.556,72.522C126.327,71.309 121.086,70.135 116.05,68.222C108.923,65.516 103.45,60.754 99.09,54.608C97.35,52.156 95.906,49.527 94.541,46.853C92.969,43.772 91.299,40.754 89.02,38.12C88.857,37.933 88.661,37.739 88.571,37.515C86.039,36.773 83.51,36.019 80.968,35.311C76.228,33.993 71.521,32.512 66.618,31.879C64.545,31.612 62.47,31.362 60.368,31.331C59.56,31.319 58.751,31.308 57.942,31.296C62.389,32.319 66.674,33.859 70.703,36.208C74.921,38.667 78.378,41.984 81.532,45.65C83.12,47.495 84.676,49.369 86.233,51.24C86.711,51.813 87.198,52.454 86.861,53.236C86.491,54.096 85.652,54.155 84.834,54.154C84.325,54.152 83.815,54.153 83.305,54.153C76.308,54.134 70.364,51.386 64.971,47.143C61.13,44.12 57.648,40.724 54.362,37.125C52.664,35.266 50.779,33.671 48.578,32.452C48.05,32.159 47.606,31.825 47.323,31.295C46.175,31.321 45.027,31.352 43.881,31.406C38.731,31.65 33.687,32.76 28.667,33.928C22.543,35.354 16.596,37.41 10.514,38.982C8.428,39.521 6.332,39.967 4.15,39.864C1.234,39.728 -0.031,37.772 1.125,35.102C1.848,33.433 3.108,32.224 4.566,31.202C6.297,29.989 8.217,29.158 10.202,28.463C14.816,26.848 19.57,25.924 24.422,25.353C27.572,24.982 30.729,24.744 33.886,24.495C37.514,24.209 41.143,24.501 44.738,24.909C45.423,24.987 46.099,25.097 46.782,25.184C46.958,25.079 47.132,24.958 47.316,24.874C49.349,23.951 49.987,22.287 50.076,20.209C50.134,18.858 50.305,17.504 50.538,16.171C51.292,11.845 53.849,8.833 57.564,6.683C60.285,5.109 63.254,4.198 66.261,3.39C66.635,3.289 67.052,3.275 67.441,3.31C68.36,3.394 68.747,3.957 68.406,4.828C68.141,5.506 67.762,6.153 67.349,6.757C63.933,11.755 60.69,16.882 56.588,21.376C56.48,21.494 56.379,21.63 56.49,21.836C57.037,22.045 57.417,21.628 57.859,21.426C62.947,19.093 68.003,16.672 73.345,14.963C79.17,13.099 85.11,12.386 91.246,13.072C96.588,13.669 101.816,14.895 107.129,15.624C107.515,15.677 107.916,15.8 108.253,15.991C108.868,16.342 108.907,17.072 108.384,17.557C108.303,17.632 108.203,17.704 108.099,17.737C103.509,19.194 99.484,22.048 94.787,23.209C91.257,24.081 87.657,24.207 84.009,24.029C79.43,23.806 74.888,23.253 70.335,22.805C68.016,22.577 65.707,22.524 63.388,22.511C59.249,22.487 55.351,23.607 51.516,25.021C50.996,25.213 50.48,25.418 49.96,25.612C65.093,27.838 79.762,32.088 94.407,36.414C98.588,35.114 102.165,32.778 105.66,30.252C110.437,26.8 115.316,23.516 120.715,21.08C126.22,18.595 131.947,16.855 137.962,16.302C143.352,15.807 148.696,16.423 153.953,17.693C156.425,18.291 158.878,18.964 161.335,19.621C161.879,19.767 162.432,19.929 162.928,20.186C164.077,20.781 164.097,21.652 163.011,22.375C162.777,22.531 162.519,22.66 162.257,22.761C155.84,25.244 149.982,28.804 144.026,32.178C138.739,35.173 133.293,37.761 127.28,38.99C121.678,40.135 116.045,40.019 110.386,39.636C107.762,39.458 105.153,39.154 102.542,38.871C110.627,41.344 118.688,43.9 126.784,46.336C127.172,46.158 127.494,45.856 127.839,45.614C132.558,42.317 137.843,40.809 143.536,40.314C149.569,39.791 155.623,39.791 161.655,39.335C162.56,39.335 163.466,39.336 164.372,39.335C164.964,39.334 165.536,39.426 165.791,40.04C166.059,40.686 165.847,41.286 165.368,41.745C164.756,42.331 164.136,42.926 163.442,43.404C158.475,46.821 153.053,49.006 147.027,49.787C144.273,50.144 141.562,50.106 138.874,49.831C147.859,52.296 156.928,54.366 166.072,56.082C166.408,55.847 167.045,56.056 167.455,56.019C171.683,55.64 175.917,55.164 179.96,53.894C183.397,52.814 185.559,50.174 186.764,46.801C187.865,43.716 187.864,40.464 188.074,37.257C188.388,32.437 189.01,27.689 190.896,23.196C190.994,22.96 191.076,22.65 191.194,22.378C190.36,21.317 189.831,20.013 189.814,18.602C189.769,14.961 192.739,12.171 196.671,12.16C199.892,12.15 202.546,14.944 202.559,18.357C202.573,21.95 199.682,24.886 196.142,24.872C194.725,24.867 193.413,24.347 192.343,23.518C192.333,23.545 192.32,23.574 192.311,23.599C190.618,28.804 189.867,34.154 189.613,39.605C189.495,42.141 189.21,44.672 188.419,47.121C187.813,48.996 186.671,50.531 185.512,52.067C185.48,52.15 185.396,52.261 185.424,52.31C185.517,52.474 185.65,52.392 185.769,52.316C189.89,51.225 193.769,49.51 197.588,47.658C204.532,44.291 210.955,40.034 217.526,36.021C219.808,34.628 221.121,33 221.718,30.346C223.139,24.026 226.813,18.941 231.264,14.373C231.391,14.242 231.518,14.106 231.659,13.994C231.424,13.353 231.288,12.649 231.291,11.883C231.3,8.726 233.849,6.116 236.943,6.093C240.019,6.07 242.676,8.719 242.68,11.814C242.684,15.017 240.224,17.453 236.981,17.458C234.933,17.46 233.278,16.608 232.29,15.207C231.986,15.59 231.682,15.974 231.367,16.349C227.613,20.803 224.432,25.581 222.87,31.282C222.783,31.601 222.573,31.903 222.827,32.381C223.42,32.366 223.87,31.928 224.363,31.626C229.192,28.668 234.043,25.751 239.227,23.437C244.385,21.136 249.774,19.791 255.401,19.215C259.956,18.748 264.538,18.623 269.077,17.957C272.298,17.484 275.361,16.562 278.336,15.287C279.063,14.974 279.805,14.694 280.528,14.371C280.576,14.35 280.622,14.337 280.669,14.319C280.628,14.03 280.579,13.742 280.578,13.44C280.288,10.639 282.594,7.237 286.689,7.071C289.321,6.964 293.234,9.34 293.112,13.378C293.007,16.855 290.322,19.648 286.85,19.668C284.156,19.684 281.903,18.031 281.006,15.669C280.858,15.777 280.684,15.859 280.521,15.95C276.554,18.143 272.305,19.347 267.8,19.849C262.352,20.456 256.852,20.544 251.44,21.505C249.041,21.931 246.692,22.547 244.383,23.318C244.085,23.418 243.814,23.601 243.233,23.897C245.987,24.267 248.409,24.396 250.784,24.902C255.172,25.838 259.355,27.407 263.555,28.926C267.704,30.427 271.849,31.932 276.221,32.678C276.546,32.733 276.864,32.836 277.181,32.935C277.99,30.835 280.033,28.877 282.962,28.834C286.346,28.786 289.28,31.744 289.24,35.121C289.199,38.542 286.482,41.205 283.022,41.216C279.415,41.227 276.891,38.636 276.794,35.022C276.786,34.713 276.817,34.391 276.873,34.066C276.131,34.078 275.392,34.046 274.648,33.937C270.188,33.288 266.017,31.679 261.822,30.145C257.413,28.534 253.016,26.873 248.358,26.1C244.828,25.514 241.29,25.175 237.777,26.249C236.081,26.767 234.607,27.736 233.077,28.582C227.474,31.68 222.125,35.198 216.717,38.616C213.127,40.885 209.529,43.14 205.854,45.27C205.38,45.545 204.807,45.715 204.515,46.269C205.019,46.903 205.731,46.766 206.388,46.814C210,47.076 213.494,46.507 216.898,45.317C218.712,44.683 220.519,44.029 222.336,43.404C222.399,43.383 222.465,43.358 222.532,43.332C222.324,42.768 222.191,42.171 222.2,41.539C222.248,38.359 224.514,35.787 227.87,35.873C231.007,35.863 233.492,38.303 233.494,41.394C233.495,44.532 231.064,46.984 227.94,46.996C225.956,47.004 224.153,46 223.116,44.488C223.009,44.541 222.899,44.589 222.795,44.636C217.765,46.913 212.664,48.893 206.968,48.378C205.89,48.28 204.809,48.149 203.83,47.716C202.718,47.224 201.819,47.47 200.798,48.005C195.065,51.008 189.092,53.411 182.798,54.971C178.962,55.922 175.096,56.674 171.17,57.001C174.115,57.51 177.067,57.991 180.027,58.429C188.995,59.756 198.007,60.48 207.067,60.852C212.851,61.09 218.634,61.15 224.415,61.126C224.483,61.035 224.554,60.948 224.617,60.863C227.227,57.37 229.76,53.821 232.841,50.701C237.187,46.299 242.561,43.943 248.501,42.751C253.875,41.672 259.276,40.731 264.669,39.75C265.264,39.641 265.957,39.468 266.36,40.144C266.722,40.752 266.492,41.336 266.139,41.892C262.488,47.633 257.837,52.159 251.286,54.526C245.536,56.604 239.735,58.492 233.784,59.899C232.387,60.229 231.019,60.646 229.657,61.085C231.247,61.065 232.838,61.045 234.428,61.016C250.341,60.717 265.966,58.258 281.408,54.462C286.654,53.172 291.884,51.821 297.112,50.465C297.999,49.929 298.885,49.395 299.801,48.917C300.802,48.395 301.069,47.656 301.047,46.573C301.006,44.499 300.236,42.593 299.847,40.601C298.391,33.162 300.594,26.883 305.768,21.515C305.964,21.312 306.183,21.129 306.403,20.952C306.94,20.517 307.512,20.07 308.244,20.373C309.016,20.693 308.974,21.433 308.976,22.119C308.984,26.651 308.998,31.183 308.998,35.715C308.997,37.607 308.325,39.372 307.92,41.187C307.696,41.401 307.715,41.671 307.735,41.94C307.961,41.822 308.074,41.62 308.142,41.384C308.781,40.654 309.225,39.798 309.637,38.935C314.002,29.778 320.583,22.49 328.596,16.405C332.34,13.563 336.086,10.725 339.832,7.886C340.058,7.715 340.295,7.561 340.525,7.396C341.068,7.008 341.656,6.826 342.266,7.184C342.802,7.499 342.666,8.075 342.665,8.571C342.665,8.908 342.637,9.254 342.556,9.58C340.27,18.774 335.477,26.047 326.709,30.29C324.671,31.277 322.603,32.19 320.507,33.045C319.198,33.578 317.91,34.16 316.616,34.728C314.001,35.876 311.974,37.542 310.773,40.285C309.334,43.573 306.865,46.077 303.882,48.074C303.579,48.277 303.249,48.469 302.957,48.7C302.904,48.799 302.847,48.894 302.794,48.993C309.972,47.133 317.154,45.295 324.377,43.612C329.906,42.324 335.426,40.996 340.945,39.66C343.081,38.545 344.524,36.639 345.685,34.463C346.854,32.272 347.848,29.985 348.888,27.726C350.308,24.643 351.807,21.603 353.531,18.676C358.304,10.57 365.464,5.726 374.421,3.301C378.575,2.177 382.825,1.582 387.064,0.923C388.736,0.662 390.411,0.416 391.84,0.2C392.801,0.275 393.651,0.038 393.959,0.986C394.23,1.819 393.747,2.413 393.156,2.89C390.822,4.773 388.456,6.617 386.128,8.508C378.338,14.831 370.905,21.563 364.094,28.921C361.101,32.155 357.734,34.643 353.975,36.505C362.76,34.381 371.551,32.284 380.377,30.336C384.635,29.397 388.912,28.576 393.208,27.866C393.32,27.704 393.485,27.651 393.664,27.65C393.548,27.25 393.47,26.803 393.455,26.278C393.345,22.478 394.903,19.486 397.75,17.095C399.717,15.443 401.983,14.268 404.287,13.177C411.191,9.91 418.198,6.861 424.99,3.358C426.197,2.736 427.392,2.091 428.602,1.474C429.265,1.136 429.964,0.79 430.649,1.399C431.372,2.043 430.949,2.771 430.686,3.436C427.306,11.981 421.451,18.066 412.879,21.54C409.152,23.051 405.374,24.388 401.556,25.632C400.435,25.997 399.307,26.379 398.363,27.083C401.118,26.688 403.878,26.322 406.649,26.019C413.662,25.252 420.684,24.743 427.718,24.473C436.492,20.901 445.385,17.684 454.616,15.451C459.092,14.368 463.495,14.812 467.86,15.943C473.735,17.466 479.69,18.319 485.75,18.676C489.801,18.916 493.875,19.137 497.868,19.982C498.955,20.212 500.115,20.371 500.7,21.522ZM319.847,26.65C321.887,24.735 324.044,22.942 326.272,21.225C326.61,20.965 327.004,20.721 327.291,21.155C327.596,21.617 327.087,21.842 326.805,22.082C324.138,24.357 321.419,26.572 318.998,29.12C318.144,30.018 317.278,30.904 316.51,31.909C318.323,31.084 319.8,29.784 321.305,28.541C325.144,25.37 328.845,22.043 332.378,18.532C332.539,18.373 332.692,18.202 332.872,18.067C333.25,17.783 333.65,17.179 334.13,17.748C334.498,18.184 334.011,18.572 333.691,18.879C331.53,20.958 329.353,23.021 327.204,25.111C326.711,25.59 326.055,25.934 325.8,26.632C328.027,25.655 329.676,23.887 331.55,22.425C332.268,21.864 332.757,20.961 333.898,20.746C334.105,21.981 333.183,22.44 332.569,22.977C329.892,25.32 327.077,27.486 324.037,29.349C323.341,29.775 322.662,30.233 321.98,30.683C322.947,30.272 323.91,29.853 324.862,29.408C332.836,25.678 337.879,19.494 340.364,11.133C340.516,10.624 340.919,10.112 340.516,9.348C333.289,14.783 325.77,19.854 319.847,26.65ZM325.706,26.715C325.453,26.749 325.394,26.879 325.511,27.098C325.576,26.97 325.641,26.843 325.706,26.715ZM324.763,27.262C325.013,27.298 325.254,27.286 325.473,27.131C325.206,27.007 324.973,27.071 324.763,27.262ZM223.629,41.355C223.607,43.766 225.535,45.725 227.886,45.682C230.203,45.639 232.007,43.772 232.006,41.417C232.005,39.091 230.15,37.175 227.872,37.149C225.649,37.124 223.649,39.106 223.629,41.355ZM278.277,34.984C278.204,37.696 280.279,39.928 282.94,40C285.428,40.066 287.705,37.848 287.762,35.305C287.823,32.498 285.864,30.378 283.153,30.319C280.35,30.257 278.354,32.167 278.277,34.984ZM282.082,13.372C282.101,16.002 284.206,18.153 286.793,18.185C289.41,18.216 291.547,15.976 291.515,13.234C291.482,10.404 289.616,8.528 286.841,8.537C284.056,8.545 282.062,10.571 282.082,13.372ZM232.52,11.78C232.472,14.189 234.505,16.251 236.917,16.239C239.354,16.226 241.178,14.384 241.18,11.934C241.182,9.487 239.342,7.575 236.964,7.553C234.577,7.53 232.567,9.443 232.52,11.78ZM191.321,18.441C191.316,21.195 193.542,23.399 196.295,23.366C198.897,23.336 201.012,21.193 201.022,18.579C201.032,15.977 198.685,13.529 196.086,13.43C193.638,13.336 191.326,15.768 191.321,18.441ZM67.709,18.719C73.947,17.655 80.253,17.405 86.579,17.481C88.965,17.51 91.319,17.052 93.702,17.162C94.098,17.18 94.496,17.167 94.89,17.201C95.156,17.223 95.269,17.457 95.266,17.68C95.263,17.901 95.16,18.122 94.882,18.16C94.043,18.275 93.206,18.456 92.363,18.491C88.293,18.663 84.224,18.866 80.147,18.941C77.018,18.999 73.869,19.153 70.499,19.723C75.868,20.247 80.988,20.509 86.06,21.241C86.173,21.257 86.341,21.443 86.144,21.866C84.616,22.034 82.95,22.005 81.303,21.804C75.955,21.152 70.593,20.802 65.211,20.897C67.958,21.075 70.66,21.386 73.361,21.66C76.394,21.967 79.433,22.21 82.466,22.498C85.817,22.817 89.137,22.691 92.439,22.215C96.999,21.557 100.831,18.984 104.971,17.222C105.047,17.19 105.071,17.038 105.162,16.858C100.154,15.897 95.186,14.817 90.13,14.417C84.565,13.977 79.074,14.582 73.753,16.397C71.708,17.094 69.692,17.863 67.709,18.719ZM51.642,19.43C51.631,19.91 51.544,20.387 51.465,20.871C52.511,19.158 53.387,17.342 54.409,15.615C56.198,12.59 58.782,10.316 61.504,8.176C61.776,7.962 62.059,7.776 62.524,8.116C62.381,9.131 61.461,9.595 60.788,10.152C57.996,12.462 55.875,15.281 54.226,18.478C53.988,18.939 53.545,19.373 53.835,19.973C55.345,18.085 56.853,16.195 58.368,14.312C58.607,14.014 58.879,13.563 59.308,13.907C59.71,14.228 59.419,14.601 59.161,14.931C57.17,17.475 55.111,19.962 52.997,22.405C54.342,21.708 55.416,20.684 56.369,19.544C60.075,15.117 63.191,10.266 66.568,5.253C65.923,5.071 65.535,5.138 65.17,5.249C63.442,5.776 61.73,6.34 60.067,7.062C54.644,9.415 51.777,13.515 51.642,19.43ZM53.199,20.221C53.179,20.155 53.164,20.201 53.199,20.221ZM53.794,20.002C53.59,19.896 53.469,19.975 53.391,20.156C53.526,20.105 53.66,20.054 53.794,20.002ZM58.234,35.807C58.168,35.989 58.226,36.128 58.399,36.225C58.516,36.029 58.377,35.917 58.234,35.807ZM57.502,35.594C57.675,35.849 57.914,35.827 58.163,35.762C57.967,35.611 57.744,35.564 57.502,35.594ZM2.783,37.274C3.006,37.167 3.263,37.09 3.448,37.005C10.072,33.953 16.967,31.8 24.196,30.716C28.833,30.02 33.481,29.553 38.166,29.316C40.347,29.206 42.543,29.141 44.721,28.684C41.275,28.684 37.828,28.697 34.381,28.682C25.658,28.644 17.238,30.201 9.136,33.45C8.875,33.555 8.614,33.663 8.347,33.753C8.101,33.836 7.904,33.752 7.801,33.512C7.701,33.281 7.741,33.023 7.944,32.907C8.38,32.656 8.838,32.437 9.307,32.254C14.832,30.092 20.494,28.527 26.436,27.981C30.665,27.593 34.896,27.141 39.131,27.422C42.387,27.638 45.649,27.749 48.907,27.921C45.863,27.461 42.807,27.107 39.731,26.98C32.483,26.682 25.252,27.037 18.099,28.314C14.137,29.021 10.262,30.083 6.716,32.076C5.218,32.917 3.875,33.962 3.054,35.52C2.65,36.287 2.563,36.868 2.783,37.274ZM34.703,30.676C34.057,30.719 33.409,30.743 32.763,30.796C22.887,31.613 13.294,33.634 4.235,37.806C4.142,37.849 4.043,37.884 3.944,37.914C4.101,37.94 4.264,37.962 4.45,37.972C6.345,38.077 8.152,37.573 9.956,37.106C16.031,35.531 21.963,33.442 28.091,32.054C30.29,31.556 32.492,31.084 34.703,30.676ZM69.554,37.37C65.996,35.344 62.256,33.926 58.385,32.912C61.939,34.309 65.263,36.218 68.643,38.002C69.041,38.212 69.459,38.398 69.824,38.656C70.065,38.827 70.126,39.131 69.945,39.409C69.789,39.647 69.532,39.607 69.338,39.511C68.425,39.062 67.53,38.577 66.62,38.123C64.835,37.231 63.152,36.124 61.217,35.548C61.224,35.863 61.504,35.966 61.709,36.101C67.567,39.945 73.072,44.309 79.112,47.885C79.616,48.183 80.295,48.366 80.457,49.217C79.689,49.907 79.041,49.266 78.411,48.932C73.864,46.515 69.525,43.771 65.438,40.631C63.601,39.219 61.703,37.888 59.711,36.702C59.331,36.475 58.99,35.978 58.433,36.256C61.548,38.866 64.224,41.961 67.479,44.421C67.922,44.756 68.757,45.123 68.12,46.104C66.394,45.06 64.84,43.821 63.514,42.395C60.777,39.454 57.618,37.071 54.354,34.819C55.079,35.522 55.778,36.255 56.464,37.003C59.11,39.889 61.945,42.579 64.987,45.043C68.619,47.985 72.47,50.559 77.084,51.708C79.589,52.331 82.121,52.841 85.082,52.422C80.368,46.656 75.954,41.014 69.554,37.37ZM59.144,34.365C59.154,34.37 59.158,34.395 59.164,34.411C59.245,34.36 59.2,34.348 59.144,34.365ZM59.168,34.417C59.173,34.433 59.184,34.434 59.187,34.459C59.406,34.548 59.58,34.748 59.828,34.765C59.608,34.649 59.388,34.533 59.168,34.417ZM60.515,35.123C60.392,34.926 60.169,34.911 59.979,34.835C60.057,35.117 60.269,35.151 60.515,35.123ZM61.17,35.505C61.122,35.152 60.846,35.189 60.603,35.168C60.595,35.594 60.881,35.552 61.17,35.505ZM186.17,70.016C182.569,68.972 178.901,68.44 175.174,68.146C182.264,69.85 189.235,71.948 195.67,75.927C194.809,76.646 194.223,76.144 193.684,75.877C189.949,74.026 186.131,72.375 182.169,71.071C181.427,70.827 180.707,70.462 179.891,70.506C179.706,70.051 179.2,70.352 178.93,70.098C178.935,70.115 178.948,70.119 178.95,70.141C179.116,70.51 179.437,70.601 179.801,70.614C182.547,72.302 185.586,73.351 188.519,74.632C192.134,76.21 195.752,77.78 199.364,79.364C199.915,79.606 200.555,79.741 200.903,80.461C200.192,81.144 199.531,80.675 198.915,80.41C192.081,77.47 185.042,75.008 178.404,71.608C178.195,71.501 177.957,71.22 177.596,71.478C181.796,74.063 186.094,76.397 190.573,78.393C191.089,78.623 191.593,78.879 192.089,79.149C192.29,79.258 192.437,79.457 192.356,79.708C192.246,80.048 191.936,80.095 191.667,80.018C191.291,79.911 190.941,79.714 190.578,79.562C185.463,77.409 180.715,74.58 175.948,71.776C179.251,74.586 182.833,76.997 186.644,79.123C193.709,83.064 201.46,83.541 209.632,83.962C200.639,76.44 195.592,72.747 186.17,70.016ZM177.019,71.112L177.036,71.014L176.926,71.045L177.019,71.112ZM163.74,72.696C163.773,73.709 163.769,74.717 164.053,75.718C165.852,82.087 169.475,87.208 174.634,91.283C175.362,91.859 176.052,92.54 177.174,92.786C176.013,85.11 174.557,77.643 170.663,71.092C171.533,73.175 172.17,75.348 172.715,77.561C173.064,78.978 173.422,80.394 173.761,81.814C173.836,82.133 173.919,82.487 173.505,82.739C172.868,82.671 172.861,82.128 172.707,81.652C171.705,78.552 171.17,75.312 169.963,72.276C169.283,70.565 168.661,68.805 167.312,67.455C167.319,67.256 167.306,67.063 167.116,66.945C167.104,66.937 167.02,67.002 167.011,67.042C166.966,67.253 167.004,67.434 167.231,67.525C168.62,73.969 169.803,80.479 173.461,86.171C173.739,86.604 174.54,87.218 173.684,87.722C173.004,88.122 172.776,87.282 172.48,86.865C169.787,83.073 168.231,78.809 167.284,74.291C166.759,71.783 166.307,69.253 165.311,66.447C164.988,71.084 165.717,75.15 167.123,79.118C167.329,79.7 167.508,80.293 167.734,80.868C167.856,81.179 167.821,81.46 167.566,81.615C167.132,81.88 166.976,81.482 166.831,81.193C165.948,79.424 165.369,77.54 164.937,75.625C164.307,72.833 164.085,69.994 164.21,67.131C163.935,69.023 163.68,70.847 163.74,72.696ZM137.979,42.626C135.162,43.268 132.492,44.323 129.874,45.983C132.512,46.155 135.131,45.79 137.748,45.568C142.23,45.188 146.65,44.243 151.151,43.978C151.768,43.942 152.376,43.775 152.993,43.738C153.583,43.703 154.264,43.467 154.742,44.401C154.032,44.845 153.342,44.99 152.612,45.034C149.183,45.238 145.805,45.857 142.402,46.283C138.634,46.755 134.856,47.139 131.052,47.086C147.791,51.136 158.898,45.826 163.599,41.001C163.068,40.683 162.491,40.849 161.939,40.858C156.91,40.937 151.891,41.267 146.869,41.524C143.872,41.678 140.898,41.961 137.979,42.626ZM96.34,40.874C96.405,40.884 96.47,40.894 96.535,40.903C96.499,40.813 96.482,40.672 96.34,40.874ZM95.55,40.185C95.651,40.087 95.53,40.118 95.476,40.179C95.505,40.152 95.53,40.154 95.55,40.185ZM101.431,36.382L101.328,36.332L101.314,36.406L101.431,36.382ZM101.426,35.175C107.054,33.49 112.252,30.868 117.187,27.668C119.89,25.915 122.657,24.29 125.637,23.058C126.278,22.793 126.927,22.29 127.694,22.665C127.92,23.272 127.433,23.412 127.118,23.532C122.811,25.176 119.063,27.818 115.168,30.197C111.211,32.613 106.993,34.466 102.404,36.022C103.381,36.364 104.064,35.838 104.791,35.804C105.509,35.771 106.216,35.489 106.928,35.322C113.184,33.858 118.956,31.149 124.69,28.363C131.692,24.961 139.073,22.781 146.695,21.341C147.128,21.26 147.695,21.059 147.832,21.671C147.991,22.383 147.298,22.462 146.848,22.559C143.929,23.192 141.038,23.943 138.168,24.764C134.147,25.915 130.245,27.41 126.461,29.178C120.194,32.106 113.964,35.112 107.175,36.723C114.039,37.245 120.664,36.448 126.979,33.573C131.026,31.731 134.907,29.524 139.097,27.999C139.63,27.805 140.394,26.911 140.782,27.859C141.067,28.556 140.02,28.673 139.501,28.888C136.538,30.12 133.646,31.506 130.819,33.012C123.824,36.74 116.39,38.371 108.486,37.93C108.068,37.906 107.65,37.895 107.232,37.886C108.129,37.962 109.026,38.044 109.924,38.112C114.84,38.483 119.752,38.561 124.646,37.788C130.362,36.886 135.635,34.749 140.684,32.011C145.111,29.612 149.488,27.121 153.929,24.751C156.115,23.584 158.396,22.598 160.992,21.36C158.299,20.372 155.869,19.871 153.464,19.292C146.213,17.545 138.968,17.253 131.653,19.079C123.394,21.142 116.033,24.979 109.172,29.907C106.635,31.729 104.098,33.556 101.426,35.175ZM112.431,48.437C108.654,45.698 104.585,43.568 100.354,41.777C104.615,44.584 108.435,47.955 111.867,51.82C113.447,53.601 115.094,55.304 116.865,56.891C117.034,57.042 117.224,57.17 117.38,57.332C117.662,57.624 117.959,57.956 117.579,58.348C117.257,58.68 116.944,58.4 116.694,58.193C115.91,57.545 115.099,56.92 114.383,56.201C112.987,54.799 111.627,53.358 110.29,51.899C106.797,48.086 102.918,44.734 98.525,41.991C98.243,41.815 98,41.546 97.62,41.592C97.4,41.213 97.053,41.043 96.644,40.976C96.734,41.457 97.103,41.607 97.534,41.685C99.241,43.409 101.153,44.913 102.84,46.665C104.847,48.747 106.691,50.967 108.591,53.141C112.532,57.65 117.224,61.29 122.046,64.779C122.585,65.169 123.175,65.497 123.415,66.174C122.786,66.717 122.32,66.397 121.837,66.085C116.011,62.316 110.641,58.027 106.207,52.632C103.292,49.086 100.191,45.708 96.57,42.851C96.25,42.599 95.987,42.07 95.431,42.459C95.421,42.428 95.426,42.422 95.423,42.403C95.413,42.407 95.404,42.411 95.394,42.414C96.956,44.416 98.471,46.456 100.089,48.412C102.65,51.509 105.596,54.268 108.087,57.432C108.495,57.951 109.004,58.408 109.088,59.11C108.347,59.62 108.005,59.058 107.652,58.648C102.616,52.774 97.004,47.365 93.024,40.635C92.804,40.262 92.495,40.016 92.159,39.799C93.272,41.393 94.321,42.97 95.209,44.646C96.481,47.044 97.76,49.441 99.222,51.731C104.143,59.438 110.71,65.036 119.577,67.744C124.445,69.231 129.398,70.37 134.342,71.553C134.615,71.618 134.895,71.652 135.153,71.437C135.036,70.827 134.504,70.543 134.095,70.18C129.435,66.034 125.119,61.554 121.064,56.816C118.447,53.759 115.71,50.816 112.431,48.437ZM220.162,68.263L220.101,68.353L220.201,68.364L220.162,68.263ZM219.377,69.491C219.322,69.671 219.408,69.82 219.513,69.964C219.666,69.752 219.565,69.61 219.377,69.491ZM218.694,69.259C218.842,69.468 219.057,69.45 219.273,69.43C219.099,69.306 218.904,69.257 218.694,69.259ZM218.563,69.089C218.551,69.06 218.508,69.044 218.479,69.022C218.509,69.055 218.539,69.087 218.569,69.119C218.566,69.109 218.567,69.098 218.563,69.089ZM241.194,77.95C235.136,73.44 228.591,69.97 221.538,67.568C222.082,67.769 222.629,67.956 223.17,68.167C227.778,69.958 231.543,73.043 235.229,76.218C237.036,77.775 238.984,79.116 241,80.371C241.463,80.659 242.055,80.822 242.122,81.586C241.51,82.132 240.996,81.644 240.489,81.387C237.897,80.07 235.65,78.261 233.473,76.369C229.831,73.204 225.996,70.362 221.386,68.734C221.176,68.66 221.003,68.497 220.664,68.749C223.587,70.536 226.358,72.48 228.861,74.74C234.547,79.873 240.993,83.746 248.023,86.708C248.382,86.859 248.715,87.078 249.045,87.288C249.119,87.335 249.131,87.479 249.187,87.616C248.775,88.288 248.163,87.957 247.708,87.777C241.316,85.255 235.341,82.024 230.13,77.471C227.277,74.978 224.333,72.588 221.122,70.559C220.662,70.267 220.248,69.621 219.533,69.985C222.732,72.142 225.601,74.7 228.346,77.391C230.217,79.225 232.23,80.846 234.493,82.16C234.737,82.301 234.98,82.444 235.212,82.603C235.571,82.85 235.82,83.182 235.521,83.593C235.255,83.959 234.919,83.703 234.622,83.555C232.43,82.465 230.423,81.117 228.662,79.404C224.405,75.262 219.972,71.333 214.844,68.278C216.423,69.364 217.937,70.544 219.387,71.821C223.212,75.19 226.867,78.747 230.773,82.029C236.475,86.821 242.809,89.997 250.416,90.263C252.854,90.348 255.239,90.018 257.686,89.598C257.472,89.42 257.276,89.213 257.041,89.069C251.526,85.694 246.37,81.805 241.194,77.95ZM231.165,57.782C231.14,57.709 231.114,57.637 231.09,57.564C231.061,57.65 230.883,57.775 231.165,57.782ZM231.23,54.975C235.922,50.765 241.419,47.81 247.455,45.695C248.166,45.446 248.169,45.456 248.847,45.929C248.525,46.465 247.944,46.542 247.433,46.745C243.347,48.365 239.365,50.19 235.749,52.73C235.431,52.954 235.052,53.11 234.938,53.537C234.514,53.578 234.217,53.818 233.97,54.137C234.414,54.165 234.741,53.954 234.992,53.594C237.765,52.521 240.419,51.16 243.281,50.3C247.913,48.909 252.484,47.344 256.828,45.185C257.079,45.06 257.342,44.959 257.597,44.841C257.897,44.701 258.154,44.748 258.305,45.047C258.453,45.341 258.355,45.597 258.075,45.764C257.737,45.967 257.398,46.171 257.046,46.348C254.027,47.869 250.945,49.236 247.699,50.213C241.878,51.965 236.175,53.989 231.129,57.504C231.76,57.724 232.29,57.38 232.832,57.157C237.769,55.126 242.742,53.194 247.819,51.538C248.139,51.433 248.462,51.333 248.789,51.257C249.162,51.171 249.664,50.967 249.832,51.437C250.058,52.071 249.475,52.093 249.043,52.237C243.124,54.206 237.331,56.508 231.596,58.957C231.539,58.981 231.483,59.005 231.426,59.03C236.657,57.526 241.92,56.133 247.045,54.279C250.131,53.163 253.235,52.104 256.05,50.363C259.494,48.233 261.985,45.222 264.233,41.8C263.863,41.729 263.692,41.646 263.54,41.674C258.763,42.547 253.973,43.357 249.216,44.33C243.524,45.495 238.295,47.654 234.1,51.87C233.104,52.871 232.152,53.91 231.23,54.975ZM270.713,63.818C271.301,64.739 271.827,65.698 272.274,66.699C273.9,70.345 275.49,74.003 277.417,77.505C277.649,77.927 278.022,78.377 277.51,78.966C276.794,78.961 276.611,78.32 276.306,77.828C274.757,75.333 273.513,72.686 272.334,70.002C272.18,69.652 272.371,68.835 271.506,69.044C272.141,70.835 272.771,72.627 273.413,74.415C273.541,74.773 273.879,75.173 273.316,75.403C272.806,75.61 272.63,75.103 272.48,74.796C271.289,72.36 270.431,69.783 270.052,67.12C269.867,65.813 269.502,64.632 268.95,63.548C269.21,65.449 269.398,67.338 269.61,69.218C269.891,71.713 270.604,74.097 272.146,76.148C274.888,79.794 278.582,82.267 282.539,84.472C279.862,76.778 277.001,69.226 270.713,63.818ZM271.505,69.04C271.515,68.765 271.809,68.493 271.401,68.089C271.444,68.487 271.473,68.759 271.502,69.031C271.503,69.034 271.504,69.037 271.505,69.04ZM296.917,69.08C300.367,71.932 303.674,74.963 307.348,77.541C307.639,77.745 308.098,78.021 307.765,78.485C307.426,78.957 307.053,78.59 306.74,78.386C304.269,76.784 301.944,74.976 299.794,72.978C294.326,67.897 288.173,64.07 280.865,62.262C280.112,62.076 279.362,61.878 278.531,61.666C278.854,62.315 279.42,62.298 279.876,62.48C286.98,65.312 293.372,69.278 298.948,74.522C303.071,78.399 307.563,81.645 313.117,83.166C313.441,83.254 313.764,83.387 314.047,83.564C314.222,83.674 314.348,83.897 314.241,84.152C314.141,84.394 313.952,84.486 313.707,84.466C313.54,84.453 313.37,84.433 313.21,84.387C308.664,83.075 304.462,81.143 300.923,77.89C295.588,72.985 290.011,68.4 283.357,65.331C283.263,65.523 283.259,65.7 283.446,65.867C287.109,69.161 290.154,73.098 294.094,76.104C294.857,76.686 295.63,77.257 296.389,77.845C296.721,78.103 296.997,78.418 296.618,78.83C296.3,79.176 295.991,78.909 295.721,78.727C292.76,76.729 289.887,74.61 287.581,71.85C283.963,67.52 279.757,64.041 274.277,62.329C274.578,62.578 274.883,62.825 275.176,63.08C278.948,66.352 282.26,70.078 285.61,73.763C287.983,76.373 290.522,78.779 293.641,80.489C303.298,85.78 313.664,87.2 324.624,86.165C324.352,85.422 323.791,85.341 323.36,85.13C314.75,80.921 306.572,75.998 298.803,70.388C298.181,69.938 297.549,69.507 296.917,69.08ZM282.58,65.035C282.674,65.012 282.579,64.984 282.58,65.035ZM282.625,65.116C282.779,65.513 283.027,65.48 283.305,65.312C283.078,65.246 282.852,65.181 282.625,65.116ZM364.22,66.178C364.211,68.263 366.377,70.284 368.611,70.274C370.811,70.265 372.77,68.313 372.729,66.173C372.688,64.015 370.643,62.022 368.423,61.976C366.155,61.93 364.229,63.854 364.22,66.178ZM395.028,73.341C394.992,75.185 396.625,76.791 398.503,76.757C400.316,76.724 401.672,75.337 401.687,73.502C401.703,71.521 400.266,70.086 398.283,70.103C396.524,70.118 395.062,71.572 395.028,73.341ZM418.391,58.867C418.412,60.767 419.805,62.146 421.712,62.157C423.606,62.168 425.073,60.775 425.11,58.93C425.148,57.03 423.612,55.431 421.766,55.45C419.76,55.472 418.369,56.879 418.391,58.867ZM409.626,49.658C409.582,51.289 410.796,52.572 412.432,52.626C414.056,52.68 415.454,51.452 415.528,49.906C415.604,48.358 414.183,47.002 412.457,46.975C410.854,46.949 409.669,48.072 409.626,49.658ZM381.092,40.331C381.167,42.376 383.071,44.15 385.133,44.094C387.166,44.039 388.86,42.307 388.882,40.263C388.904,38.103 387.201,36.418 385.018,36.442C383.012,36.464 381.023,38.434 381.092,40.331ZM347.062,35.33C347.916,34.281 348.691,33.16 349.389,31.959C351.884,27.672 354.185,23.252 357.292,19.349C359.453,16.636 361.933,14.248 364.831,12.328C365.268,12.039 365.746,11.346 366.494,12.072C366.228,12.814 365.51,13.087 364.956,13.513C361.194,16.409 358.097,19.901 355.629,23.947C354.072,26.5 352.56,29.079 351.039,31.654C350.831,32.006 350.466,32.332 350.662,32.814C354.118,29.013 357.215,24.908 360.577,21.029C364.647,16.335 369.353,12.389 374.767,9.308C375.699,8.778 376.604,8.202 377.536,7.671C378.005,7.404 378.495,7.012 379.068,7.582C378.877,8.428 378.081,8.63 377.497,8.992C374.138,11.083 370.794,13.183 367.745,15.729C364.555,18.391 361.802,21.458 359.172,24.653C357.231,27.012 355.242,29.331 353.291,31.681C353.014,32.016 352.587,32.276 352.582,32.792C352.261,32.851 352.286,33.038 352.38,33.249C352.453,33.102 352.527,32.955 352.601,32.809C354.332,32.051 355.699,30.779 357.038,29.515C359.916,26.796 362.732,24.011 365.309,20.993C365.679,20.56 366.087,19.494 366.8,20.082C367.436,20.607 366.494,21.161 366.151,21.575C360.842,27.976 355.11,33.882 347.435,37.515C353,35.651 358.013,32.972 362.151,28.509C370.404,19.605 379.435,11.508 389.007,4.026C389.622,3.546 390.214,3.038 391.015,2.378C389.731,1.89 388.804,2.368 387.878,2.494C383.454,3.092 379.03,3.71 374.712,4.9C366.348,7.205 359.59,11.695 355.079,19.268C353.513,21.898 352.154,24.633 350.845,27.397C349.591,30.044 348.494,32.769 347.062,35.33ZM350.078,33.179C350.065,33.086 350.028,33.164 350.078,33.179ZM350.53,32.915C350.441,32.938 350.369,32.984 350.315,33.058C350.387,33.01 350.459,32.962 350.53,32.915ZM352.349,33.269C352.257,33.21 352.16,33.062 352.08,33.308C352.17,33.295 352.26,33.282 352.349,33.269ZM309.7,52.856C309.59,52.56 309.409,52.505 309.1,52.76C309.329,52.797 309.513,52.826 309.7,52.856ZM301.1,38.538C301.422,41.075 302.379,43.467 302.597,46.034C302.734,44.776 302.603,43.484 302.389,42.179C301.847,38.867 301.701,35.561 302.577,32.272C302.688,31.855 302.585,31.25 303.254,31.364C303.788,31.455 303.672,32.01 303.598,32.357C302.81,36.075 303.246,39.774 303.759,43.813C304.491,42.095 304.475,40.585 304.404,39.066C304.273,36.244 303.994,33.407 304.722,30.632C304.865,30.086 304.629,28.992 305.926,29.117C306.202,30.551 305.585,31.895 305.496,33.282C305.441,34.13 305.326,34.966 305.459,35.811C305.861,38.371 305.857,40.862 305.294,43.262C306.603,40.848 307.41,38.249 307.439,35.386C307.48,31.365 307.397,27.342 307.36,23.32C307.358,23.114 307.378,22.851 306.971,22.764C305.956,23.319 305.272,24.305 304.609,25.264C301.85,29.259 300.474,33.607 301.1,38.538ZM305.775,51.048C305.615,51.078 305.454,51.104 305.293,51.131C305.788,51.149 306.281,51.173 306.773,51.19C312.191,51.381 317.552,52.024 322.783,53.536C327.907,55.016 332.556,57.549 337.242,60.004C337.342,60.056 337.449,60.098 337.54,60.162C337.831,60.365 338.112,60.614 337.866,60.99C337.609,61.383 337.257,61.138 336.972,61.001C335.05,60.076 333.135,59.135 331.217,58.2C328.025,56.644 324.781,55.229 321.318,54.369C320.881,54.26 320.454,54.204 320.012,54.201C319.96,54.462 320.159,54.518 320.354,54.61C323.876,56.279 327.197,58.316 330.568,60.261C334.283,62.403 338.174,64.197 342.013,66.094C342.543,66.356 343.238,66.424 343.396,67.238C342.67,67.926 342.024,67.286 341.437,67.044C336.108,64.842 331.079,62.056 326.125,59.126C322.094,56.742 318.003,54.489 313.38,53.42C312.228,53.154 311.101,52.751 309.893,52.913C317.408,55.632 324.105,59.983 331.161,63.616C331.714,63.9 332.517,64.006 332.53,64.901C331.854,65.406 331.312,64.899 330.797,64.652C327.69,63.169 324.681,61.499 321.671,59.83C318.812,58.244 315.912,56.757 312.907,55.506C313.405,55.832 313.896,56.172 314.372,56.545C316.644,58.327 318.927,60.095 321.19,61.889C325.132,65.016 329.4,67.472 334.336,68.724C341.067,70.431 347.968,70.67 354.829,71.276C355.088,71.299 355.393,71.342 355.625,70.99C355.478,70.636 355.133,70.436 354.813,70.225C349.662,66.83 344.543,63.384 339.345,60.064C335.193,57.412 330.878,55.037 326.245,53.305C319.615,50.827 312.827,49.759 305.775,51.048ZM319.956,54.17C319.785,53.951 319.586,53.848 319.235,54.099C319.508,54.212 319.726,54.24 319.956,54.17ZM395.038,27.428C395.285,27.181 395.346,26.786 395.243,26.292C395.156,25.877 395.296,25.694 395.491,25.413C398.998,20.356 403.89,17.141 409.49,14.873C413.414,13.283 417.209,11.433 420.871,9.308C421.164,9.138 421.478,9.003 421.768,8.829C422.066,8.649 422.323,8.706 422.498,8.971C422.684,9.252 422.579,9.511 422.301,9.685C421.394,10.253 420.486,10.82 419.571,11.378C415.998,13.557 412.106,15.075 408.317,16.807C406.157,17.794 404.065,18.909 402.134,20.29C401.669,20.622 400.885,20.85 401.022,21.701C405.928,18.913 413.509,16.171 414.776,16.746C414.591,17.323 414.059,17.35 413.604,17.537C409.289,19.317 404.879,20.888 400.832,23.263C400.006,23.748 399.218,24.297 398.388,24.775C397.753,25.141 397.284,25.624 396.903,26.201C398.798,24.769 400.971,24.077 403.137,23.368C407.387,21.974 411.521,20.309 415.523,18.29C421.346,15.354 425.322,10.735 428.059,4.932C428.192,4.65 428.427,4.352 428.184,3.945C427.786,3.846 427.459,4.108 427.129,4.278C420.689,7.595 414.096,10.589 407.511,13.601C404.579,14.942 401.625,16.253 399.038,18.228C397.129,19.685 395.779,21.547 395.231,23.889C394.983,24.949 394.582,26.053 395.038,27.428ZM400.975,21.721C400.668,21.49 400.423,21.698 400.168,21.837C400.446,21.862 400.719,21.853 400.975,21.721ZM405.168,28.674C405.899,28.971 406.62,29.299 407.33,29.656C409.648,30.819 411.916,32.089 414.391,32.921C416.269,33.552 418.181,33.993 420.154,34.176C420.545,34.212 420.933,34.307 421.313,34.406C421.674,34.501 422.238,34.458 422.204,34.988C422.164,35.621 421.573,35.488 421.141,35.516C420.972,35.527 420.801,35.518 420.817,35.518C416.752,35.253 413.093,34.249 409.663,32.383C407.937,31.443 406.244,30.422 404.427,29.669C410.836,37.017 417.614,38.876 427.7,36.011C420.426,32.141 413.419,28.486 405.168,28.674ZM497.829,21.503C497.541,21.173 497.077,21.207 496.632,21.171C492.579,20.843 488.531,20.384 484.472,20.208C478.625,19.955 472.911,19.003 467.272,17.502C462.651,16.273 458.038,16.13 453.388,17.412C446.335,19.357 439.41,21.673 432.588,24.302C433.076,24.292 433.567,24.303 434.056,24.296C434.873,24.065 435.692,23.843 436.516,23.645C441.994,22.33 447.535,21.326 453.123,20.637C455.751,20.313 458.406,20.047 461.071,20.23C461.468,20.258 462.1,20.034 462.046,20.781C462.006,21.345 461.481,21.219 461.112,21.233C453.856,21.497 446.761,22.827 439.684,24.272C440.084,24.275 440.483,24.262 440.884,24.267C444.224,24.311 447.529,24.69 450.849,24.955C454.235,25.225 457.648,25.198 461.038,24.913C463.746,24.686 466.462,24.684 469.173,24.435C473,24.083 476.819,23.687 480.628,23.173C484.101,22.705 487.575,22.194 491.099,22.348C491.382,22.36 491.667,22.355 491.947,22.39C492.251,22.428 492.483,22.585 492.475,22.927C492.469,23.179 492.282,23.349 492.066,23.409C491.797,23.482 491.508,23.516 491.229,23.509C486.218,23.384 481.351,24.54 476.42,25.138C472.101,25.662 467.777,26.163 463.415,26.289C460.415,26.375 457.423,26.696 454.417,26.44C448.795,26.012 443.163,25.794 437.532,25.853C440.179,26.265 442.796,26.671 445.399,27.086C450.421,27.885 455.459,28.475 460.559,28.404C461.1,28.396 462.074,28.017 462.109,28.861C462.147,29.784 461.145,29.377 460.621,29.399C453.586,29.703 446.658,28.773 439.757,27.53C438.998,27.393 438.238,27.254 437.478,27.118C437.721,27.177 437.965,27.228 438.207,27.29C445.257,29.108 452.215,31.309 459.451,32.365C464.474,33.098 469.471,33.188 474.442,32.038C482.802,30.105 490.384,26.358 497.696,21.994C497.856,21.898 497.929,21.768 497.829,21.503Z" style="fill-rule:nonzero;"/>
            </g>
        </g>
    </g>
</svg>
