<?xml version="1.0" encoding="UTF-8" standalone="no"?>
<!DOCTYPE svg PUBLIC "-//W3C//DTD SVG 1.1//EN" "http://www.w3.org/Graphics/SVG/1.1/DTD/svg11.dtd">
<svg width="100%" height="100%" viewBox="0 0 2550 3300" version="1.1" xmlns="http://www.w3.org/2000/svg" xmlns:xlink="http://www.w3.org/1999/xlink" xml:space="preserve" xmlns:serif="http://www.serif.com/" style="fill-rule:evenodd;clip-rule:evenodd;stroke-linejoin:round;stroke-miterlimit:2;">
    <g transform="matrix(1.54983,0,0,1.54983,1275,3178.37)">
        <g transform="matrix(1,0,0,1,-269.6,-39.5)">
            <g id="change1_1">
                <path d="M110.073,77.735C110.073,77.408 112.19,75.086 114.773,72.575C117.356,70.064 122.015,65.261 125.117,61.903C134.207,52.064 140.956,48.303 158.069,43.556C160.529,42.874 159.405,42.835 141.663,42.99L122.618,43.156L119.518,45.367C116.388,47.922 113.449,50.703 110.724,53.687C99.652,65.567 97.069,67.989 93.753,69.6C90.285,71.288 85.367,72.591 78.153,73.733C75.513,74.151 72.803,74.586 72.131,74.698C71.483,74.816 70.814,74.737 70.211,74.472C69.14,73.809 70.254,72.394 75.511,67.735C78.019,65.513 82.744,61.145 86.011,58.028C94.582,49.855 98.344,47.5 106.9,44.973L110.8,43.82L94.2,43.8L77.6,43.774L75.437,45.334C74.247,46.192 70.637,49.162 67.414,51.934C58.12,59.934 54.053,61.964 45.36,62.961C38.955,63.695 32.203,63.791 31.979,63.149C31.649,62.2 46.61,51.525 54.1,47.369C56.382,46.154 58.748,45.104 61.18,44.227L64.955,42.92L60.995,42.354C58.817,42.043 55.631,41.454 53.915,41.042C50.991,40.477 48.011,40.253 45.035,40.374C34.295,40.52 23.895,38.36 18.682,34.899C15.793,32.983 2.58,20.855 1.374,19.014C-0.001,16.914 0.984,16.614 5.542,17.762C7.742,18.315 12.566,19.226 16.252,19.787C27.29,21.466 30.187,22.774 42.081,31.443C46.071,34.351 50.311,37.223 51.504,37.826C53.737,38.953 63.178,40.438 67.757,40.382C69.93,40.357 69.87,40.318 65.633,39.033C60.211,37.39 54.427,34.672 51.253,32.276C48.569,29.82 46.098,27.142 43.866,24.269C41.133,20.869 37.927,17.08 36.74,15.847C34.18,13.185 34.188,11.774 36.76,12.275C43.032,13.497 53.571,18.209 59.508,22.446C61.604,24.034 63.54,25.822 65.29,27.784C70.931,34.266 73.78,37.059 76.69,38.951L79.66,40.89L86.629,40.89C90.462,40.89 98.192,40.746 103.807,40.572L114.015,40.254L108.374,39.116C96.874,36.798 91.574,33.595 82.016,23.172C79.733,20.556 77.302,18.073 74.735,15.734C74.183,15.522 74.145,15.252 74.558,14.48C75.197,13.286 76.025,13.394 84.393,15.762C91.374,17.737 100.393,22.079 104.893,25.629C114.293,33.051 117.442,35.258 121.593,37.344C126.806,39.964 124.017,39.762 146.553,39.144C158.177,38.827 158.634,38.78 155.637,38.213C147.422,36.661 142.79,34.213 131.673,25.526C127.581,22.326 122.505,18.655 120.393,17.359C115.513,14.366 115.131,14.035 115.788,13.378C116.842,12.324 136.408,15.229 142.919,17.406C148.54,19.286 150.046,20.189 159.273,27.22C163.497,30.439 168.94,34.375 171.373,35.968L175.788,38.868L182.173,39.144C185.684,39.296 194.065,39.53 200.797,39.664L213.037,39.909L207.437,38.027C196.456,34.338 192.606,31.766 180.913,20.307C171.684,11.264 167.172,7.741 160.631,4.472C157.241,2.778 156.781,2.272 157.666,1.204C158.203,0.556 159.05,0.49 163.293,0.764C178.352,1.738 192.22,6.097 198.852,11.943C201.792,14.993 204.509,18.249 206.983,21.688C210.016,25.78 213.807,30.506 215.407,32.188C218.393,35.331 224.442,39.927 225.591,39.927C225.946,39.927 226.236,40.117 226.236,40.349C226.236,41.036 228.469,41.662 235.836,43.042C246.883,45.111 260.436,49.925 267.57,54.315L269.887,55.741L275.3,52.9C285.131,47.817 295.709,44.33 306.635,42.569C309.885,42.058 312.415,41.391 313.215,40.833C313.743,40.422 314.344,40.114 314.986,39.926C315.786,39.926 322.91,34.343 325.012,32.062C326.112,30.862 329.466,26.586 332.463,22.548C341.638,10.186 346.07,7.006 358.713,3.718C366.765,1.624 379.3,0.03 381.706,0.794C383.754,1.444 382.786,2.685 378.4,5.032C371.887,8.516 367.368,12.124 358.941,20.572C355.538,24.068 351.936,27.365 348.153,30.445C343.223,33.77 337.856,36.395 332.204,38.245C329.492,39.145 327.704,39.887 328.233,39.891C328.762,39.895 337.047,39.702 346.646,39.463L364.099,39.028L368.71,36C371.245,34.334 376.243,30.721 379.816,27.971C390.706,19.588 392.88,18.415 401.673,16.171C405.639,15.159 420.187,13.049 423.194,13.049C425.381,13.049 424.639,14.281 421.233,16.306C419.451,17.365 415.509,20.132 412.473,22.454C409.437,24.776 405.155,28.043 402.958,29.714C397.594,33.97 391.293,36.889 384.578,38.228L381.513,38.893L386.313,38.974C388.953,39.018 396.081,39.218 402.153,39.419L413.193,39.783L417.993,37.53C422.536,35.398 424.993,33.719 434.512,26.26C441.546,20.745 448.612,17.491 459.632,14.699C464.465,13.474 465.757,13.452 465.747,14.594C465.741,14.932 461.91,19.129 457.227,23.919C446.363,35.032 443.593,36.668 431.433,39.161L426.153,40.243L435.993,40.565C441.405,40.742 449.046,40.887 452.974,40.888C460.074,40.888 460.131,40.879 462.702,39.41C465.518,37.799 468.58,34.91 474.863,27.956C479.399,22.931 482.878,20.447 490.389,16.869C494.762,14.786 502.694,12.089 504.446,12.089C505.216,12.089 505.353,13.804 504.619,14.258C504.348,14.425 501.576,17.732 498.459,21.606C489.432,32.825 486.695,34.883 476.019,38.475C470.685,40.275 470.458,40.396 472.549,40.402C476.956,40.416 486.593,38.923 488.549,37.923C489.605,37.384 493.061,35.057 496.229,32.752C510.39,22.452 513.029,21.246 525.269,19.54C528.305,19.117 532.357,18.347 534.269,17.83C538.596,16.662 539.184,16.658 539.184,17.799C539.184,18.969 525.747,32.007 521.884,34.588C516.084,38.46 509.474,39.988 497.529,40.21C493.265,40.21 489.009,40.582 484.809,41.322C482.109,41.853 478.846,42.435 477.549,42.615L475.191,42.942L479.6,44.516C485.566,46.646 498.074,54.399 505.706,60.697C509.23,63.605 508.881,64.097 503.547,63.719C486.53,62.519 483.794,61.476 472.706,51.931C469.275,48.977 465.564,45.931 464.46,45.165L462.454,43.765L445.98,43.794L429.506,43.822L433.826,45.148C442.217,47.724 446.068,50.254 456.048,59.748C459.434,62.97 464.135,67.381 466.494,69.548C470.274,73.025 470.694,73.575 470.065,74.188C468.732,75.479 452.774,72.506 447.106,69.911C442.947,68.011 439.96,65.416 433.897,58.454C427.674,51.307 423.41,47.143 420.007,44.889C417.744,43.389 417.707,43.389 409.462,43.081C398.326,42.67 379.345,42.502 379.346,42.814C380.214,43.25 381.146,43.545 382.107,43.686C388.498,45.317 394.716,47.561 400.676,50.386C406.343,53.305 410.668,56.88 416.787,63.703C419.559,66.794 423.766,71.127 426.136,73.331C431.803,78.601 431.498,79.065 423.624,77.154C411,74.1 402.254,70.618 396.822,66.507C395.475,65.486 391.322,61.757 387.602,58.218C379.521,50.539 375.076,47.099 370.233,44.777C366.712,43.09 366.484,43.048 359.912,42.885C353.278,42.721 330.67,43.25 330.983,43.562C331.071,43.651 333.728,44.282 336.883,44.962C347.483,47.254 357.817,51.298 365.428,56.133C370.178,59.151 383.669,69.274 384.158,70.186C384.929,71.626 383.523,72.042 380.381,71.302C378.061,70.872 375.707,70.651 373.348,70.642C367.148,70.612 357.304,69.831 354.571,69.153C348.454,67.636 345.224,65.495 335.361,56.423C328.179,49.816 324.35,46.789 321.028,45.092C319.755,44.441 318.978,44.433 314.308,45.02C300.508,46.755 288.645,50.12 278.561,55.172C276.061,56.424 273.948,57.682 273.868,57.966C273.788,58.25 274.258,58.727 274.91,59.024C276.81,59.887 279.989,62.997 279.989,63.985C279.989,65.785 277.082,64.877 272.724,61.707C271.944,61.089 271.107,60.547 270.224,60.089C268.858,60.809 267.537,61.611 266.267,62.489C262.707,64.813 260.702,65.426 260.06,64.389C259.541,63.548 261.06,61.762 263.921,59.866C265.421,58.874 266.457,57.882 266.236,57.666C265.425,56.859 257.067,52.954 252.636,51.31C245.911,48.845 238.96,47.048 231.883,45.947C220.946,44.095 220.383,44.123 216.391,46.718C213.573,48.695 210.885,50.853 208.345,53.176C197.107,63.424 195.221,64.948 191.436,66.836C186.45,69.323 182.406,70.053 171.478,70.436C167.569,70.521 163.668,70.834 159.796,71.374C156.749,72.045 155.676,71.905 155.676,70.836C155.676,69.944 156.737,69.059 165.776,62.417C180.181,51.832 189.329,47.779 207.515,43.923C209.232,43.559 207.266,43.387 197.915,43.085C191.447,42.876 183.239,42.785 179.675,42.885C173.506,43.058 173.038,43.143 169.946,44.646C165.351,46.879 160.046,51.028 152.403,58.357C140.667,69.616 136.277,72 118.713,76.622C111.756,78.454 110.073,78.672 110.073,77.737L110.073,77.735ZM124.713,72.813C136.122,69.098 140.073,66.632 151.593,56.039C155.553,52.398 160.032,48.539 161.545,47.465C162.502,46.884 163.371,46.169 164.127,45.343C163.872,45.087 159.481,46.892 155.586,48.853C150.392,51.469 145.976,54.317 134.073,62.729C128.133,66.929 121.567,71.519 119.482,72.929C115.168,75.854 115.382,75.849 124.713,72.809L124.713,72.813ZM421.897,73.787C420.336,72.845 418.824,71.825 417.365,70.731C416.391,69.965 410.733,65.939 404.793,61.785C393.501,53.885 387.026,49.845 382.364,47.777C378.428,46.031 374.629,44.639 375.704,45.338C380.189,48.609 384.454,52.17 388.473,56C400.028,66.836 404.266,69.4 417.513,73.562C424.731,75.83 425.338,75.862 421.897,73.789L421.897,73.787ZM82.233,70.687C92.379,68.442 94.873,66.793 105.524,55.28L113.561,46.592L109.954,48.725C105.407,51.413 102.144,53.804 95.193,59.542C90.494,63.536 85.406,67.05 80.007,70.03C76.707,71.837 76.846,71.878 82.233,70.686L82.233,70.687ZM459.062,69.42C454.076,66.743 450.704,64.354 444.003,58.75C439.355,54.727 434.344,51.145 429.033,48.05L426.153,46.444L430.527,50.986C432.932,53.486 436.249,57.041 437.897,58.886C444.015,65.747 447.852,68.163 455.827,70.179C463.227,72.05 463.743,71.928 459.062,69.415L459.062,69.42ZM130.713,62.57C140.737,55.383 145.213,52.377 150.633,49.196C152.031,48.451 153.37,47.601 154.64,46.654C153.726,46.64 143.999,50.316 141.07,51.783C136.513,54.066 133.646,56.183 128.87,60.788C123.986,65.495 119.218,70.909 121.357,69.319C122.145,68.731 126.357,65.694 130.713,62.57ZM415.513,65.07C407.44,56.356 401.989,52.534 392.722,49.089C385.579,46.433 384.229,46.26 388.338,48.525C390.244,49.576 393.052,51.233 394.578,52.208C397.918,54.342 412.451,64.59 416.745,67.84C417.793,68.677 418.888,69.453 420.025,70.164C420.139,70.164 418.109,67.872 415.513,65.07ZM176.413,67.77C183.334,67.264 188.261,65.87 192.313,63.277C195.441,60.931 198.433,58.41 201.277,55.726C204.841,52.447 208.513,49.164 209.437,48.426C211.017,47.17 211.037,47.126 209.775,47.582C209.038,47.852 203.854,50.418 198.255,53.282C192.578,56.327 186.666,58.912 180.576,61.012C176.415,62.409 172.329,64.021 168.336,65.843L163.595,68.158L166.955,68.183C168.804,68.198 173.055,68.008 176.412,67.763L176.413,67.77ZM373.983,66.786C368.837,64.31 363.518,62.212 358.068,60.508C353.311,58.929 340.019,52.818 338.297,51.418C338.022,51.195 335.862,50.13 333.497,49.052L329.197,47.092L331.597,49.148C332.917,50.279 336.049,53.13 338.557,55.484C344.717,61.264 347.201,63.172 350.709,64.818C355.728,67.173 361.251,68.031 372.158,68.149L376.718,68.198L373.983,66.786ZM89.193,61.606C90.777,60.406 94.017,57.771 96.393,55.75C98.769,53.729 102.282,51.038 104.199,49.769C105.401,49.082 106.508,48.242 107.493,47.269C106.993,46.769 99.264,50.292 96.33,52.357C93.675,54.226 86.467,60.674 80.074,66.899C78.604,68.329 85.932,64.077 89.193,61.607L89.193,61.606ZM456.751,63.806C445.346,53.006 444.132,52.04 438.782,49.568C432.562,46.694 431.368,46.653 435.547,49.457C437.509,50.773 440.947,53.407 443.193,55.309C447.425,59.094 451.984,62.496 456.817,65.476C458.917,66.736 460.695,67.766 460.779,67.766C460.863,67.766 459.05,65.984 456.751,63.806ZM50.073,60.268C53.968,59.183 57.859,56.829 63.513,52.135C66.285,49.835 69.849,46.98 71.433,45.792C73.856,43.975 74.085,43.686 72.873,43.977C70.373,44.577 63.764,47.877 57.165,51.829C53.665,53.929 48.365,56.993 45.393,58.645C42.421,60.297 39.993,61.689 39.993,61.739C39.993,62.032 47.867,60.883 50.073,60.268ZM197.673,50.944C202.955,48.264 206.845,46.187 206.317,46.328C205.789,46.469 202.769,47.263 199.605,48.093C193.89,49.548 188.33,51.558 183.005,54.093C180.659,55.275 171.517,60.976 171.517,61.257C171.517,61.32 175.241,60.121 179.793,58.592C185.946,56.519 191.925,53.96 197.673,50.939L197.673,50.944ZM365.673,59.278C358.537,54.425 350.644,50.791 342.317,48.524C333.399,45.955 333.448,46.336 342.638,51.04C348.152,53.872 353.844,56.344 359.678,58.44C364.298,60.076 368.292,61.44 368.553,61.473C368.814,61.506 367.518,60.519 365.673,59.281L365.673,59.278ZM498.873,61.007C498.473,60.751 494.805,58.634 490.713,56.307C486.621,53.98 481.007,50.742 478.236,49.119C473.836,46.54 467.767,43.773 466.514,43.773C466.284,43.773 467.152,44.573 468.444,45.546C469.736,46.519 472.629,48.861 474.873,50.746C482.719,57.341 486.559,59.563 492.253,60.799C495.872,61.585 499.964,61.714 498.873,61.009L498.873,61.007ZM503.193,60.807C503.193,60.15 487.969,50.549 483.753,48.546C473.371,43.615 477.167,46.29 495.473,56.803C503.048,61.154 503.193,61.229 503.193,60.803L503.193,60.807ZM52.06,52.5C56.907,49.623 61.521,46.906 62.313,46.463C63.577,45.756 63.606,45.696 62.553,45.972C58.955,47.116 55.496,48.659 52.241,50.572C48.884,52.545 38.741,59.324 37.833,60.206C36.81,61.2 43.642,57.5 52.06,52.5ZM72.153,38.789C70.797,37.83 69.383,36.954 67.921,36.166C61.84,32.636 55.961,28.768 50.313,24.58C47.145,22.28 43.927,19.989 43.162,19.498C41.791,18.618 41.778,18.619 42.289,19.547C43.344,21.464 49.936,28.687 52.246,30.458C55.37,32.853 60.163,35.158 66.393,37.258C71.377,38.937 72.154,39.144 72.154,38.793L72.153,38.789ZM473.865,37.222C480.2,35.048 485.413,32.462 488.614,29.906C490.936,27.806 493.087,25.524 495.047,23.083C498.937,18.326 498.976,18.252 496.934,19.541C495.787,20.265 492.892,22.3 490.501,24.063C484.869,28.262 479.011,32.15 472.953,35.708C469.917,37.5 467.735,38.966 468.105,38.967C470.058,38.501 471.982,37.918 473.865,37.222ZM37.8,36.379C35.663,35.505 30.8,33.152 27,31.15C23.2,29.148 18.349,26.762 16.237,25.85C14.125,24.938 11.1,23.621 9.513,22.93L6.633,21.675L9.033,23.92C17.333,31.679 21.471,34.384 27.272,35.831C31.368,36.875 35.542,37.582 39.753,37.945C41.582,37.965 41.49,37.892 37.795,36.379L37.8,36.379ZM114.877,37.429C106.596,33.721 98.59,29.428 90.92,24.58C86.853,21.903 82.646,19.264 81.569,18.715C79.629,17.725 79.641,17.748 83.058,21.539C89.64,28.839 93.311,31.616 99.872,34.252C104.645,36.17 119.048,39.22 114.872,37.429L114.877,37.429ZM334.829,34.605C343.647,31.13 348.12,27.977 358.237,18.105C363.519,12.951 368.063,8.978 370.477,7.405C372.589,6.026 374.072,4.897 373.771,4.895C372.671,4.89 363.179,9.074 359.811,11.048C356.011,13.276 350.711,17.319 340.698,25.624C335.081,30.285 330.598,33.699 325.581,37.145C324.681,37.766 325.359,37.669 328.481,36.731C330.725,36.056 333.581,35.101 334.832,34.609L334.829,34.605ZM431.129,36.843C441.881,34.658 447.517,31.533 455.294,23.443C457.063,21.716 458.722,19.879 460.259,17.943C459.95,17.634 457.224,19.251 449.588,24.271C440.459,30.271 437.151,32.119 429.56,35.446C426.371,36.846 424.129,37.992 424.578,37.997C425.027,38.002 427.978,37.481 431.129,36.84L431.129,36.843ZM509.481,36.577C516.726,35.125 521.01,32.923 527.202,27.471C534.532,21.017 534.665,20.871 531.762,22.297C530.442,22.948 526.77,24.622 523.602,26.017C520.434,27.412 515.682,29.75 513.042,31.217C510.402,32.684 505.974,34.825 503.202,35.984L498.162,38.091L501.321,37.837C503.058,37.698 506.73,37.137 509.481,36.582L509.481,36.577ZM166.681,37.351C166.572,37.251 164.105,36.17 161.201,34.945C158.297,33.72 152.682,30.983 148.721,28.863C144.76,26.743 139.964,24.263 138.06,23.343C133.233,21.02 124.595,17.699 125.452,18.495C127.769,20.648 142.252,31.044 144.545,32.195C149.307,34.395 154.345,35.942 159.521,36.795C163.531,37.426 167.065,37.7 166.673,37.351L166.681,37.351ZM214.457,37.127C214.207,36.905 212.273,35.522 210.157,34.052C208.041,32.582 202.857,28.498 198.637,24.976C187.811,15.951 183.207,12.588 177.8,9.761C173.294,7.4 166.767,4.676 166.433,5.01C167.604,6.045 168.87,6.967 170.214,7.764C174.237,10.727 177.995,14.033 181.446,17.646C189.831,26.023 193.533,28.946 199.59,31.992C205.313,34.866 216.118,38.6 214.449,37.127L214.457,37.127ZM380.44,36.818C385.887,35.997 393.034,33.74 396.554,31.73C398.384,30.685 413.779,19.445 415.335,18.018C412.003,19.098 408.728,20.345 405.521,21.754C403.673,22.537 398.813,24.981 394.721,27.186C390.629,29.391 384.797,32.303 381.761,33.657C372.747,37.68 373.153,37.463 374.561,37.496C375.221,37.51 377.867,37.206 380.44,36.818ZM45.969,36.65C44.84,35.66 34.185,28.394 31.589,26.843C26.96,24.299 21.901,22.634 16.666,21.931C14.052,21.522 11.266,21.074 10.473,20.931C7.809,20.463 34.773,33.639 39.993,35.354C45.049,37.016 46.833,37.402 45.97,36.646L45.969,36.65ZM499.926,35.422C502.726,34.502 510.585,30.956 518.016,27.262C525.245,23.669 531.077,20.73 530.976,20.731C528.647,20.754 515.932,23.414 513.509,24.384C509.264,26.084 492.546,37.049 494.2,37.049C496.142,36.632 498.055,36.088 499.926,35.422ZM334.052,29.309C336.132,27.666 340.101,24.341 342.873,21.92C353.435,12.7 361.279,7.611 369.605,4.59C372.663,3.481 372.735,3.423 370.713,3.695C363.645,4.587 356.739,6.474 350.2,9.3C343.963,12.245 340.555,15.648 332.36,27.108C330.681,29.455 328.847,31.686 326.87,33.788L324.396,36.249L327.335,34.273C328.951,33.186 331.975,30.952 334.055,29.309L334.052,29.309ZM212.482,33.055C211.201,31.655 208.002,27.529 205.372,23.896C202.999,20.564 200.388,17.409 197.56,14.454C192.443,9.668 183.93,6.185 172.383,4.154C166.983,3.204 166.846,3.279 171.091,4.854C179.442,7.954 186.8,12.824 198.638,23.068C203.626,27.384 214.115,35.607 214.638,35.607C213.993,34.698 213.273,33.844 212.487,33.053L212.482,33.055ZM166.673,34.94C166.564,34.84 162.92,32.117 158.573,28.898C149.737,22.349 146.939,20.775 141.173,19.105C137.401,18.013 127.412,16.188 127.073,16.529C128.755,17.404 130.5,18.154 132.293,18.772C135.252,19.918 141.105,22.702 145.301,24.957C154.677,30 168.051,36.243 166.673,34.94ZM380.313,32.226C382.821,31.095 388.869,28.061 393.753,25.483C398.637,22.905 404.97,19.9 407.825,18.8C409.556,18.222 411.233,17.491 412.834,16.615C412.58,16.36 404.201,17.742 400.713,18.615C394.007,20.292 390.678,22.12 380.313,29.815C371.819,36.119 371.819,36.053 380.313,32.226ZM111.8,33.577C111.032,33.005 108.659,31.151 106.528,29.459C101.41,25.393 99.402,24.041 95.759,22.207C92.379,20.507 85.089,17.718 84.792,18.014C84.551,18.256 96.361,25.955 102.397,29.492C109.179,33.467 115.1,36.041 111.8,33.577ZM433.12,32.008C438.62,29.238 455.878,18.369 455.452,17.944C455.083,17.575 445.507,21.486 442.477,23.244C437.387,26.546 432.498,30.149 427.837,34.033C427.214,34.615 427.288,34.642 428.39,34.233C429.086,33.964 431.215,32.965 433.116,32.008L433.12,32.008ZM65.005,30.869C61.278,26.308 56.58,22.635 51.255,20.118C48.095,18.517 44.837,17.118 41.5,15.929C42.766,16.97 44.093,17.932 45.476,18.811C47.8,20.4 50.5,22.323 51.468,23.093C53.332,24.569 66.918,33.693 67.253,33.693C66.586,32.69 65.834,31.746 65.005,30.873L65.005,30.869ZM487.5,23.93C490.191,22.005 493.743,19.494 495.393,18.35C496.435,17.669 497.437,16.929 498.393,16.132C496.838,16.625 495.31,17.201 493.816,17.856C484.679,21.574 480.216,24.856 473.67,32.671C472.574,33.981 480.086,29.232 487.5,23.93Z" style="fill-rule:nonzero;"/>
            </g>
        </g>
    </g>
</svg>
