<?xml version="1.0" encoding="UTF-8" standalone="no"?>
<!DOCTYPE svg PUBLIC "-//W3C//DTD SVG 1.1//EN" "http://www.w3.org/Graphics/SVG/1.1/DTD/svg11.dtd">
<svg width="100%" height="100%" viewBox="0 0 2550 3300" version="1.1" xmlns="http://www.w3.org/2000/svg" xmlns:xlink="http://www.w3.org/1999/xlink" xml:space="preserve" xmlns:serif="http://www.serif.com/" style="fill-rule:evenodd;clip-rule:evenodd;stroke-linejoin:round;stroke-miterlimit:2;">
    <g transform="matrix(0.997995,-0.618929,-0.618929,-0.997995,288.473,148.333)">
        <g transform="matrix(1,0,0,1,-151.25,-222.2)">
            <clipPath id="_clip1">
                <rect x="0" y="0" width="302.5" height="444.4"/>
            </clipPath>
            <g clip-path="url(#_clip1)">
                <g transform="matrix(0.867969,0,0,0.867969,81.7627,29.3373)">
                    <g>
                        <g transform="matrix(1,0,0,1,-25203.3,0.1)">
                            <rect x="25109.1" y="-33.9" width="512" height="512" style="fill:none;"/>
                        </g>
                        <g transform="matrix(2.13132,0,0,2.13132,-87.8237,-9790.65)">
                            <g id="change1_1">
                                <path d="M96.38,4620.59C95.996,4618.43 95.5,4616.3 94.875,4614.2C94.082,4611.55 93.082,4608.96 91.957,4606.41C91.285,4604.9 90.54,4603.42 89.715,4601.98C88.889,4600.53 87.984,4599.14 86.99,4597.81C86.814,4597.58 86.105,4596.45 85.598,4596.09C85.347,4595.92 85.104,4595.88 84.908,4595.92C84.719,4595.95 84.549,4596.07 84.403,4596.3C84.005,4596.99 83.862,4597.73 83.864,4598.49C83.868,4599.5 84.156,4600.54 84.295,4601.5C84.484,4602.64 84.726,4603.76 84.984,4604.88C85.578,4607.47 86.287,4610.02 86.891,4612.62C87.102,4613.55 87.292,4614.5 87.527,4615.44C87.687,4616.08 87.868,4616.71 88.091,4617.33C88.445,4618.33 88.834,4619.31 89.273,4620.27C89.717,4621.24 90.212,4622.19 90.776,4623.09C91.86,4624.88 93.995,4626.19 95.223,4627.89C95.366,4628.08 95.488,4628.29 95.611,4628.5C95.677,4628.61 95.743,4628.72 95.805,4628.83C95.668,4630.12 95.537,4631.39 95.405,4632.66C95.242,4634.21 95.039,4635.74 94.883,4637.27C94.365,4642.33 93.857,4647.33 92.697,4652.43C91.572,4657.39 89.91,4662.45 87.189,4667.76C86.365,4669.37 85.481,4670.92 84.557,4672.44C83.215,4674.19 82.001,4676.04 80.684,4678.06C80.635,4678.13 80.65,4678.23 80.716,4678.28C79.399,4680.13 78.025,4681.94 76.596,4683.71C73.559,4687.46 70.334,4691.05 67.028,4694.58C63.721,4698.11 60.328,4701.57 57.075,4705.18C46.34,4717.03 36.948,4729.95 29.983,4743.98L45.552,4719.06C46.062,4717.69 46.393,4716.32 46.569,4714.94C46.73,4713.69 46.774,4712.43 46.684,4711.17C46.607,4710.1 46.417,4709.04 46.19,4707.98C46.181,4707.74 46.171,4707.5 46.164,4707.27C46.12,4705.8 46.105,4704.33 45.948,4702.86C45.825,4701.72 45.658,4700.58 45.416,4699.46C45.173,4698.33 44.806,4697.25 44.505,4696.14C44.041,4694.43 43.574,4692.72 43.048,4691.04C42.786,4688.81 42.938,4686.5 43.266,4684.18C43.661,4681.39 44.355,4678.6 44.905,4675.91C45.05,4675.2 45.172,4674.49 45.291,4673.8C45.626,4671.75 45.904,4669.71 45.932,4667.65C45.947,4666.57 45.85,4665.51 45.773,4664.43C45.792,4664.33 45.812,4664.24 45.833,4664.14C45.85,4664.15 45.868,4664.15 45.887,4664.15C46.032,4664.15 46.153,4664.04 46.157,4663.89C46.24,4663.45 46.33,4663.02 46.365,4662.58C46.373,4662.46 46.379,4662.35 46.383,4662.24C46.411,4662.16 46.437,4662.08 46.458,4662C46.464,4661.97 46.469,4661.95 46.474,4661.93C46.535,4661.75 46.602,4661.58 46.671,4661.41C47.318,4659.79 48.47,4658.45 49.592,4657.06C49.78,4656.83 49.973,4656.61 50.146,4656.36C50.563,4655.77 50.908,4655.14 51.217,4654.5C51.598,4653.7 51.892,4652.87 52.036,4651.96C52.103,4651.46 52.137,4650.96 52.125,4650.46C52.102,4649.52 51.932,4648.57 51.835,4647.62C51.744,4646.72 51.715,4645.82 51.786,4644.93C52.058,4641.62 52.225,4638.43 52.357,4635.25C52.415,4633.85 52.52,4632.46 52.509,4631.06C52.493,4629.08 52.331,4627.09 52.045,4625.05C51.825,4623.6 51.497,4622.17 51.048,4620.77C50.392,4618.72 49.51,4616.74 48.706,4614.77C48.194,4613.53 47.595,4611.98 46.867,4610.41C46.423,4609.46 45.925,4608.5 45.407,4607.58C44.955,4606.77 44.505,4605.99 43.993,4605.3C43.405,4604.51 42.77,4603.85 42.131,4603.31C41.931,4603.15 41.777,4603.16 41.696,4603.19C41.587,4603.23 41.466,4603.31 41.423,4603.49C41.403,4603.58 41.497,4603.99 41.51,4604.16L41.567,4605.39L41.666,4609.55C41.85,4612.72 41.85,4615.9 41.993,4619.07C42.028,4619.87 42.072,4620.67 42.131,4621.47C42.27,4623.35 42.188,4625.2 42.036,4627.05C41.784,4630.13 41.262,4633.19 40.89,4636.25C40.727,4637.6 40.604,4638.94 40.539,4640.29C40.462,4641.91 40.482,4643.53 40.63,4645.16C40.792,4646.76 41.186,4648.31 41.785,4649.79C41.951,4650.2 42.123,4650.61 42.306,4651.01C43.059,4653.51 44.136,4655.98 44.413,4658.55C44.499,4659.35 44.583,4660.15 44.616,4660.95C44.655,4661.9 44.652,4662.84 44.61,4663.79C44.392,4662.4 44.174,4661.01 43.896,4659.62C43.392,4657.32 42.76,4654.97 41.963,4652.67C41.164,4650.37 40.198,4648.12 39.101,4646.02C38.316,4644.61 37.495,4643.19 36.587,4641.83C35.976,4640.92 35.329,4640.04 34.628,4639.2L32.924,4637.29L32.078,4636.49C31.975,4636.4 31.805,4636.19 31.707,4636.11C31.594,4636.02 31.477,4636.04 31.39,4636.02C31.25,4635.98 31.244,4636.13 31.074,4636.17C31.011,4636.19 31.046,4636.27 30.97,4636.32C30.927,4636.35 30.912,4636.37 30.882,4636.41C30.739,4636.63 30.794,4636.96 30.807,4637.27C30.831,4637.89 30.998,4638.6 31.037,4639.09L31.418,4643.99C31.586,4646.08 31.52,4648.19 31.622,4650.29C31.648,4650.82 31.685,4651.36 31.739,4651.89C31.806,4652.55 31.943,4653.19 32.119,4653.81C32.374,4654.71 32.709,4655.59 33.013,4656.49C33.598,4658.25 34.164,4659.92 34.862,4661.54C35.332,4662.63 35.857,4663.71 36.515,4664.78C37.88,4667.06 40.343,4668.2 41.828,4670.07C42.218,4670.57 42.545,4671.1 42.761,4671.77C42.847,4672.04 42.946,4672.31 43.004,4672.62C43.015,4672.87 43.206,4673.07 43.445,4673.09C43.423,4673.21 43.4,4673.33 43.377,4673.45C43.246,4674.13 43.095,4674.82 42.957,4675.52C42.418,4678.26 41.874,4681.13 41.582,4683.98C41.5,4684.78 41.44,4685.59 41.41,4686.39C41.328,4686.17 41.246,4685.95 41.165,4685.73C40.713,4684.52 40.305,4683.31 39.801,4682.15C39.021,4680.35 38.113,4678.65 37.174,4677.02C35.209,4673.68 32.928,4670.46 30.496,4667.34C27.909,4664.01 25.183,4660.77 22.592,4657.5C22.125,4656.91 21.67,4656.32 21.208,4655.74C21.159,4655.61 21.114,4655.48 21.073,4655.36C20.809,4654.61 20.667,4653.81 20.573,4652.99C20.439,4651.82 20.434,4650.61 20.343,4649.43C20.277,4648.58 20.161,4647.74 19.986,4646.94C19.626,4645.36 19.133,4643.7 18.413,4642.15C17.686,4640.59 16.744,4639.14 15.652,4637.91C14.83,4636.99 13.958,4636.28 13.03,4635.69C12.356,4635.26 11.654,4634.92 10.943,4634.58C10.25,4634.25 9.544,4633.93 8.83,4633.6C7.924,4633.19 7.019,4632.73 6.088,4632.23C5.824,4632.09 5.575,4631.94 5.329,4631.77C4.712,4631.36 4.127,4630.9 3.498,4630.51C3.207,4630.33 2.94,4630.13 2.679,4629.93C2.022,4629.42 1.418,4628.87 0.734,4628.36C0.534,4628.22 0.106,4627.9 -0.235,4627.85C-0.296,4627.84 -0.355,4627.81 -0.404,4627.83C-0.671,4627.98 -0.651,4627.85 -0.709,4628.08C-0.838,4628.12 -1.012,4628.3 -1.109,4628.61C-1.265,4629.12 -1.353,4630.04 -1.368,4630.18L-1.423,4630.92L-1.441,4631.69C-1.511,4633.54 -1.269,4635.53 -0.811,4637.46C-0.348,4639.41 0.346,4641.31 1.255,4642.96C1.659,4643.69 2.114,4644.38 2.633,4645.02C3.148,4645.65 3.728,4646.24 4.332,4646.79C6.099,4648.42 8.154,4649.76 10.148,4651.02C11.098,4651.58 11.985,4652.23 12.908,4652.83C13.327,4653.11 13.753,4653.37 14.193,4653.6C15.088,4654.09 16.047,4654.45 16.955,4654.92C17.316,4655.1 17.666,4655.3 18,4655.53C19.658,4656.75 21.033,4658.17 22.352,4659.64C22.97,4660.33 23.567,4661.04 24.173,4661.75L24.177,4661.75C23.322,4661.41 22.388,4661.18 21.21,4660.91C20.387,4660.72 19.589,4660.46 18.774,4660.24C18.4,4660.15 18.023,4660.06 17.639,4660C16.377,4659.82 15.067,4659.73 13.745,4659.71C11.82,4659.67 9.871,4659.77 8.013,4659.79C7.04,4659.82 6.099,4659.92 5.167,4660.07C3.799,4660.3 2.458,4660.63 1.074,4660.94L-1.852,4661.64C-2.053,4661.69 -2.454,4661.69 -2.638,4661.74C-2.744,4661.76 -2.805,4661.83 -2.87,4661.88C-3.024,4662 -3.015,4662.18 -2.936,4662.46C-2.857,4662.74 -2.635,4663.03 -2.362,4663.31C-2.161,4663.51 -1.917,4663.67 -1.77,4663.8C-1.128,4664.35 -0.487,4664.85 0.172,4665.33C0.829,4665.82 1.504,4666.28 2.216,4666.73C3.274,4667.4 4.443,4668.05 5.697,4668.63C7.459,4669.44 9.376,4670.13 11.335,4670.56C14.74,4671.31 18.254,4671.3 21.275,4670.17C21.922,4669.96 22.549,4669.65 23.164,4669.3C24.034,4668.81 24.874,4668.24 25.684,4667.71C26.092,4667.45 26.542,4667.14 27.02,4666.91C27.334,4666.75 27.665,4666.67 27.998,4666.62C28.009,4666.62 28.02,4666.61 28.031,4666.61C28.705,4667.46 29.375,4668.32 30.036,4669.17C32.182,4671.95 34.277,4674.74 36.077,4677.67C37.054,4679.24 37.948,4680.9 38.83,4682.61C39.403,4683.72 40.012,4684.82 40.517,4685.99C40.837,4686.73 41.127,4687.49 41.398,4688.26C41.425,4689.26 41.51,4690.26 41.668,4691.24C42.067,4693.27 42.632,4695.25 43.187,4697.24C43.445,4698.16 43.706,4699.09 43.958,4700.01C44.072,4701.02 44.184,4702.03 44.28,4703.03C44.416,4704.46 44.59,4705.88 44.614,4707.31C44.629,4708.17 44.568,4709.02 44.538,4709.87C44.493,4711.16 44.404,4712.44 44.325,4713.71C44.304,4714.06 44.315,4714.4 44.288,4714.74C44.18,4716.12 43.952,4717.47 43.652,4718.8C43.371,4720.06 42.974,4721.28 42.568,4722.48C42.556,4722.5 42.544,4722.52 42.531,4722.54C42.346,4722.84 41.99,4723.07 41.945,4723.43C41.914,4723.69 41.996,4723.63 42.085,4723.81C37.537,4730.26 33.458,4736.98 29.983,4743.98C27.161,4749.66 24.725,4755.52 22.785,4761.58C19.924,4770.51 18.13,4779.86 17.552,4789.59C17.459,4791.34 17.397,4793.04 17.375,4794.72C17.359,4794.83 17.343,4794.95 17.329,4795.06C17.293,4795.35 17.265,4795.64 17.262,4795.93C17.259,4796.38 17.305,4796.81 17.353,4797.25C17.352,4797.31 17.36,4797.37 17.377,4797.42C17.41,4799.62 17.523,4801.77 17.741,4803.92C18.207,4808.54 19.146,4813.09 20.399,4817.97C20.415,4818.04 20.486,4818.08 20.559,4818.07C20.632,4818.05 20.678,4817.98 20.662,4817.91C19.79,4812.99 19.335,4808.41 19.088,4803.82C18.918,4800.66 18.849,4797.5 18.939,4794.21C19.35,4792.04 20.052,4789.94 20.998,4787.92C21.217,4787.45 21.46,4786.99 21.676,4786.51C21.83,4786.17 21.93,4785.82 22.101,4785.49C22.173,4785.35 22.264,4785.22 22.347,4785.09C23.264,4783.6 24.263,4782.16 25.339,4780.78C27.007,4778.65 28.825,4776.68 30.502,4774.79C31.584,4773.6 32.725,4772.46 33.895,4771.35C35.181,4770.61 36.348,4769.98 37.626,4769.66C38.63,4769.41 39.655,4769.25 40.713,4769.17C42.231,4769.05 43.81,4769.06 45.491,4768.95C49.328,4768.69 53.471,4768.39 57.282,4767.22C59.9,4766.42 62.34,4765.2 64.455,4763.47L70.019,4758.79L71.692,4757.42C71.732,4757.39 72.514,4756.83 72.822,4756.61C72.885,4756.56 72.931,4756.52 72.952,4756.51C72.99,4756.48 73.01,4756.45 73.021,4756.44C73.363,4756.07 73.06,4755.74 72.987,4755.66C72.896,4755.57 72.592,4755.44 72.158,4755.42C71.538,4755.39 70.488,4755.47 70.348,4755.47C69.426,4755.46 68.516,4755.5 67.608,4755.58C66.284,4755.7 64.97,4755.89 63.63,4755.99C61.955,4756.14 60.259,4756.44 58.576,4756.84C56.093,4757.43 53.638,4758.24 51.313,4759.07C49.242,4759.83 47.127,4760.67 45.068,4761.65C47.855,4759.4 50.666,4757.21 53.398,4755C56.693,4752.32 60.037,4749.65 63.409,4747.01C65.732,4745.19 68.068,4743.38 70.44,4741.63C70.758,4741.44 71.076,4741.27 71.39,4741.11C71.401,4741.13 71.416,4741.16 71.436,4741.18C71.534,4741.29 71.707,4741.31 71.821,4741.21C72.429,4740.73 73.059,4740.28 73.694,4739.84C74.977,4739.22 76.312,4738.7 77.698,4738.05C78.951,4737.5 80.362,4736.86 81.795,4736.45C82.739,4736.17 83.691,4736.01 84.605,4736.03C87.998,4736.08 91.731,4737.07 95.412,4737.47C97.05,4737.65 98.677,4737.69 100.249,4737.54C101.916,4737.37 103.534,4736.98 105.028,4736.19C105.649,4735.87 106.242,4735.46 106.816,4734.99C107.347,4734.56 107.809,4734.08 108.234,4733.57C108.835,4732.86 109.368,4732.09 109.965,4731.34C110.503,4730.68 111.031,4730.05 111.572,4729.44C112.138,4728.81 112.713,4728.2 113.255,4727.54C113.717,4726.99 114.162,4726.41 114.582,4725.78C114.948,4725.23 116.155,4724.3 116.625,4723.5C116.885,4723.05 116.951,4722.62 116.851,4722.25C116.814,4722.11 116.593,4721.75 116.041,4721.67C115.437,4721.59 113.867,4721.63 113.764,4721.63C112.374,4721.62 110.962,4721.73 109.56,4721.93C108.174,4722.13 106.8,4722.42 105.463,4722.72C103.605,4723.15 101.765,4723.68 99.946,4724.27C98.14,4724.86 96.357,4725.53 94.587,4726.19C92.768,4726.89 90.951,4727.59 89.185,4728.39C87.393,4729.2 85.658,4730.1 83.989,4731.11C82.652,4731.93 81.336,4732.78 80.139,4733.81C79.993,4733.93 79.85,4734.06 79.708,4734.19C77.434,4735.52 75.194,4736.91 72.984,4738.35C69.76,4740.46 66.591,4742.66 63.487,4744.95C64.266,4743.95 65,4742.93 65.707,4741.88C66.741,4740.35 67.702,4738.76 68.659,4737.17C69.386,4735.97 70.104,4734.75 70.827,4733.54C71.018,4733.23 71.214,4732.93 71.415,4732.63C71.457,4732.62 71.493,4732.58 71.507,4732.54C71.709,4732.23 71.931,4731.99 72.108,4731.67C72.166,4731.57 72.223,4731.46 72.278,4731.36C72.561,4730.96 72.852,4730.56 73.149,4730.17C73.978,4729.08 74.855,4728.06 75.791,4727.22C76.336,4726.72 76.921,4726.27 77.525,4725.83C78.977,4724.78 80.539,4723.85 81.971,4722.82C83.721,4721.54 85.352,4720.21 86.891,4718.77C88.429,4717.34 89.872,4715.8 91.296,4714.18C92.182,4713.15 93.191,4711.99 94.049,4710.76C94.65,4709.9 95.178,4709.01 95.56,4708.11C95.988,4707.1 96.232,4706.1 96.35,4705.09C96.518,4703.65 96.445,4702.21 96.459,4700.67C96.494,4699.82 96.641,4698.96 96.723,4698.11C96.761,4697.71 96.786,4697.32 96.783,4696.92C96.782,4696.67 96.675,4696.52 96.587,4696.43L96.581,4696.43C96.598,4696.37 96.615,4696.3 96.634,4696.24C96.684,4696.15 96.652,4696.04 96.563,4695.99C96.474,4695.94 96.361,4695.97 96.311,4696.06C96.26,4696.12 96.209,4696.17 96.158,4696.23C96.141,4696.23 96.123,4696.22 96.105,4696.22C96.001,4696.22 95.849,4696.24 95.688,4696.35C95.611,4696.4 95.477,4696.55 95.401,4696.61L94.342,4697.48L91.674,4700.08C90.526,4701.21 89.454,4702.42 88.434,4703.68C87.42,4704.93 86.459,4706.22 85.529,4707.52C84.639,4708.77 83.735,4710.02 82.861,4711.28C81.986,4712.54 81.135,4713.83 80.293,4715.11C78.604,4717.69 76.978,4720.31 75.434,4722.99C74.373,4724.85 73.299,4726.59 72.448,4728.44C72.36,4728.63 72.27,4728.83 72.181,4729.02C70.235,4731.84 68.412,4734.71 66.567,4737.55C66.249,4738.04 65.931,4738.53 65.612,4739.02C65.837,4738.34 66.045,4737.66 66.24,4736.98C66.951,4734.49 67.496,4731.96 68.126,4729.41C68.517,4727.68 68.91,4726.14 69.074,4724.55C69.185,4723.48 69.192,4722.38 69.06,4721.19C68.99,4720.48 68.969,4719.75 68.893,4719.03C68.86,4718.71 68.819,4718.39 68.752,4718.08C68.648,4717.59 68.49,4717.11 68.308,4716.62C67.903,4715.55 67.363,4714.49 66.928,4713.46L66.317,4711.61C66.313,4711.59 66.128,4711.25 66.117,4711.1C66.105,4710.95 66.029,4710.96 66.029,4710.91C66.027,4710.81 65.916,4710.89 65.898,4710.83C65.879,4710.76 65.814,4710.84 65.789,4710.79C65.768,4710.75 65.734,4710.81 65.71,4710.78C65.612,4710.65 65.561,4710.89 65.428,4710.84C65.293,4710.8 65.266,4710.87 65.111,4710.93C64.986,4710.98 64.914,4711.15 64.832,4711.31C64.586,4711.79 64.465,4712.64 64.378,4712.96C64.199,4713.64 63.996,4714.31 63.768,4714.98C63.423,4716 63.039,4717 62.697,4718.02C62.205,4719.3 61.839,4720.58 61.512,4721.84C61.174,4723.15 60.897,4724.44 60.694,4725.76C60.368,4727.86 60.16,4729.98 60.22,4732.18C60.234,4732.71 60.28,4733.25 60.323,4733.79C60.461,4735.48 60.684,4737.21 60.914,4738.92C61.01,4739.64 61.114,4740.36 61.198,4741.07C61.336,4742.26 61.357,4743.44 61.369,4744.63C61.034,4745.29 60.713,4745.96 60.452,4746.66C60.204,4747.03 59.97,4747.42 59.72,4747.79C57.217,4749.71 54.751,4751.68 52.295,4753.63C47.608,4757.4 42.646,4761.08 38.059,4765.13C36.829,4766.22 35.619,4767.33 34.469,4768.49C32.729,4770.24 31.119,4772.11 29.606,4774.04C28.021,4776.02 26.356,4778.14 24.736,4780.32C23.628,4781.81 22.619,4783.39 21.563,4784.92C21.332,4785.25 21.061,4785.55 20.834,4785.88C20.608,4786.22 20.409,4786.57 20.212,4786.92C19.859,4787.55 19.526,4788.19 19.22,4788.83C19.898,4779.56 21.741,4770.66 24.475,4762.12C26.387,4756.14 28.728,4750.34 31.47,4744.71C34.012,4739.49 36.887,4734.42 40.04,4729.5C40.171,4729.53 40.311,4729.47 40.385,4729.35C41.02,4728.44 41.619,4727.52 42.14,4726.55C42.309,4726.23 42.471,4725.91 42.626,4725.59C47.273,4718.77 52.444,4712.24 57.991,4706C61.222,4702.39 64.546,4698.87 67.878,4695.38C71.238,4691.86 74.598,4688.36 77.752,4684.67C80.282,4681.71 82.711,4678.66 84.9,4675.39C86.074,4673.64 87.174,4671.82 88.206,4669.94C88.899,4669.3 89.633,4668.67 90.427,4668.05C91.644,4667.1 92.957,4666.34 94.253,4665.56C95.59,4664.75 96.922,4663.96 98.227,4663.12C99.136,4662.53 99.984,4661.87 100.863,4661.23C101.082,4661.08 101.31,4660.93 101.531,4660.77C102.972,4659.76 104.336,4658.64 105.654,4657.45C107.618,4655.67 109.47,4653.76 111.269,4651.87C113.17,4649.9 114.91,4647.64 116.597,4645.28C117.29,4644.31 117.97,4643.33 118.655,4642.34C119.19,4641.58 119.731,4640.81 120.277,4640.06C120.332,4640.01 120.387,4639.96 120.442,4639.92C121.202,4639.28 121.995,4638.85 122.882,4638.63C123.793,4638.41 124.768,4638.35 125.771,4638.4C127.247,4638.48 128.775,4638.77 130.273,4638.91C130.933,4638.97 131.59,4638.98 132.245,4638.97C133.211,4638.94 134.174,4638.85 135.144,4638.76C137.998,4638.49 140.893,4638.08 143.626,4637.2C145.48,4636.6 147.249,4635.77 148.902,4634.7C149.719,4634.14 150.514,4633.5 151.287,4632.82C152.406,4631.83 153.48,4630.76 154.527,4629.79C155.524,4628.87 156.558,4627.95 157.512,4626.97C157.805,4626.67 158.083,4626.35 158.368,4626.05C159.053,4625.31 159.71,4624.56 160.242,4623.7C160.52,4623.25 160.338,4622.92 160.158,4622.69C160.048,4622.54 159.844,4622.43 159.556,4622.36C159.21,4622.28 158.425,4622.4 158.04,4622.38C157.66,4622.38 157.281,4622.38 156.901,4622.39C156.03,4622.43 155.163,4622.52 154.295,4622.6C152.779,4622.74 151.278,4622.91 149.781,4623.11C148.282,4623.32 146.789,4623.55 145.288,4623.82C140.791,4624.7 136.029,4626.23 131.643,4628.48C130.041,4629.29 128.483,4630.2 127.011,4631.21C126.753,4631.34 126.498,4631.48 126.248,4631.63C124.753,4632.54 123.454,4633.73 122.205,4634.99C121.53,4635.67 120.878,4636.38 120.252,4637.13C122.461,4632.81 124.326,4628.33 125.641,4623.64C126.206,4621.6 126.736,4619.59 127.139,4617.57C127.545,4615.52 127.823,4613.46 127.966,4611.33L128.152,4607.85L128.106,4606.48C128.095,4606.36 128.129,4606.09 128.109,4605.98C128.072,4605.76 127.981,4605.62 127.89,4605.53C127.679,4605.33 127.366,4605.14 126.943,4605.47C126.617,4605.72 126.323,4606.1 126.081,4606.54C125.653,4607.34 125.355,4608.36 125.099,4609.01C124.656,4610 124.204,4610.98 123.753,4611.96C123.076,4613.42 122.391,4614.88 121.646,4616.32C120.861,4617.88 120.033,4619.42 119.17,4620.94C117.138,4624.51 114.972,4628.01 113.148,4631.68C112.023,4633.95 111.019,4636.28 110.239,4638.72C109.841,4639.93 109.62,4641.16 109.464,4642.41C109.252,4644.09 109.129,4645.78 108.952,4647.46C108.861,4648.32 108.746,4649.17 108.588,4650.03C108.549,4650.24 108.524,4650.45 108.482,4650.67C108.266,4651.77 107.862,4652.78 107.34,4653.76C107.125,4654.16 106.904,4654.56 106.654,4654.95C106.466,4655.24 106.268,4655.52 106.066,4655.8C105.734,4656.14 105.398,4656.48 105.058,4656.82C103.814,4658.04 102.511,4659.19 101.134,4660.23C100.833,4660.44 100.533,4660.66 100.22,4660.85C98.954,4661.64 97.596,4662.24 96.268,4662.91C95.152,4663.47 94.039,4664.05 92.964,4664.7C91.827,4665.39 90.744,4666.18 89.706,4667.05C93.044,4660.22 94.765,4653.78 95.75,4647.39C96.262,4644.07 96.616,4640.77 96.821,4637.43C96.915,4635.89 96.939,4634.34 97.008,4632.78C97.043,4631.99 97.079,4631.2 97.118,4630.4C97.21,4630.3 97.267,4630.17 97.267,4630.03C97.287,4629.87 97.298,4629.7 97.3,4629.54C97.515,4628.85 97.801,4628.17 98.143,4627.51C98.477,4626.87 98.871,4626.24 99.283,4625.61C100.928,4623.11 103.052,4620.71 104.953,4618.56C105.621,4617.8 106.27,4617.08 106.829,4616.36C110.544,4611.73 113.996,4607.13 116.301,4602.05C117.733,4598.9 118.709,4595.56 119.131,4592.01C119.396,4589.78 119.413,4587.47 119.186,4585.05C119.057,4583.97 118.886,4582.79 118.636,4581.64C118.512,4581.07 118.35,4580.51 118.206,4579.96C118.053,4579.37 117.917,4578.79 117.724,4578.26C117.569,4577.83 117.254,4577.82 117.011,4577.86C116.903,4577.88 116.767,4577.95 116.635,4578.09C116.541,4578.2 116.41,4578.48 116.316,4578.59L114.984,4580.32L112.63,4583.46C111.516,4584.97 110.462,4586.53 109.456,4588.13C108.455,4589.72 107.502,4591.34 106.573,4592.95C105.719,4594.45 104.875,4595.93 104.089,4597.44C102.893,4599.73 101.807,4602.05 100.811,4604.41C100.31,4605.6 99.828,4606.79 99.394,4608.01C98.391,4610.81 97.591,4613.7 96.976,4616.69C96.709,4618 96.508,4619.29 96.38,4620.59ZM36.071,4769.33C36.531,4769.18 36.992,4769.06 37.446,4768.95C38.488,4768.69 39.551,4768.55 40.644,4768.43C42.156,4768.27 43.727,4768.15 45.397,4767.95C49.123,4767.51 53.106,4766.91 56.804,4765.71C59.228,4764.92 61.546,4763.9 63.54,4762.33C64.304,4761.73 65.057,4761.12 65.82,4760.53C66.971,4759.63 68.138,4758.75 69.321,4757.89L70.934,4756.71C70.658,4756.74 70.441,4756.78 70.384,4756.78C70.356,4756.78 70.329,4756.79 70.301,4756.79C70.088,4756.93 69.873,4757.06 69.651,4757.19C68.006,4758.16 66.231,4758.99 64.446,4759.77C62.19,4760.76 59.874,4761.59 57.576,4762.17C53.959,4763.07 50.126,4763.72 46.42,4764.67C43.953,4765.3 41.54,4766.07 39.292,4767.15C38.616,4767.48 37.966,4767.88 37.337,4768.31C37.049,4768.51 36.771,4768.72 36.495,4768.94C36.353,4769.07 36.212,4769.2 36.071,4769.33ZM68.883,4756.93C68.25,4757.01 67.625,4757.12 66.995,4757.21C65.929,4757.37 64.86,4757.51 63.776,4757.62C62.18,4757.77 60.565,4758.07 58.96,4758.45C56.535,4759.03 54.132,4759.8 51.858,4760.61C49.154,4761.54 46.403,4762.65 43.746,4763.94C42.271,4764.66 40.843,4765.45 39.46,4766.3C39.388,4766.36 39.316,4766.42 39.243,4766.49C39.22,4766.51 39.197,4766.53 39.173,4766.55C41.403,4765.45 43.792,4764.64 46.244,4764C49.947,4763.02 53.789,4762.39 57.409,4761.5C59.227,4761.05 61.056,4760.44 62.86,4759.72C64.921,4758.91 66.925,4757.9 68.883,4756.93ZM63.142,4740.74C63.689,4739.33 64.145,4737.91 64.57,4736.49C65.306,4734.02 65.937,4731.54 66.624,4729.02C66.85,4728.21 67.061,4727.43 67.268,4726.68C67.483,4725.9 67.694,4725.15 67.846,4724.37C68.039,4723.38 68.162,4722.37 68.153,4721.24C68.142,4720.63 68.178,4720.01 68.169,4719.38C68.164,4718.99 68.139,4718.59 68.079,4718.2C67.983,4717.59 67.808,4716.97 67.583,4716.37C67.239,4715.45 66.793,4714.55 66.438,4713.67L65.713,4712.23C65.594,4712.6 65.537,4713.15 65.469,4713.32L65.394,4713.48C65.068,4714.78 64.82,4716.07 64.714,4717.4C64.501,4720.05 64.659,4722.76 64.634,4725.43C64.621,4726.61 64.547,4727.79 64.444,4728.96C64.29,4730.71 64.07,4732.45 63.892,4734.2C63.684,4736.11 63.591,4738.03 63.284,4739.92C63.24,4740.2 63.194,4740.47 63.142,4740.74ZM64.123,4716.19L63.175,4718.21C62.665,4719.46 62.229,4720.69 61.931,4721.94C61.623,4723.23 61.446,4724.53 61.357,4725.83C61.217,4727.9 61.384,4729.96 61.597,4732.09C61.648,4732.61 61.689,4733.13 61.748,4733.65C61.936,4735.33 62.282,4737.02 62.489,4738.72C62.554,4739.27 62.603,4739.81 62.634,4740.36C62.705,4739.92 62.765,4739.48 62.814,4739.03C62.994,4737.41 63.07,4735.77 63.22,4734.13C63.392,4732.39 63.607,4730.65 63.755,4728.9C63.854,4727.74 63.923,4726.59 63.932,4725.42C63.957,4722.74 63.799,4720.01 64.014,4717.34C64.045,4716.96 64.08,4716.58 64.123,4716.19ZM114.035,4724.49C111.753,4725.84 109.359,4727.06 106.969,4728.25C104.794,4729.32 102.567,4730.26 100.267,4730.95C99.171,4731.27 98.05,4731.53 96.916,4731.76C94.318,4732.27 91.656,4732.6 89.096,4733.17C85.968,4733.88 82.883,4734.85 79.973,4736.18C78.751,4736.74 77.57,4737.37 76.421,4738.07C76.77,4737.91 77.123,4737.75 77.481,4737.58C78.735,4736.98 80.154,4736.29 81.59,4735.79C82.594,4735.45 83.605,4735.2 84.59,4735.16C88.006,4734.99 91.827,4735.67 95.548,4735.92C97.088,4736.02 98.608,4736.07 100.079,4735.91C101.543,4735.75 102.947,4735.38 104.283,4734.72C104.829,4734.46 105.372,4734.16 105.894,4733.79C106.376,4733.44 106.798,4733.06 107.193,4732.64C107.831,4731.97 108.404,4731.25 109.04,4730.55C109.632,4729.89 110.236,4729.28 110.805,4728.65C111.188,4728.23 111.55,4727.8 111.908,4727.36C112.484,4726.66 113.03,4725.92 113.531,4725.11C113.637,4724.93 113.82,4724.72 114.035,4724.49ZM114.884,4723.06C114.356,4723.08 113.844,4723.11 113.788,4723.11C112.733,4723.15 111.668,4723.27 110.604,4723.42C108.995,4723.66 107.389,4723.98 105.839,4724.35C104.391,4724.68 102.957,4725.09 101.531,4725.53C99.379,4726.19 97.247,4726.93 95.139,4727.69C93.324,4728.33 91.521,4729 89.742,4729.71C88.975,4730.01 88.212,4730.32 87.457,4730.65C84.275,4732.37 81.176,4734.25 78.144,4736.24C78.648,4735.99 79.157,4735.75 79.67,4735.52C82.629,4734.17 85.755,4733.17 88.931,4732.45C91.489,4731.85 94.151,4731.47 96.748,4730.93C97.854,4730.7 98.948,4730.44 100.016,4730.11C101.706,4729.6 103.352,4728.95 104.973,4728.21C108.36,4726.68 111.621,4724.78 114.884,4723.06ZM95.249,4699.11C93.557,4702.37 91.892,4705.66 90.036,4708.83C88.425,4711.58 86.658,4714.23 84.586,4716.66C82.69,4718.87 80.337,4720.88 78.231,4723.04C77.656,4723.62 77.121,4724.24 76.603,4724.86C76.641,4724.83 76.679,4724.8 76.717,4724.77C78.116,4723.65 79.633,4722.65 81.014,4721.55C82.664,4720.25 84.179,4718.89 85.636,4717.46C87.096,4716.03 88.496,4714.53 89.859,4712.94C90.723,4711.95 91.699,4710.85 92.549,4709.69C93.095,4708.94 93.593,4708.18 93.953,4707.4C94.348,4706.55 94.569,4705.71 94.715,4704.86C94.949,4703.48 94.99,4702.09 95.105,4700.61C95.128,4700.11 95.187,4699.61 95.249,4699.11ZM94.344,4699.32C93.776,4699.89 93.234,4700.48 92.68,4701.06C91.604,4702.19 90.604,4703.4 89.656,4704.64C88.7,4705.89 87.799,4707.19 86.928,4708.49C86.105,4709.71 85.294,4710.94 84.46,4712.16C83.211,4713.98 81.937,4715.78 80.696,4717.6C79.769,4718.96 78.849,4720.32 77.952,4721.7C79.906,4719.77 82.053,4717.97 83.794,4715.97C85.867,4713.62 87.636,4711.04 89.265,4708.37C91.064,4705.42 92.68,4702.34 94.344,4699.32ZM65.321,4711.73C65.323,4711.74 65.324,4711.74 65.326,4711.74L65.333,4711.74L65.325,4711.73L65.319,4711.72L65.321,4711.73ZM65.302,4711.68C65.298,4711.66 65.299,4711.65 65.306,4711.63C65.321,4711.6 65.265,4711.67 65.282,4711.67C65.291,4711.67 65.297,4711.67 65.302,4711.68ZM33.108,4638.98C33.449,4639.69 33.769,4640.42 34.091,4641.15C35.444,4644.2 36.641,4647.33 37.906,4650.43C38.946,4653.01 39.982,4655.59 40.89,4658.23C41.497,4659.99 42.045,4661.77 42.532,4663.57C43.084,4665.6 43.59,4667.66 43.94,4669.74C44.006,4669.21 44.069,4668.67 44.134,4668.14C44.139,4668.09 44.144,4668.05 44.15,4668.01C44.084,4667.79 44.024,4667.57 43.964,4667.35C43.311,4664.92 43.012,4662.42 42.41,4659.96C41.891,4657.72 41.224,4655.44 40.443,4653.2C39.664,4650.97 38.77,4648.78 37.723,4646.73C37.041,4645.31 36.324,4643.88 35.52,4642.5C34.988,4641.59 34.42,4640.7 33.798,4639.86L33.108,4638.98ZM-0.443,4663.1C0.038,4663.46 0.521,4663.8 1.014,4664.13C1.663,4664.57 2.329,4664.98 3.031,4665.39C4.823,4666.44 6.96,4667.4 9.205,4668.16C10.623,4668.63 12.084,4669.04 13.55,4669.29C16.072,4669.71 18.598,4669.74 20.876,4669.01C21.441,4668.81 21.987,4668.53 22.518,4668.2C23.346,4667.7 24.134,4667.1 24.898,4666.55C25.44,4666.17 26.049,4665.71 26.706,4665.41C25.423,4665.05 24.146,4664.97 22.865,4665C21.705,4665.03 20.543,4665.16 19.372,4665.32C16.6,4665.7 13.791,4666.24 10.966,4666C9.664,4665.92 8.33,4665.68 6.995,4665.36C5.644,4665.04 4.285,4664.66 2.976,4664.25C2.404,4664.07 1.847,4663.88 1.294,4663.7C0.725,4663.51 0.145,4663.29 -0.443,4663.1ZM32.137,4638.64C32.159,4638.76 32.178,4638.87 32.192,4638.97C32.251,4639.46 32.306,4639.96 32.348,4640.45C32.447,4641.6 32.501,4642.75 32.582,4643.91C32.726,4646.01 32.634,4648.13 32.711,4650.24C32.73,4650.76 32.76,4651.27 32.806,4651.79C32.86,4652.39 32.979,4652.96 33.133,4653.53C33.373,4654.42 33.694,4655.28 33.983,4656.17C34.547,4657.91 35.069,4659.55 35.77,4661.15C36.228,4662.19 36.77,4663.2 37.424,4664.2C38.261,4665.43 39.478,4666.23 40.621,4667.05C41.266,4667.52 41.905,4667.98 42.447,4668.51C42.099,4666.97 41.715,4665.44 41.273,4663.92C40.758,4662.16 40.189,4660.41 39.601,4658.67C38.717,4656.05 37.789,4653.44 36.816,4650.85C35.329,4646.83 33.92,4642.78 32.224,4638.84C32.196,4638.78 32.166,4638.71 32.137,4638.64ZM26.276,4664.4C26.242,4664.41 26.197,4664.4 26.133,4664.39C26.013,4664.38 25.94,4664.25 25.846,4664.18C24.259,4663.04 23.003,4662.8 20.897,4662.42C20.053,4662.27 19.23,4662.04 18.394,4661.86C18.062,4661.79 17.728,4661.73 17.388,4661.69C16.49,4661.55 15.565,4661.47 14.628,4661.41C12.418,4661.27 10.146,4661.27 7.999,4661.21C7.09,4661.17 6.206,4661.21 5.328,4661.29C3.969,4661.42 2.63,4661.66 1.249,4661.87L-0.585,4662.19C0.143,4662.35 0.864,4662.58 1.567,4662.76C2.223,4662.94 2.896,4663.12 3.571,4663.32C5.086,4663.79 6.627,4664.32 8.171,4664.68C9.129,4664.91 10.085,4665.08 11.026,4665.16C13.793,4665.31 16.514,4664.65 19.221,4664.25C20.438,4664.08 21.652,4663.95 22.86,4663.96C24.029,4663.98 25.188,4664.13 26.337,4664.48L26.276,4664.4ZM43.266,4606.72C43.824,4607.92 44.261,4609.16 44.616,4610.42C45.419,4613.26 45.77,4616.23 45.995,4619.24C46.23,4622.41 46.249,4625.55 46.165,4628.68C46.04,4633.36 45.691,4638.02 45.552,4642.74C45.488,4644.47 45.456,4646.18 45.465,4647.9C45.473,4649.61 45.52,4651.33 45.634,4653.04C45.763,4655.24 46.103,4657.42 46.276,4659.6C46.836,4658.24 47.644,4656.96 48.464,4655.69C49.273,4654.43 50.112,4653.2 50.386,4651.68C50.523,4651.05 50.575,4650.41 50.596,4649.76C50.616,4649.12 50.632,4648.48 50.61,4647.84C50.575,4646.83 50.496,4645.82 50.587,4644.83C50.875,4641.48 51.234,4638.25 51.194,4635.03C51.177,4633.73 51.037,4632.44 50.914,4631.14C50.736,4629.24 50.494,4627.34 50.091,4625.39C49.887,4624.38 49.593,4623.4 49.293,4622.42C49.091,4621.76 48.89,4621.1 48.669,4620.45C48.105,4618.78 47.469,4617.13 46.855,4615.49C46.395,4614.25 45.823,4612.71 45.2,4611.12C44.829,4610.17 44.454,4609.2 44.032,4608.27C43.789,4607.74 43.528,4607.22 43.266,4606.72ZM42.405,4606.96L42.482,4609.48C42.778,4612.25 42.925,4615.03 43.163,4617.8C43.264,4618.98 43.385,4620.15 43.535,4621.33C43.839,4623.77 43.831,4626.19 43.649,4628.6C43.44,4631.38 43.039,4634.14 42.693,4636.9C42.406,4639.2 42.139,4641.49 42.144,4643.81L42.178,4643.81C42.328,4643.84 42.424,4643.99 42.392,4644.14C42.261,4644.9 42.236,4645.64 42.283,4646.37C42.34,4646.8 42.415,4647.23 42.507,4647.66C42.683,4648.47 42.934,4649.27 43.177,4650.07C43.475,4651.06 43.839,4652.01 44.089,4653.01C44.156,4653.28 44.178,4653.53 44.224,4653.79C44.24,4653.83 44.239,4653.87 44.225,4653.9C44.312,4654.17 44.397,4654.44 44.479,4654.71C44.42,4654.19 44.367,4653.66 44.324,4653.14C44.186,4651.39 44.109,4649.65 44.085,4647.91C44.062,4646.18 44.093,4644.44 44.149,4642.7C44.373,4637.19 44.869,4631.77 44.99,4626.3C45.041,4623.99 45.028,4621.66 44.89,4619.32C44.747,4616.87 44.513,4614.44 44.02,4612.08C43.653,4610.33 43.131,4608.62 42.405,4606.96ZM-0.659,4630.13C-0.677,4630.19 -0.688,4630.23 -0.69,4630.24L-0.712,4630.94L-0.699,4631.7C-0.656,4633.47 -0.336,4635.36 0.243,4637.17C0.815,4638.96 1.645,4640.65 2.634,4642.11C3.051,4642.72 3.529,4643.28 4.024,4643.82C4.523,4644.37 5.046,4644.9 5.602,4645.39C7.311,4646.91 9.273,4648.18 11.184,4649.36C11.466,4649.54 11.746,4649.72 12.017,4649.92C13.036,4650.66 13.979,4651.5 15.035,4652.19C15.872,4652.73 16.773,4653.18 17.633,4653.69C17.767,4653.77 17.901,4653.85 18.033,4653.93C17.035,4652.62 16.099,4651.27 14.91,4650.06C12.893,4648.02 10.632,4646.21 8.551,4644.23C8.023,4643.72 7.502,4643.22 7.003,4642.68C6.404,4642.05 5.846,4641.39 5.311,4640.72C4.514,4639.71 3.77,4638.66 3.026,4637.6C2.407,4636.71 1.825,4635.8 1.31,4634.85C0.792,4633.9 0.342,4632.9 -0.031,4631.88C-0.228,4631.33 -0.483,4630.74 -0.659,4630.13ZM0.116,4629.42C0.271,4630.16 0.603,4630.89 0.849,4631.55C1.211,4632.54 1.653,4633.48 2.146,4634.4C2.642,4635.32 3.188,4636.22 3.778,4637.09C4.49,4638.15 5.2,4639.2 5.968,4640.21C6.474,4640.87 7.006,4641.52 7.578,4642.15C8.307,4642.93 9.074,4643.68 9.874,4644.39C11.763,4646.07 13.789,4647.61 15.61,4649.36C16.587,4650.28 17.439,4651.29 18.251,4652.31C18.54,4652.68 18.828,4653.05 19.116,4653.42C19.103,4653.35 19.091,4653.28 19.078,4653.21C18.867,4652.03 18.746,4650.79 18.616,4649.59C18.532,4648.81 18.453,4648.04 18.293,4647.31C17.98,4645.83 17.49,4644.29 16.894,4642.81C16.3,4641.33 15.61,4639.9 14.707,4638.67C13.57,4637.1 12.245,4636.03 10.747,4635.2C10.116,4634.86 9.456,4634.56 8.775,4634.28C7.778,4633.88 6.734,4633.54 5.679,4633.1C5.369,4632.97 5.073,4632.81 4.783,4632.64C4.153,4632.27 3.562,4631.83 2.925,4631.48C2.589,4631.29 2.275,4631.08 1.974,4630.87C1.34,4630.41 0.763,4629.9 0.116,4629.42ZM110.622,4650.74C111.546,4648.91 112.682,4647.19 113.703,4645.41C115.639,4642.03 117.592,4638.66 119.275,4635.16C121.136,4631.3 122.741,4627.32 123.879,4623.15C124.547,4620.75 125.13,4618.39 125.591,4616C125.896,4614.42 126.155,4612.83 126.313,4611.19L126.571,4608.5C126.416,4608.85 126.278,4609.19 126.151,4609.46C126.063,4609.68 125.975,4609.89 125.887,4610.1C125.921,4610.07 125.966,4610.07 126.01,4610.08C126.082,4610.1 126.123,4610.18 126.101,4610.25C125.52,4612.32 125.035,4614.45 124.451,4616.54C124.058,4617.95 123.614,4619.34 123.104,4620.69C122.346,4622.68 121.527,4624.64 120.665,4626.59C118.663,4631.13 116.457,4635.58 114.475,4640.11C113.746,4641.77 113.016,4643.47 112.33,4645.18C111.873,4646.32 111.435,4647.46 111.032,4648.6C110.71,4649.49 110.43,4650.43 110.098,4651.35C110.187,4651.25 110.275,4651.15 110.364,4651.05C110.45,4650.95 110.536,4650.84 110.622,4650.74ZM125.764,4610.39C125.263,4611.6 124.757,4612.79 124.214,4613.96C123.759,4614.95 123.272,4615.92 122.77,4616.9C121.956,4618.46 121.082,4620 120.206,4621.53C118.178,4625.07 116.086,4628.59 114.31,4632.25C113.238,4634.47 112.29,4636.75 111.56,4639.13C110.76,4641.83 110.943,4644.64 110.669,4647.38C110.974,4646.55 111.295,4645.72 111.627,4644.89C112.314,4643.18 113.046,4641.47 113.776,4639.8C115.767,4635.28 117.959,4630.81 119.993,4626.29C120.863,4624.36 121.71,4622.42 122.488,4620.45C122.885,4619.46 123.234,4618.44 123.571,4617.41C124.337,4615.08 125.01,4612.7 125.764,4610.39ZM158.225,4624.31C157.868,4624.51 157.526,4624.73 157.166,4624.93C156.476,4625.31 155.766,4625.66 155.055,4626C154.537,4626.25 154.008,4626.47 153.464,4626.66C151.209,4627.42 148.903,4628.13 146.567,4628.75C145.522,4629.03 144.469,4629.27 143.42,4629.53C140.956,4630.13 138.492,4630.71 136.039,4631.16C134.454,4631.46 132.934,4631.83 131.437,4632.29C129.943,4632.74 128.474,4633.28 126.969,4633.86C126.073,4634.22 125.202,4634.61 124.386,4635.07C124.176,4635.23 123.968,4635.39 123.763,4635.56C123.622,4635.72 123.482,4635.88 123.344,4636.04C122.808,4636.67 122.296,4637.32 121.792,4637.99C122.083,4637.89 122.38,4637.82 122.68,4637.75C123.673,4637.54 124.726,4637.53 125.811,4637.58C127.293,4637.66 128.839,4637.85 130.346,4637.93C130.968,4637.97 131.583,4637.95 132.196,4637.91C133.135,4637.84 134.067,4637.71 135.007,4637.58C137.299,4637.27 139.605,4636.84 141.831,4636.18C142.931,4635.85 144.006,4635.45 145.058,4635C146.096,4634.55 147.113,4634.05 148.081,4633.43C148.866,4632.94 149.631,4632.36 150.379,4631.75C151.523,4630.81 152.628,4629.79 153.702,4628.87C154.907,4627.82 156.223,4626.83 157.276,4625.62C157.632,4625.21 157.946,4624.77 158.225,4624.31ZM157.281,4624.22L154.49,4624.5C153.001,4624.66 151.529,4624.85 150.06,4625.07C148.593,4625.29 147.131,4625.54 145.662,4625.83C141.319,4626.6 136.733,4628.06 132.457,4630.11C130.511,4631.05 128.635,4632.12 126.865,4633.29C128.373,4632.79 129.851,4632.34 131.339,4631.94C132.86,4631.54 134.391,4631.17 135.991,4630.9C138.9,4630.35 141.842,4629.71 144.735,4628.88C146.464,4628.38 148.161,4627.79 149.854,4627.21C150.99,4626.82 152.124,4626.44 153.239,4626.03C154.473,4625.59 155.588,4624.9 156.792,4624.41C156.954,4624.34 157.117,4624.28 157.281,4624.22ZM116.772,4580.14C116.799,4580.11 116.839,4580.09 116.882,4580.1C116.956,4580.11 117.011,4580.17 117.005,4580.24C116.873,4582.8 116.353,4585.37 115.533,4587.88C114.318,4591.6 112.492,4595.18 110.83,4598.53C109.492,4601.18 108.156,4603.82 106.775,4606.44C105.853,4608.19 104.91,4609.92 103.941,4611.65C102.426,4614.32 100.706,4617.13 99.365,4620.05C98.474,4621.99 97.747,4623.98 97.385,4626.03C97.382,4626.05 97.375,4626.08 97.367,4626.1C97.353,4626.3 97.34,4626.5 97.327,4626.7C97.582,4626.19 97.869,4625.68 98.181,4625.19C99.929,4622.44 102.55,4620.04 104.592,4617.7C105.146,4617.06 105.645,4616.42 106.097,4615.81C109.349,4611.27 112.241,4606.72 114.358,4601.92C114.896,4600.7 115.401,4599.47 115.833,4598.21C116.543,4596.15 117.075,4594.01 117.398,4591.78C117.703,4589.67 117.835,4587.47 117.71,4585.16C117.676,4583.91 117.61,4582.52 117.394,4581.18C117.337,4580.83 117.281,4580.49 117.191,4580.15C117.15,4580 117.104,4579.85 117.053,4579.71L116.772,4580.14ZM85.141,4597.47C85.136,4597.46 85.131,4597.46 85.126,4597.45C85.065,4597.78 85.06,4598.12 85.078,4598.45C85.129,4599.41 85.402,4600.39 85.552,4601.31C85.76,4602.8 86.043,4604.27 86.376,4605.73C86.882,4607.95 87.491,4610.13 87.999,4612.36C88.217,4613.29 88.412,4614.23 88.653,4615.15C88.81,4615.75 88.988,4616.35 89.204,4616.93C89.559,4617.88 89.948,4618.83 90.385,4619.76C90.819,4620.67 91.301,4621.56 91.848,4622.42C92.879,4623.98 94.787,4625.09 96.06,4626.51L96.064,4626.48C95.984,4626.36 95.903,4626.24 95.835,4626.11C95.791,4626.03 95.764,4625.94 95.728,4625.85C95.238,4624.67 94.619,4623.54 94.06,4622.38C93.75,4621.74 93.46,4621.09 93.218,4620.42L90.444,4612.34C89.384,4609.33 88.481,4606.21 87.43,4603.16C86.802,4601.33 86.124,4599.54 85.304,4597.81C85.25,4597.69 85.168,4597.59 85.141,4597.47ZM86.67,4599.19C87.005,4599.9 87.32,4600.63 87.615,4601.37C89.007,4604.86 90.013,4608.54 91.284,4612.04L94.12,4620.09C94.549,4621.24 95.132,4622.34 95.694,4623.44C95.641,4623.14 95.587,4622.83 95.532,4622.51C95.074,4619.82 94.409,4617.18 93.621,4614.58C92.833,4611.98 91.92,4609.41 90.844,4606.9C90.212,4605.41 89.509,4603.95 88.726,4602.53C88.094,4601.38 87.41,4600.26 86.67,4599.19ZM116.746,4580.18L116.135,4581.13L113.936,4584.4C113.095,4585.6 112.296,4586.84 111.525,4588.1C110.365,4589.99 109.272,4591.93 108.217,4593.87C107.404,4595.36 106.627,4596.86 105.854,4598.35C104.686,4600.61 103.552,4602.86 102.531,4605.16C102.02,4606.31 101.54,4607.47 101.071,4608.64C100.009,4611.29 99.049,4614 98.298,4616.82C98.032,4618.73 97.824,4620.61 97.655,4622.45C97.952,4621.54 98.301,4620.64 98.688,4619.75C99.979,4616.78 101.685,4613.93 103.171,4611.22C104.365,4609.07 105.513,4606.89 106.642,4604.7C107.772,4602.51 108.884,4600.31 109.993,4598.11C111.682,4594.81 113.438,4591.25 114.788,4587.62C115.692,4585.19 116.438,4582.72 116.736,4580.22C116.738,4580.21 116.741,4580.19 116.746,4580.18ZM42.343,4605.11C42.365,4605.12 42.387,4605.13 42.409,4605.15C42.386,4605.1 42.362,4605.06 42.339,4605.02L42.343,4605.11Z"/>
                            </g>
                        </g>
                    </g>
                </g>
            </g>
        </g>
    </g>
</svg>
