<svg xmlns="http://www.w3.org/2000/svg" width="556" height="556" viewBox="0 0 556 556" version="1.1">
	<path d="M 24 108.500 L 24 193 108.500 193 L 193 193 193 108.500 L 193 24 108.500 24 L 24 24 24 108.500 M 242 48.500 L 242 73 230 73 L 218 73 218 145.500 L 218 218 230 218 L 242 218 242 193.500 L 242 169 254 169 L 266 169 266 181 L 266 193 278 193 L 290 193 290 205.500 L 290 218 278 218 L 266 218 266 230 L 266 242 254 242 L 242 242 242 266 L 242 290 230 290 L 218 290 218 302 L 218 314 193.500 314 L 169 314 169 326 L 169 338 193.500 338 L 218 338 218 350.500 L 218 363 230 363 L 242 363 242 375 L 242 387 230 387 L 218 387 218 435 L 218 483 230 483 L 242 483 242 495.500 L 242 508 230 508 L 218 508 218 520 L 218 532 230 532 L 242 532 242 520 L 242 508 254 508 L 266 508 266 520 L 266 532 278 532 L 290 532 290 520 L 290 508 302 508 L 314 508 314 520 L 314 532 326 532 L 338 532 338 520 L 338 508 350.500 508 L 363 508 363 520 L 363 532 375 532 L 387 532 387 520 L 387 508 411 508 L 435 508 435 520 L 435 532 447 532 L 459 532 459 520 L 459 508 471 508 L 483 508 483 520 L 483 532 495.500 532 L 508 532 508 520 L 508 508 495.500 508 L 483 508 483 495.500 L 483 483 471 483 L 459 483 459 471 L 459 459 471 459 L 483 459 483 447 L 483 435 507.500 435 L 532 435 532 411 L 532 387 520 387 L 508 387 508 375 L 508 363 520 363 L 532 363 532 350.500 L 532 338 507.500 338 L 483 338 483 362.500 L 483 387 447 387 L 411 387 411 399 L 411 411 423 411 L 435 411 435 423 L 435 435 423 435 L 411 435 411 447 L 411 459 423 459 L 435 459 435 471 L 435 483 411 483 L 387 483 387 447 L 387 411 375 411 L 363 411 363 423 L 363 435 350.500 435 L 338 435 338 447 L 338 459 302 459 L 266 459 266 471 L 266 483 254 483 L 242 483 242 459 L 242 435 278 435 L 314 435 314 411 L 314 387 338.500 387 L 363 387 363 362.500 L 363 338 375 338 L 387 338 387 350.500 L 387 363 423 363 L 459 363 459 350.500 L 459 338 447 338 L 435 338 435 326 L 435 314 399 314 L 363 314 363 302 L 363 290 375 290 L 387 290 387 278 L 387 266 411 266 L 435 266 435 254 L 435 242 447 242 L 459 242 459 254 L 459 266 471 266 L 483 266 483 278 L 483 290 471 290 L 459 290 459 302 L 459 314 483.500 314 L 508 314 508 290 L 508 266 520 266 L 532 266 532 254 L 532 242 507.500 242 L 483 242 483 230 L 483 218 423 218 L 363 218 363 230 L 363 242 350.500 242 L 338 242 338 181.500 L 338 121 326 121 L 314 121 314 84.500 L 314 48 326 48 L 338 48 338 36 L 338 24 314 24 L 290 24 290 36 L 290 48 278 48 L 266 48 266 36 L 266 24 254 24 L 242 24 242 48.500 M 363 108.500 L 363 193 447.500 193 L 532 193 532 108.500 L 532 24 447.500 24 L 363 24 363 108.500 M 48 108.500 L 48 169 108.500 169 L 169 169 169 108.500 L 169 48 108.500 48 L 48 48 48 108.500 M 387 108.500 L 387 169 447.500 169 L 508 169 508 108.500 L 508 48 447.500 48 L 387 48 387 108.500 M 73 109 L 73 145 109 145 L 145 145 145 109 L 145 73 109 73 L 73 73 73 109 M 411 109 L 411 145 447 145 L 483 145 483 109 L 483 73 447 73 L 411 73 411 109 M 266 109 L 266 121 278 121 L 290 121 290 133 L 290 145 278 145 L 266 145 266 157 L 266 169 278 169 L 290 169 290 181 L 290 193 302 193 L 314 193 314 157 L 314 121 302 121 L 290 121 290 109 L 290 97 278 97 L 266 97 266 109 M 24 230 L 24 242 36 242 L 48 242 48 254 L 48 266 72.500 266 L 97 266 97 254 L 97 242 121 242 L 145 242 145 254 L 145 266 133 266 L 121 266 121 302 L 121 338 133 338 L 145 338 145 302 L 145 266 157 266 L 169 266 169 278 L 169 290 181 290 L 193 290 193 278 L 193 266 205.500 266 L 218 266 218 254 L 218 242 205.500 242 L 193 242 193 230 L 193 218 133 218 L 73 218 73 230 L 73 242 60.500 242 L 48 242 48 230 L 48 218 36 218 L 24 218 24 230 M 290 230 L 290 242 302 242 L 314 242 314 254 L 314 266 290 266 L 266 266 266 278 L 266 290 290 290 L 314 290 314 314 L 314 338 302 338 L 290 338 290 326 L 290 314 278 314 L 266 314 266 326 L 266 338 254 338 L 242 338 242 350.500 L 242 363 254 363 L 266 363 266 375 L 266 387 254 387 L 242 387 242 399 L 242 411 254 411 L 266 411 266 399 L 266 387 290 387 L 314 387 314 375 L 314 363 326 363 L 338 363 338 350.500 L 338 338 350.500 338 L 363 338 363 326 L 363 314 350.500 314 L 338 314 338 302 L 338 290 350.500 290 L 363 290 363 278 L 363 266 350.500 266 L 338 266 338 254 L 338 242 326 242 L 314 242 314 230 L 314 218 302 218 L 290 218 290 230 M 169 254 L 169 266 181 266 L 193 266 193 254 L 193 242 181 242 L 169 242 169 254 M 314 278 L 314 290 326 290 L 338 290 338 278 L 338 266 326 266 L 314 266 314 278 M 24 314 L 24 338 36 338 L 48 338 48 326 L 48 314 72.500 314 L 97 314 97 302 L 97 290 60.500 290 L 24 290 24 314 M 24 447.500 L 24 532 108.500 532 L 193 532 193 447.500 L 193 363 108.500 363 L 24 363 24 447.500 M 48 447.500 L 48 508 108.500 508 L 169 508 169 447.500 L 169 387 108.500 387 L 48 387 48 447.500 M 483 399 L 483 411 471 411 L 459 411 459 423 L 459 435 471 435 L 483 435 483 423 L 483 411 495.500 411 L 508 411 508 399 L 508 387 495.500 387 L 483 387 483 399 M 73 447 L 73 483 109 483 L 145 483 145 447 L 145 411 109 411 L 73 411 73 447 M 338 471 L 338 483 326 483 L 314 483 314 495.500 L 314 508 326 508 L 338 508 338 495.500 L 338 483 350.500 483 L 363 483 363 495.500 L 363 508 375 508 L 387 508 387 495.500 L 387 483 375 483 L 363 483 363 471 L 363 459 350.500 459 L 338 459 338 471 M 266 495.500 L 266 508 278 508 L 290 508 290 495.500 L 290 483 278 483 L 266 483 266 495.500" stroke="none"  fill-rule="evenodd"/>
</svg>