<svg xmlns="http://www.w3.org/2000/svg" width="1000" height="1000" viewBox="0 0 1000 1000" version="1.1">
	<path d="M 32.996 33.504 L 9.508 57.008 476.253 523.753 L 942.998 990.497 966.747 966.748 L 990.496 942.998 817.040 769.540 C 721.640 674.138, 643.790 595.926, 644.042 595.735 C 644.294 595.543, 647.722 593.994, 651.659 592.291 C 669.240 584.687, 687.534 571.458, 703.567 554.755 C 709.580 548.491, 717.353 539.346, 720.839 534.433 L 727.179 525.500 723.703 522.500 C 718.490 518, 704.878 510.191, 693.560 505.209 C 673.563 496.405, 652.787 490.750, 628 487.362 C 619.636 486.219, 608.716 485.649, 595 485.639 C 572.940 485.624, 566.288 486.515, 550.152 491.644 L 541.804 494.298 523.925 476.399 L 506.045 458.500 508.434 451.950 C 509.747 448.347, 511.875 440.697, 513.161 434.950 C 515.219 425.757, 515.490 422.034, 515.418 404 C 515.365 390.690, 514.739 379.116, 513.633 371 C 510.335 346.795, 504.488 325.291, 495.898 305.766 C 491.273 295.254, 482.538 280.086, 478.328 275.256 L 475.500 272.011 466.012 278.756 C 453.833 287.413, 433.393 307.818, 424.699 320 C 420.970 325.225, 414.866 335.654, 411.135 343.177 L 404.351 356.853 230.927 183.427 C 135.543 88.042, 57.273 10, 56.993 10 C 56.713 10, 45.914 20.577, 32.996 33.504 M 877.500 101.125 C 863.589 102.308, 843.131 105.465, 829.230 108.575 C 804.234 114.166, 779.046 124.318, 763.490 135.072 C 750.436 144.096, 738.092 159.038, 729.265 176.500 C 723.286 188.329, 719.507 199.709, 717.427 212.147 C 713.346 236.553, 719.286 265.592, 729.803 272.654 C 737.268 277.667, 756.861 282, 772.059 282 C 789.824 282, 806.771 278.163, 822.720 270.528 C 831.560 266.297, 841.116 260.401, 847.500 255.239 C 860.268 244.915, 870.653 231.525, 877.668 216.342 C 882.375 206.154, 888.198 188.116, 891.336 174 C 895.573 154.940, 900 119.403, 900 104.446 L 900 100 893.750 100.137 C 890.313 100.213, 883 100.658, 877.500 101.125 M 654.100 145.547 C 631.687 150.409, 606.772 162.927, 585.808 179.857 C 576.065 187.725, 563.673 200.942, 557.036 210.542 C 547.174 224.808, 541.916 237.775, 537.276 259.273 C 535.918 265.563, 535.521 271.739, 535.591 285.500 C 535.672 301.473, 535.970 304.580, 538.242 313.085 C 542.959 330.752, 549.019 343.534, 558.586 356 C 563.043 361.807, 568.853 367.603, 572.973 370.351 C 574.332 371.258, 577.346 372, 579.669 372 C 584.965 372, 596.338 366.291, 605.391 359.087 C 620.471 347.087, 636.317 326.708, 645.429 307.595 C 656.944 283.443, 666.125 245.527, 669.063 210 C 670.891 187.894, 669.567 161.861, 665.898 147.750 C 664.780 143.452, 664.232 143.350, 654.100 145.547 M 791.500 330.633 C 758.680 333.355, 721.170 341.976, 699.146 351.858 C 679 360.896, 659.689 374.196, 646.500 388.116 C 631.210 404.252, 624.615 419.481, 629.649 427.027 C 632.397 431.147, 638.193 436.957, 644 441.414 C 656.466 450.981, 669.248 457.041, 686.915 461.758 C 695.420 464.030, 698.527 464.328, 714.500 464.409 C 729.930 464.487, 733.988 464.167, 742.919 462.168 C 756.121 459.212, 765.142 455.987, 776.500 450.163 C 795.070 440.641, 814.365 423.331, 828.517 403.500 C 841.261 385.642, 851.985 361.189, 854.994 343.128 C 855.993 337.131, 855.979 335.605, 854.921 334.951 C 854.206 334.509, 849.768 333.411, 845.060 332.512 C 839.474 331.445, 829.551 330.762, 816.500 330.547 C 805.500 330.366, 794.250 330.404, 791.500 330.633 M 293.242 451.225 C 269.176 475.477, 255.193 501.524, 249.959 531.849 C 246.648 551.030, 247.707 581.808, 252.435 603.838 C 254.492 613.425, 258.301 624.673, 261.900 631.793 C 263.486 634.932, 266.800 640.235, 269.263 643.577 C 278.090 655.556, 289.239 662.152, 301.802 662.830 C 308.357 663.184, 309.736 662.912, 315.302 660.170 C 333.059 651.421, 351.469 628.164, 360.373 603.234 C 363.952 593.215, 366.797 578.496, 367.569 566 C 368.342 553.512, 366.665 529.105, 363.930 513.045 L 361.965 501.500 332.205 471.725 L 302.446 441.950 293.242 451.225 M 173.488 576.168 C 160.258 585.045, 146.086 597.705, 136.223 609.456 C 118.164 630.974, 107.585 652.557, 102.318 678.626 C 99.877 690.709, 99.869 723.760, 102.302 739.500 C 104.865 756.079, 108.482 768.363, 114.215 779.966 C 118.327 788.289, 120.849 791.919, 126.529 797.692 C 131.721 802.969, 135.549 805.830, 140.547 808.169 C 146.177 810.804, 148.700 811.397, 154.469 811.443 C 160.496 811.492, 162.496 811.018, 168.288 808.173 C 172.865 805.923, 177.977 802.069, 184.063 796.278 C 202.581 778.655, 214.199 755.221, 218.657 726.500 C 219.839 718.883, 220.069 712.210, 219.624 698.500 C 219.303 688.600, 218.112 674.259, 216.978 666.631 C 213.032 640.078, 204.622 613.134, 194.308 594 C 189.373 584.844, 183.050 575.116, 180.843 573.285 C 179.780 572.402, 178.146 573.043, 173.488 576.168 M 420.500 632.455 C 402.493 635.286, 385.276 641.774, 370.976 651.117 C 356.261 660.733, 344.811 672.763, 339.483 684.209 C 333.147 697.819, 338.985 715.077, 354.203 727.723 C 361.337 733.651, 377.392 741.377, 389 744.468 C 405.614 748.891, 418.649 750.377, 441 750.396 C 458.465 750.411, 463.008 750.086, 471.688 748.200 C 485.440 745.213, 497.442 740.890, 509.802 734.473 C 523.617 727.299, 534.196 719.555, 546.915 707.304 L 557.500 697.109 527 666.690 L 496.500 636.270 486 634.617 C 469.923 632.084, 456.821 631.044, 442 631.125 C 434.575 631.165, 424.900 631.764, 420.500 632.455 M 276 781.538 C 257.390 784.480, 239.811 791.284, 224.506 801.467 C 214.325 808.242, 200.686 822.391, 196 831.040 C 192.871 836.816, 192.503 838.295, 192.531 845 C 192.557 851.250, 193.073 853.584, 195.629 859 C 199.582 867.380, 206.657 875.156, 215.710 881.070 C 225.017 887.150, 235.331 891.403, 248.195 894.465 C 264.503 898.347, 275.062 899.436, 296.500 899.450 C 318.017 899.463, 326.365 898.353, 342.374 893.349 C 352.646 890.138, 368.292 882.641, 378 876.277 C 395.545 864.776, 412.357 848.252, 426.161 828.940 C 431.748 821.124, 431.960 820.614, 430.361 818.846 C 427.585 815.779, 413.287 807.009, 403.516 802.381 C 385.398 793.798, 366.845 788.093, 344 784.079 C 320.788 780, 292.427 778.940, 276 781.538" stroke="none"  fill-rule="evenodd"/>
</svg>