<svg xmlns="http://www.w3.org/2000/svg" width="640" height="640" viewBox="0 0 640 640" version="1.1">
	<path d="M 451.018 79.966 C 450.439 81.048, 449.074 87.747, 447.985 94.853 C 445.513 110.985, 442.846 119.500, 438.856 124 C 436.039 127.177, 435.816 127.269, 436.441 125 C 436.820 123.625, 437.367 118.450, 437.656 113.500 C 438.236 103.581, 436.723 96.763, 433.817 96.203 C 430.499 95.564, 429.655 99.788, 429.562 117.500 C 429.487 131.628, 429.174 135.091, 427.708 138 C 425.829 141.729, 419.220 149.880, 420.816 146.500 C 422.510 142.913, 425 130.221, 425 125.175 C 425 115.849, 420.388 116.748, 417.401 126.655 C 416.597 129.320, 415.417 137.042, 414.777 143.816 C 413.674 155.502, 413.509 156.104, 411.557 155.580 C 410.426 155.276, 408.980 155.021, 408.344 155.014 C 407.708 155.006, 406.864 152.647, 406.468 149.770 C 406.073 146.894, 405.115 142.744, 404.341 140.549 C 402.820 136.238, 399.395 132, 397.433 132 C 395.235 132, 395.040 134.871, 396.650 143.547 C 397.522 148.250, 397.977 152.357, 397.660 152.673 C 397.343 152.990, 392.228 152.743, 386.292 152.125 C 351.706 148.522, 291.692 148.235, 255 151.496 C 223.351 154.309, 202.242 158.667, 197.553 163.356 C 196 164.909, 194.654 168.777, 192.968 176.527 C 190.998 185.590, 190.596 190.198, 190.658 203 C 190.720 215.537, 191.145 220.029, 192.883 226.500 C 195.545 236.412, 200.694 247.418, 206.406 255.411 C 212.833 264.403, 227.135 277.668, 238.500 285.178 C 244 288.812, 255.902 295.699, 264.949 300.482 C 273.996 305.265, 283.233 310.441, 285.476 311.984 C 292.155 316.579, 298.157 323.164, 300.702 328.690 C 305.476 339.058, 307.037 358.967, 307.710 418.105 C 308.266 466.971, 307.372 488.955, 304.417 499.041 C 303.538 502.044, 302.504 504.833, 302.120 505.239 C 301.736 505.646, 296.714 506.442, 290.961 507.008 C 270.437 509.028, 251.904 513.437, 241.386 518.803 C 239.145 519.947, 235.891 522.499, 234.155 524.476 C 231.549 527.444, 231 528.908, 231 532.887 C 231 536.245, 231.692 538.734, 233.284 541.102 C 239.048 549.680, 259.727 556.880, 287.500 559.979 C 300.890 561.473, 336.700 561.233, 350.203 559.558 C 369.987 557.103, 386.477 552.469, 395.089 546.943 C 397.701 545.267, 400.582 542.760, 401.491 541.374 C 403.685 538.025, 403.695 528.709, 401.507 525.371 C 396.257 517.357, 372.735 509.804, 344.500 507.065 C 336.441 506.284, 333.180 505.566, 332.303 504.381 C 327.883 498.407, 325.449 461.409, 326.356 414 C 327.154 372.347, 329.173 343.498, 332.034 332.874 C 333.533 327.305, 338.840 320.086, 345.168 315.005 C 348.286 312.502, 358.861 306.211, 368.668 301.024 C 378.476 295.838, 391.049 288.552, 396.608 284.835 C 432.209 261.029, 447.053 232.040, 443.871 192.533 C 443.382 186.465, 442.122 177.902, 441.070 173.504 C 440.019 169.107, 439.353 165.313, 439.592 165.074 C 439.831 164.835, 441.933 165.961, 444.263 167.576 C 446.991 169.466, 449.506 172.469, 451.326 176.006 C 453.931 181.072, 454.122 182.201, 453.779 190.500 C 453.466 198.081, 452.981 200.223, 450.704 204.088 C 449.217 206.611, 448 209.655, 448 210.853 C 448 213.409, 452.142 216.220, 458.554 218.015 C 465.079 219.842, 467.402 218.854, 469.499 213.363 C 470.480 210.794, 472.907 206.891, 474.891 204.689 C 479.309 199.789, 487.057 196.023, 492.750 196.010 C 497.820 195.998, 498.411 194.114, 494.250 191.231 C 489.980 188.272, 488.087 187.741, 479.524 187.098 L 471.548 186.500 470.842 182.344 C 469.264 173.054, 461.408 162.788, 452.642 158.562 C 445.523 155.131, 435.732 153.594, 428.911 154.837 C 425.935 155.379, 423.344 155.670, 423.154 155.482 C 422.964 155.295, 426.114 154.192, 430.154 153.031 C 441.440 149.787, 445.597 148.102, 447.499 146.001 C 448.509 144.885, 448.972 143.370, 448.600 142.400 C 448.070 141.019, 447.063 140.832, 442.844 141.332 C 440.031 141.665, 434.753 143.394, 431.115 145.174 C 427.477 146.954, 424.105 148.600, 423.623 148.831 C 423.140 149.062, 424.621 146.768, 426.913 143.732 C 431.918 137.102, 436.261 134.981, 451.925 131.517 C 465.826 128.442, 470 126.722, 470 124.070 C 470 121.474, 466.557 120.559, 459.519 121.286 C 455.065 121.746, 450.228 123.350, 440.008 127.757 C 439.187 128.110, 439.993 126.534, 441.800 124.253 C 446.082 118.846, 453.164 115.560, 467.249 112.445 C 473.417 111.081, 479.096 109.332, 479.869 108.560 C 480.641 107.787, 481.001 106.445, 480.668 105.578 C 479.821 103.369, 471.001 103.547, 464.157 105.911 L 458.814 107.756 464.157 103.181 C 471.350 97.023, 477.909 90.077, 479.577 86.851 C 480.751 84.581, 480.738 84.028, 479.490 82.991 C 476.241 80.295, 463.860 89.772, 456.289 100.750 C 454.297 103.638, 452.565 106, 452.439 106 C 452.313 106, 453.079 103.206, 454.142 99.792 C 456.710 91.542, 457.565 82.924, 456.090 80.168 C 454.645 77.468, 452.403 77.379, 451.018 79.966 M 452.523 82.080 C 451.695 84.237, 448.055 108.389, 448.492 108.826 C 449.148 109.481, 453.727 93.603, 454.355 88.500 C 454.694 85.750, 454.551 82.838, 454.039 82.028 C 453.224 80.740, 453.034 80.747, 452.523 82.080 M 470.896 88.429 C 466.506 91.650, 462.876 95.672, 456.415 104.470 L 453.500 108.439 457 105.981 C 461.531 102.800, 475.861 89.128, 477.108 86.797 C 478.635 83.946, 476.095 84.613, 470.896 88.429 M 432.030 114.250 C 432.049 123.463, 432.407 128.906, 432.936 128 C 434.224 125.795, 436 115.338, 436 109.966 C 436 104.881, 434.339 99, 432.902 99 C 432.404 99, 432.014 105.830, 432.030 114.250 M 465.498 107.874 C 460.035 109.842, 453.259 113.382, 456.500 112.575 C 459.051 111.939, 477.308 108, 477.703 108 C 477.866 108, 478 107.550, 478 107 C 478 105.413, 470.964 105.905, 465.498 107.874 M 420.803 124.166 C 419.308 127.527, 417.741 136.009, 416.630 146.750 C 416.388 149.088, 416.336 151, 416.514 151 C 417.156 151, 420.922 138.361, 422.035 132.467 C 422.662 129.149, 423.008 125.099, 422.804 123.467 L 422.433 120.500 420.803 124.166 M 454.265 124.542 C 448.920 125.981, 439.539 130.318, 438.646 131.763 C 438.105 132.639, 450.460 129.957, 461.426 126.818 C 466.395 125.396, 467.949 124.581, 466.926 123.933 C 464.932 122.671, 460.402 122.889, 454.265 124.542 M 398.410 139.500 C 398.714 142.250, 399.630 148.100, 400.446 152.500 C 401.262 156.900, 401.978 162.525, 402.035 165 C 402.116 168.451, 402.341 169.034, 403 167.500 C 404.213 164.678, 404.191 147.228, 402.970 142.830 C 402.409 140.812, 401.029 138.112, 399.904 136.830 L 397.858 134.500 398.410 139.500 M 439.746 144.086 C 435.823 145.010, 427.928 148.768, 424.500 151.342 C 423.165 152.345, 425.657 151.930, 432 150.092 C 442.253 147.122, 446 145.482, 446 143.965 C 446 142.847, 444.914 142.868, 439.746 144.086 M 279.080 152.021 C 257.876 153.079, 227.613 156.417, 215.739 159.006 C 205.582 161.220, 198 164.308, 198 166.228 C 198 169.507, 208.529 173.165, 226 175.955 C 252.283 180.153, 273.049 181.368, 319 181.396 C 342.925 181.410, 364.095 181.099, 366.045 180.704 C 368.911 180.124, 369.773 179.370, 370.545 176.773 C 371.677 172.964, 379.020 167, 382.578 167 C 384.877 167, 385 167.311, 385 173.116 L 385 179.233 391.750 178.518 C 395.462 178.125, 398.725 177.582, 399 177.313 C 399.744 176.585, 399.601 157.267, 398.846 156.513 C 397.966 155.633, 387.271 154.281, 371 152.994 C 352.398 151.522, 300.158 150.969, 279.080 152.021 M 406.607 158.582 C 406.273 159.452, 406 161.703, 406 163.584 L 406 167.005 409.500 163.294 C 411.425 161.253, 413 159.275, 413 158.899 C 413 158.098, 410.412 157, 408.525 157 C 407.804 157, 406.941 157.712, 406.607 158.582 M 424 157.935 C 416.539 160.213, 408.196 166.903, 403.654 174.250 C 401.599 177.574, 401.502 177.562, 413.619 175.456 C 421.858 174.024, 422.825 173.598, 427 169.564 C 429.475 167.172, 433.075 164.410, 435 163.425 C 436.925 162.441, 441.650 161.361, 445.500 161.025 L 452.500 160.414 447.068 158.707 C 441.456 156.943, 428.653 156.515, 424 157.935 M 447.220 166.962 C 453.361 172.368, 456.332 179.367, 456.427 188.654 C 456.473 193.138, 456.873 195.584, 457.500 195.209 C 458.050 194.879, 460.255 193.348, 462.400 191.805 C 464.545 190.262, 466.970 189, 467.789 189 C 468.986 189, 469.164 188.031, 468.695 184.068 C 467.222 171.636, 457.989 163.025, 446.109 163.006 L 442.718 163 447.220 166.962 M 430.766 169.011 L 427.500 172.022 430.317 171.010 C 434.636 169.459, 437 168.028, 437 166.965 C 437 165.061, 433.972 166.055, 430.766 169.011 M 377.710 171.599 C 375.626 172.963, 373.488 175.216, 372.960 176.605 C 372.432 177.994, 372 179.326, 372 179.565 C 372 180.224, 379.614 180.085, 381.418 179.393 C 382.562 178.954, 383 177.432, 383 173.893 C 383 171.202, 382.663 169.026, 382.250 169.059 C 381.837 169.091, 379.795 170.234, 377.710 171.599 M 196.523 171.340 C 195.208 175.761, 194.013 182.518, 193.489 188.500 C 193.152 192.350, 192.656 196.571, 192.387 197.880 C 191.987 199.821, 192.229 200.153, 193.698 199.678 C 208.402 194.922, 218.656 193.117, 247.012 190.292 C 261.176 188.881, 274.630 188.545, 317.801 188.525 C 370.609 188.500, 371.098 188.481, 370.565 186.500 C 370.269 185.400, 370.021 184.183, 370.014 183.796 C 370.006 183.409, 353.913 183.354, 334.250 183.674 C 272.287 184.684, 222.414 180.498, 203.005 172.658 C 198.824 170.969, 196.758 170.549, 196.523 171.340 M 431 173.071 C 424.531 175.757, 424.480 175.809, 420.274 184.135 C 417.950 188.736, 416.037 192.838, 416.024 193.250 C 416.011 193.662, 417.238 194.023, 418.750 194.052 C 421.490 194.103, 436.923 197.972, 440.250 199.441 C 441.770 200.112, 442 199.631, 442 195.783 C 442 190.951, 439.180 173.150, 438.144 171.436 C 437.721 170.738, 435.270 171.298, 431 173.071 M 410.707 178.092 C 405.321 179.006, 400.763 179.921, 400.579 180.127 C 400.395 180.332, 398.648 183.978, 396.697 188.228 C 394.747 192.478, 391.956 197.063, 390.496 198.416 C 389.036 199.769, 386.452 201.181, 384.753 201.554 C 382.396 202.072, 382.022 202.433, 383.171 203.076 C 384 203.540, 386.845 204.405, 389.494 204.999 C 392.957 205.775, 395.792 205.770, 399.590 204.981 C 403.769 204.114, 405.630 203.045, 408.506 199.862 C 410.505 197.649, 414.140 191.531, 416.583 186.266 C 419.027 181.001, 420.908 176.634, 420.763 176.562 C 420.618 176.490, 416.093 177.179, 410.707 178.092 M 390.250 180.732 C 387.066 181.019, 386.004 181.540, 386.016 182.807 C 386.037 184.946, 390.194 192.368, 391.413 192.443 C 391.915 192.474, 393.582 189.688, 395.117 186.250 C 397.526 180.854, 397.675 180.024, 396.204 180.175 C 395.267 180.271, 392.587 180.522, 390.250 180.732 M 372.851 182.482 C 372.536 182.797, 372.646 184.955, 373.096 187.277 C 373.545 189.600, 373.932 191.803, 373.956 192.173 C 373.980 192.544, 375.165 194.231, 376.589 195.923 C 378.634 198.353, 379.967 199, 382.934 199 C 385.380 199, 387.302 198.324, 388.444 197.062 C 390.123 195.206, 390.093 194.985, 387.726 191.812 C 386.367 189.991, 384.825 187.150, 384.299 185.500 C 383.426 182.762, 382.910 182.474, 378.383 182.205 C 375.655 182.043, 373.166 182.168, 372.851 182.482 M 469.233 190.668 C 463.746 192.610, 455.012 200.600, 451.916 206.509 C 449.561 211.006, 449.548 211.158, 451.399 212.530 C 454.078 214.517, 462.809 217.287, 464.431 216.665 C 465.177 216.379, 466.898 213.749, 468.256 210.822 C 472.484 201.710, 480.433 195.422, 489.215 194.244 C 492.385 193.819, 492.890 193.480, 491.823 192.490 C 487.979 188.924, 476.727 188.016, 469.233 190.668 M 275.500 190.700 C 262.295 191.190, 231.181 193.968, 220.500 195.610 C 203.733 198.188, 193 201.494, 193 204.082 C 193 205.819, 200.992 208.763, 211.500 210.895 C 233.430 215.346, 273.037 218.002, 317.361 217.995 C 363.616 217.987, 399.263 215.632, 423.218 211 C 433.341 209.043, 442 205.854, 442 204.082 C 442 202.413, 436.657 200.127, 427.788 198.001 C 416.419 195.275, 414.797 195.381, 412.667 198.986 C 410.375 202.866, 403.537 206.828, 397.765 207.619 C 390.984 208.548, 383.433 206.386, 378.781 202.183 C 376.622 200.233, 374.015 196.989, 372.988 194.976 L 371.120 191.316 357.402 190.658 C 344.395 190.034, 292.707 190.060, 275.500 190.700 M 193.007 212.304 C 193.018 218.684, 196.594 232.252, 200.485 240.674 C 202.401 244.820, 206.196 251.202, 208.920 254.856 C 214.452 262.278, 223.742 271.598, 231.923 277.933 C 238.690 283.172, 254.793 292.739, 270.500 300.851 C 284.692 308.181, 294.815 315.381, 298.946 321.084 C 305.337 329.907, 307.061 338.683, 308.946 372 C 310.794 404.674, 311.157 433.426, 310.069 461 C 309.429 477.240, 308.376 491.366, 307.499 495.500 C 305.568 504.597, 301.128 513.509, 296.074 518.435 C 291.324 523.065, 289.242 522.459, 293.667 517.735 C 296.821 514.368, 300 509.973, 300 508.979 C 300 508.046, 283.373 509.852, 271.638 512.060 C 257.681 514.686, 246.674 518.183, 241 521.794 C 235.293 525.427, 233.750 527.328, 233.750 530.725 C 233.750 532.628, 234.884 534.425, 237.524 536.707 C 246.276 544.273, 270.202 550.232, 299.673 552.186 C 313.706 553.116, 321.799 553.124, 335.199 552.217 C 353.330 550.990, 364.423 549.296, 376.954 545.838 C 391.445 541.839, 401 535.675, 401 530.324 C 401 527.092, 396.486 522.848, 389.565 519.574 C 386.639 518.190, 379.937 515.938, 374.673 514.570 C 363.351 511.628, 343.692 508.760, 337.826 509.193 L 333.672 509.500 338.866 515.173 C 342.063 518.665, 343.639 521.105, 342.967 521.521 C 341.386 522.498, 334.785 514.941, 331.680 508.599 C 330.215 505.606, 328.337 500.554, 327.508 497.371 C 324.907 487.384, 323.706 456.283, 324.346 415.500 C 325.187 361.943, 327.150 337.858, 331.448 328.380 C 334.151 322.421, 339.323 316.402, 345.870 311.595 C 348.420 309.723, 358.605 303.838, 368.503 298.517 C 388.836 287.586, 399.275 280.888, 409.653 272.114 C 418.742 264.429, 428.535 252.213, 433.252 242.674 C 437.550 233.981, 440.718 223.212, 441.648 214.128 C 442.272 208.040, 442.200 207.713, 440.405 208.458 C 433.982 211.127, 425.257 213.205, 413.219 214.935 C 385.819 218.871, 372.412 219.501, 316.500 219.476 C 271.883 219.455, 259.372 219.137, 244.500 217.646 C 222.746 215.463, 206.489 212.782, 198.750 210.100 L 193 208.108 193.007 212.304 M 201.518 225.250 C 202.840 231.594, 210.753 246.609, 216.717 254.089 C 220.045 258.263, 225.858 264.305, 229.634 267.515 C 241.421 277.535, 262.190 290.119, 263.484 288.026 C 263.809 287.501, 261.695 285.872, 258.787 284.406 C 243.963 276.934, 227.401 263.911, 218.476 252.710 C 212.463 245.163, 207.224 235.618, 204.466 227.186 C 202.592 221.456, 200.432 220.038, 201.518 225.250 M 431.394 223.687 C 428.861 231.447, 425.206 239.377, 421.575 244.991 C 412.678 258.743, 397.280 272.433, 379.455 282.438 C 374.805 285.049, 371 287.593, 371 288.092 C 371 288.591, 371.282 289, 371.627 289 C 371.972 289, 375.557 287.177, 379.595 284.948 C 397.535 275.045, 413.271 261.282, 422.613 247.324 C 428.349 238.755, 434.688 223.543, 432.967 222.479 C 432.427 222.146, 431.720 222.689, 431.394 223.687 M 300 312.882 C 300 315.908, 322.118 317.508, 330.750 315.106 C 335.785 313.705, 336.731 311.399, 331.750 312.671 C 329.962 313.127, 323.550 313.500, 317.500 313.500 C 311.450 313.500, 305.038 313.127, 303.250 312.671 C 301.134 312.130, 300 312.204, 300 312.882 M 234 537.814 C 234 540.230, 238.822 544.317, 245.319 547.407 C 254.946 551.986, 269.687 555.524, 287.663 557.571 C 299.207 558.885, 307.383 559.135, 324.500 558.694 C 351.551 557.997, 368.655 555.452, 383.550 549.906 C 392.220 546.679, 397.944 542.801, 400.188 538.636 C 400.955 537.212, 400.165 537.464, 396.846 539.703 C 388.077 545.616, 375.707 549.452, 355 552.677 C 346.073 554.067, 337.572 554.465, 317 554.455 C 296.317 554.446, 288.085 554.049, 279.500 552.649 C 258.892 549.289, 244.229 544.700, 237.364 539.464 C 235.514 538.053, 234 537.310, 234 537.814" stroke="none"  fill-rule="evenodd"/>
</svg>