<svg xmlns="http://www.w3.org/2000/svg" width="640" height="640" viewBox="0 0 640 640" version="1.1">
	<path d="M 398.272 193.437 C 389.458 195.573, 380.954 200.524, 370.500 209.607 C 365 214.386, 358.250 219.771, 355.500 221.572 C 352.750 223.374, 345.325 226.981, 339 229.588 C 332.675 232.195, 325.082 235.910, 322.126 237.844 C 312.882 243.891, 307.263 253.464, 306.316 264.782 C 305.655 272.684, 307.679 281.890, 311.518 288.441 C 312.908 290.812, 316.509 295.082, 319.520 297.930 C 325.411 303.502, 333.250 307.635, 340.168 308.816 C 344.463 309.549, 344.492 309.583, 346.148 315.718 C 348.109 322.985, 352.023 330.499, 356.684 335.944 C 365.253 345.955, 381.804 353.061, 397 353.254 C 414.609 353.478, 424.829 348.783, 441.798 332.675 C 449.471 325.391, 455.089 320.933, 458.651 319.302 C 461.589 317.957, 468.869 315.995, 474.829 314.943 C 492.587 311.807, 499.135 308.780, 507.662 299.763 C 516.618 290.294, 521 278.990, 521 265.356 C 521 254.658, 518.513 247.816, 512.057 240.753 C 505.756 233.861, 494.850 226.423, 486.712 223.469 C 478.990 220.667, 467.419 219.488, 460.674 220.818 C 456.552 221.631, 455.775 221.532, 455.340 220.135 C 453.532 214.330, 451.061 210.402, 446.510 206.098 C 434.269 194.521, 414.842 189.422, 398.272 193.437 M 400 195.406 C 389.527 197.764, 383.199 201.521, 369.342 213.605 C 358.891 222.720, 352.857 226.420, 340.039 231.572 C 333.765 234.094, 326.739 237.460, 324.424 239.052 C 318.344 243.236, 312.390 250.407, 310.575 255.734 C 306.887 266.558, 309.728 278.405, 318.037 286.846 C 323.059 291.948, 334.362 298.264, 340.692 299.507 C 343.761 300.109, 343.909 299.986, 344.525 296.317 C 345.462 290.739, 347.849 283.578, 349.499 281.399 C 351.967 278.139, 351.308 277, 346.955 277 C 343.993 277, 342.252 277.657, 340.455 279.455 C 339.105 280.805, 338 282.917, 338 284.150 C 338 285.382, 339.167 287.608, 340.592 289.096 C 342.037 290.604, 343.018 292.621, 342.807 293.651 C 342.478 295.262, 342.005 295.081, 339.138 292.250 C 336.569 289.714, 334.999 289, 331.988 289 C 326.979 289, 323.182 287.518, 319.658 284.186 C 310.872 275.880, 309.680 260.264, 317.055 250.083 C 320.073 245.917, 328.131 239.978, 336.500 235.752 C 339.250 234.363, 344.875 232.225, 349 231 C 353.125 229.775, 357.850 227.855, 359.500 226.733 C 361.150 225.612, 364.809 222.469, 367.631 219.749 C 370.452 217.029, 373.035 215.247, 373.369 215.788 C 373.927 216.690, 369.137 221.847, 363 226.951 L 360.500 229.031 363.500 228.425 C 369.329 227.250, 372.776 225.905, 374.299 224.212 C 375.146 223.271, 377.494 219.237, 379.516 215.250 C 384.354 205.712, 389.927 200.783, 398.499 198.463 C 410.876 195.112, 426.755 197.940, 438.237 205.538 C 442.845 208.588, 447.123 214.866, 447.955 219.799 C 448.455 222.766, 448.967 223.434, 450.539 223.166 C 451.618 222.983, 452.824 222.524, 453.219 222.147 C 453.615 221.770, 452.892 219.203, 451.614 216.443 C 447.306 207.144, 434.397 198.252, 421.122 195.438 C 413.176 193.754, 407.376 193.745, 400 195.406 M 399.718 200.092 C 391.087 202.124, 386.484 206.367, 380.520 217.787 C 377.408 223.745, 375.627 225.968, 372.634 227.628 C 370.508 228.808, 366.501 230.074, 363.728 230.442 C 360.956 230.809, 357.512 231.718, 356.075 232.461 C 354.639 233.204, 350.661 236.312, 347.236 239.369 C 343.811 242.425, 340.190 245.363, 339.191 245.898 C 336.909 247.119, 331 258.250, 331 261.328 C 331 262.592, 332.371 264.939, 334.046 266.544 C 336.352 268.753, 337.020 270.195, 336.796 272.474 C 336.585 274.624, 335.705 275.865, 333.721 276.812 C 331.313 277.960, 330.445 277.894, 327.221 276.318 C 322.334 273.930, 319.572 268.495, 320.488 263.069 C 320.852 260.917, 322.388 257.208, 323.902 254.828 C 325.898 251.690, 328.557 249.456, 333.577 246.703 C 337.385 244.615, 343.200 240.464, 346.500 237.479 L 352.500 232.052 345.500 234.383 C 337.705 236.978, 326.216 243.571, 321.248 248.301 C 317.495 251.873, 314 260.354, 314 265.888 C 314 273.434, 318.290 281.376, 324.366 285.081 C 326.149 286.169, 329.332 286.994, 331.750 286.996 C 335.647 287, 336 286.787, 336 284.434 C 336 283.023, 336.463 281.003, 337.030 279.945 C 338.672 276.876, 343.760 274.764, 348.380 275.233 C 352.145 275.615, 352.953 275.242, 357.751 270.899 C 360.639 268.285, 365.460 264.739, 368.465 263.020 C 371.470 261.301, 380.747 257.680, 389.081 254.974 C 397.415 252.267, 406.319 248.836, 408.867 247.349 C 411.415 245.861, 418.367 241.368, 424.315 237.364 C 430.263 233.360, 437.625 228.863, 440.675 227.370 L 446.221 224.657 445.734 220.335 C 445.104 214.747, 441.287 209.784, 434.687 205.974 C 423.956 199.778, 410.593 197.531, 399.718 200.092 M 399.777 206.749 C 398.279 207.770, 395.579 210.248, 393.777 212.256 C 391.975 214.264, 388.475 217.009, 386 218.356 C 382.336 220.350, 381.500 221.320, 381.500 223.580 C 381.500 225.810, 382.081 226.512, 384.454 227.146 C 386.078 227.580, 388.553 227.662, 389.954 227.327 C 391.354 226.992, 394.991 224.367, 398.036 221.492 C 402.194 217.567, 405.007 215.849, 409.334 214.591 C 412.502 213.670, 415.361 212.223, 415.686 211.375 C 416.703 208.726, 412.623 205.762, 407.333 205.307 C 403.759 205, 401.791 205.376, 399.777 206.749 M 226.730 208.559 C 206.582 211.694, 183.144 218.575, 164.169 226.926 C 140.806 237.207, 115.301 254.744, 107.645 265.791 C 104.048 270.982, 102.238 281.017, 101.386 300.500 C 100.710 315.969, 101.835 332.870, 104.613 349 C 106.848 361.970, 107.849 364.879, 111.310 368.467 C 114.022 371.278, 117.947 372.934, 137.500 379.512 C 150.150 383.767, 188.400 396.681, 222.500 408.209 C 329.413 444.352, 334.747 446.096, 338.860 446.260 C 341.553 446.367, 343.558 445.805, 344.939 444.555 C 346.822 442.852, 346.999 441.556, 346.990 429.595 C 346.981 417.475, 346.783 416.091, 344.322 411 C 342.386 406.997, 341.648 403.867, 341.608 399.500 C 341.563 394.646, 342.091 392.592, 344.374 388.745 C 347.154 384.060, 347.190 383.793, 346.822 370.745 C 346.532 360.480, 346.048 356.756, 344.668 354.192 C 341.216 347.775, 290.819 272.464, 288.169 269.761 C 286.692 268.254, 282.827 265.993, 279.580 264.735 C 276.271 263.453, 272.816 261.294, 271.716 259.821 C 269.938 257.440, 269.869 256.715, 270.976 252.100 C 271.834 248.525, 271.898 246.146, 271.192 244.120 C 269.687 239.803, 248.410 208.371, 246.495 207.636 C 244.009 206.683, 236.547 207.031, 226.730 208.559 M 396.685 212.385 C 393.833 215.347, 389.587 218.731, 387.250 219.905 C 384.913 221.080, 383 222.671, 383 223.441 C 383 225.317, 388.372 226.406, 390.915 225.046 C 392.032 224.448, 395.096 221.811, 397.723 219.187 C 401.323 215.592, 403.835 214.057, 407.920 212.958 C 410.901 212.156, 413.500 211.015, 413.696 210.422 C 414.197 208.906, 409.569 207, 405.388 207 C 402.442 207, 401.028 207.875, 396.685 212.385 M 224.500 211.432 C 217.350 212.685, 206.227 215.127, 199.781 216.860 C 166.739 225.743, 132.388 243.770, 114.589 261.569 C 112.065 264.093, 110.001 266.460, 110.002 266.829 C 110.003 267.198, 111.241 267.601, 112.752 267.724 C 114.263 267.847, 132.781 274.934, 153.901 283.474 L 192.303 299 204.684 299 C 218.441 299, 222.296 300.018, 225.902 304.602 C 227.582 306.738, 227.991 308.233, 227.546 310.607 C 226.963 313.713, 227.069 313.815, 233.562 316.414 C 250.404 323.157, 339.197 357, 340.045 357 C 340.570 357, 341 357.450, 341 358 C 341 358.550, 340.356 359, 339.568 359 C 338.781 359, 313.293 349.550, 282.929 338 C 252.565 326.450, 226.947 317, 226.001 317 C 225.055 317, 222.306 318.571, 219.891 320.490 C 212.814 326.116, 207.005 324.843, 200.687 316.280 C 195.705 309.528, 191.122 305.361, 186.608 303.478 C 175.496 298.843, 120.093 279.671, 117.583 279.592 C 115.168 279.516, 114.518 280.015, 113.802 282.500 C 113.327 284.150, 112.663 293.600, 112.328 303.500 C 111.708 321.820, 112.657 335.210, 115.589 349.500 C 117.552 359.073, 118.689 361.534, 121.818 362.981 C 123.293 363.663, 136.875 368.483, 152 373.691 C 179.882 383.293, 317.260 430.411, 335.370 436.584 L 345.240 439.948 344.768 427.724 C 344.360 417.150, 343.940 414.758, 341.658 410 C 337.934 402.237, 338.069 396.027, 342.127 388.422 C 345.239 382.591, 345.251 382.507, 344.784 370.388 C 344.362 359.426, 344.046 357.754, 341.614 353.604 C 340.128 351.069, 327.257 331.473, 313.013 310.057 C 298.768 288.642, 286.075 270.448, 284.806 269.626 C 283.538 268.804, 279.885 267.159, 276.689 265.971 C 272.045 264.244, 270.553 263.130, 269.262 260.424 C 267.905 257.577, 267.831 256.243, 268.801 252.041 C 269.435 249.293, 269.659 246.247, 269.298 245.272 C 268.216 242.351, 250.014 214.716, 247.218 211.750 C 244.033 208.371, 242.123 208.344, 224.500 211.432 M 424.689 211.548 C 422.723 212.653, 421.971 213.777, 422.189 215.286 C 422.428 216.946, 423.486 217.639, 426.768 218.285 C 429.587 218.840, 431.578 219.952, 432.633 221.562 C 434.367 224.208, 437.141 224.740, 438.797 222.744 C 439.370 222.054, 440.133 220.317, 440.493 218.885 C 440.977 216.957, 440.535 215.571, 438.790 213.542 C 437.042 211.510, 435.281 210.695, 431.967 210.385 C 429.063 210.113, 426.516 210.520, 424.689 211.548 M 425.750 213.080 C 424.788 213.641, 424 214.487, 424 214.962 C 424 215.436, 425.798 216.128, 427.996 216.499 C 430.598 216.939, 432.721 218.101, 434.081 219.831 C 436.113 222.413, 436.210 222.433, 437.585 220.552 C 438.363 219.488, 439 218.233, 439 217.763 C 439 217.294, 437.895 215.805, 436.545 214.455 C 434.911 212.820, 432.990 212.010, 430.795 212.030 C 428.983 212.047, 426.712 212.519, 425.750 213.080 M 229.500 215.595 C 217.876 217.651, 200.052 222.351, 188 226.538 C 176.258 230.617, 158.167 238.950, 148.728 244.628 C 143.228 247.937, 133.124 255.161, 126.118 260.793 C 124.808 261.846, 123.910 263.229, 124.122 263.866 C 124.345 264.534, 126.622 263.261, 129.504 260.858 C 148.706 244.844, 179.557 229.990, 209.422 222.379 C 218.090 220.170, 239.465 216, 242.121 216 C 242.604 216, 243 215.550, 243 215 C 243 213.695, 239.324 213.857, 229.500 215.595 M 451.500 225.406 C 444.999 227.473, 436.112 232.344, 423.935 240.516 C 417.646 244.737, 410.475 249.223, 408 250.484 C 405.525 251.745, 398.100 254.456, 391.500 256.507 C 384.900 258.558, 376.183 261.869, 372.129 263.863 C 368.060 265.866, 362.399 269.757, 359.492 272.551 C 356.595 275.334, 352.712 280.511, 350.863 284.055 C 347.668 290.177, 347.500 291.026, 347.500 301 C 347.500 310.403, 347.783 312.074, 350.214 317 C 354.063 324.800, 358.027 329.200, 365.950 334.466 C 374.630 340.237, 382.412 342.995, 392 343.698 C 407.282 344.820, 418.115 340.331, 436 325.469 C 442.554 320.022, 450.295 314.589, 454 312.836 C 457.575 311.145, 466.575 308.237, 474 306.375 C 481.425 304.513, 490.301 301.619, 493.724 299.945 C 501.532 296.126, 509.777 288.664, 513.260 282.264 C 516.227 276.812, 519 267.251, 519 262.471 C 519 256.951, 516.060 249.256, 511.980 244.093 C 507.900 238.932, 494.733 228.882, 489.670 227.064 L 486.840 226.048 489.670 228.850 C 491.227 230.391, 494.181 233.518, 496.236 235.798 C 498.292 238.079, 501.779 240.867, 503.985 241.993 C 511.319 245.734, 515.796 255.996, 514.706 266.563 C 513.284 280.338, 501.665 295.249, 488.935 299.635 C 485.239 300.908, 484.487 300.894, 482.380 299.513 C 480.846 298.508, 479.995 296.984, 479.985 295.227 C 479.976 293.727, 479.560 291.854, 479.061 291.064 C 478.332 289.912, 477.021 290.607, 472.455 294.564 C 461.585 303.983, 457.474 307.113, 452.500 309.760 C 448.483 311.898, 446.115 312.429, 440.457 312.461 C 431.405 312.511, 428 314.455, 428 319.573 C 428 323.956, 426.150 327.577, 421.835 331.642 C 417.431 335.791, 411.837 338.492, 404.521 340.003 C 394.470 342.077, 388.252 340.817, 374.356 333.889 C 367.493 330.467, 360.547 326.214, 358.533 324.199 C 354.579 320.246, 351.400 311.528, 352.423 307.449 C 352.756 306.122, 354.292 304.383, 355.836 303.585 C 357.708 302.617, 359.040 300.810, 359.833 298.164 C 361.551 292.431, 363.908 290.029, 368.500 289.334 C 371.074 288.944, 373.290 287.796, 374.714 286.114 C 376.508 283.996, 376.935 283.832, 376.964 285.250 C 377.020 287.957, 373.334 291, 370 291 C 366.203 291, 363.463 293.723, 361.853 299.097 C 360.959 302.080, 359.629 303.876, 357.295 305.253 C 355.483 306.323, 354 307.757, 354 308.440 C 354 311.116, 356.868 319.006, 358.854 321.795 C 360.269 323.782, 365.407 326.967, 374.699 331.618 C 388.331 338.441, 388.519 338.500, 396.475 338.459 C 401.381 338.434, 406.486 337.741, 409.609 336.675 C 415.343 334.720, 422.303 329.248, 424.526 324.949 C 426.228 321.659, 426.446 319.606, 425 320.500 C 423.723 321.289, 423.728 320.377, 425.013 317.976 C 425.811 316.484, 425.616 315.865, 424.085 315.046 C 423.018 314.474, 421.325 314.305, 420.322 314.668 C 419.320 315.032, 416.592 317.060, 414.260 319.176 C 409.216 323.752, 405.147 325.683, 398.832 326.497 C 396.264 326.827, 393.581 327.800, 392.870 328.657 C 391.788 329.960, 391.888 330.445, 393.479 331.608 C 394.526 332.374, 396.759 332.990, 398.441 332.978 C 402.121 332.952, 408.719 330.079, 413.534 326.407 C 415.470 324.930, 417.279 323.946, 417.554 324.220 C 417.828 324.495, 416.278 326.323, 414.109 328.283 C 408.984 332.913, 400.433 335.716, 395.359 334.429 C 393.344 333.918, 391.204 332.713, 390.603 331.750 C 388.342 328.129, 392.745 325.259, 403.211 323.535 C 405.723 323.121, 408.630 321.367, 412.211 318.102 C 415.120 315.450, 418.453 312.980, 419.618 312.614 C 420.783 312.248, 422.981 312.422, 424.503 313.001 C 426.704 313.838, 427.804 313.703, 429.882 312.341 L 432.495 310.630 427.230 308.241 C 420.075 304.994, 412.331 304.261, 408.133 306.431 C 406.353 307.352, 404.641 308.773, 404.327 309.589 C 403.535 311.653, 398.461 314.114, 396.526 313.372 C 395.646 313.034, 394.287 311.523, 393.507 310.014 C 392.428 307.927, 391.094 307.111, 387.938 306.606 C 385.312 306.186, 382.726 304.880, 380.894 303.048 C 378.559 300.713, 378 299.284, 378 295.654 C 378 289.599, 381.166 285.937, 388.807 283.151 C 394.958 280.908, 398.957 277.709, 397.068 276.542 C 396.484 276.181, 393.867 275.876, 391.253 275.865 C 388.167 275.851, 384.449 276.789, 380.651 278.540 C 376.284 280.554, 373.818 281.105, 370.913 280.715 C 365.818 280.032, 362.861 282.352, 358.949 290.102 C 355.903 296.135, 353.620 297.529, 352.511 294.034 C 351.682 291.424, 353.279 285.906, 356.408 280.567 C 361.369 272.101, 373.848 264.052, 387.460 260.539 C 395.212 258.538, 398.575 258.624, 403.715 260.957 C 408.055 262.928, 409.350 265.217, 408.789 269.929 C 408.539 272.027, 409.040 272.473, 412.467 273.208 C 414.649 273.676, 417.349 274.898, 418.467 275.924 C 423.056 280.135, 427.465 281.992, 432.882 281.996 C 437.737 282, 438.588 282.343, 441.570 285.506 C 443.388 287.434, 446.575 289.571, 448.653 290.256 C 450.841 290.977, 453.044 292.599, 453.893 294.113 C 455.121 296.306, 455.148 297.229, 454.058 299.860 C 453.059 302.273, 451.189 303.743, 445.936 306.247 C 442.183 308.036, 439.087 309.897, 439.056 310.382 C 438.959 311.900, 446.852 310.290, 451.538 307.835 C 456.019 305.489, 475.215 289.881, 474.500 289.167 C 474.292 288.958, 472.089 289.565, 469.604 290.513 C 462.079 293.387, 458.774 292.127, 449.876 282.991 C 445.003 277.988, 441.033 274.813, 438.876 274.191 C 432.430 272.335, 421.880 266.746, 420.315 264.359 C 418.764 261.991, 418.857 256.849, 420.527 252.701 C 421.126 251.215, 420.210 251.432, 415.252 253.951 C 408.929 257.164, 407 257.643, 407 256 C 407 255.450, 407.591 255, 408.313 255 C 410.269 255, 422.900 247.199, 427.621 243.075 C 429.888 241.095, 434.388 238.398, 437.621 237.082 C 444.838 234.145, 450.408 230.901, 454.962 226.980 C 458.681 223.779, 457.831 223.393, 451.500 225.406 M 462.332 224.940 C 461.139 225.454, 457.539 227.906, 454.332 230.388 C 451.124 232.870, 445.125 236.329, 441 238.075 C 436.875 239.821, 432.612 241.868, 431.527 242.625 C 429.614 243.959, 429.627 244, 431.940 244 C 433.251 244, 436.765 244.769, 439.749 245.710 C 445.041 247.378, 445.324 247.366, 451.337 245.210 C 454.727 243.994, 459.210 243, 461.300 243 C 465.926 243, 470.154 245.059, 472.323 248.370 C 473.381 249.986, 475.834 251.391, 479.405 252.429 C 485.401 254.172, 489 257.666, 489 261.743 C 489 263.370, 487.497 265.634, 484.608 268.358 C 480.311 272.411, 480.206 272.663, 479.694 280.136 C 479.368 284.895, 479.572 288.172, 480.235 288.835 C 480.820 289.420, 481.574 291.609, 481.911 293.699 C 482.424 296.882, 482.956 297.550, 485.186 297.809 C 488.998 298.252, 495.581 294.563, 501.108 288.889 C 503.732 286.195, 507.369 280.964, 509.190 277.264 C 512.019 271.515, 512.494 269.503, 512.461 263.416 C 512.430 257.835, 511.880 255.243, 509.924 251.440 C 508.017 247.736, 506.106 245.816, 501.846 243.327 C 498.672 241.472, 494.637 237.931, 492.489 235.114 C 490.301 232.245, 486.592 229.007, 483.673 227.419 C 479.838 225.331, 476.946 224.596, 471.567 224.340 C 467.680 224.156, 463.524 224.425, 462.332 224.940 M 406.104 227.479 C 402.586 228.785, 399.331 230.449, 398.870 231.177 C 398.408 231.905, 398.024 233.547, 398.015 234.827 C 398.001 237.059, 396.615 238.640, 388.493 245.695 C 384.114 249.499, 384.649 251.446, 389.880 250.740 C 396.463 249.852, 402.712 246.140, 406.500 240.867 C 408.449 238.154, 411.189 235.499, 412.587 234.967 C 413.986 234.435, 416.801 234, 418.843 234 C 425.864 234, 429.748 228.573, 424.453 226.161 C 420.480 224.350, 413.103 224.880, 406.104 227.479 M 407.673 228.565 C 401.864 230.151, 400.012 231.546, 399.965 234.372 C 399.908 237.745, 397.872 240.562, 392.564 244.611 C 389.849 246.682, 388.126 248.542, 388.735 248.745 C 389.345 248.948, 392.450 248.076, 395.637 246.807 C 400.124 245.021, 402.080 243.533, 404.306 240.214 C 405.887 237.856, 408.208 235.254, 409.464 234.432 C 410.720 233.609, 414.054 232.663, 416.873 232.329 C 419.692 231.995, 422.786 231.118, 423.749 230.380 C 425.280 229.207, 425.311 228.912, 424 228.034 C 421.974 226.679, 413.587 226.952, 407.673 228.565 M 464.619 230.868 C 463.008 232.648, 463.179 232.979, 468.214 237.857 C 473.656 243.128, 477.761 244.779, 482.478 243.595 C 484.065 243.197, 485.209 242.017, 485.628 240.344 C 487.284 233.746, 481.549 229, 471.921 229 C 467.712 229, 465.888 229.467, 464.619 230.868 M 466.520 231.967 C 465.970 232.857, 472.376 239.418, 475.643 241.312 C 476.413 241.758, 478.496 241.983, 480.272 241.812 C 483.100 241.539, 483.539 241.100, 483.812 238.273 C 484.076 235.538, 483.618 234.738, 480.812 233.027 C 478.616 231.688, 475.751 231.006, 472.309 231.004 C 469.454 231.002, 466.849 231.435, 466.520 231.967 M 364.913 236.820 C 364.040 237.194, 359.923 239.704, 355.764 242.399 C 347.675 247.639, 343.321 253.285, 344.501 257.004 C 345.584 260.414, 349.407 259.392, 355.169 254.152 C 358.101 251.486, 361.483 248.786, 362.684 248.152 C 363.886 247.518, 366.838 247, 369.246 247 C 372.269 247, 374.300 246.369, 375.811 244.961 C 380.310 240.770, 377.530 235.955, 370.679 236.070 C 368.380 236.109, 365.786 236.446, 364.913 236.820 M 240 239.500 C 240 240.325, 240.450 241, 241 241 C 241.550 241, 242 240.325, 242 239.500 C 242 238.675, 241.550 238, 241 238 C 240.450 238, 240 238.675, 240 239.500 M 362.958 240.232 C 361.056 241.511, 357.334 243.817, 354.687 245.357 C 352.040 246.898, 349.005 249.585, 347.941 251.329 C 343.528 258.567, 347.041 258.966, 354.347 252.056 C 360.173 246.546, 363.356 245, 368.874 245 C 373.393 245, 376.350 243.064, 375.850 240.434 C 375.561 238.917, 374.504 238.436, 370.949 238.204 C 367.523 237.980, 365.571 238.475, 362.958 240.232 M 452.500 247.055 C 450.300 248.096, 447.444 248.959, 446.154 248.974 C 444.864 248.988, 441.309 248.274, 438.256 247.386 C 433.867 246.110, 431.942 246.001, 429.062 246.863 C 426.178 247.727, 424.961 248.900, 423.210 252.504 C 419.239 260.678, 420.391 263.637, 429.278 268.088 C 432.700 269.803, 437.604 271.841, 440.176 272.619 C 443.690 273.682, 445.625 275.085, 447.963 278.267 C 451.663 283.302, 458.354 288.800, 461.847 289.676 C 463.225 290.022, 465.736 289.741, 467.426 289.051 C 469.117 288.362, 471.625 287.566, 473 287.283 C 474.375 287, 476.063 286.059, 476.750 285.193 C 477.448 284.313, 478 280.863, 478 277.376 C 478 271.191, 478.041 271.100, 482.500 267.446 C 484.975 265.418, 487 262.974, 487 262.014 C 487 258.840, 483.202 255.288, 478.558 254.119 C 475.585 253.370, 472.727 251.636, 470.111 248.994 C 466.546 245.393, 465.682 245.008, 461.328 245.081 C 458.673 245.125, 454.700 246.014, 452.500 247.055 M 328.065 252.935 C 324.342 256.658, 322.018 261.905, 322.006 266.615 C 321.998 269.354, 325.589 273.893, 328.697 275.075 C 331.590 276.175, 335 274.699, 335 272.347 C 335 271.476, 333.600 269.170, 331.890 267.222 C 329.258 264.224, 328.858 263.096, 329.288 259.887 C 329.568 257.800, 330.743 254.766, 331.899 253.142 C 333.054 251.519, 334 249.923, 334 249.596 C 334 248.033, 331.638 249.362, 328.065 252.935 M 205 254 C 205 254.550, 205.675 255, 206.500 255 C 207.325 255, 208 254.550, 208 254 C 208 253.450, 207.325 253, 206.500 253 C 205.675 253, 205 253.450, 205 254 M 498.200 257.200 C 497.540 257.860, 497 260.357, 497 262.750 C 497 265.142, 496.356 268.344, 495.570 269.865 C 494.783 271.387, 492.373 273.856, 490.214 275.352 C 485.476 278.635, 483.537 282.266, 485.031 285.057 C 485.747 286.396, 487.127 287, 489.470 287 C 494.130 287, 497.686 285.498, 502.642 281.437 C 508.148 276.926, 509.587 272.683, 507.978 265.711 C 507.316 262.845, 506.140 259.488, 505.364 258.250 C 503.833 255.807, 500.135 255.265, 498.200 257.200 M 499.667 258.667 C 499.300 259.033, 499 261.313, 499 263.732 C 499 266.152, 498.483 269.114, 497.852 270.316 C 497.220 271.517, 494.215 274.776, 491.173 277.557 C 487.744 280.694, 485.924 283.068, 486.381 283.807 C 486.786 284.463, 488.616 285, 490.446 285 C 494.982 285, 503.007 279.508, 505.288 274.843 C 506.836 271.677, 506.917 270.536, 505.894 266.343 C 505.244 263.679, 504.311 260.712, 503.821 259.750 C 502.918 257.978, 500.886 257.448, 499.667 258.667 M 388 262.600 C 380.974 264.475, 371.698 268.865, 366.202 272.915 C 363.838 274.657, 360.564 278.194, 358.927 280.776 C 355.988 285.411, 353.402 292.735, 354.365 293.698 C 354.638 293.971, 355.825 291.953, 357.003 289.215 C 358.181 286.476, 360.491 282.946, 362.136 281.370 C 364.664 278.947, 365.853 278.538, 369.814 278.727 C 373.047 278.880, 376.307 278.154, 380.329 276.383 C 391.977 271.255, 403.965 274.150, 397.885 280.623 C 396.690 281.894, 393.415 283.680, 390.606 284.590 C 387.798 285.501, 384.262 287.399, 382.750 288.810 C 380.713 290.709, 380 292.328, 380 295.052 C 380 299.718, 383.019 303.644, 387.262 304.498 C 393.006 305.654, 393.540 305.951, 395.340 308.999 C 396.315 310.649, 397.537 312, 398.055 312 C 398.574 312, 400.859 310.193, 403.135 307.985 C 405.411 305.777, 408.374 303.693, 409.720 303.355 C 413.638 302.372, 421.369 303.684, 428.525 306.547 L 435.159 309.201 442.671 305.925 C 446.803 304.124, 450.867 301.607, 451.702 300.332 C 452.615 298.939, 452.974 297.032, 452.602 295.551 C 452.140 293.710, 451.095 292.921, 448.466 292.428 C 446.227 292.008, 443.611 290.356, 441.268 287.884 C 437.884 284.313, 437.156 284, 432.228 284 C 426.354 284, 424.646 283.316, 418.106 278.342 C 415.605 276.439, 412.535 275, 410.979 275 C 407.341 275, 405.662 272.816, 406.470 269.135 C 406.967 266.872, 406.623 265.727, 404.990 264.205 C 402.956 262.311, 398.602 260.925, 395.125 261.066 C 394.231 261.102, 391.025 261.792, 388 262.600 M 177.250 263.641 C 175.799 264.251, 175.547 267, 176.941 267 C 177.459 267, 178.173 266.528, 178.530 265.952 C 178.886 265.376, 179.968 265.038, 180.935 265.202 C 181.902 265.366, 182.776 265.050, 182.878 264.500 C 183.081 263.398, 179.225 262.809, 177.250 263.641 M 413.281 269.556 C 414.001 270.330, 427.902 275.449, 432.500 276.633 C 434.472 277.141, 434.473 277.127, 432.560 275.575 C 428.870 272.583, 410.867 266.962, 413.281 269.556 M 107.156 271.750 C 105.134 275.620, 103.602 292.369, 103.656 310 C 103.698 323.648, 104.274 332.172, 105.855 342.500 C 107.033 350.200, 108.490 358.265, 109.093 360.421 C 111.140 367.746, 113.265 368.911, 142.506 378.737 C 157.353 383.725, 206.850 400.466, 252.500 415.939 C 316.515 437.636, 336.415 444.006, 339.500 443.785 C 341.700 443.628, 343.500 443.108, 343.500 442.629 C 343.500 441.590, 343.327 441.528, 269 416.163 C 172.151 383.112, 123.174 366.141, 120.203 364.605 C 118.656 363.805, 116.868 362.006, 116.231 360.608 C 115.594 359.210, 114.044 352.989, 112.787 346.783 C 110.750 336.736, 110.501 332.652, 110.509 309.500 C 110.516 288.282, 110.797 282.948, 112.032 280.500 C 113.346 277.898, 114.073 277.510, 117.523 277.575 C 122.125 277.662, 185.179 299.784, 191.781 303.628 C 194.263 305.073, 198.231 309.019, 201.224 313.019 C 204.063 316.813, 207.682 320.454, 209.265 321.110 C 211.645 322.096, 212.693 322.012, 215.322 320.628 C 219.804 318.268, 225.011 314.345, 224.432 313.765 C 224.164 313.497, 224.384 312.121, 224.921 310.708 C 225.699 308.661, 225.491 307.622, 223.895 305.594 C 222.794 304.194, 220.161 302.582, 218.044 302.012 C 215.927 301.442, 209.089 301.067, 202.848 301.180 L 191.500 301.384 152.768 285.692 C 131.465 277.061, 112.694 270, 111.053 270 C 109.227 270, 107.716 270.679, 107.156 271.750 M 214.500 272 C 214.840 272.550, 215.316 273, 215.559 273 C 215.802 273, 216 272.550, 216 272 C 216 271.450, 215.523 271, 214.941 271 C 214.359 271, 214.160 271.450, 214.500 272 M 311 282.607 C 311 284.668, 316.841 292.651, 321.413 296.840 C 326.680 301.665, 335.133 305.940, 340.951 306.720 C 344.590 307.208, 344.745 307.115, 344.285 304.709 C 343.911 302.754, 343.007 302.036, 340.273 301.523 C 335.266 300.584, 326.725 296.645, 321.393 292.816 C 318.888 291.017, 315.525 287.759, 313.919 285.575 C 312.314 283.392, 311 282.057, 311 282.607 M 508 291.950 C 503.665 296.420, 499.328 299.719, 494.978 301.852 C 491.391 303.611, 482.391 306.619, 474.978 308.538 C 467.565 310.456, 458.329 313.530, 454.453 315.368 C 450.269 317.351, 443.768 321.839, 438.453 326.413 C 427.153 336.136, 420.373 340.654, 413.179 343.254 C 406.066 345.825, 391.790 346.704, 384.114 345.043 C 375.951 343.276, 365.145 337.665, 358.499 331.741 C 351.415 325.428, 352.845 328.801, 360.495 336.451 C 369.598 345.554, 383.931 351, 398.789 351 C 407.947 351, 416.684 348.647, 424.693 344.023 C 427.550 342.373, 434.798 336.334, 440.801 330.601 C 446.848 324.827, 453.975 319.033, 456.781 317.611 C 459.799 316.082, 466.539 314.204, 473.458 312.965 C 479.845 311.822, 486.948 310.224, 489.243 309.414 C 498.581 306.120, 508.732 297.335, 513.123 288.750 C 514.178 286.688, 514.919 285.055, 514.770 285.123 C 514.622 285.191, 511.575 288.263, 508 291.950 M 268.750 291.080 C 267.788 291.641, 267 292.731, 267 293.503 C 267 294.642, 267.566 294.585, 269.994 293.203 C 271.640 292.267, 272.990 291.163, 272.994 290.750 C 273.003 289.700, 270.830 289.869, 268.750 291.080 M 394.207 293.668 C 392.396 294.561, 390.468 296.126, 389.922 297.146 C 388.600 299.615, 389.844 299.495, 392.623 296.884 C 393.971 295.618, 396.742 294.558, 399.521 294.245 C 402.581 293.900, 403.711 293.432, 402.833 292.876 C 400.815 291.597, 397.860 291.868, 394.207 293.668 M 137 304 C 137 304.733, 137.300 305.033, 137.667 304.667 C 138.033 304.300, 138.033 303.700, 137.667 303.333 C 137.300 302.967, 137 303.267, 137 304 M 285.095 307.941 C 284.101 308.556, 284.073 308.927, 284.980 309.488 C 285.637 309.894, 286.624 309.776, 287.174 309.226 C 288.477 307.923, 286.801 306.887, 285.095 307.941 M 366.455 311.455 C 362.604 315.306, 363.299 320.069, 368.072 322.537 C 369.628 323.342, 372.753 324, 375.016 324 C 380.765 324, 384.943 321.604, 384.985 318.282 C 385.010 316.248, 374.570 309, 371.614 309 C 370.075 309, 367.851 310.059, 366.455 311.455 M 368.223 312.557 C 365.401 314.533, 365.388 317.352, 368.189 319.961 C 369.700 321.369, 371.731 322, 374.754 322 C 379.545 322, 383.015 320.613, 382.974 318.715 C 382.943 317.254, 373.968 311, 371.903 311 C 371.101 311, 369.445 311.701, 368.223 312.557 M 145 316 C 145 316.550, 145.461 317, 146.025 317 C 146.588 317, 147.505 318.198, 148.062 319.663 C 148.805 321.616, 149.370 322.030, 150.186 321.214 C 151.001 320.399, 150.852 319.423, 149.626 317.551 C 147.981 315.042, 145 314.042, 145 316 M 460.437 335.254 C 460.808 347.901, 462.217 352.536, 467.301 357.835 C 471.661 362.381, 475.205 364.060, 481.321 364.479 C 484.866 364.722, 486.595 365.298, 486.802 366.304 C 487.190 368.197, 482.720 371.707, 478.403 372.899 C 473.988 374.118, 465.314 371.893, 463.306 369.026 C 460.698 365.303, 456.600 362.024, 453.008 360.787 C 451.078 360.122, 446.800 359.614, 443.500 359.656 C 428.139 359.854, 415.088 370.914, 415.022 383.790 C 414.995 389.075, 417.960 395.123, 421.983 397.988 L 425.011 400.144 420.280 403.322 C 414.087 407.482, 408.409 415.711, 406.980 422.599 C 406.064 427.009, 406.145 428.987, 407.421 433.377 C 408.534 437.206, 410.100 439.761, 412.861 442.256 C 414.994 444.182, 418.438 446.319, 420.515 447.005 C 425.633 448.694, 434.855 447.731, 440.736 444.893 C 447.236 441.757, 454.431 434.151, 456.732 427.983 L 458.609 422.950 459.871 427.872 C 461.357 433.672, 466.936 440.658, 471.657 442.630 C 480.301 446.242, 492.015 442.219, 497.723 433.677 C 499.496 431.025, 501.406 427.200, 501.967 425.177 C 503.683 419.001, 503.190 409.016, 500.923 404.018 C 498.453 398.572, 496.639 396.464, 491.750 393.358 C 488.067 391.017, 488 390.864, 488.022 384.737 C 488.036 380.785, 488.728 377.035, 489.910 374.500 C 490.937 372.300, 494.695 367.645, 498.261 364.155 L 504.745 357.810 505.246 361.155 C 505.661 363.932, 505.166 365.146, 502.329 368.302 C 500.449 370.394, 498.448 373.319, 497.882 374.802 C 496.328 378.877, 496.579 389.057, 498.338 393.267 C 499.196 395.320, 500.526 397, 501.294 397 C 502.062 397, 503.495 396.111, 504.479 395.024 C 506.431 392.866, 508 393.186, 508 395.743 C 508 396.637, 508.939 399.307, 510.086 401.677 C 511.558 404.718, 514.621 407.876, 520.499 412.413 C 525.079 415.948, 529.090 418.577, 529.413 418.254 C 529.736 417.931, 530 416.687, 530 415.490 C 530 414.293, 530.931 410.655, 532.068 407.407 C 534.930 399.234, 534.411 390.731, 530.710 385.138 C 529.220 382.886, 528 380.858, 528 380.633 C 528 380.407, 528.563 380.243, 529.250 380.269 C 529.938 380.294, 532.413 380.244, 534.750 380.158 C 537.573 380.053, 539 379.547, 539 378.650 C 539 376.394, 533.308 369.281, 529.350 366.592 C 524.251 363.127, 516.015 361.353, 511.484 362.744 L 508 363.813 508 359.641 C 508 357.047, 508.948 353.772, 510.507 350.985 C 516.620 340.047, 519 334.885, 519 332.564 C 519 329.824, 516.065 327.654, 513.625 328.590 C 512.789 328.911, 511.120 332.172, 509.915 335.837 C 508.710 339.502, 506.827 344.300, 505.729 346.500 C 502.871 352.229, 498.238 357.825, 494.942 359.530 C 493.378 360.339, 491.952 361, 491.772 361 C 491.592 361, 491.458 357.512, 491.473 353.250 C 491.496 346.608, 491.115 344.845, 488.808 340.922 C 487.328 338.403, 484.266 335.118, 482.005 333.622 C 477.277 330.493, 463.391 324, 461.428 324 C 460.391 324, 460.177 326.423, 460.437 335.254 M 462.769 335.750 C 462.917 340.562, 463.500 346.195, 464.064 348.267 C 465.227 352.534, 470.021 358.457, 473.898 360.417 C 477.579 362.278, 484 363.328, 484 362.068 C 484 361.506, 482.850 360.292, 481.443 359.371 C 480.037 358.450, 477.535 355.732, 475.884 353.331 C 472.545 348.478, 468.689 338.310, 469.903 337.560 C 470.333 337.294, 474.468 341.757, 479.092 347.476 C 483.717 353.195, 487.802 357.903, 488.171 357.937 C 489.345 358.047, 490.184 352.119, 489.471 348.750 C 488.290 343.172, 484.787 338.072, 480.050 335.032 C 475.682 332.229, 464.727 327, 463.221 327 C 462.825 327, 462.621 330.937, 462.769 335.750 M 514.246 331.261 C 513.706 331.942, 512.468 334.975, 511.495 338 C 509.068 345.544, 506.385 350.728, 502.300 355.766 C 498.197 360.824, 493.707 363.394, 490.415 362.568 C 488.224 362.018, 488.091 362.204, 488.656 365.030 C 489.126 367.382, 488.741 368.647, 486.983 370.518 C 485.727 371.855, 482.774 373.685, 480.422 374.583 C 477.694 375.625, 476.328 376.692, 476.650 377.530 C 476.927 378.252, 476.602 379.876, 475.926 381.137 C 474.777 383.286, 474.904 383.259, 477.926 380.716 C 479.701 379.222, 481.542 378, 482.018 378 C 483.551 378, 484.465 380.378, 485.092 386 L 485.706 391.500 485.853 384.200 C 485.944 379.696, 486.624 375.675, 487.630 373.700 C 488.526 371.940, 493.364 366.225, 498.380 361 C 504.559 354.564, 509.032 348.759, 512.250 343 C 514.862 338.325, 517 333.739, 517 332.809 C 517 330.569, 515.473 329.711, 514.246 331.261 M 192 340 C 192 340.733, 192.300 341.033, 192.667 340.667 C 193.033 340.300, 193.033 339.700, 192.667 339.333 C 192.300 338.967, 192 339.267, 192 340 M 217 343.941 C 217 344.459, 217.450 345.160, 218 345.500 C 218.550 345.840, 219 345.416, 219 344.559 C 219 343.702, 218.550 343, 218 343 C 217.450 343, 217 343.423, 217 343.941 M 139.131 346.342 C 138.519 347.080, 138.310 347.976, 138.667 348.333 C 139.417 349.084, 142 347.181, 142 345.878 C 142 344.561, 140.393 344.821, 139.131 346.342 M 474 345.629 C 474 347.546, 480.170 355.985, 483.093 358.066 C 484.692 359.205, 486 359.904, 486 359.620 C 486 359.336, 483.680 356.268, 480.845 352.802 C 473.950 344.373, 474 344.426, 474 345.629 M 169.706 351.018 C 169.139 353.184, 171.534 356.322, 173.304 355.732 C 175.133 355.122, 175.259 353, 173.467 353 C 172.259 353, 171.918 352.421, 172.290 351 C 172.613 349.763, 172.320 349, 171.523 349 C 170.814 349, 169.996 349.908, 169.706 351.018 M 275.571 360.571 C 274.707 361.436, 274 362.686, 274 363.349 C 274 365.381, 276.969 368.933, 279.960 370.479 C 282.415 371.749, 282.959 371.755, 283.982 370.522 C 284.664 369.700, 284.871 368.123, 284.470 366.798 C 283.748 364.409, 279.179 359, 277.884 359 C 277.477 359, 276.436 359.707, 275.571 360.571 M 276 363.326 C 276 364.935, 280.166 369, 281.814 369 C 283.353 369, 283.311 368.502, 281.474 364.950 C 280.566 363.195, 279.149 362, 277.974 362 C 276.888 362, 276 362.597, 276 363.326 M 432.581 364.014 C 429.876 365.071, 426.108 367.412, 424.209 369.217 C 420.073 373.149, 417.052 379.275, 417.022 383.790 C 416.991 388.429, 420.356 394.463, 424.219 396.693 C 426.894 398.237, 429.366 398.566, 437.606 398.473 C 446.731 398.369, 448.172 398.089, 452.434 395.592 C 457.145 392.831, 463 385.280, 463 381.965 C 463 381.061, 461.875 379.808, 460.500 379.182 C 457.416 377.777, 457.131 373.722, 459.976 371.729 C 461.897 370.384, 461.863 370.260, 458.726 367.234 C 456.952 365.523, 454.233 363.645, 452.685 363.061 C 448.255 361.391, 438.062 361.874, 432.581 364.014 M 306.500 365 C 306.840 365.550, 307.316 366, 307.559 366 C 307.802 366, 308 365.550, 308 365 C 308 364.450, 307.523 364, 306.941 364 C 306.359 364, 306.160 364.450, 306.500 365 M 511.186 365.016 C 509.913 365.548, 509.049 366.324, 509.266 366.742 C 509.482 367.159, 512.424 372.026, 515.801 377.558 C 522.168 387.984, 526.148 399.252, 524.165 401.235 C 523.487 401.913, 522.297 400.545, 520.532 397.064 C 519.089 394.215, 516.058 388.873, 513.796 385.192 C 511.535 381.512, 508.715 376.131, 507.530 373.236 L 505.375 367.972 503.254 370.236 C 502.088 371.481, 500.653 373.767, 500.067 375.315 C 498.594 379.203, 498.791 389.996, 500.388 392.876 L 501.706 395.253 504.464 391.636 C 505.981 389.647, 507.592 388.248, 508.044 388.527 C 508.496 388.806, 509.355 391.393, 509.953 394.274 C 510.551 397.156, 511.919 400.852, 512.992 402.487 C 514.065 404.123, 517.768 407.583, 521.221 410.175 L 527.500 414.889 529.683 408.194 C 533.418 396.738, 532.485 390.038, 526.148 382.821 C 524.442 380.878, 523.335 378.998, 523.689 378.644 C 524.044 378.290, 526.958 378, 530.167 378 C 533.375 378, 536 377.653, 536 377.228 C 536 375.458, 529.537 368.805, 526.130 367.066 C 521.561 364.736, 514.254 363.733, 511.186 365.016 M 433.450 366.407 C 430.407 367.732, 425 373.300, 425 375.108 C 425 376.744, 427.529 377.130, 430.578 375.958 C 432.185 375.341, 435.910 374.438, 438.855 373.953 C 444.845 372.966, 447 371.633, 447 368.913 C 447 365.167, 439.487 363.777, 433.450 366.407 M 434.500 368.403 C 432.850 369.131, 430.600 370.759, 429.500 372.020 L 427.500 374.314 430 373.623 C 431.375 373.243, 434.942 372.509, 437.926 371.990 C 443.707 370.986, 445.641 369.847, 444.554 368.087 C 443.642 366.611, 438.169 366.783, 434.500 368.403 M 460.667 373.667 C 459.449 374.885, 459.978 377, 461.500 377 C 462.333 377, 463 376.111, 463 375 C 463 373.008, 461.934 372.399, 460.667 373.667 M 510.453 374.500 C 511.521 377.716, 520.195 392.138, 520.736 391.597 C 521.008 391.325, 519.621 388.268, 517.655 384.802 C 513.266 377.067, 509.531 371.724, 510.453 374.500 M 465.473 374.956 C 465.798 375.482, 466.725 375.659, 467.532 375.349 C 469.599 374.556, 469.356 374, 466.941 374 C 465.809 374, 465.148 374.430, 465.473 374.956 M 257.188 377.063 C 257.428 377.784, 258.216 378.572, 258.938 378.813 C 259.688 379.063, 260.063 378.688, 259.813 377.938 C 259.572 377.216, 258.784 376.428, 258.063 376.188 C 257.313 375.938, 256.938 376.313, 257.188 377.063 M 467.353 377.765 C 466.723 378.169, 465.712 380.343, 465.106 382.596 C 463.554 388.375, 458.867 394.407, 453.476 397.567 C 450.447 399.342, 449.206 400.606, 449.854 401.254 C 450.502 401.902, 452.838 400.678, 456.670 397.681 C 459.877 395.174, 463.696 392.083, 465.157 390.811 C 469 387.469, 475.110 378.987, 474.447 377.915 C 473.774 376.825, 468.979 376.724, 467.353 377.765 M 246.583 381.866 C 246.152 382.563, 246.070 383.403, 246.400 383.733 C 247.295 384.628, 248.271 383.312, 247.787 381.862 C 247.449 380.846, 247.213 380.846, 246.583 381.866 M 475 386.074 C 471.975 388.817, 466.125 393.615, 462 396.737 C 457.875 399.858, 454.083 402.759, 453.574 403.183 C 453.029 403.635, 453.300 404.684, 454.232 405.726 C 455.103 406.702, 456.432 409.022, 457.184 410.883 L 458.551 414.266 460.353 408.549 C 462.733 401, 469.625 393.704, 476 391.985 C 478.475 391.318, 481.063 390.612, 481.750 390.417 C 482.514 390.201, 483 388.301, 483 385.531 C 483 382.550, 482.572 381.015, 481.750 381.043 C 481.063 381.067, 478.025 383.331, 475 386.074 M 474.429 394.893 C 469.445 397.157, 464.568 402.885, 462.528 408.872 C 460.719 414.180, 460.547 422.755, 462.141 428.078 C 463.637 433.070, 468.517 438.900, 472.643 440.624 C 477.503 442.655, 481.985 442.310, 487.691 439.467 C 496.013 435.320, 500.884 426.513, 500.946 415.500 C 500.988 408.196, 497.670 400.325, 493.211 397.151 C 491.550 395.968, 489.806 395, 489.336 395 C 488.866 395, 487.919 395.900, 487.232 397 C 485.063 400.473, 480 398.933, 480 394.800 C 480 393.810, 479.663 393.010, 479.250 393.022 C 478.837 393.034, 476.668 393.876, 474.429 394.893 M 482.446 394.087 C 482.077 394.685, 482.275 395.675, 482.887 396.287 C 483.704 397.104, 484.296 397.104, 485.113 396.287 C 486.267 395.133, 485.545 393, 484 393 C 483.515 393, 482.816 393.489, 482.446 394.087 M 287 398.878 C 287 400.360, 289.847 402.212, 291.016 401.490 C 291.749 401.037, 291.511 400.347, 290.310 399.436 C 288.204 397.840, 287 397.636, 287 398.878 M 421.738 405.050 C 417.402 407.922, 412.491 413.988, 410.205 419.297 C 408.595 423.035, 408.677 431.291, 410.364 435.329 C 412.877 441.344, 420.599 445.978, 428.135 445.994 C 433.660 446.006, 441.246 442.628, 446.522 437.806 C 453.413 431.508, 456.189 425.627, 455.797 418.160 C 455.503 412.557, 455.467 412.497, 452.198 412.183 C 449.860 411.958, 448.576 411.164, 447.801 409.462 C 446.972 407.644, 447.020 406.681, 447.995 405.505 C 448.705 404.651, 448.961 403.627, 448.564 403.231 C 448.168 402.834, 442.948 402.433, 436.965 402.340 C 426.516 402.176, 425.916 402.283, 421.738 405.050 M 423.366 407.919 C 419.046 410.553, 415.019 416.110, 414.323 420.399 C 413.729 424.055, 415.119 427, 417.438 427 C 418.095 427, 419.629 425.226, 420.848 423.057 C 422.067 420.888, 424.991 417.400, 427.345 415.307 C 429.699 413.213, 431.974 410.918, 432.399 410.206 C 433.446 408.454, 431.244 405.999, 428.628 406.004 C 427.457 406.006, 425.090 406.867, 423.366 407.919 M 449.736 406.598 C 448.607 407.727, 450.215 410, 452.142 410 C 453.760 410, 453.898 409.679, 453 408 C 451.917 405.976, 450.826 405.508, 449.736 406.598 M 424.389 409.905 C 420.567 412.235, 417.181 416.846, 416.391 420.795 C 415.598 424.762, 417.463 425.711, 418.958 422.101 C 420.231 419.028, 425.070 413.663, 428.741 411.252 C 430.977 409.785, 430.949 407.997, 428.691 408.004 C 428.036 408.006, 426.100 408.861, 424.389 409.905 M 490.967 418.750 C 490.313 420.813, 488.703 424.380, 487.389 426.678 C 484.726 431.336, 484.384 433.614, 486.250 434.279 C 488.093 434.937, 492.476 432.449, 494.253 429.736 C 498.344 423.494, 498.256 415, 494.102 415 C 492.730 415, 491.804 416.107, 490.967 418.750 M 493 418.859 C 493 419.882, 491.625 423.295, 489.945 426.443 C 487.366 431.276, 487.166 432.115, 488.660 431.827 C 491.475 431.285, 495 425.182, 495 420.852 C 495 418.733, 494.550 417, 494 417 C 493.450 417, 493 417.837, 493 418.859" stroke="none"  fill-rule="evenodd"/>
</svg>