<svg width="31" height="30" viewBox="0 0 31 30" fill="none" xmlns="http://www.w3.org/2000/svg">
<g clip-path="url(#clip0_49_4)">
<path fill-rule="evenodd" clip-rule="evenodd" d="M9.49482 2.8479C9.23331 2.92827 9.00111 3.13293 8.88393 3.38634L8.81982 3.525V7.32C8.81982 10.8405 8.82375 11.1399 8.8743 11.4589C8.94456 11.9025 9.10149 12.5103 9.23709 12.8641C9.6495 13.94 10.3592 14.9141 11.2648 15.6475C12.0494 16.2828 13.0356 16.7529 13.9948 16.9488C14.1681 16.9842 14.3402 17.0194 14.3773 17.0271L14.4448 17.0411V20.9395V24.8379L12.9223 24.8464C11.406 24.855 11.3992 24.8553 11.2498 24.924C11.0604 25.0111 10.8923 25.1724 10.79 25.365C10.7209 25.4953 10.7104 25.5505 10.7103 25.785C10.7103 26.0088 10.722 26.077 10.7788 26.1838C10.9319 26.4714 11.1594 26.6402 11.4746 26.7C11.6907 26.7409 19.059 26.7409 19.275 26.7C19.5902 26.6402 19.8177 26.4714 19.9708 26.1838C20.0276 26.077 20.0394 26.0088 20.0393 25.785C20.0393 25.5507 20.0287 25.4949 19.9594 25.3631C19.864 25.1817 19.6788 25.0071 19.4885 24.9191C19.3535 24.8567 19.3099 24.8548 17.8273 24.8464L16.3048 24.8379V20.9395V17.0411L16.3723 17.0271C16.4094 17.0194 16.5816 16.9842 16.7548 16.9488C17.5381 16.7888 18.3338 16.4509 19.0348 15.9803C19.9613 15.3583 20.7349 14.4798 21.237 13.4791C21.3297 13.2944 21.4537 13.0176 21.5126 12.8641C21.6482 12.5103 21.8051 11.9025 21.8753 11.4589C21.9259 11.1399 21.9298 10.8405 21.9298 7.32V3.525L21.8657 3.38634C21.7778 3.19617 21.6033 3.01098 21.4217 2.91516L21.2698 2.835L15.4198 2.82993C12.2023 2.82714 9.53607 2.83521 9.49482 2.8479ZM10.6948 6.795V8.91H15.3748H20.0548V6.795V4.68H15.3748H10.6948V6.795ZM10.7115 10.7973C10.7022 10.8124 10.7148 10.9796 10.7396 11.1689C10.7839 11.506 10.877 11.881 10.9984 12.21C11.1086 12.5086 11.4138 13.0637 11.618 13.3367C11.8835 13.6916 12.2967 14.0977 12.6464 14.3474C13.1655 14.718 13.821 15.0091 14.4148 15.1327C14.5386 15.1585 14.805 15.1952 15.0069 15.2143C15.2862 15.2408 15.466 15.2407 15.7592 15.2139C16.3817 15.157 16.925 15.0048 17.4598 14.7374C18.1769 14.3789 18.7974 13.8339 19.2551 13.1608C19.4527 12.8702 19.6682 12.4341 19.797 12.0639C19.9086 11.7433 20.0168 11.2289 20.0313 10.95L20.0398 10.785L15.3842 10.7774C12.5906 10.7728 10.7217 10.7808 10.7115 10.7973Z" fill="black"/>
</g>
<defs>
<clipPath id="clip0_49_4">
<rect width="30" height="30" fill="white" transform="translate(0.375)"/>
</clipPath>
</defs>
</svg>
