<svg width="70" height="71" viewBox="0 0 70 71" fill="none" xmlns="http://www.w3.org/2000/svg">
<g clip-path="url(#clip0_45_2)">
<path fill-rule="evenodd" clip-rule="evenodd" d="M2.64404 12.2086V21.2734H11.7088H20.7735V12.2086V3.14389H11.7088H2.64404V12.2086ZM23.2915 4.40288V5.66188H24.6135H25.9354V4.40288V3.14389H24.6135H23.2915V4.40288ZM28.5793 6.98382V10.8237H27.2574H25.9354V9.56475V8.30576H24.6135H23.2915V9.56475V10.8237H24.6135H25.9354V12.1457V13.4676H27.2574H28.5793V14.7896V16.1115H25.9354H23.2915V18.6925V21.2734H24.6135H25.9354V23.8543V26.4353H24.6135H23.2915V25.1133V23.7914H20.7106H18.1297V25.1133V26.4353H14.2268H10.3239V25.1133V23.7914H9.06491H7.80591V25.1133V26.4353H6.48397H5.16203V25.1133V23.7914H3.90304H2.64404V26.4353V29.0791H5.22498H7.80591V30.3381V31.5971H5.22498H2.64404V34.1781V36.759H3.90304H5.16203V38.0809V39.4029H3.90304H2.64404V40.6619V41.9209H5.22498H7.80591V43.2428V44.5648H5.22498H2.64404V45.8867V47.2086H7.80591H12.9678V45.8867V44.5648H11.6458H10.3239V36.8219V29.0791H11.6458H12.9678V30.3381V31.5971H14.2897H15.6117V32.9191V34.241H14.2897H12.9678V35.5V36.759H14.2897H15.6117V38.0809V39.4029H14.2897H12.9678V40.6619V41.9209H14.2897H15.6117V44.5648V47.2086H19.4516H23.2915V49.7896V52.3705H25.9354H28.5793V54.9514V57.5324H27.2574H25.9354V58.8543V60.1763H24.6135H23.2915V61.4353V62.6942H25.9354H28.5793V61.4353V60.1763H29.8383H31.0973V58.8543V57.5324H32.4192H33.7412V60.1133V62.6942H32.4192H31.0973V64.0162V65.3381H27.1944H23.2915V66.5971V67.8561H27.1944H31.0973V66.5971V65.3381H33.6782H36.2591V66.5971V67.8561H41.484H46.7088V66.5971V65.3381H49.2897H51.8707V66.5971V67.8561H53.1297H54.3886V65.2752V62.6942H55.7106H57.0325V65.2752V67.8561H58.3545H59.6764V65.2752V62.6942H58.3545H57.0325V61.4353V60.1763H58.3545H59.6764V58.8543V57.5324H58.3545H57.0325V56.2104V54.8885H58.3545H59.6764V51.0486V47.2086H58.3545H57.0325V45.8867V44.5648H58.3545H59.6764V43.2428V41.9209H57.0325H54.3886V36.759V31.5971H55.7106H57.0325V32.9191V34.241H58.3545H59.6764V31.6601V29.0791H60.9354H62.1944V30.3381V31.5971H63.5163H64.8383V32.9191V34.241H63.5163H62.1944V36.8219V39.4029H63.5163H64.8383V40.6619V41.9209H63.5163H62.1944V45.8237V49.7266H63.5163H64.8383V51.0486V52.3705H63.5163H62.1944V57.5324V62.6942H64.7753H67.3563V61.4353V60.1763H66.0973H64.8383V58.8543V57.5324H66.0973H67.3563V56.2104V54.8885H66.0973H64.8383V53.6295V52.3705H66.0973H67.3563V48.4676V44.5648H66.0973H64.8383V43.2428V41.9209H66.0973H67.3563V32.8561V23.7914H66.0973H64.8383V26.4353V29.0791H63.5163H62.1944V26.4353V23.7914H60.9354H59.6764V25.1133V26.4353H58.3545H57.0325V27.7572V29.0791H55.7106H54.3886V30.3381V31.5971H51.8077H49.2268V35.5V39.4029H47.9678H46.7088V38.0809V36.759H45.3868H44.0649V32.9191V29.0791H45.3868H46.7088V26.4353V23.7914H45.3868H44.0649V22.5324V21.2734H45.3868H46.7088V18.6925V16.1115H45.3868H44.0649V18.6925V21.2734H42.743H41.421V19.9514V18.6295H40.162H38.903V21.2104V23.7914H37.5811H36.2591V19.9514V16.1115H38.8401H41.421V14.7896V13.4676H44.0649H46.7088V8.30576V3.14389H42.8059H38.903V4.40288V5.66188H37.5811H36.2591V4.40288V3.14389H32.4192H28.5793V6.98382ZM49.2268 12.2086V21.2734H58.2915H67.3563V12.2086V3.14389H58.2915H49.2268V12.2086ZM5.16203 12.1457V18.6295H11.6458H18.1297V12.1457V5.66188H11.6458H5.16203V12.1457ZM31.0973 6.98382V8.30576H32.4192H33.7412V10.8867V13.4676H32.4192H31.0973V12.1457V10.8237H29.8383H28.5793V12.1457V13.4676H29.8383H31.0973V14.7896V16.1115H33.6782H36.2591V14.7896V13.4676H37.5811H38.903V10.8867V8.30576H36.3221H33.7412V6.98382V5.66188H32.4192H31.0973V6.98382ZM41.421 6.98382V8.30576H42.743H44.0649V6.98382V5.66188H42.743H41.421V6.98382ZM51.8707 12.1457V18.6295H58.3545H64.8383V12.1457V5.66188H58.3545H51.8707V12.1457ZM7.80591 12.2086V16.1115H11.7088H15.6117V12.2086V8.30576H11.7088H7.80591V12.2086ZM54.3886 12.2086V16.1115H58.2915H62.1944V12.2086V8.30576H58.2915H54.3886V12.2086ZM25.9354 19.9514V21.2734H27.2574H28.5793V22.5324V23.7914H29.8383H31.0973V26.4353V29.0791H29.8383H28.5793V27.7572V26.4353H27.2574H25.9354V29.0162V31.5971H28.5163H31.0973V32.9191V34.241H33.6782H36.2591V32.9191V31.5971H37.5811H38.903V34.1781V36.759H37.5811H36.2591V38.0809V39.4029H38.8401H41.421V34.241V29.0791H38.8401H36.2591V30.3381V31.5971H33.6782H31.0973V30.3381V29.0791H32.4192H33.7412V23.8543V18.6295H32.4192H31.0973V19.9514V21.2734H29.8383H28.5793V19.9514V18.6295H27.2574H25.9354V19.9514ZM41.421 25.1133V26.4353H42.743H44.0649V25.1133V23.7914H42.743H41.421V25.1133ZM51.8707 25.1133V26.4353H50.5487H49.2268V27.7572V29.0791H50.5487H51.8707V27.7572V26.4353H53.1297H54.3886V25.1133V23.7914H53.1297H51.8707V25.1133ZM7.80591 27.7572V29.0791H9.06491H10.3239V27.7572V26.4353H9.06491H7.80591V27.7572ZM18.1297 27.7572V29.0791H19.4516H20.7735V30.3381V31.5971H19.4516H18.1297V32.9191V34.241H16.8707H15.6117V35.5V36.759H16.8707H18.1297V38.0809V39.4029H16.8707H15.6117V40.6619V41.9209H16.8707H18.1297V43.2428V44.5648H19.4516H20.7735V43.2428V41.9209H19.4516H18.1297V40.6619V39.4029H20.7106H23.2915V38.0809V36.759H24.6135H25.9354V38.0809V39.4029H27.2574H28.5793V41.9838V44.5648H29.8383H31.0973V45.8867V47.2086H28.5163H25.9354V44.5648V41.9209H24.6135H23.2915V44.5648V47.2086H24.6135H25.9354V48.4676V49.7266H29.8383H33.7412V51.0486V52.3705H32.4192H31.0973V53.6295V54.8885H33.6782H36.2591V53.6295V52.3705H37.5811H38.903V54.9514V57.5324H37.5811H36.2591V58.8543V60.1763H38.8401H41.421V62.7572V65.3381H42.743H44.0649V64.0162V62.6942H45.3868H46.7088V61.4353V60.1763H44.0649H41.421V56.2734V52.3705H42.743H44.0649V51.0486V49.7266H40.162H36.2591V47.1457V44.5648H37.5811H38.903V43.2428V41.9209H37.5811H36.2591V43.2428V44.5648H33.6782H31.0973V43.2428V41.9209H32.4192H33.7412V39.3399V36.759H29.8383H25.9354V35.5V34.241H24.6135H23.2915V30.3381V26.4353H20.7106H18.1297V27.7572ZM5.16203 35.5V36.759H6.48397H7.80591V35.5V34.241H6.48397H5.16203V35.5ZM18.1297 35.5V36.759H20.7106H23.2915V35.5V34.241H20.7106H18.1297V35.5ZM57.0325 38.0809V39.4029H58.3545H59.6764V38.0809V36.759H58.3545H57.0325V38.0809ZM44.0649 40.6619V41.9209H45.3868H46.7088V40.6619V39.4029H45.3868H44.0649V40.6619ZM46.7088 51.0486V54.8885H50.5487H54.3886V51.0486V47.2086H50.5487H46.7088V51.0486ZM2.64404 58.7914V67.8561H11.7088H20.7735V58.7914V49.7266H11.7088H2.64404V58.7914ZM49.2268 51.0486V52.3705H50.5487H51.8707V51.0486V49.7266H50.5487H49.2268V51.0486ZM5.16203 58.8543V65.3381H11.6458H18.1297V58.8543V52.3705H11.6458H5.16203V58.8543ZM7.80591 58.7914V62.6942H11.7088H15.6117V58.7914V54.8885H11.7088H7.80591V58.7914ZM49.2268 60.1133V62.6942H51.8077H54.3886V60.1133V57.5324H51.8077H49.2268V60.1133ZM36.2591 64.0162V65.3381H37.5811H38.903V64.0162V62.6942H37.5811H36.2591V64.0162ZM64.8383 66.5971V67.8561H66.0973H67.3563V66.5971V65.3381H66.0973H64.8383V66.5971Z" fill="black"/>
</g>
<defs>
<clipPath id="clip0_45_2">
<rect width="70" height="70" fill="white" transform="translate(0 0.5)"/>
</clipPath>
</defs>
</svg>
