<svg width="24" height="24" viewBox="0 0 24 24" fill="none" xmlns="http://www.w3.org/2000/svg">
<g clip-path="url(#clip0_8_532)">
<path d="M12 0.5L13.9909 3.27732L16.9897 1.63886L17.5784 5.00495L20.9911 4.82987L20.061 8.11804L23.2117 9.44101L20.947 12L23.2117 14.559L20.061 15.882L20.9911 19.1701L17.5784 18.995L16.9897 22.3611L13.9909 20.7227L12 23.5L10.0091 20.7227L7.01034 22.3611L6.42164 18.995L3.00894 19.1701L3.93903 15.882L0.788329 14.559L3.053 12L0.788329 9.44101L3.93903 8.11804L3.00894 4.82987L6.42164 5.00495L7.01034 1.63886L10.0091 3.27732L12 0.5Z" fill="black"/>
</g>
<defs>
<clipPath id="clip0_8_532">
<rect width="23" height="23" fill="white" transform="translate(0.5 0.5)"/>
</clipPath>
</defs>
</svg>
