<svg width="114" height="114" viewBox="0 0 114 114" fill="none" xmlns="http://www.w3.org/2000/svg">
<g clip-path="url(#clip0_13_875)">
<rect width="114" height="114" fill="white"/>
<path d="M7.29602 13.3985H11.2723V16.8866H7.29602V13.3985ZM11.2723 13.3985H15.2487V16.8866H11.2723V13.3985ZM15.2487 13.3985H19.225V16.8866H15.2487V13.3985ZM19.225 13.3985H23.2013V16.8866H19.225V13.3985ZM23.2013 13.3985H27.1776V16.8866H23.2013V13.3985ZM27.1776 13.3985H31.154V16.8866H27.1776V13.3985ZM31.154 13.3985H35.1303V16.8866H31.154V13.3985ZM47.0592 13.3985H51.0356V16.8866H47.0592V13.3985ZM51.0356 13.3985H55.0119V16.8866H51.0356V13.3985ZM62.9645 13.3985H66.9409V16.8866H62.9645V13.3985ZM70.9172 13.3985H74.8935V16.8866H70.9172V13.3985ZM78.8698 13.3985H82.8461V16.8866H78.8698V13.3985ZM82.8461 13.3985H86.8225V16.8866H82.8461V13.3985ZM86.8225 13.3985H90.7988V16.8866H86.8225V13.3985ZM90.7988 13.3985H94.7751V16.8866H90.7988V13.3985ZM94.7751 13.3985H98.7514V16.8866H94.7751V13.3985ZM98.7514 13.3985H102.728V16.8866H98.7514V13.3985ZM102.728 13.3985H106.704V16.8866H102.728V13.3985ZM7.29602 16.8866H11.2723V20.3748H7.29602V16.8866ZM31.154 16.8866H35.1303V20.3748H31.154V16.8866ZM39.1066 16.8866H43.0829V20.3748H39.1066V16.8866ZM47.0592 16.8866H51.0356V20.3748H47.0592V16.8866ZM55.0119 16.8866H58.9882V20.3748H55.0119V16.8866ZM58.9882 16.8866H62.9645V20.3748H58.9882V16.8866ZM70.9172 16.8866H74.8935V20.3748H70.9172V16.8866ZM78.8698 16.8866H82.8461V20.3748H78.8698V16.8866ZM102.728 16.8866H106.704V20.3748H102.728V16.8866ZM7.29602 20.3748H11.2723V23.8629H7.29602V20.3748ZM15.2487 20.3748H19.225V23.8629H15.2487V20.3748ZM19.225 20.3748H23.2013V23.8629H19.225V20.3748ZM23.2013 20.3748H27.1776V23.8629H23.2013V20.3748ZM31.154 20.3748H35.1303V23.8629H31.154V20.3748ZM39.1066 20.3748H43.0829V23.8629H39.1066V20.3748ZM43.0829 20.3748H47.0592V23.8629H43.0829V20.3748ZM58.9882 20.3748H62.9645V23.8629H58.9882V20.3748ZM62.9645 20.3748H66.9409V23.8629H62.9645V20.3748ZM66.9409 20.3748H70.9172V23.8629H66.9409V20.3748ZM78.8698 20.3748H82.8461V23.8629H78.8698V20.3748ZM86.8225 20.3748H90.7988V23.8629H86.8225V20.3748ZM90.7988 20.3748H94.7751V23.8629H90.7988V20.3748ZM94.7751 20.3748H98.7514V23.8629H94.7751V20.3748ZM102.728 20.3748H106.704V23.8629H102.728V20.3748ZM7.29602 23.8629H11.2723V27.351H7.29602V23.8629ZM15.2487 23.8629H19.225V27.351H15.2487V23.8629ZM19.225 23.8629H23.2013V27.351H19.225V23.8629ZM23.2013 23.8629H27.1776V27.351H23.2013V23.8629ZM31.154 23.8629H35.1303V27.351H31.154V23.8629ZM47.0592 23.8629H51.0356V27.351H47.0592V23.8629ZM51.0356 23.8629H55.0119V27.351H51.0356V23.8629ZM55.0119 23.8629H58.9882V27.351H55.0119V23.8629ZM58.9882 23.8629H62.9645V27.351H58.9882V23.8629ZM62.9645 23.8629H66.9409V27.351H62.9645V23.8629ZM78.8698 23.8629H82.8461V27.351H78.8698V23.8629ZM86.8225 23.8629H90.7988V27.351H86.8225V23.8629ZM90.7988 23.8629H94.7751V27.351H90.7988V23.8629ZM94.7751 23.8629H98.7514V27.351H94.7751V23.8629ZM102.728 23.8629H106.704V27.351H102.728V23.8629ZM7.29602 27.351H11.2723V30.8391H7.29602V27.351ZM15.2487 27.351H19.225V30.8391H15.2487V27.351ZM19.225 27.351H23.2013V30.8391H19.225V27.351ZM23.2013 27.351H27.1776V30.8391H23.2013V27.351ZM31.154 27.351H35.1303V30.8391H31.154V27.351ZM47.0592 27.351H51.0356V30.8391H47.0592V27.351ZM55.0119 27.351H58.9882V30.8391H55.0119V27.351ZM66.9409 27.351H70.9172V30.8391H66.9409V27.351ZM78.8698 27.351H82.8461V30.8391H78.8698V27.351ZM86.8225 27.351H90.7988V30.8391H86.8225V27.351ZM90.7988 27.351H94.7751V30.8391H90.7988V27.351ZM94.7751 27.351H98.7514V30.8391H94.7751V27.351ZM102.728 27.351H106.704V30.8391H102.728V27.351ZM7.29602 30.8391H11.2723V34.3272H7.29602V30.8391ZM31.154 30.8391H35.1303V34.3272H31.154V30.8391ZM51.0356 30.8391H55.0119V34.3272H51.0356V30.8391ZM62.9645 30.8391H66.9409V34.3272H62.9645V30.8391ZM78.8698 30.8391H82.8461V34.3272H78.8698V30.8391ZM102.728 30.8391H106.704V34.3272H102.728V30.8391ZM7.29602 34.3272H11.2723V37.8153H7.29602V34.3272ZM11.2723 34.3272H15.2487V37.8153H11.2723V34.3272ZM15.2487 34.3272H19.225V37.8153H15.2487V34.3272ZM19.225 34.3272H23.2013V37.8153H19.225V34.3272ZM23.2013 34.3272H27.1776V37.8153H23.2013V34.3272ZM27.1776 34.3272H31.154V37.8153H27.1776V34.3272ZM31.154 34.3272H35.1303V37.8153H31.154V34.3272ZM39.1066 34.3272H43.0829V37.8153H39.1066V34.3272ZM47.0592 34.3272H51.0356V37.8153H47.0592V34.3272ZM55.0119 34.3272H58.9882V37.8153H55.0119V34.3272ZM62.9645 34.3272H66.9409V37.8153H62.9645V34.3272ZM70.9172 34.3272H74.8935V37.8153H70.9172V34.3272ZM78.8698 34.3272H82.8461V37.8153H78.8698V34.3272ZM82.8461 34.3272H86.8225V37.8153H82.8461V34.3272ZM86.8225 34.3272H90.7988V37.8153H86.8225V34.3272ZM90.7988 34.3272H94.7751V37.8153H90.7988V34.3272ZM94.7751 34.3272H98.7514V37.8153H94.7751V34.3272ZM98.7514 34.3272H102.728V37.8153H98.7514V34.3272ZM102.728 34.3272H106.704V37.8153H102.728V34.3272ZM62.9645 37.8153H66.9409V41.3035H62.9645V37.8153ZM70.9172 37.8153H74.8935V41.3035H70.9172V37.8153ZM11.2723 41.3035H15.2487V44.7916H11.2723V41.3035ZM15.2487 41.3035H19.225V44.7916H15.2487V41.3035ZM19.225 41.3035H23.2013V44.7916H19.225V41.3035ZM27.1776 41.3035H31.154V44.7916H27.1776V41.3035ZM31.154 41.3035H35.1303V44.7916H31.154V41.3035ZM43.0829 41.3035H47.0592V44.7916H43.0829V41.3035ZM47.0592 41.3035H51.0356V44.7916H47.0592V41.3035ZM51.0356 41.3035H55.0119V44.7916H51.0356V41.3035ZM62.9645 41.3035H66.9409V44.7916H62.9645V41.3035ZM70.9172 41.3035H74.8935V44.7916H70.9172V41.3035ZM94.7751 41.3035H98.7514V44.7916H94.7751V41.3035ZM98.7514 41.3035H102.728V44.7916H98.7514V41.3035ZM7.29602 44.7916H11.2723V48.2797H7.29602V44.7916ZM11.2723 44.7916H15.2487V48.2797H11.2723V44.7916ZM35.1303 44.7916H39.1066V48.2797H35.1303V44.7916ZM47.0592 44.7916H51.0356V48.2797H47.0592V44.7916ZM55.0119 44.7916H58.9882V48.2797H55.0119V44.7916ZM58.9882 44.7916H62.9645V48.2797H58.9882V44.7916ZM70.9172 44.7916H74.8935V48.2797H70.9172V44.7916ZM74.8935 44.7916H78.8698V48.2797H74.8935V44.7916ZM82.8461 44.7916H86.8225V48.2797H82.8461V44.7916ZM98.7514 44.7916H102.728V48.2797H98.7514V44.7916ZM7.29602 48.2797H11.2723V51.7678H7.29602V48.2797ZM15.2487 48.2797H19.225V51.7678H15.2487V48.2797ZM19.225 48.2797H23.2013V51.7678H19.225V48.2797ZM31.154 48.2797H35.1303V51.7678H31.154V48.2797ZM35.1303 48.2797H39.1066V51.7678H35.1303V48.2797ZM39.1066 48.2797H43.0829V51.7678H39.1066V48.2797ZM43.0829 48.2797H47.0592V51.7678H43.0829V48.2797ZM47.0592 48.2797H51.0356V51.7678H47.0592V48.2797ZM51.0356 48.2797H55.0119V51.7678H51.0356V48.2797ZM55.0119 48.2797H58.9882V51.7678H55.0119V48.2797ZM74.8935 48.2797H78.8698V51.7678H74.8935V48.2797ZM86.8225 48.2797H90.7988V51.7678H86.8225V48.2797ZM7.29602 51.7678H11.2723V55.2559H7.29602V51.7678ZM23.2013 51.7678H27.1776V55.2559H23.2013V51.7678ZM27.1776 51.7678H31.154V55.2559H27.1776V51.7678ZM39.1066 51.7678H43.0829V55.2559H39.1066V51.7678ZM47.0592 51.7678H51.0356V55.2559H47.0592V51.7678ZM58.9882 51.7678H62.9645V55.2559H58.9882V51.7678ZM62.9645 51.7678H66.9409V55.2559H62.9645V51.7678ZM74.8935 51.7678H78.8698V55.2559H74.8935V51.7678ZM90.7988 51.7678H94.7751V55.2559H90.7988V51.7678ZM94.7751 51.7678H98.7514V55.2559H94.7751V51.7678ZM11.2723 55.2559H15.2487V58.7441H11.2723V55.2559ZM19.225 55.2559H23.2013V58.7441H19.225V55.2559ZM31.154 55.2559H35.1303V58.7441H31.154V55.2559ZM35.1303 55.2559H39.1066V58.7441H35.1303V55.2559ZM39.1066 55.2559H43.0829V58.7441H39.1066V55.2559ZM43.0829 55.2559H47.0592V58.7441H43.0829V55.2559ZM55.0119 55.2559H58.9882V58.7441H55.0119V55.2559ZM66.9409 55.2559H70.9172V58.7441H66.9409V55.2559ZM74.8935 55.2559H78.8698V58.7441H74.8935V55.2559ZM78.8698 55.2559H82.8461V58.7441H78.8698V55.2559ZM82.8461 55.2559H86.8225V58.7441H82.8461V55.2559ZM86.8225 55.2559H90.7988V58.7441H86.8225V55.2559ZM94.7751 55.2559H98.7514V58.7441H94.7751V55.2559ZM98.7514 55.2559H102.728V58.7441H98.7514V55.2559ZM102.728 55.2559H106.704V58.7441H102.728V55.2559ZM15.2487 58.7441H19.225V62.2322H15.2487V58.7441ZM19.225 58.7441H23.2013V62.2322H19.225V58.7441ZM35.1303 58.7441H39.1066V62.2322H35.1303V58.7441ZM39.1066 58.7441H43.0829V62.2322H39.1066V58.7441ZM51.0356 58.7441H55.0119V62.2322H51.0356V58.7441ZM58.9882 58.7441H62.9645V62.2322H58.9882V58.7441ZM62.9645 58.7441H66.9409V62.2322H62.9645V58.7441ZM66.9409 58.7441H70.9172V62.2322H66.9409V58.7441ZM70.9172 58.7441H74.8935V62.2322H70.9172V58.7441ZM78.8698 58.7441H82.8461V62.2322H78.8698V58.7441ZM82.8461 58.7441H86.8225V62.2322H82.8461V58.7441ZM86.8225 58.7441H90.7988V62.2322H86.8225V58.7441ZM102.728 58.7441H106.704V62.2322H102.728V58.7441ZM11.2723 62.2322H15.2487V65.7203H11.2723V62.2322ZM23.2013 62.2322H27.1776V65.7203H23.2013V62.2322ZM27.1776 62.2322H31.154V65.7203H27.1776V62.2322ZM31.154 62.2322H35.1303V65.7203H31.154V62.2322ZM35.1303 62.2322H39.1066V65.7203H35.1303V62.2322ZM39.1066 62.2322H43.0829V65.7203H39.1066V62.2322ZM51.0356 62.2322H55.0119V65.7203H51.0356V62.2322ZM55.0119 62.2322H58.9882V65.7203H55.0119V62.2322ZM58.9882 62.2322H62.9645V65.7203H58.9882V62.2322ZM70.9172 62.2322H74.8935V65.7203H70.9172V62.2322ZM86.8225 62.2322H90.7988V65.7203H86.8225V62.2322ZM94.7751 62.2322H98.7514V65.7203H94.7751V62.2322ZM98.7514 62.2322H102.728V65.7203H98.7514V62.2322ZM7.29602 65.7203H11.2723V69.2084H7.29602V65.7203ZM15.2487 65.7203H19.225V69.2084H15.2487V65.7203ZM23.2013 65.7203H27.1776V69.2084H23.2013V65.7203ZM27.1776 65.7203H31.154V69.2084H27.1776V65.7203ZM35.1303 65.7203H39.1066V69.2084H35.1303V65.7203ZM39.1066 65.7203H43.0829V69.2084H39.1066V65.7203ZM43.0829 65.7203H47.0592V69.2084H43.0829V65.7203ZM47.0592 65.7203H51.0356V69.2084H47.0592V65.7203ZM58.9882 65.7203H62.9645V69.2084H58.9882V65.7203ZM62.9645 65.7203H66.9409V69.2084H62.9645V65.7203ZM70.9172 65.7203H74.8935V69.2084H70.9172V65.7203ZM82.8461 65.7203H86.8225V69.2084H82.8461V65.7203ZM86.8225 65.7203H90.7988V69.2084H86.8225V65.7203ZM102.728 65.7203H106.704V69.2084H102.728V65.7203ZM15.2487 69.2084H19.225V72.6965H15.2487V69.2084ZM27.1776 69.2084H31.154V72.6965H27.1776V69.2084ZM31.154 69.2084H35.1303V72.6965H31.154V69.2084ZM35.1303 69.2084H39.1066V72.6965H35.1303V69.2084ZM39.1066 69.2084H43.0829V72.6965H39.1066V69.2084ZM47.0592 69.2084H51.0356V72.6965H47.0592V69.2084ZM58.9882 69.2084H62.9645V72.6965H58.9882V69.2084ZM66.9409 69.2084H70.9172V72.6965H66.9409V69.2084ZM70.9172 69.2084H74.8935V72.6965H70.9172V69.2084ZM74.8935 69.2084H78.8698V72.6965H74.8935V69.2084ZM78.8698 69.2084H82.8461V72.6965H78.8698V69.2084ZM82.8461 69.2084H86.8225V72.6965H82.8461V69.2084ZM86.8225 69.2084H90.7988V72.6965H86.8225V69.2084ZM90.7988 69.2084H94.7751V72.6965H90.7988V69.2084ZM94.7751 69.2084H98.7514V72.6965H94.7751V69.2084ZM98.7514 69.2084H102.728V72.6965H98.7514V69.2084ZM102.728 69.2084H106.704V72.6965H102.728V69.2084ZM39.1066 72.6965H43.0829V76.1846H39.1066V72.6965ZM47.0592 72.6965H51.0356V76.1846H47.0592V72.6965ZM55.0119 72.6965H58.9882V76.1846H55.0119V72.6965ZM62.9645 72.6965H66.9409V76.1846H62.9645V72.6965ZM70.9172 72.6965H74.8935V76.1846H70.9172V72.6965ZM86.8225 72.6965H90.7988V76.1846H86.8225V72.6965ZM94.7751 72.6965H98.7514V76.1846H94.7751V72.6965ZM102.728 72.6965H106.704V76.1846H102.728V72.6965ZM7.29602 76.1846H11.2723V79.6728H7.29602V76.1846ZM11.2723 76.1846H15.2487V79.6728H11.2723V76.1846ZM15.2487 76.1846H19.225V79.6728H15.2487V76.1846ZM19.225 76.1846H23.2013V79.6728H19.225V76.1846ZM23.2013 76.1846H27.1776V79.6728H23.2013V76.1846ZM27.1776 76.1846H31.154V79.6728H27.1776V76.1846ZM31.154 76.1846H35.1303V79.6728H31.154V76.1846ZM43.0829 76.1846H47.0592V79.6728H43.0829V76.1846ZM47.0592 76.1846H51.0356V79.6728H47.0592V76.1846ZM51.0356 76.1846H55.0119V79.6728H51.0356V76.1846ZM58.9882 76.1846H62.9645V79.6728H58.9882V76.1846ZM70.9172 76.1846H74.8935V79.6728H70.9172V76.1846ZM78.8698 76.1846H82.8461V79.6728H78.8698V76.1846ZM86.8225 76.1846H90.7988V79.6728H86.8225V76.1846ZM94.7751 76.1846H98.7514V79.6728H94.7751V76.1846ZM98.7514 76.1846H102.728V79.6728H98.7514V76.1846ZM102.728 76.1846H106.704V79.6728H102.728V76.1846ZM7.29602 79.6728H11.2723V83.1609H7.29602V79.6728ZM31.154 79.6728H35.1303V83.1609H31.154V79.6728ZM39.1066 79.6728H43.0829V83.1609H39.1066V79.6728ZM43.0829 79.6728H47.0592V83.1609H43.0829V79.6728ZM58.9882 79.6728H62.9645V83.1609H58.9882V79.6728ZM62.9645 79.6728H66.9409V83.1609H62.9645V79.6728ZM70.9172 79.6728H74.8935V83.1609H70.9172V79.6728ZM86.8225 79.6728H90.7988V83.1609H86.8225V79.6728ZM98.7514 79.6728H102.728V83.1609H98.7514V79.6728ZM7.29602 83.1609H11.2723V86.649H7.29602V83.1609ZM15.2487 83.1609H19.225V86.649H15.2487V83.1609ZM19.225 83.1609H23.2013V86.649H19.225V83.1609ZM23.2013 83.1609H27.1776V86.649H23.2013V83.1609ZM31.154 83.1609H35.1303V86.649H31.154V83.1609ZM47.0592 83.1609H51.0356V86.649H47.0592V83.1609ZM51.0356 83.1609H55.0119V86.649H51.0356V83.1609ZM55.0119 83.1609H58.9882V86.649H55.0119V83.1609ZM70.9172 83.1609H74.8935V86.649H70.9172V83.1609ZM74.8935 83.1609H78.8698V86.649H74.8935V83.1609ZM78.8698 83.1609H82.8461V86.649H78.8698V83.1609ZM82.8461 83.1609H86.8225V86.649H82.8461V83.1609ZM86.8225 83.1609H90.7988V86.649H86.8225V83.1609ZM90.7988 83.1609H94.7751V86.649H90.7988V83.1609ZM98.7514 83.1609H102.728V86.649H98.7514V83.1609ZM7.29602 86.649H11.2723V90.1371H7.29602V86.649ZM15.2487 86.649H19.225V90.1371H15.2487V86.649ZM19.225 86.649H23.2013V90.1371H19.225V86.649ZM23.2013 86.649H27.1776V90.1371H23.2013V86.649ZM31.154 86.649H35.1303V90.1371H31.154V86.649ZM39.1066 86.649H43.0829V90.1371H39.1066V86.649ZM51.0356 86.649H55.0119V90.1371H51.0356V86.649ZM70.9172 86.649H74.8935V90.1371H70.9172V86.649ZM74.8935 86.649H78.8698V90.1371H74.8935V86.649ZM78.8698 86.649H82.8461V90.1371H78.8698V86.649ZM86.8225 86.649H90.7988V90.1371H86.8225V86.649ZM90.7988 86.649H94.7751V90.1371H90.7988V86.649ZM94.7751 86.649H98.7514V90.1371H94.7751V86.649ZM98.7514 86.649H102.728V90.1371H98.7514V86.649ZM102.728 86.649H106.704V90.1371H102.728V86.649ZM7.29602 90.1371H11.2723V93.6252H7.29602V90.1371ZM15.2487 90.1371H19.225V93.6252H15.2487V90.1371ZM19.225 90.1371H23.2013V93.6252H19.225V90.1371ZM23.2013 90.1371H27.1776V93.6252H23.2013V90.1371ZM31.154 90.1371H35.1303V93.6252H31.154V90.1371ZM39.1066 90.1371H43.0829V93.6252H39.1066V90.1371ZM66.9409 90.1371H70.9172V93.6252H66.9409V90.1371ZM70.9172 90.1371H74.8935V93.6252H70.9172V90.1371ZM74.8935 90.1371H78.8698V93.6252H74.8935V90.1371ZM78.8698 90.1371H82.8461V93.6252H78.8698V90.1371ZM86.8225 90.1371H90.7988V93.6252H86.8225V90.1371ZM94.7751 90.1371H98.7514V93.6252H94.7751V90.1371ZM98.7514 90.1371H102.728V93.6252H98.7514V90.1371ZM7.29602 93.6252H11.2723V97.1134H7.29602V93.6252ZM31.154 93.6252H35.1303V97.1134H31.154V93.6252ZM39.1066 93.6252H43.0829V97.1134H39.1066V93.6252ZM47.0592 93.6252H51.0356V97.1134H47.0592V93.6252ZM51.0356 93.6252H55.0119V97.1134H51.0356V93.6252ZM55.0119 93.6252H58.9882V97.1134H55.0119V93.6252ZM58.9882 93.6252H62.9645V97.1134H58.9882V93.6252ZM86.8225 93.6252H90.7988V97.1134H86.8225V93.6252ZM94.7751 93.6252H98.7514V97.1134H94.7751V93.6252ZM7.29602 97.1134H11.2723V100.601H7.29602V97.1134ZM11.2723 97.1134H15.2487V100.601H11.2723V97.1134ZM15.2487 97.1134H19.225V100.601H15.2487V97.1134ZM19.225 97.1134H23.2013V100.601H19.225V97.1134ZM23.2013 97.1134H27.1776V100.601H23.2013V97.1134ZM27.1776 97.1134H31.154V100.601H27.1776V97.1134ZM31.154 97.1134H35.1303V100.601H31.154V97.1134ZM43.0829 97.1134H47.0592V100.601H43.0829V97.1134ZM51.0356 97.1134H55.0119V100.601H51.0356V97.1134ZM62.9645 97.1134H66.9409V100.601H62.9645V97.1134ZM74.8935 97.1134H78.8698V100.601H74.8935V97.1134ZM82.8461 97.1134H86.8225V100.601H82.8461V97.1134ZM86.8225 97.1134H90.7988V100.601H86.8225V97.1134ZM90.7988 97.1134H94.7751V100.601H90.7988V97.1134ZM94.7751 97.1134H98.7514V100.601H94.7751V97.1134ZM98.7514 97.1134H102.728V100.601H98.7514V97.1134ZM102.728 97.1134H106.704V100.601H102.728V97.1134Z" fill="black"/>
</g>
<defs>
<clipPath id="clip0_13_875">
<rect width="114" height="114" fill="white"/>
</clipPath>
</defs>
</svg>
