<svg width="23" height="23" viewBox="0 0 23 23" fill="none" xmlns="http://www.w3.org/2000/svg">
<g clip-path="url(#clip0_11_864)">
<path d="M11.5 0L13.4909 2.77732L16.4897 1.13886L17.0784 4.50495L20.4911 4.32987L19.561 7.61804L22.7117 8.94101L20.447 11.5L22.7117 14.059L19.561 15.382L20.4911 18.6701L17.0784 18.495L16.4897 21.8611L13.4909 20.2227L11.5 23L9.50911 20.2227L6.51034 21.8611L5.92164 18.495L2.50894 18.6701L3.43903 15.382L0.288329 14.059L2.553 11.5L0.288329 8.94101L3.43903 7.61804L2.50894 4.32987L5.92164 4.50495L6.51034 1.13886L9.50911 2.77732L11.5 0Z" fill="black"/>
</g>
<defs>
<clipPath id="clip0_11_864">
<rect width="23" height="23" fill="white"/>
</clipPath>
</defs>
</svg>
