<svg width="31" height="30" viewBox="0 0 31 30" fill="none" xmlns="http://www.w3.org/2000/svg">
<g clip-path="url(#clip0_49_5)">
<path fill-rule="evenodd" clip-rule="evenodd" d="M13.4302 0.96161C13.188 1.00394 13.0106 1.06619 12.8058 1.18073C12.7002 1.2398 12.5458 1.34921 12.4628 1.42385C12.2588 1.60721 12.0512 1.91894 11.952 2.19068L11.8702 2.41499L11.8622 5.90021L11.8542 9.38543L11.6522 9.52805C11.3201 9.76256 11.0139 10.0277 10.7137 10.3408C9.97619 11.1098 9.49247 11.9781 9.23033 13.0032C9.02429 13.809 9.03179 13.5325 9.04145 19.98L9.05017 25.785L9.11606 26.0159C9.19688 26.2993 9.35161 26.6392 9.50491 26.8702C9.65743 27.1 9.92905 27.3875 10.1562 27.5597C10.3717 27.723 10.8604 27.9609 11.1279 28.0328C11.2311 28.0605 11.4673 28.0958 11.6529 28.1111C12.1018 28.1482 18.1621 28.1473 18.6052 28.11C19.1035 28.0681 19.4519 27.9575 19.8755 27.7066C19.9885 27.6397 20.1852 27.4882 20.3126 27.37C20.7046 27.0061 20.9865 26.5371 21.1311 26.008L21.2002 25.755V19.815C21.2002 14.2562 21.1968 13.8557 21.1469 13.575C20.9637 12.5441 20.587 11.6575 20 10.8753C19.6464 10.4043 19.0279 9.81557 18.5382 9.48392L18.3962 9.38777L18.3882 5.90138L18.3802 2.41499L18.2983 2.19068C18.1965 1.91168 17.9885 1.6034 17.7718 1.41023C17.5798 1.23914 17.2868 1.07786 17.0302 1.00208C16.8689 0.95447 16.6797 0.94823 15.2152 0.94214C14.3159 0.93842 13.5127 0.94718 13.4302 0.96161ZM13.9549 2.88749C13.9003 2.9246 13.8275 2.99306 13.7929 3.03962C13.7337 3.11957 13.7297 3.16733 13.7213 3.90212L13.7123 4.67999H15.1252H16.538L16.5291 3.90212C16.5207 3.16733 16.5167 3.11957 16.4574 3.03962C16.4229 2.99306 16.35 2.9246 16.2955 2.88749C16.1972 2.82059 16.1866 2.81999 15.1252 2.81999C14.0638 2.81999 14.0532 2.82059 13.9549 2.88749ZM13.7152 8.31953C13.7152 10.2759 13.7167 10.2599 13.5088 10.5205C13.4448 10.6008 13.3151 10.7101 13.2169 10.7665C12.7696 11.0236 12.4254 11.2783 12.1391 11.5643C11.6707 12.0322 11.3222 12.596 11.1203 13.2127C11.0658 13.379 10.9963 13.6567 10.9657 13.83C10.913 14.1292 10.9102 14.4297 10.9102 19.833V25.521L11.0152 25.7269C11.0913 25.8761 11.1615 25.9641 11.2702 26.0468C11.5521 26.2613 11.3379 26.25 15.1252 26.25C18.9125 26.25 18.6983 26.2613 18.9802 26.0468C19.0889 25.9641 19.1591 25.8761 19.2352 25.7269L19.3402 25.521V19.818C19.3402 14.4769 19.3368 14.0969 19.2868 13.83C19.1389 13.0409 18.8118 12.351 18.3076 11.7652C17.9966 11.4038 17.546 11.0469 17.1052 10.8127C16.8742 10.69 16.6733 10.4768 16.5975 10.2742C16.537 10.1126 16.5352 10.0559 16.5352 8.33885V6.56999H15.1252H13.7152V8.31953ZM12.5437 15.9704C12.3589 16.0209 12.2103 16.1173 12.0677 16.2793C11.8435 16.534 11.8532 16.3928 11.8622 19.2617L11.8702 21.825L11.9382 21.963C12.0252 22.1397 12.1901 22.3047 12.3802 22.4055L12.5302 22.485H15.1252H17.7202L17.8758 22.4029C18.0675 22.3018 18.2218 22.1465 18.3118 21.9638L18.3802 21.825L18.3882 19.2617C18.3972 16.3722 18.409 16.5319 18.1666 16.2624C18.089 16.176 17.9602 16.0776 17.8613 16.029L17.6902 15.945L15.1852 15.9391C13.2687 15.9346 12.6481 15.942 12.5437 15.9704ZM13.7224 19.2225L13.7302 20.625H15.1252H16.5202L16.528 19.2225L16.5358 17.82H15.1252H13.7146L13.7224 19.2225Z" fill="black"/>
</g>
<defs>
<clipPath id="clip0_49_5">
<rect width="30" height="30" fill="white" transform="translate(0.125)"/>
</clipPath>
</defs>
</svg>
