<?xml version="1.0" encoding="UTF-8" standalone="no"?>
<!DOCTYPE svg PUBLIC "-//W3C//DTD SVG 1.1//EN" "http://www.w3.org/Graphics/SVG/1.1/DTD/svg11.dtd">
<svg width="100%" height="100%" viewBox="0 0 2550 3300" version="1.1" xmlns="http://www.w3.org/2000/svg" xmlns:xlink="http://www.w3.org/1999/xlink" xml:space="preserve" xmlns:serif="http://www.serif.com/" style="fill-rule:evenodd;clip-rule:evenodd;stroke-linejoin:round;stroke-miterlimit:2;">
    <g transform="matrix(0.354785,0,0,0.354785,198.317,3087.15)">
        <g transform="matrix(1,0,0,1,-313.2,-599.95)">
            <g id="change1_1">
                <path d="M215.55,718.27C216.27,715.91 216.47,713.19 217.79,711.27C229.887,693.605 244.467,677.776 261.08,664.27C276.08,651.95 293.55,642.87 311.57,635.27C314.42,633.954 317.365,632.855 320.38,631.98C341.43,626.63 360.02,616.19 377.28,603.49C382.57,599.59 386.58,604.7 391.28,603.14C392.75,602.65 393.68,605.43 393.64,607.32C393.53,611.72 393.1,615.88 390.84,620C376.37,646.38 363.76,673.83 346.05,698.37C343.48,701.93 340.9,705.65 337.62,708.49C326.23,718.32 317.82,731.21 305.3,739.89C303.16,741.38 303.76,744.63 306.38,745.89C310.3,747.83 314.28,750.82 318.38,751.04C331.56,751.75 344.15,756.45 357.55,755.74C368.82,755.14 380.16,756.04 391.47,756.1C401.52,756.16 411.55,756.1 421.19,752.38C422.48,751.89 425.08,752.84 426.04,753.99C427.027,755.506 427.335,757.367 426.89,759.12C425.135,765.18 421.905,770.712 417.49,775.22C399.82,794.22 377.8,806.3 352.95,812.03C325.24,818.41 297.09,818.03 268.81,813.78C254.63,811.63 240.52,808.61 225.98,808.26C209.8,807.87 194.98,811.71 180.46,818.26C176.338,819.926 173.3,823.534 172.36,827.88C171.537,830.916 171.031,834.029 170.85,837.17C170.28,857.32 166.64,877.08 163.74,896.95C160.66,918.04 157.74,939.13 152.32,959.79C151.98,961.002 151.842,962.263 151.91,963.52C152.03,965.33 151.85,967.75 152.91,968.76C154.38,970.17 156.09,968.33 157.26,967.12C161.64,962.61 165.99,958.12 170.26,953.43C178.789,944.156 188.666,936.22 199.56,929.89C212.03,922.59 224.83,915.89 237.37,908.71C253.47,899.51 271.46,896.17 289.19,892.33C296.003,891.001 303.014,891.069 309.8,892.53C324.603,895.526 339.868,895.424 354.63,892.23C359.54,891.23 364.57,890.74 369.56,890.08C373.09,889.6 375.38,891.82 375.34,895.26C375.29,899.15 374.66,902.95 372.13,905.87C361.02,918.66 351.31,932.69 338.13,943.7C326.061,953.804 312.303,961.698 297.49,967.02C279.787,973.398 261.37,977.589 242.65,979.5C225.29,981.34 207.65,981.13 190.48,985.86C176.22,989.8 163.94,997.01 152.48,1005.86C143.7,1012.67 139.01,1022.54 136.79,1033.05C128.72,1071.05 117.08,1108.15 106.3,1145.44C101.25,1162.9 95.89,1180.38 85.93,1195.92C84.93,1197.44 82.62,1199.86 82.09,1199.58C80.19,1198.58 80.8,1196.46 81.51,1194.67C81.74,1194.09 82.1,1193.55 82.28,1192.95C90.85,1165.44 99.66,1138.01 107.88,1110.39C115.88,1083.39 123.06,1056.11 128.68,1028.47C131.43,1014.97 133.76,1001.31 137.68,988.13C140.35,979.13 138.29,972.33 133.06,965.4C124.63,954.23 114.12,945.34 102.95,937.14C98.4,933.8 93.47,930.96 88.95,927.58C79.89,920.82 70.52,914.43 62.95,905.84C60.88,903.49 58.83,900.69 56.14,899.37C42.59,892.65 35.62,879.37 25.49,869.25C23.192,867.096 21.34,864.51 20.04,861.64C13.52,845.5 5.94,829.75 3.41,811.94C1.46,798.19 -0.03,784.62 0.41,770.79C0.425,766.347 2.421,762.135 5.85,759.31C11.46,754.42 13.77,754.03 18.2,759.39C25.4,768.13 32.433,776.973 39.3,785.92C56.889,808.839 76.181,830.4 97.01,850.42C107.09,860.14 114.08,872.19 121.27,883.91C130.14,898.36 137.7,913.61 140.7,930.63C141.46,935.434 143.537,939.935 146.7,943.63C149.53,927.63 152.7,912.52 154.7,897.32C156.7,882.42 158.7,867.53 159.65,852.45C160.91,833.14 164.73,813.96 168.02,794.82C168.843,789.884 169.351,784.901 169.54,779.9C169.94,771.12 170.44,762.43 172.73,753.78C175.62,742.86 174.86,731.38 176.73,720.17C178.83,707.25 178.73,693.97 181.39,681.02C182.54,675.42 180.99,670.11 179.45,664.51C174.82,647.6 164.65,634.22 154.17,620.89C151.07,616.94 147.75,613.15 144.42,609.39C129.97,593.09 121.9,573.89 115.88,553.06C109.916,532.612 106.839,511.43 106.74,490.13C106.64,466.13 110.9,442.73 117.81,419.79C118.35,418 119.3,416.3 121.46,416.11C124.06,415.842 126.454,417.655 126.9,420.23C132.59,445 146.34,466.29 156.14,489.23C164.52,508.89 174.58,527.7 183.14,547.23C190.01,562.96 191.85,579.82 193.28,596.7C193.76,602.29 193.74,607.93 194.05,616.48C196.37,610.48 198.05,607.4 198.8,604.09C203.52,583.91 211.54,564.75 217.18,544.91C225.1,517.03 237.61,491.03 248.3,464.33C255.02,447.54 264.94,432.02 273.59,416.03C276.59,410.47 279.41,405.1 279.8,398.5C280.27,390.67 279.49,383.6 274.29,377.25C269.53,371.43 265.61,364.93 260.79,359.18C249.08,345.24 237.3,331.36 225.11,317.85C213.693,305.271 205.187,290.329 200.2,274.09C191.619,246.452 187.999,217.511 189.51,188.61C189.98,178.61 192.11,168.74 193.7,158.85C193.98,157.09 195.23,155.44 196.21,153.85C198.14,150.71 203.9,150.19 205.99,153.18C208.5,156.75 210.59,160.61 212.8,164.39C221.34,179.02 229.25,194.06 238.51,208.22C252.723,229.69 263.051,253.493 269.02,278.54C271.17,287.65 274.71,296.46 278.02,305.25C280.46,311.7 282.72,318.17 284.81,324.76C289.41,339.25 292.63,353.76 291.97,369.07C291.92,370.24 292.65,371.44 292.97,372.63C294.57,371.85 296.19,371.13 297.73,370.25C298.23,369.97 298.51,369.25 298.87,368.76C311.43,350.76 323.99,332.73 336.55,314.67C338.35,312.1 339.63,309.03 341.84,306.9C350.27,298.77 352.46,288.55 351.9,277.54C351.08,261.28 353.62,244.77 348.43,228.83C349.77,215.48 344,202.94 343.99,189.76C343.99,183.71 342.15,177.22 349.04,172.9C350.52,171.97 350.72,168.32 350.77,165.9C351.62,129.9 362.53,96.95 380.67,66.13C381.15,65.31 380.57,63.86 380.49,62.7C379.49,62.8 378.18,62.53 377.61,63.06C375.31,65.2 373.31,67.65 371.07,69.84C370.36,70.53 369.01,71.33 368.31,71.08C366.93,70.59 366.78,69.16 367.63,67.86C375.76,55.58 387.26,46.86 399.06,38.56C400.14,37.8 403.12,39.47 403.54,40.86C405.6,47.71 404.88,54.73 403.38,61.35C401.69,68.85 401.71,76.3 401.6,83.82C401.34,101.42 401.137,119.027 400.99,136.64C400.89,150.53 397.68,163.99 395.31,177.54C391.19,201.02 382.49,223.31 376.37,246.28C375.534,249.939 374.922,253.646 374.54,257.38C374.47,257.89 375.02,258.94 375.32,258.96C376.32,258.96 377.69,259.05 378.19,258.47C386.06,249.47 394.25,240.75 401.46,231.26C409.064,221.253 417.555,211.952 426.83,203.47C431,199.65 434.49,195.08 438.83,191.47C444.83,186.39 447.05,180.7 443.9,173.2C442.35,169.49 443.35,165.92 444.78,162.28C447.48,155.44 447.28,147.28 454.27,142.5C453.8,147.5 453.16,152.37 450.94,157.04C450,159.04 449.83,163.41 450.75,163.88C454.15,165.61 453.67,161.49 454.59,159.95C457.16,155.67 459.17,151.05 461.4,146.57C464.4,140.43 466.87,133.87 470.64,128.22C483.48,108.95 496.64,89.97 515.3,75.46C522.67,69.73 529.3,63 537.19,57.9C538.58,57 539.19,54.96 540.19,53.45C548.47,52.89 554.51,47.45 561.94,44.34C560.107,42.19 556.928,41.729 554.56,43.27C549.48,46.18 542.72,47.05 540.56,53.86C538.26,54.35 535.94,54.78 533.66,55.35C530.78,56.06 527.92,56.87 525.05,57.64C525.22,54.75 527.36,53.44 529.46,52.05C542.033,43.738 555.213,36.384 568.89,30.05C584.26,22.89 599.32,15.15 612.69,4.51C614.739,3.065 616.959,1.879 619.3,0.98C621.63,-0.02 622.93,1.83 623.58,3.41C625.22,7.41 626.33,11.15 624.05,15.81C615.646,32.69 606.069,48.96 595.39,64.5C588.39,74.91 581.71,85.64 573.83,95.37C564.83,106.53 554.9,117.03 544.83,127.29C523.262,149.323 498.272,167.724 470.83,181.78C447.2,193.92 427.57,211.5 411.3,232.7C403.64,242.63 395.19,251.95 387.3,261.7C382.2,268.06 377.52,274.77 372.71,281.36C372.54,281.6 372.85,282.43 373.18,282.71C373.51,282.99 374.41,283.41 374.7,283.22C382.55,278.03 391.17,274.44 399.6,270.36C416.23,262.29 434.17,259.36 451.71,254.88C457.71,253.35 464.17,253.29 470.42,253.28C494.93,253.28 519.42,253.56 543.97,253.74C545.22,253.74 546.48,253.81 547.73,253.9C550.36,254.11 552.53,256.64 551.84,258.9C550.05,264.9 548.34,270.9 546.18,276.83C543.46,284.21 538.07,289.52 531.43,293.41C526.02,296.58 520.49,299.76 514.64,301.91C501.1,306.91 487.56,312.11 473.64,315.6C458.64,319.36 443.72,322.6 427.42,318.9C407.35,314.33 386.58,311.9 365.75,315.02C362.66,315.48 359.48,315.37 356.39,315.82C348.837,316.71 342.054,320.903 337.88,327.26C319.45,354.2 300.17,380.57 286.22,410.34C281.44,420.55 275.37,430.16 270,440.1C269.49,441.04 269.24,442.76 269.75,443.5C271.59,446.14 272.9,443.45 273.92,442.5C290.603,427.166 310.432,415.654 332.02,408.77C349.985,403.147 368.696,400.264 387.52,400.22C399.47,400.17 411.41,400.22 423.36,400.14C432.77,400.14 442.1,400.28 451.44,397.88C456.76,396.52 462.69,397.31 468.33,397.44C472.33,397.53 474.5,402.3 472.21,405.87C466.08,415.39 459.47,424.33 449.31,430.27C437.89,437.01 427,444.5 415.83,451.5C412.64,453.5 409.4,455.84 405.83,456.72C397.17,458.86 389.62,463.38 381.55,466.79C372.92,470.43 364.13,473.24 354.36,473.33C345.05,473.41 335.8,475.95 326.46,476.63C317.12,477.31 307.53,476.34 298.19,477.3C281.85,478.98 266.27,483.55 252,492.08C248.08,494.42 244.82,497.29 242.84,501.28C239.96,506.852 237.441,512.604 235.3,518.5C223.11,554.07 210.93,589.67 202.21,626.29C196.55,650.05 191.93,674.06 186.97,697.98C186.464,701.077 186.223,704.212 186.25,707.35C185.63,727.48 182.91,747.35 179.25,767.11C178.25,772.62 178.38,778.38 178.25,784.03C178.15,789.1 177.78,794.03 175.86,798.82C175.23,800.38 175.01,802.88 177.03,803.1C178.14,803.22 180.1,800.93 180.67,799.37C182.606,794.087 184.275,788.711 185.67,783.26C190.868,762.551 198.865,742.648 209.44,724.1C211,721.38 212.75,718.74 216.05,717.78C217.17,720.78 214.3,724.64 217.7,727.23C221.77,722.23 225.7,717.54 229.56,712.75C231.12,710.82 231,707.7 229.5,708C228.42,708.077 227.381,708.451 226.5,709.08C223.12,712.5 221.23,717.59 215.55,718.27ZM163.15,578.56C162.55,578.39 161.66,578.41 161.38,578.01C154.89,568.64 151.93,557.75 148.38,547.15C146.95,542.94 146.24,538.15 148.17,534.2C150.73,528.93 149.39,524.67 146.9,520.2C145.318,517.486 143.912,514.674 142.69,511.78C134.86,492.04 124.69,473 124.3,450.98C124.3,449.87 123.37,448.69 122.67,447.69C122.42,447.34 121.54,447.27 120.98,447.33C120.42,447.39 119.7,447.76 119.64,448.09C118.02,457.92 116.43,467.75 114.95,477.59C114.762,478.842 114.907,480.122 115.37,481.3C119.03,489.98 118.71,499.78 123.45,508.3C126.15,513.13 127.63,518.78 128.87,524.24C132.38,539.58 138.12,554.14 144.17,568.57C147.673,576.609 152.395,584.06 158.17,590.66C158.92,591.53 160.3,591.87 161.38,592.45C161.93,591.45 162.93,590.45 162.96,589.36C163.06,585.59 162.84,581.82 162.74,578.06C163.74,578.76 165.39,579.35 165.52,580.17C166.42,586.34 170.41,591.47 170.78,597.94C171.06,602.8 173.18,607.57 174.68,612.31C174.95,613.16 176.17,613.72 176.95,614.41C177.591,613.403 178.083,612.308 178.41,611.16C178.61,609.295 178.61,607.415 178.41,605.55C176.12,580.03 167.51,556.79 151.98,533.09C152.57,542.64 155.3,548.89 157.15,555.38C159.3,563.01 163.55,570.19 163.15,578.56ZM287.64,457.77L287.23,457.3C288.52,458.56 289.71,460.73 291.1,460.88C294.206,461.234 297.352,460.959 300.35,460.07C313.27,455.94 326.35,456.34 339.29,459.07C352.166,461.903 365.565,461.275 378.12,457.25C398.12,450.92 415.68,440.31 431.57,426.81C433.41,425.25 434.7,422.98 436.03,420.89C436.56,420.05 437.03,418.22 436.6,417.89C435.642,417.128 434.411,416.795 433.2,416.97C424.689,419.068 415.965,420.182 407.2,420.29C392.2,420.5 377.3,421.5 362.3,422.87C343.3,424.64 325.65,430.52 308.05,436.76C297.978,440.367 288.929,446.362 281.68,454.23C279.46,456.62 282.34,457.11 283.88,457.56C285.121,457.779 286.383,457.85 287.64,457.77ZM113.86,925.63C114.485,925.584 115.113,925.614 115.73,925.72C117.26,926.18 118.73,926.72 120.27,927.29C120.35,926.12 120.86,924.79 120.46,923.82C112.032,902.936 100.623,883.383 86.59,865.77C77.106,854.151 68.302,841.994 60.22,829.36C53.306,818.221 45.457,807.69 36.76,797.88C32.18,792.77 27.24,787.98 22.31,783.2C21.306,782.541 20.045,782.399 18.92,782.82C17.872,783.413 17.177,784.482 17.06,785.68C18.5,796.17 19.88,806.68 21.83,817.09C22.876,822.607 24.515,827.995 26.72,833.16C33.58,849.3 41.49,864.93 51.49,879.39C56.016,886.118 61.394,892.232 67.49,897.58C79.86,908.24 93.58,916.95 106.42,926.9C107.382,927.68 108.523,928.209 109.74,928.44C111.82,928.72 113.12,927.39 113.93,925.58L113.86,925.63ZM246.11,778.55L245.82,778.22C243.51,783.52 238.03,783.79 233.64,785.33C229.25,786.87 224.54,787.78 220.92,792.76C234.2,793.05 246.69,793.61 259.17,793.47C266.82,793.38 273.93,794.21 281.04,797.47C293.037,802.96 306.021,805.967 319.21,806.31C335.88,806.67 352.74,804.43 368.78,798.15C382.36,792.82 394.86,786.15 405.08,775.57C405.85,774.78 406.08,773.45 406.52,772.37C405.41,771.95 404.05,770.89 403.24,771.22C390.62,776.32 377.24,774.32 364.24,775.14C360.01,775.4 355.54,774.22 351.4,772.97C343.67,770.63 336,768.21 328.4,765.25C308.95,757.67 288.4,755.89 267.6,756.47C257.588,756.62 247.736,759.012 238.77,763.47C226.95,769.4 215.71,776.16 206.48,785.79C203.54,788.85 199.27,790.79 198.1,795.39C203.76,798.12 207.18,793.05 211.52,791.39C214.39,790.29 216.69,787.79 219.52,786.55C228.07,782.81 236.18,777.6 246.11,778.55ZM365.11,637.29C364.715,636.803 364.246,636.381 363.72,636.04C363.175,635.749 362.532,635.702 361.95,635.91C354.72,641.02 346.35,643.71 338.31,647.09C308.12,659.8 280.12,676.19 254.98,697.28C251.113,700.48 247.505,703.981 244.19,707.75C239.27,713.42 234.7,719.39 230.19,725.38C229.12,726.78 227.72,729.48 228.3,730.38C231.96,735.72 227.92,738.16 224.92,741.26C219.7,746.66 214.593,752.17 209.6,757.79C208.99,758.47 209.06,760.09 209.34,761.13C209.79,762.75 210.85,762.65 212.34,761.72C231.63,749.54 252.25,740.83 275.07,737.92C277.563,737.65 280.036,737.212 282.47,736.61C284.3,736.199 286.034,735.442 287.58,734.38C299.58,725.32 311.83,716.44 321.04,704.26C324.83,699.26 329.04,694.49 332.1,689.06C336.55,681.06 343.93,676.51 350.7,671.14C351.37,661.5 355.51,653.34 361.22,645.73C362.94,643.26 363.78,640.11 365.07,637.29L365.11,637.29ZM357.18,908.76C356.33,908.06 355.41,906.66 354.66,906.76C345.97,907.82 337.35,909.76 328.66,910.22C306.77,911.53 285.17,914.93 263.47,917.8C238.01,921.17 214.84,929.41 194.47,945.06C191.9,947.06 187.91,947.72 187.54,952.63C187.17,957.54 181.4,957.88 178.39,960.72C175.67,963.28 172.25,965.08 169.39,967.52C167.534,969.207 165.894,971.118 164.51,973.21C163.857,974.149 163.679,975.341 164.03,976.43C164.756,977.322 165.886,977.79 167.03,977.67C174.68,974.94 182.22,971.9 189.85,969.1C202.19,964.57 214.65,960.29 227.77,958.79C249.53,956.29 271.35,954.28 293.14,951.96C318.22,949.3 338.7,938.9 352.06,916.61C353.34,914.47 355.06,912.61 356.49,910.53C356.775,909.967 356.993,909.373 357.14,908.76L357.18,908.76ZM605.3,28.39C589.36,39.39 572.73,48.05 556.22,56.87C530.44,70.65 508.48,88.61 491.46,112.63C481.65,126.49 473.46,141.24 465.68,156.23C465.227,157.405 465.036,158.664 465.12,159.92C465.12,160.45 465.55,161.38 465.93,161.46C466.93,161.67 468.51,161.94 468.93,161.46C472.1,157.63 475.05,153.62 478.06,149.66C483.51,157.92 487.51,149.77 491.33,147.93C500.91,143.299 510.18,138.051 519.08,132.22C525.31,128.13 530.48,122.47 536.45,117.94C549,108.43 560.77,97.94 570.04,85.32C583.23,67.31 596.35,49.18 605.3,28.39ZM370.99,302.2L405.16,302.2C415.16,302.26 425.02,302.2 434.87,305.47C443.08,308.18 452.35,305.85 460.81,308.88C461.81,309.24 463.22,308.56 464.44,308.3C490.32,302.92 512.13,290.1 530.91,271.81C531.716,270.883 532.1,269.661 531.97,268.44C531.63,266.29 529.68,265.96 527.82,265.82C505.82,264.09 484.15,266.45 462.66,271.27C446.82,274.81 430.86,277.82 415,281.27C407.67,282.86 400.46,284.97 394.45,289.87C397.38,291.87 400.45,291.14 403.38,290.11C414.751,286.177 427.048,285.759 438.66,288.91C452.45,292.61 464.66,288.84 477.12,284.91C481.86,283.41 486.27,280.85 490.83,278.77C492.83,277.85 495.28,278.7 494.83,280.17C494.566,281.363 494.081,282.496 493.4,283.51C489.5,287.93 483.98,289.63 478.71,291.45C462.89,296.9 446.76,296.73 430.51,293.53C426.87,292.81 422.59,291.28 419.51,292.53C410.33,296.14 400.97,294.86 391.65,295.33C384.82,295.59 377.76,295.63 370.99,302.2ZM197.89,194.08C197.67,204.02 198.26,211.41 200.76,218.67C207.93,239.47 217.08,259.24 230.14,277.05C230.82,277.98 232.14,278.42 233.2,279.05C233.69,277.99 234.51,276.94 234.59,275.85C234.599,273.974 234.479,272.1 234.23,270.24C234.1,268.32 234.7,266.52 236.63,266.13C237.44,265.97 239.02,267.13 239.45,268.13C246.95,284.59 254.28,301.13 261.75,317.58C263.27,320.93 265.21,324.09 266.95,327.34C271.04,323.87 268.44,319.45 268.38,315.55C268.261,302.308 263.647,289.491 255.3,279.21C251.01,273.83 246.41,268.57 242.93,262.68C233.4,246.55 224.37,230.11 215.16,213.78C211.78,207.78 208.91,201.65 207.52,194.78C206.69,190.64 204.15,186.84 202.29,182.94C202.17,182.68 201.2,182.68 200.69,182.8C200.123,182.913 199.614,183.221 199.25,183.67C196.77,187.68 198.02,192.17 197.89,194.08ZM368.16,202.17C378,170.02 384.62,137.69 385.76,104.42C385.731,101.904 386.116,99.401 386.9,97.01C389.52,90.32 388.17,83.32 388.9,76.49C388.97,75.8 387.9,74.9 387.14,74.3C386.97,74.16 385.95,74.72 385.6,75.17C380.13,82.24 377.88,90.88 374.21,98.83C360.21,129.11 356.56,161.5 356.28,194.22C356.15,209.51 359.28,224.82 360.87,240.12C362.552,229.571 363.265,218.889 363,208.21C362.07,184.32 367.95,160.87 367,137.03C367.104,136.425 367.374,135.861 367.78,135.4C368.129,134.934 368.506,134.49 368.91,134.07C369.32,134.55 370.04,135 370.08,135.51C371.08,149.25 371.41,163.15 368.66,176.57C366.83,185.4 367.08,193.75 368.16,202.17ZM205.22,251.27C205.06,254.09 204.56,256 204.91,257.73C208.22,273.88 214.15,288.98 224.76,301.73C228.83,306.63 231.32,312.4 234.96,317.37C238.6,322.34 244.02,325.62 248.3,330.02C252.21,334.02 255.61,338.54 259.3,342.77C259.752,343.205 260.377,343.415 261,343.34C262.44,343.05 263,342.08 262.37,340.89C254.16,324.71 245.48,308.83 234.91,294.02C225.1,280.32 215.65,266.34 205.22,251.27ZM350.13,630.03C350.01,629.6 350.02,629.03 349.75,628.83C349.3,628.48 348.55,628.06 348.14,628.22C342.38,630.52 336.8,633.41 330.88,635.22C308.49,641.94 288.41,653.04 269.17,666.09C257.65,673.91 248.23,683.69 239.5,694.3C239,694.91 239.64,696.44 239.75,697.53C240.75,697.26 241.98,697.28 242.64,696.67C262.761,677.893 285.506,662.141 310.16,649.91C319.08,645.5 328.39,641.91 337.45,637.79C341.97,635.69 346.85,634.13 350.13,630.03ZM120.02,518.89C117.27,521.4 117.51,523.89 117.86,526.12C119.71,537.76 121.95,549.33 125.86,560.49C134.3,584.68 151.44,603.02 167.55,622.04C167.923,622.308 168.411,622.357 168.83,622.17C169.26,621.79 169.83,621.05 169.7,620.63C167.83,613.88 163.85,608.4 159.54,602.96C147.85,588.24 137.87,572.59 132.44,554.25C128.91,542.41 124.3,530.91 120.02,518.89ZM213.81,179.57C211.65,183.43 213.13,186.26 214.25,189.19C221.63,208.53 231.79,226.47 242.34,244.19C246.79,251.68 252.03,258.71 256.98,265.91C257.93,267.28 259.07,267.38 259.79,266.39C260.11,265.94 260.48,265.18 260.31,264.76C256.64,255.5 253.61,245.9 249.02,237.12C238.64,217.29 226.06,198.75 213.81,179.57ZM180.98,587.05C181.67,578.68 182.3,573.85 180.59,568.95C175.04,553.04 169.59,537.11 161.59,522.19C159.52,518.33 156.59,514.66 155.59,510.53C152.64,498.08 145.11,487.86 139.94,476.53C139.55,475.67 138.37,475.17 137.55,474.53C137.1,475.65 136.11,476.86 136.29,477.86C138.238,488.283 141.698,498.366 146.56,507.79C153.1,520.59 159.56,533.46 166.35,546.12C172.067,556.528 176.116,567.768 178.35,579.43C178.63,580.86 179.3,582.26 180.98,587.05ZM375.3,218.17C388.47,187.57 397.94,133.7 390.11,111.68C390.47,133.47 386.11,152.88 381.53,172.28C379.26,181.96 376.73,191.6 375.05,201.38C374.15,206.73 373.01,212.4 375.3,218.17ZM195.3,973.69C204.01,973.69 208.49,974.42 212.63,973.56C225.56,970.84 238.63,971.2 251.72,970.5C264.81,969.8 277.11,965.98 290.1,961.5C284.99,959.1 280.58,959.6 276.27,960C250.3,962.37 224.35,965.04 195.3,973.69ZM261.89,905.78C278.69,908.24 293.05,902.61 307.82,900.94C292.48,897.59 277.71,899.28 261.85,905.78L261.89,905.78ZM276.89,332.02C275.41,345.66 276.3,355.57 283.08,366.02C284.62,354.36 282.66,344.81 276.83,332.02L276.89,332.02ZM119.05,897.66C118.73,898.79 117.82,900.15 118.17,901C120.87,907.62 122.38,914.87 127.67,920.21C130.96,911.78 123.41,906.79 121.21,900.1C120.89,899.16 119.8,898.5 119.05,897.66Z" style="fill-rule:nonzero;"/>
                <path d="M525.61,57.24C524.88,60.58 522.15,62.24 519.61,63.72C508.05,70.66 497.22,78.5 487.87,88.29C485.7,90.57 483.09,92.05 479.76,91.67C483.03,83.18 490.15,77.75 497.03,73.08C505.96,67 513.84,58.42 525.61,57.24Z" style="fill-rule:nonzero;"/>
                <path d="M480.3,91.15C477.64,100.93 471.55,108.53 464.75,115.69C467.4,102.31 469.62,98.79 480.3,91.15Z" style="fill-rule:nonzero;"/>
                <path d="M261.18,710.5C261.63,709.41 261.76,707.76 262.57,707.3C279.903,697.413 297.277,687.637 314.69,677.97C315.03,677.78 316.34,679.03 316.94,679.8C317.17,680.09 316.79,681.04 316.46,681.53C315.77,682.53 315.12,683.85 314.11,684.4C297.677,693.16 281.207,701.827 264.7,710.4C263.75,710.89 262.26,710.35 261.02,710.29L261.18,710.5Z" style="fill-rule:nonzero;"/>
                <path d="M261.02,710.37C257.79,718.76 249.65,721.08 242.79,724.92C242.19,725.26 240.79,724.13 239.7,723.68C239.945,723.108 240.283,722.581 240.7,722.12C245.7,718.41 250.57,714.59 255.75,711.18C257.1,710.29 259.33,710.72 261.15,710.54L261.02,710.37Z" style="fill-rule:nonzero;"/>
                <path d="M246.11,778.55C246.76,777.55 247.27,775.91 248.11,775.74C255.42,774.22 262.78,772.92 270.11,771.74C271.967,771.386 273.87,771.345 275.74,771.62C296.533,775.207 317.317,778.873 338.09,782.62C338.57,782.71 339.33,783.87 339.28,783.94C338.54,784.79 337.66,786.23 336.84,786.22C330.6,786.11 323.84,787.14 318.23,785.13C297.01,777.56 275.23,777.92 253.3,778.53C250.81,778.6 248.3,778.37 245.8,778.28L246.11,778.55Z" style="fill-rule:nonzero;"/>
                <path d="M206.51,946.61C212.8,943.01 219.74,941.52 227.06,940.33C241.32,938.01 255.68,937.19 269.95,935.41C277.7,934.41 284.61,936.41 291.85,937.56C292.33,937.64 292.69,938.44 293.11,938.91C292.64,939.32 292.23,939.91 291.68,940.11C289.92,940.64 288.08,941.46 286.32,941.36C261.12,940.01 236.32,942.83 211.68,947.91C209.94,948.26 207.85,948.56 206.51,946.61Z" style="fill-rule:nonzero;"/>
                <path d="M517.23,98.96C516.266,101.089 515.136,103.138 513.85,105.09C510.13,110.01 506.15,114.73 502.3,119.55C501.14,120.99 500.2,120.93 499.51,119.26C499.3,118.75 499.02,117.98 499.24,117.63C503.8,110.4 507.47,102.5 514.39,97.01C514.849,96.765 515.401,96.765 515.86,97.01C516.3,97.3 516.56,97.95 517.23,98.96Z" style="fill-rule:nonzero;"/>
                <path d="M113.92,925.58C108.58,924.49 106.12,919.75 102.69,916.38C95.16,908.96 88.05,901.14 79.38,894.93C72.68,890.13 68.45,883.23 65.04,875.85C64.9,875.55 65.48,874.79 65.88,874.41C66.233,874.067 66.72,873.895 67.21,873.94C67.82,874.098 68.364,874.449 68.76,874.94C79.83,889.31 94.87,899.75 106.81,913.25C110.01,916.87 114.66,919.73 113.86,925.65L113.92,925.58Z" style="fill-rule:nonzero;"/>
                <path d="M57.1,857.4C56.816,858.224 56.444,859.016 55.99,859.76C55.7,860.09 54.9,860.48 54.72,860.34C48.55,855.65 44.3,849.73 42.9,841.96C42.83,841.55 43.54,840.79 44.04,840.56C44.58,840.478 45.126,840.674 45.49,841.08C49.49,846.62 53.42,852.21 57.1,857.4Z" style="fill-rule:nonzero;"/>
                <path d="M287.64,457.77C295.45,450.34 305.29,446.38 315,442.47C326.58,437.81 338.27,433.91 351.28,434.07C359.17,434.17 367.11,430.99 375.01,429.2C382.91,427.41 390.73,425.56 400.76,428.9C386.13,434.98 372.48,436.59 358.99,438.29C340.3,440.64 322.09,444.24 304.99,452.42C299.46,455.05 293.99,458.78 287.27,457.3L287.64,457.77Z" style="fill-rule:nonzero;"/>
            </g>
        </g>
    </g>
    <g transform="matrix(-0.354785,0,0,0.354785,420.554,3273)">
        <g transform="matrix(1,0,0,1,-313.2,-599.95)">
            <g id="change1_11" serif:id="change1_1">
                <path d="M215.55,718.27C216.27,715.91 216.47,713.19 217.79,711.27C229.887,693.605 244.467,677.776 261.08,664.27C276.08,651.95 293.55,642.87 311.57,635.27C314.42,633.954 317.365,632.855 320.38,631.98C341.43,626.63 360.02,616.19 377.28,603.49C382.57,599.59 386.58,604.7 391.28,603.14C392.75,602.65 393.68,605.43 393.64,607.32C393.53,611.72 393.1,615.88 390.84,620C376.37,646.38 363.76,673.83 346.05,698.37C343.48,701.93 340.9,705.65 337.62,708.49C326.23,718.32 317.82,731.21 305.3,739.89C303.16,741.38 303.76,744.63 306.38,745.89C310.3,747.83 314.28,750.82 318.38,751.04C331.56,751.75 344.15,756.45 357.55,755.74C368.82,755.14 380.16,756.04 391.47,756.1C401.52,756.16 411.55,756.1 421.19,752.38C422.48,751.89 425.08,752.84 426.04,753.99C427.027,755.506 427.335,757.367 426.89,759.12C425.135,765.18 421.905,770.712 417.49,775.22C399.82,794.22 377.8,806.3 352.95,812.03C325.24,818.41 297.09,818.03 268.81,813.78C254.63,811.63 240.52,808.61 225.98,808.26C209.8,807.87 194.98,811.71 180.46,818.26C176.338,819.926 173.3,823.534 172.36,827.88C171.537,830.916 171.031,834.029 170.85,837.17C170.28,857.32 166.64,877.08 163.74,896.95C160.66,918.04 157.74,939.13 152.32,959.79C151.98,961.002 151.842,962.263 151.91,963.52C152.03,965.33 151.85,967.75 152.91,968.76C154.38,970.17 156.09,968.33 157.26,967.12C161.64,962.61 165.99,958.12 170.26,953.43C178.789,944.156 188.666,936.22 199.56,929.89C212.03,922.59 224.83,915.89 237.37,908.71C253.47,899.51 271.46,896.17 289.19,892.33C296.003,891.001 303.014,891.069 309.8,892.53C324.603,895.526 339.868,895.424 354.63,892.23C359.54,891.23 364.57,890.74 369.56,890.08C373.09,889.6 375.38,891.82 375.34,895.26C375.29,899.15 374.66,902.95 372.13,905.87C361.02,918.66 351.31,932.69 338.13,943.7C326.061,953.804 312.303,961.698 297.49,967.02C279.787,973.398 261.37,977.589 242.65,979.5C225.29,981.34 207.65,981.13 190.48,985.86C176.22,989.8 163.94,997.01 152.48,1005.86C143.7,1012.67 139.01,1022.54 136.79,1033.05C128.72,1071.05 117.08,1108.15 106.3,1145.44C101.25,1162.9 95.89,1180.38 85.93,1195.92C84.93,1197.44 82.62,1199.86 82.09,1199.58C80.19,1198.58 80.8,1196.46 81.51,1194.67C81.74,1194.09 82.1,1193.55 82.28,1192.95C90.85,1165.44 99.66,1138.01 107.88,1110.39C115.88,1083.39 123.06,1056.11 128.68,1028.47C131.43,1014.97 133.76,1001.31 137.68,988.13C140.35,979.13 138.29,972.33 133.06,965.4C124.63,954.23 114.12,945.34 102.95,937.14C98.4,933.8 93.47,930.96 88.95,927.58C79.89,920.82 70.52,914.43 62.95,905.84C60.88,903.49 58.83,900.69 56.14,899.37C42.59,892.65 35.62,879.37 25.49,869.25C23.192,867.096 21.34,864.51 20.04,861.64C13.52,845.5 5.94,829.75 3.41,811.94C1.46,798.19 -0.03,784.62 0.41,770.79C0.425,766.347 2.421,762.135 5.85,759.31C11.46,754.42 13.77,754.03 18.2,759.39C25.4,768.13 32.433,776.973 39.3,785.92C56.889,808.839 76.181,830.4 97.01,850.42C107.09,860.14 114.08,872.19 121.27,883.91C130.14,898.36 137.7,913.61 140.7,930.63C141.46,935.434 143.537,939.935 146.7,943.63C149.53,927.63 152.7,912.52 154.7,897.32C156.7,882.42 158.7,867.53 159.65,852.45C160.91,833.14 164.73,813.96 168.02,794.82C168.843,789.884 169.351,784.901 169.54,779.9C169.94,771.12 170.44,762.43 172.73,753.78C175.62,742.86 174.86,731.38 176.73,720.17C178.83,707.25 178.73,693.97 181.39,681.02C182.54,675.42 180.99,670.11 179.45,664.51C174.82,647.6 164.65,634.22 154.17,620.89C151.07,616.94 147.75,613.15 144.42,609.39C129.97,593.09 121.9,573.89 115.88,553.06C109.916,532.612 106.839,511.43 106.74,490.13C106.64,466.13 110.9,442.73 117.81,419.79C118.35,418 119.3,416.3 121.46,416.11C124.06,415.842 126.454,417.655 126.9,420.23C132.59,445 146.34,466.29 156.14,489.23C164.52,508.89 174.58,527.7 183.14,547.23C190.01,562.96 191.85,579.82 193.28,596.7C193.76,602.29 193.74,607.93 194.05,616.48C196.37,610.48 198.05,607.4 198.8,604.09C203.52,583.91 211.54,564.75 217.18,544.91C225.1,517.03 237.61,491.03 248.3,464.33C255.02,447.54 264.94,432.02 273.59,416.03C276.59,410.47 279.41,405.1 279.8,398.5C280.27,390.67 279.49,383.6 274.29,377.25C269.53,371.43 265.61,364.93 260.79,359.18C249.08,345.24 237.3,331.36 225.11,317.85C213.693,305.271 205.187,290.329 200.2,274.09C191.619,246.452 187.999,217.511 189.51,188.61C189.98,178.61 192.11,168.74 193.7,158.85C193.98,157.09 195.23,155.44 196.21,153.85C198.14,150.71 203.9,150.19 205.99,153.18C208.5,156.75 210.59,160.61 212.8,164.39C221.34,179.02 229.25,194.06 238.51,208.22C252.723,229.69 263.051,253.493 269.02,278.54C271.17,287.65 274.71,296.46 278.02,305.25C280.46,311.7 282.72,318.17 284.81,324.76C289.41,339.25 292.63,353.76 291.97,369.07C291.92,370.24 292.65,371.44 292.97,372.63C294.57,371.85 296.19,371.13 297.73,370.25C298.23,369.97 298.51,369.25 298.87,368.76C311.43,350.76 323.99,332.73 336.55,314.67C338.35,312.1 339.63,309.03 341.84,306.9C350.27,298.77 352.46,288.55 351.9,277.54C351.08,261.28 353.62,244.77 348.43,228.83C349.77,215.48 344,202.94 343.99,189.76C343.99,183.71 342.15,177.22 349.04,172.9C350.52,171.97 350.72,168.32 350.77,165.9C351.62,129.9 362.53,96.95 380.67,66.13C381.15,65.31 380.57,63.86 380.49,62.7C379.49,62.8 378.18,62.53 377.61,63.06C375.31,65.2 373.31,67.65 371.07,69.84C370.36,70.53 369.01,71.33 368.31,71.08C366.93,70.59 366.78,69.16 367.63,67.86C375.76,55.58 387.26,46.86 399.06,38.56C400.14,37.8 403.12,39.47 403.54,40.86C405.6,47.71 404.88,54.73 403.38,61.35C401.69,68.85 401.71,76.3 401.6,83.82C401.34,101.42 401.137,119.027 400.99,136.64C400.89,150.53 397.68,163.99 395.31,177.54C391.19,201.02 382.49,223.31 376.37,246.28C375.534,249.939 374.922,253.646 374.54,257.38C374.47,257.89 375.02,258.94 375.32,258.96C376.32,258.96 377.69,259.05 378.19,258.47C386.06,249.47 394.25,240.75 401.46,231.26C409.064,221.253 417.555,211.952 426.83,203.47C431,199.65 434.49,195.08 438.83,191.47C444.83,186.39 447.05,180.7 443.9,173.2C442.35,169.49 443.35,165.92 444.78,162.28C447.48,155.44 447.28,147.28 454.27,142.5C453.8,147.5 453.16,152.37 450.94,157.04C450,159.04 449.83,163.41 450.75,163.88C454.15,165.61 453.67,161.49 454.59,159.95C457.16,155.67 459.17,151.05 461.4,146.57C464.4,140.43 466.87,133.87 470.64,128.22C483.48,108.95 496.64,89.97 515.3,75.46C522.67,69.73 529.3,63 537.19,57.9C538.58,57 539.19,54.96 540.19,53.45C548.47,52.89 554.51,47.45 561.94,44.34C560.107,42.19 556.928,41.729 554.56,43.27C549.48,46.18 542.72,47.05 540.56,53.86C538.26,54.35 535.94,54.78 533.66,55.35C530.78,56.06 527.92,56.87 525.05,57.64C525.22,54.75 527.36,53.44 529.46,52.05C542.033,43.738 555.213,36.384 568.89,30.05C584.26,22.89 599.32,15.15 612.69,4.51C614.739,3.065 616.959,1.879 619.3,0.98C621.63,-0.02 622.93,1.83 623.58,3.41C625.22,7.41 626.33,11.15 624.05,15.81C615.646,32.69 606.069,48.96 595.39,64.5C588.39,74.91 581.71,85.64 573.83,95.37C564.83,106.53 554.9,117.03 544.83,127.29C523.262,149.323 498.272,167.724 470.83,181.78C447.2,193.92 427.57,211.5 411.3,232.7C403.64,242.63 395.19,251.95 387.3,261.7C382.2,268.06 377.52,274.77 372.71,281.36C372.54,281.6 372.85,282.43 373.18,282.71C373.51,282.99 374.41,283.41 374.7,283.22C382.55,278.03 391.17,274.44 399.6,270.36C416.23,262.29 434.17,259.36 451.71,254.88C457.71,253.35 464.17,253.29 470.42,253.28C494.93,253.28 519.42,253.56 543.97,253.74C545.22,253.74 546.48,253.81 547.73,253.9C550.36,254.11 552.53,256.64 551.84,258.9C550.05,264.9 548.34,270.9 546.18,276.83C543.46,284.21 538.07,289.52 531.43,293.41C526.02,296.58 520.49,299.76 514.64,301.91C501.1,306.91 487.56,312.11 473.64,315.6C458.64,319.36 443.72,322.6 427.42,318.9C407.35,314.33 386.58,311.9 365.75,315.02C362.66,315.48 359.48,315.37 356.39,315.82C348.837,316.71 342.054,320.903 337.88,327.26C319.45,354.2 300.17,380.57 286.22,410.34C281.44,420.55 275.37,430.16 270,440.1C269.49,441.04 269.24,442.76 269.75,443.5C271.59,446.14 272.9,443.45 273.92,442.5C290.603,427.166 310.432,415.654 332.02,408.77C349.985,403.147 368.696,400.264 387.52,400.22C399.47,400.17 411.41,400.22 423.36,400.14C432.77,400.14 442.1,400.28 451.44,397.88C456.76,396.52 462.69,397.31 468.33,397.44C472.33,397.53 474.5,402.3 472.21,405.87C466.08,415.39 459.47,424.33 449.31,430.27C437.89,437.01 427,444.5 415.83,451.5C412.64,453.5 409.4,455.84 405.83,456.72C397.17,458.86 389.62,463.38 381.55,466.79C372.92,470.43 364.13,473.24 354.36,473.33C345.05,473.41 335.8,475.95 326.46,476.63C317.12,477.31 307.53,476.34 298.19,477.3C281.85,478.98 266.27,483.55 252,492.08C248.08,494.42 244.82,497.29 242.84,501.28C239.96,506.852 237.441,512.604 235.3,518.5C223.11,554.07 210.93,589.67 202.21,626.29C196.55,650.05 191.93,674.06 186.97,697.98C186.464,701.077 186.223,704.212 186.25,707.35C185.63,727.48 182.91,747.35 179.25,767.11C178.25,772.62 178.38,778.38 178.25,784.03C178.15,789.1 177.78,794.03 175.86,798.82C175.23,800.38 175.01,802.88 177.03,803.1C178.14,803.22 180.1,800.93 180.67,799.37C182.606,794.087 184.275,788.711 185.67,783.26C190.868,762.551 198.865,742.648 209.44,724.1C211,721.38 212.75,718.74 216.05,717.78C217.17,720.78 214.3,724.64 217.7,727.23C221.77,722.23 225.7,717.54 229.56,712.75C231.12,710.82 231,707.7 229.5,708C228.42,708.077 227.381,708.451 226.5,709.08C223.12,712.5 221.23,717.59 215.55,718.27ZM163.15,578.56C162.55,578.39 161.66,578.41 161.38,578.01C154.89,568.64 151.93,557.75 148.38,547.15C146.95,542.94 146.24,538.15 148.17,534.2C150.73,528.93 149.39,524.67 146.9,520.2C145.318,517.486 143.912,514.674 142.69,511.78C134.86,492.04 124.69,473 124.3,450.98C124.3,449.87 123.37,448.69 122.67,447.69C122.42,447.34 121.54,447.27 120.98,447.33C120.42,447.39 119.7,447.76 119.64,448.09C118.02,457.92 116.43,467.75 114.95,477.59C114.762,478.842 114.907,480.122 115.37,481.3C119.03,489.98 118.71,499.78 123.45,508.3C126.15,513.13 127.63,518.78 128.87,524.24C132.38,539.58 138.12,554.14 144.17,568.57C147.673,576.609 152.395,584.06 158.17,590.66C158.92,591.53 160.3,591.87 161.38,592.45C161.93,591.45 162.93,590.45 162.96,589.36C163.06,585.59 162.84,581.82 162.74,578.06C163.74,578.76 165.39,579.35 165.52,580.17C166.42,586.34 170.41,591.47 170.78,597.94C171.06,602.8 173.18,607.57 174.68,612.31C174.95,613.16 176.17,613.72 176.95,614.41C177.591,613.403 178.083,612.308 178.41,611.16C178.61,609.295 178.61,607.415 178.41,605.55C176.12,580.03 167.51,556.79 151.98,533.09C152.57,542.64 155.3,548.89 157.15,555.38C159.3,563.01 163.55,570.19 163.15,578.56ZM287.64,457.77L287.23,457.3C288.52,458.56 289.71,460.73 291.1,460.88C294.206,461.234 297.352,460.959 300.35,460.07C313.27,455.94 326.35,456.34 339.29,459.07C352.166,461.903 365.565,461.275 378.12,457.25C398.12,450.92 415.68,440.31 431.57,426.81C433.41,425.25 434.7,422.98 436.03,420.89C436.56,420.05 437.03,418.22 436.6,417.89C435.642,417.128 434.411,416.795 433.2,416.97C424.689,419.068 415.965,420.182 407.2,420.29C392.2,420.5 377.3,421.5 362.3,422.87C343.3,424.64 325.65,430.52 308.05,436.76C297.978,440.367 288.929,446.362 281.68,454.23C279.46,456.62 282.34,457.11 283.88,457.56C285.121,457.779 286.383,457.85 287.64,457.77ZM113.86,925.63C114.485,925.584 115.113,925.614 115.73,925.72C117.26,926.18 118.73,926.72 120.27,927.29C120.35,926.12 120.86,924.79 120.46,923.82C112.032,902.936 100.623,883.383 86.59,865.77C77.106,854.151 68.302,841.994 60.22,829.36C53.306,818.221 45.457,807.69 36.76,797.88C32.18,792.77 27.24,787.98 22.31,783.2C21.306,782.541 20.045,782.399 18.92,782.82C17.872,783.413 17.177,784.482 17.06,785.68C18.5,796.17 19.88,806.68 21.83,817.09C22.876,822.607 24.515,827.995 26.72,833.16C33.58,849.3 41.49,864.93 51.49,879.39C56.016,886.118 61.394,892.232 67.49,897.58C79.86,908.24 93.58,916.95 106.42,926.9C107.382,927.68 108.523,928.209 109.74,928.44C111.82,928.72 113.12,927.39 113.93,925.58L113.86,925.63ZM246.11,778.55L245.82,778.22C243.51,783.52 238.03,783.79 233.64,785.33C229.25,786.87 224.54,787.78 220.92,792.76C234.2,793.05 246.69,793.61 259.17,793.47C266.82,793.38 273.93,794.21 281.04,797.47C293.037,802.96 306.021,805.967 319.21,806.31C335.88,806.67 352.74,804.43 368.78,798.15C382.36,792.82 394.86,786.15 405.08,775.57C405.85,774.78 406.08,773.45 406.52,772.37C405.41,771.95 404.05,770.89 403.24,771.22C390.62,776.32 377.24,774.32 364.24,775.14C360.01,775.4 355.54,774.22 351.4,772.97C343.67,770.63 336,768.21 328.4,765.25C308.95,757.67 288.4,755.89 267.6,756.47C257.588,756.62 247.736,759.012 238.77,763.47C226.95,769.4 215.71,776.16 206.48,785.79C203.54,788.85 199.27,790.79 198.1,795.39C203.76,798.12 207.18,793.05 211.52,791.39C214.39,790.29 216.69,787.79 219.52,786.55C228.07,782.81 236.18,777.6 246.11,778.55ZM365.11,637.29C364.715,636.803 364.246,636.381 363.72,636.04C363.175,635.749 362.532,635.702 361.95,635.91C354.72,641.02 346.35,643.71 338.31,647.09C308.12,659.8 280.12,676.19 254.98,697.28C251.113,700.48 247.505,703.981 244.19,707.75C239.27,713.42 234.7,719.39 230.19,725.38C229.12,726.78 227.72,729.48 228.3,730.38C231.96,735.72 227.92,738.16 224.92,741.26C219.7,746.66 214.593,752.17 209.6,757.79C208.99,758.47 209.06,760.09 209.34,761.13C209.79,762.75 210.85,762.65 212.34,761.72C231.63,749.54 252.25,740.83 275.07,737.92C277.563,737.65 280.036,737.212 282.47,736.61C284.3,736.199 286.034,735.442 287.58,734.38C299.58,725.32 311.83,716.44 321.04,704.26C324.83,699.26 329.04,694.49 332.1,689.06C336.55,681.06 343.93,676.51 350.7,671.14C351.37,661.5 355.51,653.34 361.22,645.73C362.94,643.26 363.78,640.11 365.07,637.29L365.11,637.29ZM357.18,908.76C356.33,908.06 355.41,906.66 354.66,906.76C345.97,907.82 337.35,909.76 328.66,910.22C306.77,911.53 285.17,914.93 263.47,917.8C238.01,921.17 214.84,929.41 194.47,945.06C191.9,947.06 187.91,947.72 187.54,952.63C187.17,957.54 181.4,957.88 178.39,960.72C175.67,963.28 172.25,965.08 169.39,967.52C167.534,969.207 165.894,971.118 164.51,973.21C163.857,974.149 163.679,975.341 164.03,976.43C164.756,977.322 165.886,977.79 167.03,977.67C174.68,974.94 182.22,971.9 189.85,969.1C202.19,964.57 214.65,960.29 227.77,958.79C249.53,956.29 271.35,954.28 293.14,951.96C318.22,949.3 338.7,938.9 352.06,916.61C353.34,914.47 355.06,912.61 356.49,910.53C356.775,909.967 356.993,909.373 357.14,908.76L357.18,908.76ZM605.3,28.39C589.36,39.39 572.73,48.05 556.22,56.87C530.44,70.65 508.48,88.61 491.46,112.63C481.65,126.49 473.46,141.24 465.68,156.23C465.227,157.405 465.036,158.664 465.12,159.92C465.12,160.45 465.55,161.38 465.93,161.46C466.93,161.67 468.51,161.94 468.93,161.46C472.1,157.63 475.05,153.62 478.06,149.66C483.51,157.92 487.51,149.77 491.33,147.93C500.91,143.299 510.18,138.051 519.08,132.22C525.31,128.13 530.48,122.47 536.45,117.94C549,108.43 560.77,97.94 570.04,85.32C583.23,67.31 596.35,49.18 605.3,28.39ZM370.99,302.2L405.16,302.2C415.16,302.26 425.02,302.2 434.87,305.47C443.08,308.18 452.35,305.85 460.81,308.88C461.81,309.24 463.22,308.56 464.44,308.3C490.32,302.92 512.13,290.1 530.91,271.81C531.716,270.883 532.1,269.661 531.97,268.44C531.63,266.29 529.68,265.96 527.82,265.82C505.82,264.09 484.15,266.45 462.66,271.27C446.82,274.81 430.86,277.82 415,281.27C407.67,282.86 400.46,284.97 394.45,289.87C397.38,291.87 400.45,291.14 403.38,290.11C414.751,286.177 427.048,285.759 438.66,288.91C452.45,292.61 464.66,288.84 477.12,284.91C481.86,283.41 486.27,280.85 490.83,278.77C492.83,277.85 495.28,278.7 494.83,280.17C494.566,281.363 494.081,282.496 493.4,283.51C489.5,287.93 483.98,289.63 478.71,291.45C462.89,296.9 446.76,296.73 430.51,293.53C426.87,292.81 422.59,291.28 419.51,292.53C410.33,296.14 400.97,294.86 391.65,295.33C384.82,295.59 377.76,295.63 370.99,302.2ZM197.89,194.08C197.67,204.02 198.26,211.41 200.76,218.67C207.93,239.47 217.08,259.24 230.14,277.05C230.82,277.98 232.14,278.42 233.2,279.05C233.69,277.99 234.51,276.94 234.59,275.85C234.599,273.974 234.479,272.1 234.23,270.24C234.1,268.32 234.7,266.52 236.63,266.13C237.44,265.97 239.02,267.13 239.45,268.13C246.95,284.59 254.28,301.13 261.75,317.58C263.27,320.93 265.21,324.09 266.95,327.34C271.04,323.87 268.44,319.45 268.38,315.55C268.261,302.308 263.647,289.491 255.3,279.21C251.01,273.83 246.41,268.57 242.93,262.68C233.4,246.55 224.37,230.11 215.16,213.78C211.78,207.78 208.91,201.65 207.52,194.78C206.69,190.64 204.15,186.84 202.29,182.94C202.17,182.68 201.2,182.68 200.69,182.8C200.123,182.913 199.614,183.221 199.25,183.67C196.77,187.68 198.02,192.17 197.89,194.08ZM368.16,202.17C378,170.02 384.62,137.69 385.76,104.42C385.731,101.904 386.116,99.401 386.9,97.01C389.52,90.32 388.17,83.32 388.9,76.49C388.97,75.8 387.9,74.9 387.14,74.3C386.97,74.16 385.95,74.72 385.6,75.17C380.13,82.24 377.88,90.88 374.21,98.83C360.21,129.11 356.56,161.5 356.28,194.22C356.15,209.51 359.28,224.82 360.87,240.12C362.552,229.571 363.265,218.889 363,208.21C362.07,184.32 367.95,160.87 367,137.03C367.104,136.425 367.374,135.861 367.78,135.4C368.129,134.934 368.506,134.49 368.91,134.07C369.32,134.55 370.04,135 370.08,135.51C371.08,149.25 371.41,163.15 368.66,176.57C366.83,185.4 367.08,193.75 368.16,202.17ZM205.22,251.27C205.06,254.09 204.56,256 204.91,257.73C208.22,273.88 214.15,288.98 224.76,301.73C228.83,306.63 231.32,312.4 234.96,317.37C238.6,322.34 244.02,325.62 248.3,330.02C252.21,334.02 255.61,338.54 259.3,342.77C259.752,343.205 260.377,343.415 261,343.34C262.44,343.05 263,342.08 262.37,340.89C254.16,324.71 245.48,308.83 234.91,294.02C225.1,280.32 215.65,266.34 205.22,251.27ZM350.13,630.03C350.01,629.6 350.02,629.03 349.75,628.83C349.3,628.48 348.55,628.06 348.14,628.22C342.38,630.52 336.8,633.41 330.88,635.22C308.49,641.94 288.41,653.04 269.17,666.09C257.65,673.91 248.23,683.69 239.5,694.3C239,694.91 239.64,696.44 239.75,697.53C240.75,697.26 241.98,697.28 242.64,696.67C262.761,677.893 285.506,662.141 310.16,649.91C319.08,645.5 328.39,641.91 337.45,637.79C341.97,635.69 346.85,634.13 350.13,630.03ZM120.02,518.89C117.27,521.4 117.51,523.89 117.86,526.12C119.71,537.76 121.95,549.33 125.86,560.49C134.3,584.68 151.44,603.02 167.55,622.04C167.923,622.308 168.411,622.357 168.83,622.17C169.26,621.79 169.83,621.05 169.7,620.63C167.83,613.88 163.85,608.4 159.54,602.96C147.85,588.24 137.87,572.59 132.44,554.25C128.91,542.41 124.3,530.91 120.02,518.89ZM213.81,179.57C211.65,183.43 213.13,186.26 214.25,189.19C221.63,208.53 231.79,226.47 242.34,244.19C246.79,251.68 252.03,258.71 256.98,265.91C257.93,267.28 259.07,267.38 259.79,266.39C260.11,265.94 260.48,265.18 260.31,264.76C256.64,255.5 253.61,245.9 249.02,237.12C238.64,217.29 226.06,198.75 213.81,179.57ZM180.98,587.05C181.67,578.68 182.3,573.85 180.59,568.95C175.04,553.04 169.59,537.11 161.59,522.19C159.52,518.33 156.59,514.66 155.59,510.53C152.64,498.08 145.11,487.86 139.94,476.53C139.55,475.67 138.37,475.17 137.55,474.53C137.1,475.65 136.11,476.86 136.29,477.86C138.238,488.283 141.698,498.366 146.56,507.79C153.1,520.59 159.56,533.46 166.35,546.12C172.067,556.528 176.116,567.768 178.35,579.43C178.63,580.86 179.3,582.26 180.98,587.05ZM375.3,218.17C388.47,187.57 397.94,133.7 390.11,111.68C390.47,133.47 386.11,152.88 381.53,172.28C379.26,181.96 376.73,191.6 375.05,201.38C374.15,206.73 373.01,212.4 375.3,218.17ZM195.3,973.69C204.01,973.69 208.49,974.42 212.63,973.56C225.56,970.84 238.63,971.2 251.72,970.5C264.81,969.8 277.11,965.98 290.1,961.5C284.99,959.1 280.58,959.6 276.27,960C250.3,962.37 224.35,965.04 195.3,973.69ZM261.89,905.78C278.69,908.24 293.05,902.61 307.82,900.94C292.48,897.59 277.71,899.28 261.85,905.78L261.89,905.78ZM276.89,332.02C275.41,345.66 276.3,355.57 283.08,366.02C284.62,354.36 282.66,344.81 276.83,332.02L276.89,332.02ZM119.05,897.66C118.73,898.79 117.82,900.15 118.17,901C120.87,907.62 122.38,914.87 127.67,920.21C130.96,911.78 123.41,906.79 121.21,900.1C120.89,899.16 119.8,898.5 119.05,897.66Z" style="fill-rule:nonzero;"/>
                <path d="M525.61,57.24C524.88,60.58 522.15,62.24 519.61,63.72C508.05,70.66 497.22,78.5 487.87,88.29C485.7,90.57 483.09,92.05 479.76,91.67C483.03,83.18 490.15,77.75 497.03,73.08C505.96,67 513.84,58.42 525.61,57.24Z" style="fill-rule:nonzero;"/>
                <path d="M480.3,91.15C477.64,100.93 471.55,108.53 464.75,115.69C467.4,102.31 469.62,98.79 480.3,91.15Z" style="fill-rule:nonzero;"/>
                <path d="M261.18,710.5C261.63,709.41 261.76,707.76 262.57,707.3C279.903,697.413 297.277,687.637 314.69,677.97C315.03,677.78 316.34,679.03 316.94,679.8C317.17,680.09 316.79,681.04 316.46,681.53C315.77,682.53 315.12,683.85 314.11,684.4C297.677,693.16 281.207,701.827 264.7,710.4C263.75,710.89 262.26,710.35 261.02,710.29L261.18,710.5Z" style="fill-rule:nonzero;"/>
                <path d="M517.23,98.96C516.266,101.089 515.136,103.138 513.85,105.09C510.13,110.01 506.15,114.73 502.3,119.55C501.14,120.99 500.2,120.93 499.51,119.26C499.3,118.75 499.02,117.98 499.24,117.63C503.8,110.4 507.47,102.5 514.39,97.01C514.849,96.765 515.401,96.765 515.86,97.01C516.3,97.3 516.56,97.95 517.23,98.96Z" style="fill-rule:nonzero;"/>
                <path d="M287.64,457.77C295.45,450.34 305.29,446.38 315,442.47C326.58,437.81 338.27,433.91 351.28,434.07C359.17,434.17 367.11,430.99 375.01,429.2C382.91,427.41 390.73,425.56 400.76,428.9C386.13,434.98 372.48,436.59 358.99,438.29C340.3,440.64 322.09,444.24 304.99,452.42C299.46,455.05 293.99,458.78 287.27,457.3L287.64,457.77Z" style="fill-rule:nonzero;"/>
            </g>
        </g>
    </g>
</svg>
