<?xml version="1.0" encoding="UTF-8" standalone="no"?>
<!DOCTYPE svg PUBLIC "-//W3C//DTD SVG 1.1//EN" "http://www.w3.org/Graphics/SVG/1.1/DTD/svg11.dtd">
<svg width="100%" height="100%" viewBox="0 0 554 966" version="1.1" xmlns="http://www.w3.org/2000/svg" xmlns:xlink="http://www.w3.org/1999/xlink" xml:space="preserve" xmlns:serif="http://www.serif.com/" style="fill-rule:evenodd;clip-rule:evenodd;stroke-linejoin:round;stroke-miterlimit:2;">
    <g>
        <g transform="matrix(1.72317,0,0,1.72317,307.866,304.797)">
            <g id="LOGO">
                <path d="M0,167.377C0.313,165.98 0.569,164.842 0.843,163.619C0.087,164.306 -0.552,164.885 -1.19,165.464C-0.845,166.019 -0.506,166.565 0,167.377M3.068,90.357C1.209,89.656 -0.343,89.07 -1.954,88.462C-2.102,89.122 -2.248,89.776 -2.378,90.357L3.068,90.357ZM-8.846,178.18C-8.912,178.204 -8.978,178.228 -9.044,178.251C-8.473,180.234 -7.902,182.217 -7.332,184.199C-6.759,183.39 -6.406,182.594 -6.128,181.773C-6.068,181.597 -6.228,181.288 -6.374,181.11C-7.183,180.122 -8.019,179.154 -8.846,178.18M5.44,253.902C3.855,252.908 2.535,252.08 1.05,251.148C0.738,252.118 0.456,252.997 0.165,253.902L5.44,253.902ZM-31.137,253.575C-31.09,253.716 -31.043,253.857 -30.996,253.999C-29.729,253.717 -28.443,253.495 -27.208,253.107C-26.914,253.015 -26.539,252.122 -26.636,252.023C-26.993,251.658 -27.573,251.203 -27.997,251.267C-29.404,251.478 -30.419,252.366 -31.137,253.575M-13.167,86.655C-13.199,86.751 -13.231,86.847 -13.263,86.943C-11.581,87.713 -9.898,88.483 -8.143,89.286L-8.143,86.655L-13.167,86.655ZM2.12,85.8C3.212,86.32 4.401,86.909 5.614,87.441C5.834,87.538 6.312,87.5 6.408,87.352C7.236,86.079 8.004,84.767 8.698,83.618C6.521,84.34 4.275,85.085 2.12,85.8M2.804,97.567C0.985,98.496 -1.194,97.827 -2.346,99.82C-0.83,100.435 0.519,100.981 2.001,101.582C2.261,100.28 2.502,99.075 2.804,97.567M78.951,-0.737C79.091,-0.741 79.231,-0.745 79.371,-0.749C79.865,-7.159 80.358,-13.569 80.852,-19.98C80.711,-19.99 80.57,-20 80.43,-20.011C78.285,-13.706 78.332,-7.243 78.951,-0.737M0.22,81.94C1.641,81.415 2.82,81.144 3.824,80.568C5.121,79.824 6.374,78.939 7.462,77.919C8.192,77.234 8.092,76.185 7.371,75.428C6.656,74.678 5.86,74.937 5.109,75.486C2.929,77.082 1.453,79.207 0.22,81.94M-2.9,167.204C-7.139,171.003 -7.587,175.389 -4.573,178.557C-3.431,175.878 -2.305,173.261 -1.21,170.632C-1.106,170.383 -1.087,169.99 -1.215,169.774C-1.735,168.898 -2.327,168.065 -2.9,167.204M-0.17,138.358C-0.259,138.423 -0.347,138.488 -0.435,138.554C2.198,143.466 4.013,148.667 5.225,154.143C5.748,153.389 6.217,152.648 6.521,151.846C7.564,149.094 8.308,146.203 6.054,143.783C4.188,141.779 1.919,140.152 -0.17,138.358M-10.639,170.359C-9.457,167.757 -7.837,165.79 -5.799,164.165C-5.2,163.687 -5.389,163.238 -5.751,162.687C-6.877,160.969 -7.954,159.218 -9.04,157.475C-9.53,156.688 -9.997,155.886 -10.601,154.879C-11.835,160.143 -11.459,165.118 -10.639,170.359M-83.6,-66.967C-83.743,-66.944 -83.887,-66.922 -84.031,-66.899C-83.714,-59.152 -83.397,-51.405 -83.08,-43.659C-82.96,-43.648 -82.841,-43.639 -82.722,-43.628C-82.068,-45.963 -81.33,-48.279 -80.78,-50.638C-80.055,-53.748 -79.729,-56.924 -80.781,-60.015C-81.586,-62.378 -82.65,-64.653 -83.6,-66.967M-12.947,119.713C-10.703,115.83 -7.351,103.909 -7.943,101.961C-8.112,102.054 -8.296,102.113 -8.423,102.231C-9.677,103.406 -11.055,104.484 -12.128,105.807C-13.013,106.897 -13.872,108.211 -14.152,109.55C-14.868,112.97 -14.254,116.332 -12.947,119.713M-4.143,103.764C-4.244,104.161 -4.306,104.373 -4.353,104.588C-4.864,106.918 -5.109,109.348 -5.942,111.556C-7.325,115.221 -9.066,118.752 -10.702,122.319C-11.007,122.983 -11.117,123.491 -10.568,124.067C-9.543,125.144 -8.566,126.266 -7.549,127.35C-7.429,127.477 -7.185,127.487 -6.869,127.596C-7.645,124.3 -7.904,121.117 -6.577,118.083C-5.588,115.821 -4.346,113.666 -3.153,111.498C-2.098,109.579 -0.956,107.709 0.167,105.785C-1.332,105.082 -2.666,104.457 -4.143,103.764M7.486,191.025C6.891,185.385 4.528,179.905 1.528,174.339C0.458,176.978 -0.531,179.388 -1.48,181.814C-1.566,182.032 -1.496,182.452 -1.333,182.607C1.661,185.496 4.681,188.357 7.486,191.025M-78.566,27.101C-78.724,27.143 -78.882,27.184 -79.04,27.226C-79.04,28.944 -79.004,30.664 -79.051,32.381C-79.086,33.674 -79.237,34.964 -79.318,36.256C-79.502,39.219 -79.774,42.187 -79.007,45.117C-78.194,48.22 -75.031,50.251 -71.816,49.624C-75.322,42.488 -77.168,34.863 -78.566,27.101M-82.737,1.237C-82.737,-1.389 -82.625,-3.874 -82.762,-6.346C-82.988,-10.405 -83.421,-14.453 -83.678,-18.511C-83.876,-21.632 -83.934,-24.763 -84.065,-27.888C-84.077,-28.165 -84.168,-28.439 -84.271,-28.963C-84.469,-28.529 -84.603,-28.342 -84.639,-28.139C-85.178,-25.114 -85.786,-22.098 -86.213,-19.057C-86.805,-14.843 -86.875,-10.607 -85.992,-6.418C-85.418,-3.691 -84.28,-1.177 -82.737,1.237M-11.825,145.119C-10.43,141.253 -8.346,138.081 -5.928,135.11C-5.407,134.47 -5.737,133.97 -6.237,133.541C-6.932,132.944 -7.655,132.382 -8.359,131.797C-9.834,130.571 -11.305,129.339 -12.798,128.093C-14.257,131.456 -14.023,139.289 -11.825,145.119M-63.479,56.712C-58.195,65.871 -43.237,77.859 -37.885,77.538C-38.017,77.394 -38.098,77.269 -38.211,77.188C-42.975,73.741 -47.45,69.955 -51.647,65.837C-53.277,64.238 -54.813,62.504 -56.619,61.131C-58.778,59.49 -61.181,58.171 -63.479,56.712M60.199,58.177C74.766,47.641 79.008,32.045 78.797,20.912C76.876,27.65 74.045,34.002 70.903,40.247C67.763,46.487 64.243,52.481 60.199,58.177M-2.568,130.914C-0.45,127.96 1.538,125.267 3.437,122.514C4.607,120.818 5.558,119.014 5.995,116.941C6.638,113.893 6.028,111.201 4.119,108.606C-1.415,115.059 -3.684,122.32 -2.568,130.914M-12.092,255.148C-9.545,254.811 -7.113,254.34 -4.662,254.201C-1.542,254.024 -1.569,254.126 -0.366,251.243C-0.076,250.548 -0.24,250.276 -0.777,249.855C-2.661,248.375 -4.57,246.911 -6.312,245.274C-7.802,243.874 -9.075,242.245 -10.495,240.66C-12.714,245.31 -12.536,250.221 -12.092,255.148M-60.321,8.776C-59.1,11.803 -57.868,14.819 -55.376,17.133C-52.579,19.73 -50.381,19.916 -47.352,18.152C-45.077,16.828 -44.489,14.79 -46.004,12.646C-46.996,11.244 -48.292,9.992 -49.652,8.929C-52.689,6.554 -57.005,6.548 -60.321,8.776M-4.197,139.873C-4.479,140.195 -4.642,140.316 -4.718,140.478C-6.298,143.812 -7.878,147.146 -9.423,150.496C-9.542,150.753 -9.507,151.186 -9.368,151.441C-7.438,154.975 -5.477,158.492 -3.444,162.157C-2.004,160.954 -0.727,159.94 0.477,158.843C0.779,158.568 1.034,158.011 0.99,157.619C0.296,151.471 -2.211,145.854 -4.197,139.873M9.968,89.466C10.184,89.6 10.275,89.698 10.377,89.711C10.643,89.744 10.913,89.754 11.18,89.746C15.878,89.605 20.181,88.017 24.124,85.662C27.34,83.741 30.302,81.375 33.277,79.076C34.826,77.879 36.159,76.402 37.589,75.051C35.129,75.398 32.813,75.956 30.506,76.543C25.361,77.853 20.291,79.335 15.896,82.502C13.358,84.331 11.174,86.43 9.968,89.466M3.531,223.14C3.191,223.454 2.893,223.682 2.653,223.959C-0.612,227.73 -3.853,231.522 -7.144,235.27C-7.691,235.894 -7.664,236.406 -7.23,236.975C-6.353,238.122 -5.526,239.325 -4.528,240.361C-2.639,242.323 -0.645,244.185 1.421,246.199C4.576,238.584 6.576,231.155 3.531,223.14M7.046,202.301C6.97,202.278 6.895,202.255 6.818,202.232C6.986,201.537 7.131,200.835 7.327,200.148C7.918,198.076 7.765,196.263 6.061,194.646C3.789,192.488 1.664,190.176 -0.509,187.915C-1.266,187.127 -1.975,186.294 -2.835,185.338C-3.429,187.096 -4.013,188.628 -4.445,190.202C-4.623,190.849 -4.661,191.649 -4.446,192.271C-2.061,199.181 0.377,206.073 2.822,212.963C3.49,214.846 4.229,216.703 4.947,218.599C11.564,213.47 13.305,202.934 8.399,198.133C7.949,199.522 7.498,200.911 7.046,202.301M-6.233,196.628C-6.379,196.768 -6.464,196.81 -6.477,196.867C-7.662,202.282 -8.918,207.683 -9.999,213.118C-10.995,218.132 -11.112,223.209 -10.348,228.27C-10.083,230.023 -9.501,231.727 -9.039,233.553C-7.207,231.496 -5.633,229.632 -3.953,227.868C-1.943,225.758 0.134,223.709 2.234,221.688C2.796,221.147 2.865,220.702 2.597,220.005C0.08,213.463 -2.41,206.911 -4.897,200.358C-5.361,199.138 -5.779,197.9 -6.233,196.628M-42.829,48.425C-42.754,51.835 -42.473,55.164 -41.376,58.347C-39.685,63.257 -37.817,67.906 -33.238,71.194C-26.509,76.025 -19.141,79.342 -11.371,81.939C-10.608,82.194 -9.782,82.257 -8.649,82.472C-9.154,81.468 -9.446,80.731 -9.867,80.076C-12.155,76.516 -15.259,74.019 -19.341,72.734C-22.309,71.801 -25.047,70.428 -27.348,68.244C-29.642,66.067 -31.072,63.343 -32.538,60.611C-33.978,57.927 -35.452,55.252 -37.084,52.682C-38.418,50.582 -40.362,49.134 -42.829,48.425M-4.899,273.802C-10.701,270.984 -12.573,265.586 -13.7,259.775C-17.052,260.716 -20.236,261.614 -23.423,262.502C-26.812,263.445 -30.137,264.542 -33.155,266.41C-33.615,266.695 -33.787,266.962 -33.705,267.598C-33.24,271.202 -32.373,274.696 -31.081,278.087C-29.884,281.229 -27.99,283.866 -25.286,285.878C-21.087,289.001 -16.305,289.392 -11.33,288.741C-5.956,288.039 -0.984,285.962 4.106,284.262C7.668,283.072 11.345,282.215 14.993,281.3C16.939,280.812 18.979,280.665 20.894,280.088C22.813,279.508 24.127,278.171 24.522,276.06C24.979,273.614 24.138,271.48 23.005,269.436C21.469,266.666 19.334,264.353 16.989,262.268C14.639,260.178 12.058,258.201 8.871,257.837C5.675,257.472 2.413,257.689 -0.821,257.683C-0.992,257.683 -1.26,257.95 -1.322,258.146C-2.119,260.631 -2.886,263.126 -3.586,265.38C-3.994,263.067 -3.29,260.537 -2.816,257.636C-5.893,258.168 -8.771,258.666 -11.771,259.186C-10.596,264.761 -10.085,270.365 -4.899,273.802M-70.284,-17.352C-67.391,-9.34 -64.497,-1.329 -61.634,6.596C-59.781,5.791 -58.255,4.91 -56.61,4.456C-52.436,3.302 -49.042,4.879 -46.343,8.008C-44.655,9.966 -43.631,12.234 -43.49,14.949C-43.29,18.804 -46.537,20.872 -49.605,21.129C-54.255,21.519 -56.972,19.07 -58.878,15.249C-59.814,13.372 -60.734,11.485 -61.675,9.577C-66.719,13.35 -69.128,18.471 -69.474,24.596C-69.608,26.978 -69.498,29.387 -69.307,31.769C-69.011,35.44 -66.987,38.14 -64.115,40.285C-61.048,42.576 -57.663,43.703 -53.775,43.631C-51.054,43.581 -48.318,43.972 -45.601,44.269C-44.882,44.347 -44.626,44.227 -44.525,43.538C-43.857,39.002 -42.623,34.616 -40.99,30.339C-40.428,28.867 -39.819,27.413 -39.094,26.014C-39.868,29.143 -40.74,32.252 -41.39,35.407C-42.039,38.558 -42.466,41.754 -42.927,44.546C-40.26,46.127 -37.868,47.377 -35.662,48.898C-32.951,50.767 -31.284,53.519 -29.958,56.49C-28.98,58.681 -28.03,60.891 -26.914,63.012C-25.258,66.16 -22.446,67.78 -19.081,68.634C-15.006,69.668 -11.346,71.48 -8.498,74.672C-7.798,75.457 -7.186,76.32 -6.451,77.252C-5.181,71.779 -2.316,67.243 0.681,62.779C2.569,59.968 5.321,58.357 8.531,57.6C13.632,56.397 18.785,55.409 23.887,54.209C28.532,53.117 32.945,51.395 36.627,48.264C38.075,47.033 39.228,45.456 40.255,44.324C39.955,45.68 38.938,47.172 37.706,48.526C34.033,52.564 29.327,54.543 24.068,55.638C19.165,56.659 14.304,57.92 9.479,59.272C5.086,60.502 2.254,63.672 0.129,67.548C-1.972,71.38 -3.64,75.381 -4.396,79.71C-4.521,80.428 -4.413,81.187 -4.413,81.926C-4.295,81.953 -4.177,81.981 -4.059,82.008C-3.807,81.414 -3.554,80.821 -3.304,80.227C-2.158,77.502 -0.841,74.898 1.367,72.827C3.85,70.498 7.826,70.216 10.509,72.265C12.31,73.641 12.97,76.374 12.102,78.915C11.91,79.478 11.673,80.026 11.457,80.582C13.516,79.384 15.534,78.109 17.64,77.002C22.864,74.257 28.509,72.593 34.076,70.729C37.582,69.555 41.083,68.354 44.522,67.004C45.405,66.658 46.134,65.778 46.788,65.018C49.948,61.349 53.104,57.675 56.173,53.93C58.804,50.719 61.462,47.513 63.844,44.119C67.3,39.193 69.815,33.741 71.96,28.132C74.589,21.258 76.576,14.19 77.88,6.95C78.126,5.587 77.727,4.09 77.528,2.669C76.769,-2.748 76.152,-8.165 77.243,-13.609C77.772,-16.248 78.725,-18.711 80.211,-20.984C80.638,-21.637 80.871,-22.524 80.899,-23.314C81.19,-31.481 79.968,-39.503 78.449,-47.49C77.932,-50.212 77.307,-52.915 76.811,-55.641C76.601,-56.796 76.518,-57.989 76.512,-59.165C76.484,-65.382 76.498,-71.599 76.502,-77.815C76.502,-78.031 76.547,-78.247 76.725,-78.472C76.771,-78.275 76.852,-78.08 76.856,-77.883C76.924,-74.743 76.904,-71.599 77.061,-68.464C77.368,-62.301 78.03,-56.209 79.924,-50.262C81.026,-46.803 81.583,-43.164 82.268,-39.583C82.875,-36.415 83.399,-33.225 83.809,-30.025C84.085,-27.873 84.192,-25.687 84.213,-23.515C84.267,-17.875 84.257,-12.233 84.225,-6.593C84.188,-0.309 83.124,5.832 81.369,11.843C80.748,13.969 80.714,16.026 80.859,18.217C81.093,21.75 80.98,25.31 80.914,28.857C80.83,33.359 79.844,37.691 78.182,41.869C76.558,45.952 74.147,49.553 71.337,52.902C66.053,59.203 59.621,64.115 52.688,68.451C51.704,69.066 51.086,70.244 50.237,71.1C46.957,74.408 43.646,77.688 40.355,80.987C37.105,84.246 33.485,87.053 29.556,89.415C26.75,91.101 23.771,92.505 20.835,93.968C19.06,94.853 17.214,95.596 15.412,96.428C13.998,97.081 12.574,97.503 10.983,97.148C10.406,97.019 9.775,97.127 9.374,97.127C8.667,99.852 7.996,102.436 7.288,105.166C8.159,106.389 9.368,107.829 10.288,109.435C11.988,112.404 11.837,115.555 10.783,118.713C9.585,122.301 7.335,125.229 4.914,128.047C3.502,129.69 2.078,131.322 0.702,132.909C3.145,134.944 5.477,136.958 7.886,138.875C11.252,141.552 12.721,146.965 11.025,151.014C9.854,153.81 8.297,156.378 6.193,158.595C5.933,158.868 5.711,159.319 5.719,159.683C5.801,163.821 4.57,167.642 3.019,171.401C2.865,171.773 2.911,172.36 3.104,172.721C5.767,177.7 7.759,182.907 8.594,188.519C8.695,189.193 8.894,189.898 8.793,190.549C8.5,192.429 9.356,193.745 10.474,195.146C12.751,197.998 14.204,201.231 14.244,204.992C14.288,209.129 12.672,212.638 10.195,215.801C8.926,217.422 7.536,218.955 6.12,220.45C5.504,221.1 5.923,221.627 6.023,222.23C6.375,224.362 6.879,226.488 7.012,228.637C7.293,233.189 6.064,237.551 4.932,241.898C4.531,243.438 3.873,244.913 3.267,246.392C3.03,246.968 2.956,247.298 3.583,247.704C7.768,250.418 11.88,253.246 16.1,255.903C18.841,257.63 21.675,259.227 24.556,260.709C28.499,262.739 30.657,266.088 32.096,270.104C33.117,272.956 34.082,273.449 37.12,273.583C39.511,273.688 41.889,274.074 44.274,274.322C46.275,274.529 48.275,274.831 50.281,274.889C55.308,275.034 60.164,276.078 64.974,277.432C68.213,278.343 71.395,279.387 74.176,281.375C75.296,282.176 76.182,283.125 76.511,284.514C76.867,286.013 76.434,287.57 75.054,288.252C73.06,289.238 70.994,290.198 68.849,290.734C64.987,291.7 61.064,292.47 57.129,293.076C54.424,293.493 51.652,293.454 48.917,293.693C45.737,293.971 42.564,294.331 39.388,294.649C39.046,294.684 38.699,294.678 38.354,294.684C31.807,294.802 25.259,294.925 18.711,295.035C14.115,295.112 9.515,295.321 4.924,295.196C0.279,295.068 -4.359,294.623 -8.996,294.269C-10.056,294.188 -11.101,293.909 -12.165,293.455C-11.272,293.278 -10.387,293.036 -9.486,292.94C-7.745,292.756 -5.997,292.567 -4.249,292.533C1.078,292.43 6.407,292.429 11.734,292.334C21.304,292.164 30.875,292.044 40.44,291.724C44.615,291.583 48.777,291.012 52.942,290.614C58.364,290.096 63.688,289.03 68.953,287.658C69.724,287.457 70.495,287.188 71.202,286.825C72.772,286.022 72.893,284.532 71.388,283.641C69.984,282.811 68.492,282.083 66.961,281.524C62.65,279.951 58.207,278.894 53.612,278.604C49.694,278.356 45.771,278.171 41.849,277.984C39.825,277.888 37.793,277.912 35.774,277.764C33.306,277.583 31.141,276.619 29.52,275.017C28.924,276.642 28.497,278.386 27.679,279.922C25.931,283.208 23.168,285.125 19.356,285.348C14.07,285.656 9.038,287.096 4.03,288.706C-0.027,290.011 -4.1,291.303 -8.235,292.322C-12.825,293.454 -17.484,293.64 -22.095,292.212C-26.699,290.786 -30.08,287.85 -32.508,283.761C-34.782,279.932 -35.945,275.73 -36.547,271.351C-36.653,270.58 -36.766,269.811 -36.903,268.845C-38.661,270.578 -40.375,272.098 -41.884,273.8C-43.978,276.164 -45.733,278.852 -47.962,281.07C-52.818,285.906 -58.402,289.726 -65.284,290.96C-68.025,291.452 -70.911,291.199 -73.729,291.168C-75.903,291.145 -78.087,291.038 -80.242,290.773C-81.536,290.613 -82.88,290.262 -84.033,289.669C-86.014,288.65 -86.334,286.253 -84.672,284.777C-83.375,283.626 -81.903,282.603 -80.361,281.809C-76.559,279.852 -72.679,278.042 -68.812,276.215C-68.144,275.9 -67.381,275.788 -66.663,275.582C-66.619,275.679 -66.575,275.775 -66.531,275.871C-66.895,276.07 -67.259,276.27 -67.625,276.467C-72.329,279.006 -77.046,281.522 -81.722,284.11C-82.388,284.48 -82.944,285.146 -83.394,285.783C-84.259,287.011 -83.949,287.968 -82.503,288.428C-81.497,288.747 -80.423,288.969 -79.372,289.004C-76.88,289.086 -74.373,289.185 -71.892,289.001C-64.439,288.451 -57.558,286.353 -52.166,280.847C-50.494,279.14 -49.139,277.127 -47.592,275.294C-46.681,274.215 -45.684,273.208 -44.711,272.182C-42.822,270.188 -40.924,268.204 -39.029,266.216C-39.002,266.189 -38.977,266.153 -38.943,266.14C-37.179,265.416 -36.954,264.045 -36.885,262.276C-36.804,260.219 -36.144,258.182 -35.713,256.141C-35.613,255.67 -35.423,255.218 -35.277,254.769C-46.086,250.728 -51.684,242.85 -52.843,231.636C-52.193,236.287 -50.387,240.477 -47.365,244.109C-44.012,248.14 -39.766,250.904 -34.82,252.585C-34.551,252.677 -33.983,252.297 -33.739,251.989C-32.608,250.569 -31.412,249.244 -29.71,248.494C-26.825,247.222 -23.098,249.218 -23.373,252.582C-23.485,253.961 -24.363,255.276 -25.857,255.459C-27.689,255.683 -29.563,255.663 -31.413,255.594C-32.079,255.568 -32.351,255.658 -32.596,256.272C-33.454,258.414 -33.923,260.606 -33.811,262.738C-27.272,260.324 -20.78,257.926 -14.243,255.512C-14.243,253.499 -14.251,251.214 -14.241,248.928C-14.226,245.526 -13.502,242.282 -12.146,239.16C-11.94,238.689 -11.943,237.962 -12.16,237.499C-13.622,234.376 -14.248,231.077 -14.445,227.666C-14.559,225.691 -14.83,223.718 -14.822,221.744C-14.813,219.233 -14.642,216.72 -14.45,214.215C-14.285,212.051 -14.069,209.886 -13.743,207.742C-12.82,201.672 -11.297,195.743 -9.205,189.975C-8.648,188.44 -9.276,187.188 -9.733,185.914C-11.665,180.533 -13.669,175.168 -14.374,169.457C-14.756,166.364 -15.154,163.216 -14.969,160.127C-14.776,156.896 -13.878,153.708 -13.329,150.495C-13.247,150.017 -13.262,149.446 -13.446,149.008C-15.561,143.949 -16.911,138.721 -16.525,133.21C-16.368,130.956 -15.657,128.743 -15.27,126.499C-15.183,125.997 -15.223,125.319 -15.498,124.931C-17.642,121.914 -19.041,118.58 -19.431,114.927C-19.786,111.592 -19.672,108.151 -17.691,105.3C-16.479,103.557 -14.629,102.257 -13.06,100.763C-12.896,100.607 -12.697,100.489 -12.452,100.307C-15.233,99.082 -17.822,97.623 -19.781,95.327C-20.886,94.031 -21.746,92.529 -22.764,91.155C-23.786,89.779 -24.845,88.429 -25.928,87.1C-27.248,85.481 -29.208,85.072 -31.07,84.532C-34.281,83.6 -37.58,82.925 -40.714,81.791C-45.015,80.233 -48.767,77.637 -52.352,74.818C-57.614,70.681 -62.096,65.814 -65.875,60.298C-66.78,58.978 -67.556,57.57 -68.458,56.247C-68.665,55.943 -69.168,55.618 -69.498,55.654C-72.271,55.956 -75.044,55.959 -77.795,55.565C-81.865,54.981 -85.068,51.681 -85.595,47.645C-86.133,43.518 -85.752,39.416 -85.152,35.331C-84.49,30.83 -83.657,26.35 -83.123,21.835C-82.748,18.655 -82.432,15.404 -82.704,12.239C-82.859,10.438 -83.946,8.488 -85.145,7.049C-88.326,3.228 -90.688,-0.913 -91.129,-5.911C-91.38,-8.754 -91.356,-11.634 -91.272,-14.491C-91.203,-16.882 -90.885,-19.268 -90.642,-21.652C-90.059,-27.377 -89.063,-32.999 -85.689,-37.852C-84.44,-39.649 -84.899,-41.58 -84.89,-43.469C-84.881,-45.332 -85.188,-47.196 -85.217,-49.061C-85.313,-55.309 -85.565,-61.567 -85.3,-67.801C-85.187,-70.464 -85.962,-72.753 -86.652,-75.137C-88.223,-80.556 -87.743,-85.802 -85.699,-91C-84.302,-94.555 -82.041,-97.492 -79.512,-100.282C-77.156,-102.883 -74.749,-105.454 -72.59,-108.214C-70.378,-111.042 -69.843,-114.468 -70.455,-117.914C-71.03,-121.152 -72.046,-124.312 -72.865,-127.508C-72.898,-127.64 -72.889,-127.783 -72.809,-127.944C-71.011,-124.61 -69.574,-121.152 -69.133,-117.356C-68.732,-113.904 -68.64,-110.461 -70.479,-107.326C-71.186,-106.119 -72.023,-104.956 -72.97,-103.929C-75.097,-101.619 -77.448,-99.509 -79.489,-97.129C-82.176,-93.997 -83.663,-90.243 -84.439,-86.2C-84.958,-83.498 -85.032,-80.799 -84.405,-78.07C-84.027,-79.741 -83.707,-81.427 -83.261,-83.08C-82.181,-87.081 -80.828,-90.977 -77.988,-94.126C-75.651,-96.718 -72.793,-98.294 -69.053,-98.287C-70.602,-97.638 -72.081,-97.18 -73.397,-96.435C-77.001,-94.396 -79.282,-91.179 -80.861,-87.448C-82.235,-84.2 -82.646,-80.708 -83.336,-77.277C-84.024,-73.857 -82.319,-71.223 -81.107,-68.396C-79.531,-64.718 -77.974,-61.06 -77.229,-57.08C-76.574,-53.574 -76.771,-50.146 -77.858,-46.829C-79.055,-43.177 -80.455,-39.579 -81.992,-36.056C-82.703,-34.427 -82.546,-32.85 -82.478,-31.244C-82.387,-29.083 -82.093,-26.933 -81.917,-24.775C-81.59,-20.749 -81.38,-16.711 -80.948,-12.697C-80.329,-6.955 -79.545,-1.231 -78.847,4.502C-78.383,8.312 -78.187,12.173 -77.442,15.926C-76.113,22.632 -74.51,29.287 -72.927,35.941C-71.795,40.7 -70.17,45.301 -67.923,49.66C-67.729,50.037 -67.241,50.427 -66.833,50.502C-62.583,51.284 -58.778,53.134 -55.259,55.516C-51.858,57.818 -48.643,60.395 -45.331,62.831C-44.509,63.435 -43.631,63.962 -42.513,64.701C-42.711,64.096 -42.81,63.76 -42.93,63.433C-44.638,58.782 -45.227,53.962 -45.063,49.037C-45.032,48.136 -45.154,47.676 -46.268,47.638C-48.694,47.556 -51.112,47.243 -53.536,47.074C-57.137,46.823 -60.479,45.688 -63.664,44.08C-65.189,43.309 -66.688,42.436 -68.06,41.423C-70.245,39.81 -71.324,37.471 -71.883,34.863C-73.142,28.99 -72.923,23.236 -70.706,17.585C-69.364,14.165 -67.089,11.479 -64.361,9.149C-62.548,7.601 -62.451,7.669 -63.304,5.543C-66.219,-1.72 -68.181,-9.27 -70.108,-16.831C-70.156,-17.02 -70.135,-17.227 -70.146,-17.425C-70.192,-17.4 -70.238,-17.376 -70.284,-17.352" style="fill-rule:nonzero;"/>
            </g>
        </g>
        <g transform="matrix(1.29371e-17,-0.211279,0.211157,1.29296e-17,-13.3359,937.445)">
            <path d="M626.389,369.967L675.284,509.527L676.267,509.527C677.413,505.76 678.929,500.764 680.812,494.539C682.696,488.315 684.785,481.435 687.078,473.9C689.371,466.365 691.828,458.462 694.449,450.19C697.07,441.918 699.568,433.769 701.943,425.742C704.318,417.716 706.57,410.099 708.7,402.892C710.829,395.684 712.631,389.46 714.105,384.218C715.416,379.632 716.194,376.274 716.439,374.144C716.685,372.015 716.808,370.131 716.808,368.493C716.808,366.2 715.907,364.398 714.105,363.088C712.303,361.777 708.536,361.122 702.803,361.122C701.329,361.122 700.592,360.549 700.592,359.402C700.592,358.256 701.984,357.682 704.769,357.682C710.993,357.682 716.439,357.805 721.108,358.051C725.776,358.297 728.684,358.419 729.83,358.419C730.322,358.419 731.264,358.378 732.656,358.297C734.048,358.215 735.686,358.133 737.57,358.051C739.454,357.969 741.46,357.887 743.59,357.805C745.719,357.723 747.767,357.682 749.732,357.682C752.026,357.682 753.172,358.174 753.172,359.156C753.172,360.467 752.435,361.122 750.961,361.122C750.469,361.122 749.282,361.204 747.398,361.368C745.514,361.532 743.917,361.859 742.607,362.351C738.839,363.661 735.809,366.691 733.516,371.442C731.223,376.192 728.929,382.007 726.636,388.887C724.834,394.128 722.705,400.476 720.248,407.929C717.791,415.382 715.129,423.449 712.262,432.131C709.396,440.812 706.488,449.698 703.54,458.79C700.592,467.881 697.725,476.603 694.94,484.957C692.156,493.311 689.617,501.051 687.324,508.176C685.03,515.301 683.065,521.157 681.427,525.744C679.789,530.33 678.478,534.016 677.495,536.801C676.513,539.585 675.653,541.715 674.915,543.189C674.178,544.663 673.523,545.646 672.95,546.137C672.377,546.629 671.762,546.874 671.107,546.874C669.797,546.874 668.691,545.933 667.79,544.049C666.889,542.165 665.538,538.848 663.736,534.098L615.578,397.241L615.086,397.241C613.612,401.172 611.524,406.741 608.821,413.948C606.118,421.156 603.129,429.182 599.853,438.028C596.577,446.873 593.096,456.128 589.41,465.792C585.725,475.456 582.244,484.711 578.968,493.557C575.692,502.402 572.703,510.387 570,517.513C567.297,524.638 565.209,530.085 563.734,533.852C561.769,539.094 560.294,542.575 559.312,544.295C558.329,546.014 557.1,546.874 555.626,546.874C554.971,546.874 554.398,546.629 553.906,546.137C553.415,545.646 552.841,544.745 552.186,543.435C551.531,542.124 550.794,540.199 549.975,537.661C549.156,535.122 548.173,531.723 547.026,527.464L503.291,381.761C501.325,375.209 499.36,370.705 497.394,368.248C495.429,365.79 492.89,363.907 489.777,362.596C488.139,361.941 486.092,361.532 483.635,361.368C481.178,361.204 479.54,361.122 478.721,361.122C477.246,361.122 476.509,360.549 476.509,359.402C476.509,358.256 477.82,357.682 480.441,357.682C483.553,357.682 486.706,357.723 489.9,357.805C493.094,357.887 496.043,357.969 498.746,358.051C501.448,358.133 503.742,358.215 505.625,358.297C507.509,358.378 508.778,358.419 509.434,358.419C510.58,358.419 513.529,358.297 518.279,358.051C523.029,357.805 528.517,357.682 534.741,357.682C536.543,357.682 537.731,357.846 538.304,358.174C538.877,358.501 539.164,358.911 539.164,359.402C539.164,360.549 538.345,361.122 536.707,361.122C535.724,361.122 534.25,361.163 532.284,361.245C530.319,361.327 528.599,361.777 527.124,362.596C526.305,362.924 525.568,363.579 524.913,364.562C524.258,365.545 523.93,366.855 523.93,368.493C523.93,370.131 524.381,372.957 525.282,376.97C526.183,380.983 527.288,385.693 528.599,391.098C529.254,393.719 530.4,398.182 532.038,404.489C533.677,410.795 535.642,418.003 537.935,426.111C540.229,434.219 542.604,442.737 545.061,451.664C547.518,460.591 549.893,469.027 552.186,476.972C554.479,484.916 556.445,491.878 558.083,497.856C559.721,503.835 560.868,507.889 561.523,510.019L562.014,510.019L614.104,369.722C615.906,364.644 617.175,361.491 617.912,360.262C618.649,359.034 619.427,358.419 620.246,358.419C621.065,358.419 621.925,359.279 622.826,360.999C623.727,362.719 624.915,365.709 626.389,369.967Z" style="fill-rule:nonzero;"/>
            <path d="M1022.71,390.975L1022.71,472.18C1022.71,483.974 1022.75,494.499 1022.83,503.753C1022.91,513.008 1023.28,520.256 1023.94,525.498C1024.27,529.102 1025,532.132 1026.15,534.589C1027.3,537.046 1029.75,538.521 1033.52,539.012C1035.32,539.34 1037.33,539.585 1039.54,539.749C1041.75,539.913 1043.43,539.995 1044.58,539.995C1045.89,539.995 1046.54,540.486 1046.54,541.469C1046.54,542.779 1045.23,543.435 1042.61,543.435C1039.17,543.435 1035.73,543.394 1032.29,543.312C1028.85,543.23 1025.7,543.148 1022.83,543.066C1019.97,542.984 1017.59,542.902 1015.71,542.82C1013.82,542.738 1012.72,542.697 1012.39,542.697C1012.06,542.697 1010.96,542.738 1009.07,542.82C1007.19,542.902 1005.02,542.984 1002.56,543.066C1000.11,543.148 997.566,543.23 994.945,543.312C992.324,543.394 990.113,543.435 988.311,543.435C985.69,543.435 984.38,542.779 984.38,541.469C984.38,540.486 985.035,539.995 986.345,539.995C987.492,539.995 988.721,539.913 990.031,539.749C991.341,539.585 992.57,539.34 993.717,539.012C996.174,538.521 997.853,537.046 998.754,534.589C999.654,532.132 1000.35,529.102 1000.84,525.498C1001.5,520.256 1001.87,513.008 1001.95,503.753C1002.03,494.499 1002.07,483.974 1002.07,472.18L1002.07,446.381C1002.07,445.399 1001.58,444.907 1000.6,444.907L896.418,444.907C895.435,444.907 894.944,445.399 894.944,446.381L894.944,472.18C894.944,483.974 894.984,494.499 895.066,503.753C895.148,513.008 895.517,520.256 896.172,525.498C896.5,529.102 897.237,532.132 898.383,534.589C899.53,537.046 901.987,538.521 905.755,539.012C907.556,539.34 909.563,539.585 911.774,539.749C913.986,539.913 915.665,539.995 916.811,539.995C918.122,539.995 918.777,540.486 918.777,541.469C918.777,542.779 917.466,543.435 914.846,543.435C911.406,543.435 907.966,543.394 904.526,543.312C901.086,543.23 897.933,543.148 895.066,543.066C892.2,542.984 889.825,542.902 887.941,542.82C886.057,542.738 884.952,542.697 884.624,542.697C884.296,542.697 883.191,542.738 881.307,542.82C879.423,542.902 877.253,542.984 874.796,543.066C872.339,543.148 869.8,543.23 867.179,543.312C864.558,543.394 862.347,543.435 860.545,543.435C857.924,543.435 856.614,542.779 856.614,541.469C856.614,540.486 857.269,539.995 858.579,539.995C859.726,539.995 860.954,539.913 862.265,539.749C863.575,539.585 864.804,539.34 865.95,539.012C868.407,538.521 870.086,537.046 870.987,534.589C871.888,532.132 872.584,529.102 873.076,525.498C873.731,520.256 874.1,513.008 874.182,503.753C874.263,494.499 874.304,483.974 874.304,472.18L874.304,390.975C874.304,387.29 874.263,384.341 874.182,382.13C874.1,379.918 873.977,377.83 873.813,375.864C873.485,371.605 872.666,368.411 871.356,366.282C870.046,364.152 867.343,362.678 863.248,361.859C862.265,361.532 860.913,361.327 859.194,361.245C857.474,361.163 856.04,361.122 854.894,361.122C853.583,361.122 852.928,360.631 852.928,359.648C852.928,358.337 854.239,357.682 856.859,357.682C859.644,357.682 862.592,357.723 865.705,357.805C868.817,357.887 871.724,357.969 874.427,358.051C877.13,358.133 879.423,358.215 881.307,358.297C883.191,358.378 884.296,358.419 884.624,358.419C884.952,358.419 886.057,358.378 887.941,358.297C889.825,358.215 891.995,358.133 894.452,358.051C896.909,357.969 899.448,357.887 902.069,357.805C904.69,357.723 906.901,357.682 908.703,357.682C911.324,357.682 912.634,358.337 912.634,359.648C912.634,360.631 911.979,361.122 910.669,361.122C909.85,361.122 908.99,361.163 908.089,361.245C907.188,361.327 906,361.532 904.526,361.859C901.25,362.514 898.998,363.948 897.769,366.159C896.541,368.37 895.763,371.605 895.435,375.864C895.271,377.83 895.148,379.918 895.066,382.13C894.984,384.341 894.944,387.29 894.944,390.975L894.944,434.096C894.944,435.079 895.435,435.57 896.418,435.57L1000.6,435.57C1001.58,435.57 1002.07,435.079 1002.07,434.096L1002.07,390.975C1002.07,387.29 1002.03,384.341 1001.95,382.13C1001.87,379.918 1001.74,377.83 1001.58,375.864C1001.25,371.605 1000.43,368.411 999.122,366.282C997.812,364.152 995.109,362.678 991.014,361.859C990.031,361.532 988.68,361.327 986.96,361.245C985.24,361.163 983.807,361.122 982.66,361.122C981.349,361.122 980.694,360.631 980.694,359.648C980.694,358.337 982.005,357.682 984.626,357.682C987.41,357.682 990.359,357.723 993.471,357.805C996.583,357.887 999.491,357.969 1002.19,358.051C1004.9,358.133 1007.19,358.215 1009.07,358.297C1010.96,358.378 1012.06,358.419 1012.39,358.419C1012.72,358.419 1013.82,358.378 1015.71,358.297C1017.59,358.215 1019.76,358.133 1022.22,358.051C1024.67,357.969 1027.21,357.887 1029.84,357.805C1032.46,357.723 1034.67,357.682 1036.47,357.682C1039.09,357.682 1040.4,358.337 1040.4,359.648C1040.4,360.631 1039.75,361.122 1038.43,361.122C1037.62,361.122 1036.76,361.163 1035.86,361.245C1034.95,361.327 1033.77,361.532 1032.29,361.859C1029.02,362.514 1026.76,363.948 1025.54,366.159C1024.31,368.37 1023.53,371.605 1023.2,375.864C1023.04,377.83 1022.91,379.918 1022.83,382.13C1022.75,384.341 1022.71,387.29 1022.71,390.975Z" style="fill-rule:nonzero;"/>
            <path d="M1211.9,390.975L1211.9,472.18C1211.9,483.974 1211.94,494.499 1212.03,503.753C1212.11,513.008 1212.48,520.256 1213.13,525.498C1213.46,529.102 1214.19,532.132 1215.34,534.589C1216.49,537.046 1218.94,538.521 1222.71,539.012C1224.52,539.34 1226.52,539.585 1228.73,539.749C1230.94,539.913 1232.62,539.995 1233.77,539.995C1235.08,539.995 1235.74,540.486 1235.74,541.469C1235.74,542.779 1234.42,543.435 1231.8,543.435C1228.36,543.435 1224.92,543.394 1221.48,543.312C1218.04,543.23 1214.89,543.148 1212.03,543.066C1209.16,542.984 1206.78,542.902 1204.9,542.82C1203.02,542.738 1201.91,542.697 1201.58,542.697C1201.26,542.697 1200.15,542.738 1198.27,542.82C1196.38,542.902 1194.21,542.984 1191.75,543.066C1189.3,543.148 1186.76,543.23 1184.14,543.312C1181.52,543.394 1179.31,543.435 1177.5,543.435C1174.88,543.435 1173.57,542.779 1173.57,541.469C1173.57,540.486 1174.23,539.995 1175.54,539.995C1176.68,539.995 1177.91,539.913 1179.22,539.749C1180.53,539.585 1181.76,539.34 1182.91,539.012C1185.37,538.521 1187.05,537.046 1187.95,534.589C1188.85,532.132 1189.54,529.102 1190.03,525.498C1190.69,520.256 1191.06,513.008 1191.14,503.753C1191.22,494.499 1191.26,483.974 1191.26,472.18L1191.26,390.975C1191.26,387.29 1191.22,384.341 1191.14,382.13C1191.06,379.918 1190.93,377.83 1190.77,375.864C1190.28,367.838 1187.5,363.252 1182.42,362.105C1181.11,361.777 1179.71,361.532 1178.24,361.368C1176.77,361.204 1175.62,361.122 1174.8,361.122C1173.49,361.122 1172.84,360.631 1172.84,359.648C1172.84,358.337 1174.14,357.682 1176.77,357.682C1178.73,357.682 1181.11,357.723 1183.89,357.805C1186.68,357.887 1189.3,357.969 1191.75,358.051C1194.21,358.133 1196.38,358.215 1198.27,358.297C1200.15,358.378 1201.26,358.419 1201.58,358.419C1201.91,358.419 1203.02,358.378 1204.9,358.297C1206.78,358.215 1208.95,358.133 1211.41,358.051C1213.87,357.969 1216.41,357.887 1219.03,357.805C1221.65,357.723 1223.86,357.682 1225.66,357.682C1228.28,357.682 1229.59,358.337 1229.59,359.648C1229.59,360.631 1228.94,361.122 1227.63,361.122C1226.81,361.122 1225.95,361.163 1225.05,361.245C1224.15,361.327 1222.96,361.532 1221.48,361.859C1218.21,362.514 1215.96,363.948 1214.73,366.159C1213.5,368.37 1212.72,371.605 1212.39,375.864C1212.23,377.83 1212.11,379.918 1212.03,382.13C1211.94,384.341 1211.9,387.29 1211.9,390.975Z" style="fill-rule:nonzero;"/>
            <path d="M1397.65,546.874C1391.92,546.874 1386.27,546.383 1380.7,545.4C1375.13,544.417 1369.81,542.697 1364.73,540.24C1362.93,539.421 1361.86,538.48 1361.54,537.415C1361.21,536.35 1361.04,534.18 1361.04,530.904C1361.04,524.679 1361.21,519.274 1361.54,514.687C1361.86,510.101 1362.11,506.825 1362.27,504.859C1362.44,502.238 1363.09,500.928 1364.24,500.928C1365.38,500.928 1365.96,501.829 1365.96,503.631C1365.96,504.777 1366,506.129 1366.08,507.685C1366.16,509.241 1366.37,510.92 1366.7,512.722C1367.68,517.308 1369.32,521.198 1371.61,524.393C1373.9,527.587 1376.73,530.167 1380.09,532.132C1383.44,534.098 1387.09,535.531 1391.02,536.432C1394.95,537.333 1398.96,537.783 1403.06,537.783C1408.96,537.783 1414.12,536.801 1418.54,534.835C1422.96,532.869 1426.61,530.371 1429.47,527.341C1432.34,524.311 1434.51,520.83 1435.98,516.899C1437.46,512.967 1438.19,509.036 1438.19,505.105C1438.19,500.846 1437.7,496.956 1436.72,493.434C1435.74,489.912 1434.14,486.472 1431.93,483.114C1429.72,479.756 1426.81,476.316 1423.21,472.795C1419.6,469.273 1415.18,465.301 1409.94,460.878L1398.88,451.787C1392.33,446.381 1387.01,441.385 1382.91,436.799C1378.82,432.213 1375.58,427.749 1373.21,423.408C1370.83,419.067 1369.19,414.89 1368.29,410.877C1367.39,406.864 1366.94,402.728 1366.94,398.469C1366.94,391.917 1368.13,385.938 1370.5,380.533C1372.88,375.127 1376.28,370.459 1380.7,366.528C1385.12,362.596 1390.45,359.566 1396.67,357.437C1402.9,355.307 1409.94,354.242 1417.8,354.242C1422.55,354.242 1426.77,354.447 1430.46,354.857C1434.14,355.266 1437.54,355.88 1440.65,356.699C1442.95,357.191 1444.71,357.518 1445.93,357.682C1447.16,357.846 1448.27,357.928 1449.25,357.928C1450.89,357.928 1451.71,358.501 1451.71,359.648C1451.71,360.303 1451.55,362.719 1451.22,366.896C1450.89,371.073 1450.73,377.339 1450.73,385.693C1450.73,389.46 1450.15,391.344 1449.01,391.344C1448.19,391.344 1447.7,391.057 1447.53,390.484C1447.37,389.91 1447.2,389.132 1447.04,388.15C1446.88,386.675 1446.51,384.587 1445.93,381.884C1445.36,379.181 1444.67,377.175 1443.85,375.864C1443.52,375.209 1442.78,374.144 1441.63,372.67C1440.49,371.196 1438.73,369.722 1436.35,368.248C1433.98,366.773 1430.91,365.504 1427.14,364.439C1423.37,363.374 1418.7,362.842 1413.13,362.842C1404.62,362.842 1397.45,365.34 1391.63,370.336C1385.82,375.332 1382.91,382.335 1382.91,391.344C1382.91,394.784 1383.36,398.019 1384.26,401.049C1385.16,404.079 1386.76,407.151 1389.06,410.263C1391.35,413.375 1394.42,416.733 1398.27,420.337C1402.12,423.94 1406.99,428.036 1412.89,432.622L1419.77,438.028C1426.98,443.761 1432.91,449.084 1437.58,453.998C1442.25,458.912 1445.93,463.622 1448.64,468.126C1451.34,472.631 1453.18,477.135 1454.17,481.64C1455.15,486.145 1455.64,490.854 1455.64,495.768C1455.64,498.225 1455.35,501.173 1454.78,504.613C1454.21,508.053 1453.14,511.657 1451.59,515.424C1450.03,519.192 1447.9,522.918 1445.2,526.604C1442.5,530.289 1439.01,533.606 1434.76,536.555C1429.51,540.322 1423.7,542.984 1417.31,544.54C1410.92,546.096 1404.37,546.874 1397.65,546.874Z" style="fill-rule:nonzero;"/>
            <path d="M1601.59,472.18L1601.59,390.975C1601.59,387.29 1601.55,384.341 1601.47,382.13C1601.38,379.918 1601.26,377.83 1601.1,375.864C1600.77,371.605 1599.95,368.411 1598.64,366.282C1597.33,364.152 1594.63,362.678 1590.53,361.859C1589.55,361.532 1588.2,361.327 1586.48,361.245C1584.76,361.163 1583.33,361.122 1582.18,361.122C1580.87,361.122 1580.21,360.631 1580.21,359.648C1580.21,358.337 1581.52,357.682 1584.14,357.682C1586.93,357.682 1589.84,357.723 1592.87,357.805C1595.9,357.887 1598.76,357.969 1601.47,358.051C1604.17,358.133 1606.46,358.215 1608.35,358.297C1610.23,358.378 1611.42,358.419 1611.91,358.419C1614.69,358.419 1619.12,358.297 1625.18,358.051C1631.24,357.805 1637.13,357.682 1642.87,357.682C1650.57,357.682 1657.08,358.256 1662.4,359.402C1667.72,360.549 1672.19,361.859 1675.79,363.333C1679.39,364.808 1682.18,366.323 1684.14,367.879C1686.11,369.435 1687.59,370.705 1688.57,371.687C1691.35,374.308 1694.1,378.199 1696.8,383.358C1699.5,388.518 1700.85,394.374 1700.85,400.926C1700.85,409.608 1699.34,417.552 1696.31,424.759C1693.28,431.967 1689.06,438.15 1683.65,443.31C1678.25,448.47 1671.86,452.442 1664.49,455.227C1657.12,458.011 1649.09,459.404 1640.41,459.404L1637.83,459.404C1636.77,459.404 1635.9,459.322 1635.25,459.158C1634.6,459.158 1633.98,459.035 1633.41,458.79C1632.83,458.544 1632.55,458.093 1632.55,457.438C1632.55,456.455 1633,455.841 1633.9,455.595C1634.8,455.35 1636.56,455.227 1639.18,455.227C1645.08,455.227 1650.65,454.203 1655.89,452.155C1661.13,450.108 1665.64,447.282 1669.4,443.679C1673.17,440.075 1676.16,435.857 1678.37,431.025C1680.58,426.193 1681.69,420.91 1681.69,415.177C1681.69,413.211 1681.57,410.754 1681.32,407.806C1681.07,404.857 1680.5,401.663 1679.6,398.223C1678.7,394.784 1677.35,391.262 1675.55,387.658C1673.74,384.054 1671.2,380.615 1667.93,377.339C1664.65,374.063 1661.34,371.565 1657.98,369.845C1654.62,368.125 1651.43,366.896 1648.39,366.159C1645.37,365.422 1642.62,365.053 1640.16,365.053L1634.27,365.053C1632.14,365.053 1630.13,365.176 1628.25,365.422C1626.36,365.668 1624.85,366.036 1623.7,366.528C1622.39,367.019 1621.74,368.575 1621.74,371.196L1621.74,472.18C1621.74,483.974 1621.78,494.499 1621.86,503.753C1621.94,513.008 1622.31,520.256 1622.97,525.498C1623.29,529.102 1624.03,532.132 1625.18,534.589C1626.32,537.046 1628.78,538.521 1632.55,539.012C1634.35,539.34 1636.36,539.585 1638.57,539.749C1640.78,539.913 1642.46,539.995 1643.6,539.995C1644.91,539.995 1645.57,540.486 1645.57,541.469C1645.57,542.779 1644.26,543.435 1641.64,543.435C1638.2,543.435 1634.76,543.394 1631.32,543.312C1627.88,543.23 1624.73,543.148 1621.86,543.066C1618.99,542.984 1616.62,542.902 1614.73,542.82C1612.85,542.738 1611.74,542.697 1611.42,542.697C1611.25,542.697 1610.27,542.738 1608.47,542.82C1606.67,542.902 1604.54,542.984 1602.08,543.066C1599.62,543.148 1597.08,543.23 1594.46,543.312C1591.84,543.394 1589.63,543.435 1587.83,543.435C1585.21,543.435 1583.9,542.779 1583.9,541.469C1583.9,540.486 1584.55,539.995 1585.86,539.995C1587.01,539.995 1588.24,539.913 1589.55,539.749C1590.86,539.585 1592.09,539.34 1593.24,539.012C1595.69,538.521 1597.37,537.046 1598.27,534.589C1599.17,532.132 1599.87,529.102 1600.36,525.498C1601.02,520.256 1601.38,513.008 1601.47,503.753C1601.55,494.499 1601.59,483.974 1601.59,472.18Z" style="fill-rule:nonzero;"/>
            <path d="M1836.73,472.18L1836.73,390.975C1836.73,387.29 1836.69,384.341 1836.61,382.13C1836.52,379.918 1836.4,377.83 1836.24,375.864C1835.91,371.605 1835.09,368.411 1833.78,366.282C1832.47,364.152 1829.77,362.678 1825.67,361.859C1824.69,361.532 1823.34,361.327 1821.62,361.245C1819.9,361.163 1818.46,361.122 1817.32,361.122C1816.01,361.122 1815.35,360.631 1815.35,359.648C1815.35,358.337 1816.66,357.682 1819.28,357.682L1828.13,357.682C1831.24,357.682 1834.19,357.764 1836.97,357.928L1847.05,358.419L1873.71,358.419C1880.34,358.419 1886.57,358.378 1892.38,358.297C1898.19,358.215 1901.84,358.174 1903.31,358.174C1908.06,357.846 1911.59,357.437 1913.88,356.945C1914.53,356.781 1915.11,356.536 1915.6,356.208C1916.09,355.88 1916.66,355.717 1917.32,355.717C1917.97,355.717 1918.3,356.454 1918.3,357.928C1918.3,358.747 1918.06,360.016 1917.56,361.736C1917.07,363.456 1916.66,366.036 1916.34,369.476C1916.34,370.131 1916.3,371.196 1916.21,372.67C1916.13,374.144 1916.01,375.741 1915.84,377.461C1915.68,379.181 1915.56,380.819 1915.48,382.376C1915.39,383.932 1915.27,385.037 1915.11,385.693C1914.94,386.348 1914.74,386.962 1914.49,387.535C1914.25,388.109 1913.88,388.395 1913.39,388.395C1912.08,388.395 1911.42,387.331 1911.42,385.201C1911.42,384.382 1911.34,383.072 1911.18,381.27C1911.01,379.468 1910.6,377.83 1909.95,376.356C1909.13,374.39 1907.65,372.711 1905.53,371.319C1903.39,369.926 1899.06,368.821 1892.5,368.002C1891.52,367.838 1889.31,367.715 1885.87,367.633C1882.43,367.551 1878.83,367.469 1875.06,367.388C1871.29,367.306 1867.81,367.265 1864.62,367.265L1858.84,367.265C1857.86,367.265 1857.37,368.084 1857.37,369.722L1857.37,437.536C1857.37,439.174 1857.86,439.993 1858.84,439.993L1877.39,439.993C1881.73,439.993 1885.87,439.952 1889.8,439.87C1893.73,439.788 1896.43,439.666 1897.91,439.502C1900.86,439.174 1903.23,438.847 1905.03,438.519C1906.84,438.191 1908.31,437.372 1909.46,436.062C1911.26,433.932 1912.49,432.868 1913.14,432.868C1913.96,432.868 1914.37,433.523 1914.37,434.833C1914.37,435.652 1914.12,437.127 1913.63,439.256C1913.14,441.385 1912.73,444.498 1912.4,448.593C1912.24,449.903 1912.12,451.336 1912.04,452.893C1911.95,454.449 1911.87,456.005 1911.79,457.561C1911.71,459.117 1911.63,460.509 1911.54,461.738C1911.46,462.966 1911.42,463.826 1911.42,464.318C1911.42,465.301 1911.34,466.324 1911.18,467.389C1911.01,468.454 1910.52,468.986 1909.7,468.986C1908.56,468.986 1907.98,468.249 1907.98,466.775C1907.98,465.464 1907.94,464.195 1907.86,462.966C1907.78,461.738 1907.49,460.305 1907,458.667C1906.51,456.865 1905.44,455.104 1903.81,453.384C1902.17,451.664 1898.97,450.558 1894.22,450.067C1892.58,449.903 1890,449.739 1886.48,449.576C1882.96,449.412 1879.36,449.289 1875.67,449.207C1871.99,449.125 1868.55,449.043 1865.35,448.961C1862.16,448.879 1860.07,448.838 1859.09,448.838C1857.94,448.838 1857.37,449.412 1857.37,450.558L1857.37,514.196C1857.53,518.455 1857.98,521.895 1858.72,524.515C1859.45,527.136 1860.85,529.184 1862.89,530.658C1864.94,532.132 1867.77,533.115 1871.37,533.606C1874.98,534.098 1879.81,534.344 1885.87,534.344C1889.14,534.344 1893.08,534.221 1897.66,533.975C1902.25,533.729 1906.18,532.951 1909.46,531.641C1912.73,530.33 1915.19,528.324 1916.83,525.621C1918.47,522.918 1919.69,519.028 1920.51,513.95C1921,511.493 1921.74,510.265 1922.72,510.265C1923.54,510.265 1923.99,510.674 1924.08,511.493C1924.16,512.312 1924.2,513.131 1924.2,513.95C1924.2,514.441 1924.08,515.711 1923.83,517.759C1923.58,519.806 1923.3,522.099 1922.97,524.638C1922.64,527.177 1922.32,529.675 1921.99,532.132C1921.66,534.589 1921.33,536.473 1921,537.783C1920.51,539.421 1920.02,540.65 1919.53,541.469C1919.04,542.288 1918.3,542.902 1917.32,543.312C1916.34,543.721 1915.11,543.967 1913.63,544.049C1912.16,544.131 1910.19,544.172 1907.74,544.172C1898.4,544.172 1890.33,544.09 1883.53,543.926C1876.74,543.762 1870.96,543.598 1866.21,543.435C1861.46,543.107 1857.53,542.902 1854.42,542.82C1851.31,542.738 1848.85,542.697 1847.05,542.697L1843.85,542.697C1842.05,542.697 1839.84,542.779 1837.22,542.943C1834.76,542.943 1832.22,543.025 1829.6,543.189C1826.98,543.353 1824.77,543.435 1822.97,543.435C1820.35,543.435 1819.04,542.779 1819.04,541.469C1819.04,540.486 1819.69,539.995 1821,539.995C1822.15,539.995 1823.38,539.913 1824.69,539.749C1826,539.585 1827.23,539.34 1828.37,539.012C1830.83,538.521 1832.51,537.046 1833.41,534.589C1834.31,532.132 1835.01,529.102 1835.5,525.498C1836.15,520.256 1836.52,513.008 1836.61,503.753C1836.69,494.499 1836.73,483.974 1836.73,472.18Z" style="fill-rule:nonzero;"/>
            <path d="M2067.69,472.18L2067.69,390.975C2067.69,387.29 2067.65,384.341 2067.57,382.13C2067.49,379.918 2067.36,377.83 2067.2,375.864C2066.87,371.605 2066.05,368.411 2064.74,366.282C2063.43,364.152 2060.73,362.678 2056.63,361.859C2055.65,361.532 2054.3,361.327 2052.58,361.245C2050.86,361.163 2049.43,361.122 2048.28,361.122C2046.97,361.122 2046.31,360.631 2046.31,359.648C2046.31,358.337 2047.62,357.682 2050.24,357.682C2053.03,357.682 2055.98,357.723 2059.09,357.805C2062.2,357.887 2065.11,357.969 2067.81,358.051C2070.51,358.133 2072.81,358.215 2074.69,358.297C2076.58,358.378 2077.68,358.419 2078.01,358.419C2078.66,358.419 2080.18,358.378 2082.55,358.297C2084.93,358.215 2087.63,358.133 2090.66,358.051C2093.69,357.969 2096.68,357.887 2099.63,357.805C2102.58,357.723 2105.04,357.682 2107,357.682C2114.87,357.682 2122.69,358.297 2130.47,359.525C2138.25,360.754 2145.41,363.743 2151.97,368.493C2153.44,369.64 2155.16,371.237 2157.13,373.284C2159.09,375.332 2160.93,377.748 2162.65,380.533C2164.37,383.317 2165.85,386.512 2167.08,390.115C2168.3,393.719 2168.92,397.65 2168.92,401.909C2168.92,411.082 2166.71,420.296 2162.29,429.551C2157.86,438.806 2150.16,448.511 2139.19,458.667C2149.35,471.607 2158.6,483.401 2166.95,494.048C2175.31,504.695 2183.09,513.868 2190.3,521.567C2197.01,528.61 2202.91,533.197 2207.99,535.326C2213.06,537.456 2217.16,538.766 2220.27,539.258C2222.57,539.585 2224.53,539.79 2226.17,539.872C2227.81,539.954 2229.03,539.995 2229.85,539.995C2231.33,539.995 2232.07,540.486 2232.07,541.469C2232.07,542.288 2231.66,542.82 2230.84,543.066C2230.02,543.312 2228.46,543.435 2226.17,543.435L2208.72,543.435C2201.84,543.435 2196.52,543.107 2192.75,542.452C2188.99,541.797 2185.55,540.568 2182.43,538.766C2177.19,535.982 2172.11,531.6 2167.2,525.621C2162.29,519.642 2156.31,511.984 2149.26,502.648C2146.64,499.208 2144.02,495.686 2141.4,492.082C2138.78,488.479 2136.28,485.039 2133.91,481.763C2131.53,478.487 2129.32,475.497 2127.27,472.795C2125.22,470.092 2123.63,467.922 2122.48,466.283C2121.5,465.301 2120.43,464.809 2119.29,464.809L2089.07,464.318C2087.92,464.318 2087.35,464.973 2087.35,466.283L2087.35,472.18C2087.35,483.974 2087.39,494.499 2087.47,503.753C2087.55,513.008 2087.92,520.256 2088.57,525.498C2088.9,529.102 2089.64,532.132 2090.79,534.589C2091.93,537.046 2094.39,538.521 2098.16,539.012C2099.96,539.34 2101.97,539.585 2104.18,539.749C2106.39,539.913 2108.07,539.995 2109.21,539.995C2110.52,539.995 2111.18,540.486 2111.18,541.469C2111.18,542.779 2109.87,543.435 2107.25,543.435C2103.81,543.435 2100.37,543.394 2096.93,543.312C2093.49,543.23 2090.34,543.148 2087.47,543.066C2084.6,542.984 2082.23,542.902 2080.34,542.82C2078.46,542.738 2077.35,542.697 2077.03,542.697C2077.03,542.697 2076.17,542.738 2074.45,542.82C2072.73,542.902 2070.64,542.984 2068.18,543.066C2065.72,543.148 2063.18,543.23 2060.56,543.312C2057.94,543.394 2055.73,543.435 2053.93,543.435C2051.31,543.435 2050,542.779 2050,541.469C2050,540.486 2050.65,539.995 2051.96,539.995C2053.11,539.995 2054.34,539.913 2055.65,539.749C2056.96,539.585 2058.19,539.34 2059.34,539.012C2061.79,538.521 2063.47,537.046 2064.37,534.589C2065.27,532.132 2065.97,529.102 2066.46,525.498C2067.12,520.256 2067.49,513.008 2067.57,503.753C2067.65,494.499 2067.69,483.974 2067.69,472.18ZM2087.35,369.967L2087.35,450.313C2087.35,451.623 2087.92,452.606 2089.07,453.261C2090.87,454.408 2094.27,455.35 2099.26,456.087C2104.26,456.824 2109.46,457.192 2114.87,457.192C2117.81,457.192 2120.93,456.906 2124.2,456.332C2127.48,455.759 2130.51,454.49 2133.29,452.524C2137.55,449.576 2141.11,444.866 2143.98,438.396C2146.85,431.926 2148.28,424.022 2148.28,414.686C2148.28,399.288 2144.51,387.249 2136.98,378.567C2129.44,369.886 2119.04,365.545 2105.77,365.545C2102.01,365.545 2098.65,365.709 2095.7,366.036C2092.75,366.364 2090.62,366.691 2089.31,367.019C2088,367.51 2087.35,368.493 2087.35,369.967Z" style="fill-rule:nonzero;"/>
            <path d="M2354.67,390.975L2354.67,472.18C2354.67,483.974 2354.71,494.499 2354.8,503.753C2354.88,513.008 2355.24,520.256 2355.9,525.498C2356.23,529.102 2356.97,532.132 2358.11,534.589C2359.26,537.046 2361.72,538.521 2365.48,539.012C2367.28,539.34 2369.29,539.585 2371.5,539.749C2373.71,539.913 2375.39,539.995 2376.54,539.995C2377.85,539.995 2378.51,540.486 2378.51,541.469C2378.51,542.779 2377.2,543.435 2374.57,543.435C2371.13,543.435 2367.69,543.394 2364.25,543.312C2360.82,543.23 2357.66,543.148 2354.8,543.066C2351.93,542.984 2349.55,542.902 2347.67,542.82C2345.79,542.738 2344.68,542.697 2344.35,542.697C2344.03,542.697 2342.92,542.738 2341.03,542.82C2339.15,542.902 2336.98,542.984 2334.52,543.066C2332.07,543.148 2329.53,543.23 2326.91,543.312C2324.29,543.394 2322.08,543.435 2320.27,543.435C2317.65,543.435 2316.34,542.779 2316.34,541.469C2316.34,540.486 2317,539.995 2318.31,539.995C2319.45,539.995 2320.68,539.913 2321.99,539.749C2323.3,539.585 2324.53,539.34 2325.68,539.012C2328.14,538.521 2329.82,537.046 2330.72,534.589C2331.62,532.132 2332.31,529.102 2332.8,525.498C2333.46,520.256 2333.83,513.008 2333.91,503.753C2333.99,494.499 2334.03,483.974 2334.03,472.18L2334.03,390.975C2334.03,387.29 2333.99,384.341 2333.91,382.13C2333.83,379.918 2333.7,377.83 2333.54,375.864C2333.05,367.838 2330.26,363.252 2325.19,362.105C2323.88,361.777 2322.49,361.532 2321.01,361.368C2319.54,361.204 2318.39,361.122 2317.57,361.122C2316.26,361.122 2315.61,360.631 2315.61,359.648C2315.61,358.337 2316.91,357.682 2319.54,357.682C2321.5,357.682 2323.88,357.723 2326.66,357.805C2329.45,357.887 2332.07,357.969 2334.52,358.051C2336.98,358.133 2339.15,358.215 2341.03,358.297C2342.92,358.378 2344.03,358.419 2344.35,358.419C2344.68,358.419 2345.79,358.378 2347.67,358.297C2349.55,358.215 2351.72,358.133 2354.18,358.051C2356.64,357.969 2359.18,357.887 2361.8,357.805C2364.42,357.723 2366.63,357.682 2368.43,357.682C2371.05,357.682 2372.36,358.337 2372.36,359.648C2372.36,360.631 2371.71,361.122 2370.4,361.122C2369.58,361.122 2368.72,361.163 2367.82,361.245C2366.92,361.327 2365.73,361.532 2364.25,361.859C2360.98,362.514 2358.73,363.948 2357.5,366.159C2356.27,368.37 2355.49,371.605 2355.16,375.864C2355,377.83 2354.88,379.918 2354.8,382.13C2354.71,384.341 2354.67,387.29 2354.67,390.975Z" style="fill-rule:nonzero;"/>
            <path d="M2526.66,392.327L2529.86,510.019C2530.02,515.097 2530.31,519.315 2530.72,522.673C2531.13,526.031 2531.7,528.815 2532.44,531.027C2533.18,533.238 2534.12,534.917 2535.26,536.063C2536.41,537.21 2537.8,538.029 2539.44,538.521C2541.74,539.176 2544.07,539.585 2546.44,539.749C2548.82,539.913 2550.58,539.995 2551.73,539.995C2553.04,539.995 2553.69,540.486 2553.69,541.469C2553.69,542.779 2552.22,543.435 2549.27,543.435C2542.23,543.435 2536.41,543.312 2531.83,543.066C2527.24,542.82 2524.37,542.697 2523.22,542.697C2522.08,542.697 2519.25,542.82 2514.75,543.066C2510.24,543.312 2505.21,543.435 2499.64,543.435C2497.02,543.435 2495.71,542.779 2495.71,541.469C2495.71,540.486 2496.36,539.995 2497.67,539.995C2498.66,539.995 2500.13,539.913 2502.09,539.749C2504.06,539.585 2505.94,539.176 2507.75,538.521C2510.86,537.701 2512.86,535.081 2513.76,530.658C2514.67,526.235 2515.12,518.455 2515.12,507.316L2515.36,366.528C2515.36,361.777 2515.57,358.542 2515.98,356.822C2516.39,355.102 2517.08,354.242 2518.07,354.242C2519.05,354.242 2520.4,355.225 2522.12,357.191C2523.84,359.156 2525.35,360.794 2526.66,362.105C2527.65,363.088 2530.47,366.159 2535.14,371.319C2539.81,376.479 2545.75,382.908 2552.95,390.607C2560.16,398.305 2568.23,406.987 2577.16,416.651C2586.08,426.316 2595.3,436.226 2604.8,446.381C2610.86,452.934 2616.96,459.568 2623.1,466.283C2629.25,472.999 2635.02,479.306 2640.43,485.203C2645.83,491.1 2650.58,496.3 2654.68,500.805C2658.77,505.309 2661.8,508.545 2663.77,510.51L2661.07,385.693C2660.9,377.666 2660.2,372.015 2658.98,368.739C2657.75,365.463 2655.25,363.333 2651.48,362.351C2649.19,361.859 2646.86,361.532 2644.48,361.368C2642.11,361.204 2640.43,361.122 2639.44,361.122C2638.13,361.122 2637.48,360.549 2637.48,359.402C2637.48,358.256 2639.12,357.682 2642.39,357.682C2645.18,357.682 2647.92,357.723 2650.62,357.805C2653.33,357.887 2655.86,357.969 2658.24,358.051C2660.62,358.133 2662.66,358.215 2664.38,358.297C2666.1,358.378 2667.29,358.419 2667.95,358.419C2669.26,358.419 2671.79,358.297 2675.56,358.051C2679.33,357.805 2683.75,357.682 2688.83,357.682C2691.78,357.682 2693.25,358.256 2693.25,359.402C2693.25,360.549 2692.35,361.122 2690.55,361.122C2689.89,361.122 2689.12,361.163 2688.22,361.245C2687.31,361.327 2686.13,361.532 2684.65,361.859C2680.56,362.678 2678.02,364.685 2677.04,367.879C2676.05,371.073 2675.56,376.356 2675.56,383.727L2675.07,527.71C2675.07,531.805 2675.03,534.999 2674.95,537.292C2674.87,539.585 2674.74,541.305 2674.58,542.452C2674.41,543.598 2674.21,544.336 2673.96,544.663C2673.72,544.991 2673.35,545.155 2672.86,545.155C2672.37,545.155 2671.75,544.95 2671.02,544.54C2670.28,544.131 2669.26,543.353 2667.95,542.206C2666.63,541.059 2664.95,539.462 2662.91,537.415L2647.43,521.935C2643.09,517.595 2637.8,512.189 2631.58,505.719C2625.36,499.249 2618.64,492.246 2611.43,484.711C2604.22,477.176 2597.35,469.887 2590.79,462.844C2583.59,455.145 2576.58,447.569 2569.79,440.116C2562.99,432.663 2556.72,425.742 2550.99,419.354C2545.26,412.966 2540.26,407.437 2536,402.769C2531.74,398.101 2528.63,394.62 2526.66,392.327Z" style="fill-rule:nonzero;"/>
            <path d="M2950.01,522.55L2950.01,480.78C2950.01,475.866 2949.89,471.894 2949.64,468.863C2949.4,465.833 2948.91,463.458 2948.17,461.738C2947.43,460.018 2946.33,458.708 2944.85,457.807C2943.38,456.906 2941.41,456.128 2938.96,455.472C2937.97,455.145 2936.62,454.94 2934.9,454.858C2933.18,454.776 2931.75,454.735 2930.6,454.735C2929.29,454.735 2928.64,454.244 2928.64,453.261C2928.64,451.951 2929.95,451.296 2932.57,451.296C2935.35,451.296 2938.3,451.336 2941.41,451.418C2944.53,451.5 2947.43,451.582 2950.14,451.664C2952.84,451.746 2955.13,451.828 2957.02,451.91C2958.9,451.992 2960.01,452.033 2960.33,452.033C2960.66,452.033 2961.77,451.992 2963.65,451.91C2965.53,451.828 2967.7,451.746 2970.16,451.664C2972.62,451.582 2975.16,451.5 2977.78,451.418C2980.4,451.336 2982.61,451.296 2984.41,451.296C2987.03,451.296 2988.34,451.951 2988.34,453.261C2988.34,454.244 2987.69,454.735 2986.38,454.735C2985.56,454.735 2984.7,454.776 2983.8,454.858C2982.9,454.94 2981.71,455.145 2980.24,455.472C2976.96,456.128 2974.71,457.561 2973.48,459.772C2972.25,461.984 2971.47,465.219 2971.14,469.478C2970.82,473.409 2970.65,477.34 2970.65,481.271L2970.65,522.55C2970.65,525.334 2970.61,527.505 2970.53,529.061C2970.45,530.617 2970.33,531.846 2970.16,532.746C2970,533.647 2969.67,534.262 2969.18,534.589C2968.69,534.917 2968.11,535.326 2967.46,535.818C2963.53,537.947 2959.27,539.708 2954.68,541.1C2950.1,542.493 2945.47,543.639 2940.8,544.54C2936.13,545.441 2931.63,546.055 2927.28,546.383C2922.95,546.711 2918.97,546.874 2915.37,546.874C2910.62,546.874 2905.05,546.629 2898.66,546.137C2892.27,545.646 2885.43,544.499 2878.14,542.697C2870.86,540.896 2863.48,538.234 2856.03,534.712C2848.58,531.19 2841.41,526.481 2834.53,520.584C2830.76,517.308 2827.12,513.254 2823.6,508.422C2820.08,503.59 2816.96,498.184 2814.26,492.205C2811.56,486.226 2809.39,479.715 2807.75,472.672C2806.11,465.628 2805.29,458.257 2805.29,450.558C2805.29,440.73 2806.4,431.639 2808.61,423.285C2810.82,414.931 2813.81,407.355 2817.58,400.558C2821.35,393.76 2825.73,387.781 2830.72,382.621C2835.72,377.461 2840.92,373.162 2846.33,369.722C2851.89,366.282 2857.55,363.538 2863.28,361.491C2869.01,359.443 2874.66,357.887 2880.23,356.822C2885.8,355.758 2891.25,355.061 2896.57,354.734C2901.9,354.406 2906.93,354.242 2911.68,354.242C2915.62,354.242 2919.55,354.406 2923.48,354.734C2927.41,355.061 2931.09,355.471 2934.53,355.962C2937.97,356.454 2941,356.945 2943.62,357.437C2946.25,357.928 2948.13,358.256 2949.28,358.419C2951.9,359.075 2955.09,359.607 2958.86,360.016C2962.63,360.426 2966.07,360.713 2969.18,360.876C2970.49,361.04 2971.31,361.327 2971.64,361.736C2971.96,362.146 2972.13,362.596 2972.13,363.088C2972.13,363.907 2972.05,365.053 2971.88,366.528C2971.72,368.002 2971.51,370.049 2971.27,372.67C2971.02,375.291 2970.82,378.649 2970.65,382.744C2970.49,386.839 2970.41,391.917 2970.41,397.978C2970.41,399.943 2970.24,401.295 2969.91,402.032C2969.59,402.769 2969.01,403.138 2968.2,403.138C2967.38,403.138 2966.8,401.909 2966.47,399.452C2966.31,397.65 2965.86,395.234 2965.12,392.204C2964.39,389.173 2963.12,386.184 2961.32,383.235C2959.84,380.942 2957.47,378.608 2954.19,376.233C2950.91,373.858 2946.86,371.728 2942.03,369.845C2937.2,367.961 2931.54,366.405 2925.07,365.176C2918.6,363.948 2911.44,363.333 2903.58,363.333C2899.64,363.333 2895.59,363.497 2891.41,363.825C2887.24,364.152 2882.94,364.849 2878.51,365.913C2874.09,366.978 2869.55,368.616 2864.88,370.827C2860.21,373.039 2855.58,375.946 2850.99,379.55C2843.79,385.283 2837.93,393.514 2833.43,404.243C2828.92,414.972 2826.67,427.544 2826.67,441.959C2826.67,450.64 2827.61,458.667 2829.49,466.038C2831.38,473.409 2833.67,480.002 2836.38,485.817C2839.08,491.632 2841.94,496.587 2844.97,500.682C2848.01,504.777 2850.59,507.889 2852.71,510.019C2862.54,519.519 2872.9,526.276 2883.8,530.289C2894.69,534.303 2905.79,536.309 2917.09,536.309C2919.22,536.309 2921.59,536.227 2924.21,536.063C2926.84,535.9 2929.41,535.613 2931.95,535.203C2934.49,534.794 2936.91,534.262 2939.2,533.606C2941.49,532.951 2943.46,532.132 2945.1,531.149C2948.38,529.348 2950.01,526.481 2950.01,522.55Z" style="fill-rule:nonzero;"/>
            <path d="M3293.26,387.658L3340.44,513.459C3342.73,508.053 3345.51,501.296 3348.79,493.188C3352.07,485.08 3355.51,476.48 3359.11,467.389C3362.71,458.298 3366.36,449.043 3370.04,439.625C3373.73,430.206 3377.13,421.361 3380.24,413.089C3383.35,404.816 3386.01,397.486 3388.23,391.098C3390.44,384.71 3392.03,380.041 3393.02,377.093C3393.67,375.291 3394.2,373.571 3394.62,371.933C3395.02,370.295 3395.23,368.903 3395.23,367.756C3395.23,366.773 3395.02,365.75 3394.62,364.685C3394.2,363.62 3393.35,362.76 3392.03,362.105C3390.56,361.614 3388.96,361.327 3387.24,361.245C3385.52,361.163 3384.01,361.122 3382.7,361.122C3380.9,361.122 3379.99,360.631 3379.99,359.648C3379.99,358.337 3381.8,357.682 3385.4,357.682C3390.32,357.682 3395.19,357.805 3400.02,358.051C3404.85,358.297 3408.01,358.419 3409.48,358.419C3409.81,358.419 3410.67,358.378 3412.06,358.297C3413.45,358.215 3415.09,358.133 3416.97,358.051C3418.86,357.969 3420.82,357.887 3422.87,357.805C3424.92,357.723 3426.84,357.682 3428.64,357.682C3431.43,357.682 3432.82,358.256 3432.82,359.402C3432.82,360.549 3431.84,361.122 3429.87,361.122C3429.05,361.122 3427.46,361.245 3425.08,361.491C3422.71,361.736 3420.37,362.596 3418.08,364.071C3417.26,364.562 3416.4,365.258 3415.5,366.159C3414.6,367.06 3413.62,368.37 3412.55,370.09C3411.49,371.81 3410.3,374.063 3408.99,376.847C3407.68,379.632 3406.2,383.072 3404.57,387.167C3403.91,388.969 3402.68,391.999 3400.88,396.258C3399.08,400.517 3396.95,405.676 3394.49,411.737C3392.03,417.798 3389.29,424.432 3386.26,431.639C3383.23,438.847 3380.16,446.218 3377.05,453.753C3369.51,471.771 3363.04,487.168 3357.64,499.945C3352.23,512.722 3348.14,522.14 3345.35,528.201C3341.91,535.572 3339.62,540.527 3338.47,543.066C3337.33,545.605 3336.18,546.874 3335.03,546.874C3333.56,546.874 3332.29,545.81 3331.22,543.68C3330.16,541.551 3328.48,537.538 3326.19,531.641L3265.99,381.024C3264.68,377.584 3263.41,374.8 3262.18,372.67C3260.95,370.541 3259.68,368.78 3258.37,367.388C3257.06,365.995 3255.59,364.931 3253.95,364.193C3252.31,363.456 3250.43,362.76 3248.3,362.105C3246.5,361.614 3244.69,361.327 3242.89,361.245C3241.09,361.163 3239.78,361.122 3238.96,361.122C3237.65,361.122 3237,360.549 3237,359.402C3237,358.256 3239.12,357.682 3243.38,357.682C3246.33,357.682 3249.36,357.723 3252.47,357.805C3255.59,357.887 3258.45,357.969 3261.08,358.051C3263.7,358.133 3265.99,358.215 3267.95,358.297C3269.92,358.378 3271.31,358.419 3272.13,358.419C3273.44,358.419 3276.39,358.297 3280.98,358.051C3285.56,357.805 3290.23,357.682 3294.98,357.682C3299.4,357.682 3301.62,358.256 3301.62,359.402C3301.62,360.549 3300.8,361.122 3299.16,361.122C3297.85,361.122 3296.25,361.204 3294.37,361.368C3292.48,361.532 3290.97,361.859 3289.82,362.351C3288.51,363.006 3287.65,363.784 3287.24,364.685C3286.83,365.586 3286.63,366.446 3286.63,367.265C3286.63,368.903 3287.28,371.524 3288.59,375.127C3289.9,378.731 3291.46,382.908 3293.26,387.658Z" style="fill-rule:nonzero;"/>
            <path d="M3571.15,390.975L3571.15,472.18C3571.15,483.974 3571.19,494.499 3571.28,503.753C3571.36,513.008 3571.73,520.256 3572.38,525.498C3572.71,529.102 3573.45,532.132 3574.59,534.589C3575.74,537.046 3578.2,538.521 3581.96,539.012C3583.77,539.34 3585.77,539.585 3587.98,539.749C3590.2,539.913 3591.87,539.995 3593.02,539.995C3594.33,539.995 3594.99,540.486 3594.99,541.469C3594.99,542.779 3593.68,543.435 3591.06,543.435C3587.62,543.435 3584.18,543.394 3580.74,543.312C3577.3,543.23 3574.14,543.148 3571.28,543.066C3568.41,542.984 3566.03,542.902 3564.15,542.82C3562.27,542.738 3561.16,542.697 3560.83,542.697C3560.51,542.697 3559.4,542.738 3557.52,542.82C3555.63,542.902 3553.46,542.984 3551.01,543.066C3548.55,543.148 3546.01,543.23 3543.39,543.312C3540.77,543.394 3538.56,543.435 3536.76,543.435C3534.13,543.435 3532.82,542.779 3532.82,541.469C3532.82,540.486 3533.48,539.995 3534.79,539.995C3535.94,539.995 3537.16,539.913 3538.47,539.749C3539.78,539.585 3541.01,539.34 3542.16,539.012C3544.62,538.521 3546.3,537.046 3547.2,534.589C3548.1,532.132 3548.79,529.102 3549.29,525.498C3549.94,520.256 3550.31,513.008 3550.39,503.753C3550.47,494.499 3550.51,483.974 3550.51,472.18L3550.51,390.975C3550.51,387.29 3550.47,384.341 3550.39,382.13C3550.31,379.918 3550.19,377.83 3550.02,375.864C3549.53,367.838 3546.75,363.252 3541.67,362.105C3540.36,361.777 3538.97,361.532 3537.49,361.368C3536.02,361.204 3534.87,361.122 3534.05,361.122C3532.74,361.122 3532.09,360.631 3532.09,359.648C3532.09,358.337 3533.4,357.682 3536.02,357.682C3537.98,357.682 3540.36,357.723 3543.14,357.805C3545.93,357.887 3548.55,357.969 3551.01,358.051C3553.46,358.133 3555.63,358.215 3557.52,358.297C3559.4,358.378 3560.51,358.419 3560.83,358.419C3561.16,358.419 3562.27,358.378 3564.15,358.297C3566.03,358.215 3568.2,358.133 3570.66,358.051C3573.12,357.969 3575.66,357.887 3578.28,357.805C3580.9,357.723 3583.11,357.682 3584.91,357.682C3587.53,357.682 3588.84,358.337 3588.84,359.648C3588.84,360.631 3588.19,361.122 3586.88,361.122C3586.06,361.122 3585.2,361.163 3584.3,361.245C3583.4,361.327 3582.21,361.532 3580.74,361.859C3577.46,362.514 3575.21,363.948 3573.98,366.159C3572.75,368.37 3571.97,371.605 3571.64,375.864C3571.48,377.83 3571.36,379.918 3571.28,382.13C3571.19,384.341 3571.15,387.29 3571.15,390.975Z" style="fill-rule:nonzero;"/>
            <path d="M3743.15,392.327L3746.34,510.019C3746.5,515.097 3746.79,519.315 3747.2,522.673C3747.61,526.031 3748.18,528.815 3748.92,531.027C3749.66,533.238 3750.6,534.917 3751.75,536.063C3752.89,537.21 3754.28,538.029 3755.92,538.521C3758.22,539.176 3760.55,539.585 3762.93,539.749C3765.3,539.913 3767.06,539.995 3768.21,539.995C3769.52,539.995 3770.17,540.486 3770.17,541.469C3770.17,542.779 3768.7,543.435 3765.75,543.435C3758.71,543.435 3752.89,543.312 3748.31,543.066C3743.72,542.82 3740.85,542.697 3739.71,542.697C3738.56,542.697 3735.73,542.82 3731.23,543.066C3726.72,543.312 3721.69,543.435 3716.12,543.435C3713.5,543.435 3712.19,542.779 3712.19,541.469C3712.19,540.486 3712.84,539.995 3714.15,539.995C3715.14,539.995 3716.61,539.913 3718.58,539.749C3720.54,539.585 3722.43,539.176 3724.23,538.521C3727.34,537.701 3729.35,535.081 3730.25,530.658C3731.15,526.235 3731.6,518.455 3731.6,507.316L3731.84,366.528C3731.84,361.777 3732.05,358.542 3732.46,356.822C3732.87,355.102 3733.56,354.242 3734.55,354.242C3735.53,354.242 3736.88,355.225 3738.6,357.191C3740.32,359.156 3741.84,360.794 3743.15,362.105C3744.13,363.088 3746.95,366.159 3751.62,371.319C3756.29,376.479 3762.23,382.908 3769.44,390.607C3776.64,398.305 3784.71,406.987 3793.64,416.651C3802.57,426.316 3811.78,436.226 3821.28,446.381C3827.34,452.934 3833.44,459.568 3839.59,466.283C3845.73,472.999 3851.5,479.306 3856.91,485.203C3862.31,491.1 3867.06,496.3 3871.16,500.805C3875.25,505.309 3878.28,508.545 3880.25,510.51L3877.55,385.693C3877.38,377.666 3876.69,372.015 3875.46,368.739C3874.23,365.463 3871.73,363.333 3867.96,362.351C3865.67,361.859 3863.34,361.532 3860.96,361.368C3858.59,361.204 3856.91,361.122 3855.92,361.122C3854.61,361.122 3853.96,360.549 3853.96,359.402C3853.96,358.256 3855.6,357.682 3858.87,357.682C3861.66,357.682 3864.4,357.723 3867.1,357.805C3869.81,357.887 3872.35,357.969 3874.72,358.051C3877.1,358.133 3879.14,358.215 3880.86,358.297C3882.58,358.378 3883.77,358.419 3884.43,358.419C3885.74,358.419 3888.28,358.297 3892.04,358.051C3895.81,357.805 3900.23,357.682 3905.31,357.682C3908.26,357.682 3909.73,358.256 3909.73,359.402C3909.73,360.549 3908.83,361.122 3907.03,361.122C3906.38,361.122 3905.6,361.163 3904.7,361.245C3903.8,361.327 3902.61,361.532 3901.13,361.859C3897.04,362.678 3894.5,364.685 3893.52,367.879C3892.53,371.073 3892.04,376.356 3892.04,383.727L3891.55,527.71C3891.55,531.805 3891.51,534.999 3891.43,537.292C3891.35,539.585 3891.22,541.305 3891.06,542.452C3890.9,543.598 3890.69,544.336 3890.45,544.663C3890.2,544.991 3889.83,545.155 3889.34,545.155C3888.85,545.155 3888.23,544.95 3887.5,544.54C3886.76,544.131 3885.74,543.353 3884.43,542.206C3883.12,541.059 3881.44,539.462 3879.39,537.415L3863.91,521.935C3859.57,517.595 3854.29,512.189 3848.06,505.719C3841.84,499.249 3835.12,492.246 3827.91,484.711C3820.71,477.176 3813.83,469.887 3807.28,462.844C3800.07,455.145 3793.07,447.569 3786.27,440.116C3779.47,432.663 3773.2,425.742 3767.47,419.354C3761.74,412.966 3756.74,407.437 3752.48,402.769C3748.22,398.101 3745.11,394.62 3743.15,392.327Z" style="fill-rule:nonzero;"/>
            <path d="M4053.47,472.18L4053.47,390.975C4053.47,387.29 4053.43,384.341 4053.35,382.13C4053.27,379.918 4053.14,377.83 4052.98,375.864C4052.65,371.605 4051.83,368.411 4050.52,366.282C4049.21,364.152 4046.51,362.678 4042.41,361.859C4041.43,361.532 4040.08,361.327 4038.36,361.245C4036.64,361.163 4035.21,361.122 4034.06,361.122C4032.75,361.122 4032.09,360.631 4032.09,359.648C4032.09,358.337 4033.41,357.682 4036.03,357.682L4044.87,357.682C4047.98,357.682 4050.93,357.764 4053.72,357.928L4063.79,358.419L4090.45,358.419C4097.08,358.419 4103.31,358.378 4109.12,358.297C4114.94,358.215 4118.58,358.174 4120.06,358.174C4124.81,357.846 4128.33,357.437 4130.62,356.945C4131.28,356.781 4131.85,356.536 4132.34,356.208C4132.83,355.88 4133.41,355.717 4134.06,355.717C4134.72,355.717 4135.04,356.454 4135.04,357.928C4135.04,358.747 4134.8,360.016 4134.31,361.736C4133.82,363.456 4133.41,366.036 4133.08,369.476C4133.08,370.131 4133.04,371.196 4132.96,372.67C4132.87,374.144 4132.75,375.741 4132.59,377.461C4132.42,379.181 4132.3,380.819 4132.22,382.376C4132.14,383.932 4132.01,385.037 4131.85,385.693C4131.69,386.348 4131.48,386.962 4131.24,387.535C4130.99,388.109 4130.62,388.395 4130.13,388.395C4128.82,388.395 4128.16,387.331 4128.16,385.201C4128.16,384.382 4128.08,383.072 4127.92,381.27C4127.76,379.468 4127.35,377.83 4126.69,376.356C4125.87,374.39 4124.4,372.711 4122.27,371.319C4120.14,369.926 4115.8,368.821 4109.24,368.002C4108.26,367.838 4106.05,367.715 4102.61,367.633C4099.17,367.551 4095.57,367.469 4091.8,367.388C4088.03,367.306 4084.55,367.265 4081.36,367.265L4075.58,367.265C4074.6,367.265 4074.11,368.084 4074.11,369.722L4074.11,437.536C4074.11,439.174 4074.6,439.993 4075.58,439.993L4094.14,439.993C4098.48,439.993 4102.61,439.952 4106.54,439.87C4110.47,439.788 4113.18,439.666 4114.65,439.502C4117.6,439.174 4119.97,438.847 4121.78,438.519C4123.58,438.191 4125.05,437.372 4126.2,436.062C4128,433.932 4129.23,432.868 4129.88,432.868C4130.7,432.868 4131.11,433.523 4131.11,434.833C4131.11,435.652 4130.87,437.127 4130.38,439.256C4129.88,441.385 4129.48,444.498 4129.15,448.593C4128.98,449.903 4128.86,451.336 4128.78,452.893C4128.7,454.449 4128.61,456.005 4128.53,457.561C4128.45,459.117 4128.37,460.509 4128.29,461.738C4128.2,462.966 4128.16,463.826 4128.16,464.318C4128.16,465.301 4128.08,466.324 4127.92,467.389C4127.76,468.454 4127.26,468.986 4126.44,468.986C4125.3,468.986 4124.73,468.249 4124.73,466.775C4124.73,465.464 4124.68,464.195 4124.6,462.966C4124.52,461.738 4124.23,460.305 4123.74,458.667C4123.25,456.865 4122.19,455.104 4120.55,453.384C4118.91,451.664 4115.72,450.558 4110.97,450.067C4109.33,449.903 4106.75,449.739 4103.23,449.576C4099.7,449.412 4096.1,449.289 4092.41,449.207C4088.73,449.125 4085.29,449.043 4082.1,448.961C4078.9,448.879 4076.81,448.838 4075.83,448.838C4074.68,448.838 4074.11,449.412 4074.11,450.558L4074.11,514.196C4074.27,518.455 4074.72,521.895 4075.46,524.515C4076.2,527.136 4077.59,529.184 4079.64,530.658C4081.69,532.132 4084.51,533.115 4088.12,533.606C4091.72,534.098 4096.55,534.344 4102.61,534.344C4105.89,534.344 4109.82,534.221 4114.4,533.975C4118.99,533.729 4122.92,532.951 4126.2,531.641C4129.48,530.33 4131.93,528.324 4133.57,525.621C4135.21,522.918 4136.44,519.028 4137.26,513.95C4137.75,511.493 4138.48,510.265 4139.47,510.265C4140.29,510.265 4140.74,510.674 4140.82,511.493C4140.9,512.312 4140.94,513.131 4140.94,513.95C4140.94,514.441 4140.82,515.711 4140.57,517.759C4140.33,519.806 4140.04,522.099 4139.71,524.638C4139.39,527.177 4139.06,529.675 4138.73,532.132C4138.4,534.589 4138.07,536.473 4137.75,537.783C4137.26,539.421 4136.76,540.65 4136.27,541.469C4135.78,542.288 4135.04,542.902 4134.06,543.312C4133.08,543.721 4131.85,543.967 4130.38,544.049C4128.9,544.131 4126.94,544.172 4124.48,544.172C4115.14,544.172 4107.07,544.09 4100.28,543.926C4093.48,543.762 4087.7,543.598 4082.95,543.435C4078.2,543.107 4074.27,542.902 4071.16,542.82C4068.05,542.738 4065.59,542.697 4063.79,542.697L4060.6,542.697C4058.79,542.697 4056.58,542.779 4053.96,542.943C4051.51,542.943 4048.97,543.025 4046.35,543.189C4043.72,543.353 4041.51,543.435 4039.71,543.435C4037.09,543.435 4035.78,542.779 4035.78,541.469C4035.78,540.486 4036.43,539.995 4037.74,539.995C4038.89,539.995 4040.12,539.913 4041.43,539.749C4042.74,539.585 4043.97,539.34 4045.12,539.012C4047.57,538.521 4049.25,537.046 4050.15,534.589C4051.05,532.132 4051.75,529.102 4052.24,525.498C4052.9,520.256 4053.27,513.008 4053.35,503.753C4053.43,494.499 4053.47,483.974 4053.47,472.18Z" style="fill-rule:nonzero;"/>
        </g>
        <g transform="matrix(0.211157,0,0,0.211157,16.6831,724.815)">
            <path d="M626.389,664.812L675.284,804.372L676.267,804.372C677.413,800.605 678.929,795.609 680.812,789.384C682.696,783.16 684.785,776.28 687.078,768.745C689.371,761.21 691.828,753.307 694.449,745.035C697.07,736.763 699.568,728.614 701.943,720.587C704.318,712.561 706.57,704.944 708.7,697.737C710.829,690.529 712.631,684.305 714.105,679.063C715.416,674.477 716.194,671.119 716.439,668.989C716.685,666.86 716.808,664.976 716.808,663.338C716.808,661.045 715.907,659.243 714.105,657.933C712.303,656.622 708.536,655.967 702.803,655.967C701.329,655.967 700.592,655.394 700.592,654.247C700.592,653.101 701.984,652.527 704.769,652.527C710.993,652.527 716.439,652.65 721.108,652.896C725.776,653.141 728.684,653.264 729.83,653.264C730.322,653.264 731.264,653.223 732.656,653.141C734.048,653.06 735.686,652.978 737.57,652.896C739.454,652.814 741.46,652.732 743.59,652.65C745.719,652.568 747.767,652.527 749.732,652.527C752.026,652.527 753.172,653.019 753.172,654.001C753.172,655.312 752.435,655.967 750.961,655.967C750.469,655.967 749.282,656.049 747.398,656.213C745.514,656.377 743.917,656.704 742.607,657.196C738.839,658.506 735.809,661.536 733.516,666.287C731.223,671.037 728.929,676.852 726.636,683.732C724.834,688.973 722.705,695.321 720.248,702.774C717.791,710.227 715.129,718.294 712.262,726.976C709.396,735.657 706.488,744.543 703.54,753.634C700.592,762.726 697.725,771.448 694.94,779.802C692.156,788.156 689.617,795.896 687.324,803.021C685.03,810.146 683.065,816.002 681.427,820.589C679.789,825.175 678.478,828.861 677.495,831.646C676.513,834.43 675.653,836.56 674.915,838.034C674.178,839.508 673.523,840.491 672.95,840.982C672.377,841.474 671.762,841.719 671.107,841.719C669.797,841.719 668.691,840.778 667.79,838.894C666.889,837.01 665.538,833.693 663.736,828.943L615.578,692.086L615.086,692.086C613.612,696.017 611.524,701.586 608.821,708.793C606.118,716.001 603.129,724.027 599.853,732.872C596.577,741.718 593.096,750.973 589.41,760.637C585.725,770.301 582.244,779.556 578.968,788.402C575.692,797.247 572.703,805.232 570,812.358C567.297,819.483 565.209,824.93 563.734,828.697C561.769,833.939 560.294,837.42 559.312,839.14C558.329,840.859 557.1,841.719 555.626,841.719C554.971,841.719 554.398,841.474 553.906,840.982C553.415,840.491 552.841,839.59 552.186,838.28C551.531,836.969 550.794,835.044 549.975,832.506C549.156,829.967 548.173,826.568 547.026,822.309L503.291,676.606C501.325,670.054 499.36,665.55 497.394,663.093C495.429,660.635 492.89,658.752 489.777,657.441C488.139,656.786 486.092,656.377 483.635,656.213C481.178,656.049 479.54,655.967 478.721,655.967C477.246,655.967 476.509,655.394 476.509,654.247C476.509,653.101 477.82,652.527 480.441,652.527C483.553,652.527 486.706,652.568 489.9,652.65C493.094,652.732 496.043,652.814 498.746,652.896C501.448,652.978 503.742,653.06 505.625,653.141C507.509,653.223 508.778,653.264 509.434,653.264C510.58,653.264 513.529,653.141 518.279,652.896C523.029,652.65 528.517,652.527 534.741,652.527C536.543,652.527 537.731,652.691 538.304,653.019C538.877,653.346 539.164,653.756 539.164,654.247C539.164,655.394 538.345,655.967 536.707,655.967C535.724,655.967 534.25,656.008 532.284,656.09C530.319,656.172 528.599,656.622 527.124,657.441C526.305,657.769 525.568,658.424 524.913,659.407C524.258,660.39 523.93,661.7 523.93,663.338C523.93,664.976 524.381,667.802 525.282,671.815C526.183,675.828 527.288,680.538 528.599,685.943C529.254,688.564 530.4,693.027 532.038,699.334C533.677,705.64 535.642,712.848 537.935,720.956C540.229,729.064 542.604,737.582 545.061,746.509C547.518,755.436 549.893,763.872 552.186,771.817C554.479,779.761 556.445,786.723 558.083,792.701C559.721,798.68 560.868,802.734 561.523,804.864L562.014,804.864L614.104,664.567C615.906,659.489 617.175,656.336 617.912,655.107C618.649,653.879 619.427,653.264 620.246,653.264C621.065,653.264 621.925,654.124 622.826,655.844C623.727,657.564 624.915,660.554 626.389,664.812Z" style="fill-rule:nonzero;"/>
            <path d="M893.469,685.82L893.469,767.025C893.469,778.819 893.51,789.343 893.592,798.598C893.674,807.853 894.043,815.101 894.698,820.343C895.025,823.947 895.763,826.977 896.909,829.434C898.056,831.891 900.513,833.365 904.28,833.857C906.082,834.185 908.089,834.43 910.3,834.594C912.511,834.758 914.19,834.84 915.337,834.84C916.647,834.84 917.303,835.331 917.303,836.314C917.303,837.624 915.992,838.28 913.371,838.28C909.931,838.28 906.492,838.239 903.052,838.157C899.612,838.075 896.459,837.993 893.592,837.911C890.726,837.829 888.35,837.747 886.467,837.665C884.583,837.583 883.477,837.542 883.15,837.542C882.822,837.542 881.716,837.583 879.833,837.665C877.949,837.747 875.779,837.829 873.322,837.911C870.865,837.993 868.326,838.075 865.705,838.157C863.084,838.239 860.873,838.28 859.071,838.28C856.45,838.28 855.139,837.624 855.139,836.314C855.139,835.331 855.795,834.84 857.105,834.84C858.252,834.84 859.48,834.758 860.791,834.594C862.101,834.43 863.33,834.185 864.476,833.857C866.933,833.365 868.612,831.891 869.513,829.434C870.414,826.977 871.11,823.947 871.602,820.343C872.257,815.101 872.625,807.853 872.707,798.598C872.789,789.343 872.83,778.819 872.83,767.025L872.83,685.82C872.83,682.135 872.789,679.186 872.707,676.975C872.625,674.763 872.503,672.675 872.339,670.709C871.847,662.683 869.063,658.097 863.985,656.95C862.674,656.622 861.282,656.377 859.808,656.213C858.334,656.049 857.187,655.967 856.368,655.967C855.058,655.967 854.402,655.476 854.402,654.493C854.402,653.182 855.713,652.527 858.334,652.527C860.299,652.527 862.674,652.568 865.459,652.65C868.244,652.732 870.865,652.814 873.322,652.896C875.779,652.978 877.949,653.06 879.833,653.141C881.716,653.223 882.822,653.264 883.15,653.264C883.477,653.264 884.583,653.223 886.467,653.141C888.35,653.06 890.521,652.978 892.978,652.896C895.435,652.814 897.974,652.732 900.595,652.65C903.216,652.568 905.427,652.527 907.229,652.527C909.85,652.527 911.16,653.182 911.16,654.493C911.16,655.476 910.505,655.967 909.194,655.967C908.375,655.967 907.515,656.008 906.614,656.09C905.714,656.172 904.526,656.377 903.052,656.704C899.776,657.359 897.523,658.793 896.295,661.004C895.066,663.215 894.288,666.45 893.961,670.709C893.797,672.675 893.674,674.763 893.592,676.975C893.51,679.186 893.469,682.135 893.469,685.82Z" style="fill-rule:nonzero;"/>
            <path d="M1063.99,687.172L1067.18,804.864C1067.35,809.942 1067.63,814.16 1068.04,817.518C1068.45,820.876 1069.03,823.66 1069.76,825.872C1070.5,828.083 1071.44,829.762 1072.59,830.908C1073.73,832.055 1075.13,832.874 1076.77,833.365C1079.06,834.021 1081.39,834.43 1083.77,834.594C1086.14,834.758 1087.9,834.84 1089.05,834.84C1090.36,834.84 1091.02,835.331 1091.02,836.314C1091.02,837.624 1089.54,838.28 1086.59,838.28C1079.55,838.28 1073.73,838.157 1069.15,837.911C1064.56,837.665 1061.69,837.542 1060.55,837.542C1059.4,837.542 1056.58,837.665 1052.07,837.911C1047.57,838.157 1042.53,838.28 1036.96,838.28C1034.34,838.28 1033.03,837.624 1033.03,836.314C1033.03,835.331 1033.68,834.84 1035,834.84C1035.98,834.84 1037.45,834.758 1039.42,834.594C1041.38,834.43 1043.27,834.021 1045.07,833.365C1048.18,832.546 1050.19,829.926 1051.09,825.503C1051.99,821.08 1052.44,813.3 1052.44,802.161L1052.69,661.373C1052.69,656.622 1052.89,653.387 1053.3,651.667C1053.71,649.947 1054.41,649.087 1055.39,649.087C1056.37,649.087 1057.72,650.07 1059.44,652.036C1061.16,654.001 1062.68,655.639 1063.99,656.95C1064.97,657.933 1067.8,661.004 1072.46,666.164C1077.13,671.324 1083.07,677.753 1090.28,685.452C1097.49,693.15 1105.55,701.832 1114.48,711.496C1123.41,721.161 1132.62,731.071 1142.12,741.226C1148.18,747.779 1154.28,754.413 1160.43,761.128C1166.57,767.844 1172.34,774.151 1177.75,780.048C1183.15,785.945 1187.9,791.145 1192,795.65C1196.1,800.154 1199.12,803.39 1201.09,805.355L1198.39,680.538C1198.22,672.511 1197.53,666.86 1196.3,663.584C1195.07,660.308 1192.57,658.178 1188.81,657.196C1186.51,656.704 1184.18,656.377 1181.8,656.213C1179.43,656.049 1177.75,655.967 1176.77,655.967C1175.46,655.967 1174.8,655.394 1174.8,654.247C1174.8,653.101 1176.44,652.527 1179.71,652.527C1182.5,652.527 1185.24,652.568 1187.95,652.65C1190.65,652.732 1193.19,652.814 1195.56,652.896C1197.94,652.978 1199.99,653.06 1201.7,653.141C1203.42,653.223 1204.61,653.264 1205.27,653.264C1206.58,653.264 1209.12,653.141 1212.88,652.896C1216.65,652.65 1221.08,652.527 1226.15,652.527C1229.1,652.527 1230.58,653.101 1230.58,654.247C1230.58,655.394 1229.67,655.967 1227.87,655.967C1227.22,655.967 1226.44,656.008 1225.54,656.09C1224.64,656.172 1223.45,656.377 1221.98,656.704C1217.88,657.523 1215.34,659.53 1214.36,662.724C1213.38,665.918 1212.88,671.201 1212.88,678.572L1212.39,822.555C1212.39,826.65 1212.35,829.844 1212.27,832.137C1212.19,834.43 1212.07,836.15 1211.9,837.297C1211.74,838.443 1211.53,839.18 1211.29,839.508C1211.04,839.836 1210.67,840 1210.18,840C1209.69,840 1209.08,839.795 1208.34,839.385C1207.6,838.976 1206.58,838.198 1205.27,837.051C1203.96,835.904 1202.28,834.307 1200.23,832.26L1184.75,816.78C1180.41,812.44 1175.13,807.034 1168.9,800.564C1162.68,794.094 1155.96,787.091 1148.76,779.556C1141.55,772.021 1134.67,764.732 1128.12,757.689C1120.91,749.99 1113.91,742.414 1107.11,734.961C1100.31,727.508 1094.05,720.587 1088.31,714.199C1082.58,707.811 1077.58,702.282 1073.33,697.614C1069.07,692.946 1065.95,689.465 1063.99,687.172Z" style="fill-rule:nonzero;"/>
            <path d="M1372.84,767.025L1372.84,685.82C1372.84,682.135 1372.8,679.186 1372.71,676.975C1372.63,674.763 1372.51,672.675 1372.35,670.709C1372.02,666.45 1371.2,663.256 1369.89,661.127C1368.58,658.997 1365.88,657.523 1361.78,656.704C1360.8,656.377 1359.45,656.172 1357.73,656.09C1356.01,656.008 1354.57,655.967 1353.43,655.967C1352.12,655.967 1351.46,655.476 1351.46,654.493C1351.46,653.182 1352.77,652.527 1355.39,652.527L1364.24,652.527C1367.35,652.527 1370.3,652.609 1373.08,652.773L1383.16,653.264L1409.82,653.264C1416.45,653.264 1422.67,653.223 1428.49,653.141C1434.31,653.06 1437.95,653.019 1439.42,653.019C1444.17,652.691 1447.7,652.282 1449.99,651.79C1450.64,651.626 1451.22,651.381 1451.71,651.053C1452.2,650.725 1452.77,650.562 1453.43,650.562C1454.08,650.562 1454.41,651.299 1454.41,652.773C1454.41,653.592 1454.17,654.861 1453.67,656.581C1453.18,658.301 1452.77,660.881 1452.45,664.321C1452.45,664.976 1452.4,666.041 1452.32,667.515C1452.24,668.989 1452.12,670.586 1451.95,672.306C1451.79,674.026 1451.67,675.664 1451.59,677.22C1451.5,678.777 1451.38,679.882 1451.22,680.538C1451.05,681.193 1450.85,681.807 1450.6,682.38C1450.36,682.954 1449.99,683.24 1449.5,683.24C1448.19,683.24 1447.53,682.176 1447.53,680.046C1447.53,679.227 1447.45,677.917 1447.29,676.115C1447.12,674.313 1446.71,672.675 1446.06,671.201C1445.24,669.235 1443.77,667.556 1441.63,666.164C1439.51,664.771 1435.16,663.666 1428.61,662.847C1427.63,662.683 1425.42,662.56 1421.98,662.478C1418.54,662.396 1414.93,662.314 1411.17,662.233C1407.4,662.151 1403.92,662.11 1400.73,662.11L1394.95,662.11C1393.97,662.11 1393.48,662.929 1393.48,664.567L1393.48,732.381C1393.48,734.019 1393.97,734.838 1394.95,734.838L1413.5,734.838C1417.84,734.838 1421.98,734.797 1425.91,734.715C1429.84,734.633 1432.54,734.511 1434.02,734.347C1436.97,734.019 1439.34,733.692 1441.14,733.364C1442.95,733.036 1444.42,732.217 1445.57,730.907C1447.37,728.777 1448.6,727.713 1449.25,727.713C1450.07,727.713 1450.48,728.368 1450.48,729.678C1450.48,730.497 1450.24,731.972 1449.74,734.101C1449.25,736.23 1448.84,739.343 1448.52,743.438C1448.35,744.748 1448.23,746.181 1448.15,747.738C1448.07,749.294 1447.98,750.85 1447.9,752.406C1447.82,753.962 1447.74,755.354 1447.65,756.583C1447.57,757.811 1447.53,758.671 1447.53,759.163C1447.53,760.146 1447.45,761.169 1447.29,762.234C1447.12,763.299 1446.63,763.831 1445.81,763.831C1444.67,763.831 1444.09,763.094 1444.09,761.62C1444.09,760.309 1444.05,759.04 1443.97,757.811C1443.89,756.583 1443.6,755.15 1443.11,753.512C1442.62,751.71 1441.55,749.949 1439.91,748.229C1438.28,746.509 1435.08,745.403 1430.33,744.912C1428.69,744.748 1426.12,744.584 1422.59,744.421C1419.07,744.257 1415.47,744.134 1411.78,744.052C1408.1,743.97 1404.66,743.888 1401.46,743.806C1398.27,743.724 1396.18,743.683 1395.2,743.683C1394.05,743.683 1393.48,744.257 1393.48,745.403L1393.48,809.041C1393.64,813.3 1394.09,816.74 1394.83,819.36C1395.57,821.981 1396.96,824.029 1399.01,825.503C1401.05,826.977 1403.88,827.96 1407.48,828.451C1411.09,828.943 1415.92,829.189 1421.98,829.189C1425.26,829.189 1429.19,829.066 1433.77,828.82C1438.36,828.574 1442.29,827.796 1445.57,826.486C1448.84,825.175 1451.3,823.169 1452.94,820.466C1454.58,817.763 1455.8,813.873 1456.62,808.795C1457.12,806.338 1457.85,805.11 1458.84,805.11C1459.65,805.11 1460.1,805.519 1460.19,806.338C1460.27,807.157 1460.31,807.976 1460.31,808.795C1460.31,809.286 1460.19,810.556 1459.94,812.603C1459.69,814.651 1459.41,816.944 1459.08,819.483C1458.75,822.022 1458.42,824.52 1458.1,826.977C1457.77,829.434 1457.44,831.318 1457.12,832.628C1456.62,834.266 1456.13,835.495 1455.64,836.314C1455.15,837.133 1454.41,837.747 1453.43,838.157C1452.45,838.566 1451.22,838.812 1449.74,838.894C1448.27,838.976 1446.3,839.017 1443.85,839.017C1434.51,839.017 1426.44,838.935 1419.64,838.771C1412.85,838.607 1407.07,838.443 1402.32,838.28C1397.57,837.952 1393.64,837.747 1390.53,837.665C1387.42,837.583 1384.96,837.542 1383.16,837.542L1379.96,837.542C1378.16,837.542 1375.95,837.624 1373.33,837.788C1370.87,837.788 1368.33,837.87 1365.71,838.034C1363.09,838.198 1360.88,838.28 1359.08,838.28C1356.46,838.28 1355.15,837.624 1355.15,836.314C1355.15,835.331 1355.8,834.84 1357.11,834.84C1358.26,834.84 1359.49,834.758 1360.8,834.594C1362.11,834.43 1363.34,834.185 1364.48,833.857C1366.94,833.365 1368.62,831.891 1369.52,829.434C1370.42,826.977 1371.12,823.947 1371.61,820.343C1372.27,815.101 1372.63,807.853 1372.71,798.598C1372.8,789.343 1372.84,778.819 1372.84,767.025Z" style="fill-rule:nonzero;"/>
            <path d="M1844.59,841.719C1826.08,841.719 1810.4,839.508 1797.54,835.085C1784.68,830.663 1773.34,824.029 1763.51,815.183C1757.61,809.778 1752.74,804.045 1748.89,797.984C1745.04,791.923 1742.01,785.781 1739.8,779.556C1737.59,773.332 1736.03,767.066 1735.13,760.76C1734.23,754.454 1733.78,748.352 1733.78,742.455C1733.78,738.36 1734.19,733.569 1735.01,728.081C1735.83,722.594 1737.26,716.861 1739.31,710.882C1741.35,704.903 1744.18,698.842 1747.78,692.7C1751.39,686.557 1755.89,680.783 1761.3,675.378C1764.9,671.774 1769.08,668.334 1773.83,665.058C1778.58,661.782 1783.98,658.997 1790.04,656.704C1796.1,654.411 1802.94,652.568 1810.56,651.176C1818.18,649.784 1826.74,649.087 1836.24,649.087C1841.15,649.087 1846.8,649.292 1853.19,649.702C1859.58,650.111 1865.8,650.889 1871.86,652.036C1876.61,652.855 1881,653.592 1885.01,654.247C1889.02,654.902 1892.99,655.394 1896.92,655.721C1898.24,655.885 1899.1,656.172 1899.51,656.581C1899.91,656.991 1900.12,657.605 1900.12,658.424C1900.12,659.407 1900,660.84 1899.75,662.724C1899.51,664.608 1899.22,667.761 1898.89,672.184C1898.73,674.149 1898.6,676.401 1898.52,678.94C1898.44,681.479 1898.4,683.977 1898.4,686.434C1898.4,688.891 1898.36,691.103 1898.28,693.068C1898.19,695.034 1898.15,696.508 1898.15,697.491C1897.99,700.931 1897.25,702.651 1895.94,702.651C1894.63,702.651 1893.98,700.931 1893.98,697.491C1893.98,692.741 1893.08,688.072 1891.27,683.486C1889.47,678.899 1886.93,675.214 1883.66,672.429C1879.4,668.662 1872.85,665.386 1864,662.601C1855.15,659.816 1845.33,658.424 1834.52,658.424C1826.33,658.424 1819.2,658.956 1813.14,660.021C1807.08,661.086 1801.8,662.478 1797.29,664.198C1792.79,665.918 1788.98,667.843 1785.87,669.972C1782.76,672.102 1780.13,674.231 1778,676.361C1769,685.042 1763.06,694.747 1760.19,705.476C1757.32,716.206 1755.89,727.877 1755.89,740.489C1755.89,752.283 1758.06,763.586 1762.4,774.396C1766.74,785.207 1772.8,794.749 1780.58,803.021C1788.37,811.293 1797.7,817.927 1808.59,822.923C1819.49,827.919 1831.49,830.417 1844.59,830.417C1853.93,830.417 1862.16,829.639 1869.28,828.083C1876.41,826.527 1882.43,823.21 1887.34,818.132C1889.96,815.347 1892.05,811.784 1893.61,807.444C1895.16,803.103 1896.11,799.786 1896.43,797.493C1896.92,795.036 1897.74,793.807 1898.89,793.807C1899.55,793.807 1900,794.176 1900.24,794.913C1900.49,795.65 1900.61,796.51 1900.61,797.493C1900.61,797.984 1900.45,799.499 1900.12,802.038C1899.79,804.577 1899.38,807.485 1898.89,810.761C1898.4,814.037 1897.83,817.354 1897.17,820.712C1896.52,824.07 1895.86,826.813 1895.2,828.943C1894.39,831.236 1893.69,832.751 1893.12,833.488C1892.54,834.225 1891.11,835.085 1888.82,836.068C1886.36,837.051 1883.41,837.911 1879.97,838.648C1876.53,839.385 1872.85,839.959 1868.91,840.368C1864.98,840.778 1860.93,841.105 1856.75,841.351C1852.58,841.597 1848.52,841.719 1844.59,841.719Z" style="fill-rule:nonzero;"/>
            <path d="M2008.72,745.158C2008.72,738.606 2009.54,731.644 2011.18,724.273C2012.82,716.902 2015.35,709.653 2018.79,702.528C2022.23,695.403 2026.53,688.605 2031.69,682.135C2036.85,675.664 2043.04,669.972 2050.24,665.058C2057.45,660.144 2065.64,656.254 2074.82,653.387C2083.99,650.521 2094.23,649.087 2105.53,649.087C2119.29,649.087 2132.06,651.217 2143.86,655.476C2155.65,659.735 2165.85,665.836 2174.45,673.781C2183.05,681.725 2189.8,691.389 2194.72,702.774C2199.63,714.158 2202.09,726.976 2202.09,741.226C2202.09,754.986 2199.76,767.967 2195.09,780.171C2190.42,792.374 2183.83,803.021 2175.31,812.112C2166.79,821.203 2156.47,828.41 2144.35,833.734C2132.23,839.058 2118.8,841.719 2104.05,841.719C2087.18,841.719 2072.73,838.771 2060.69,832.874C2048.65,826.977 2038.78,819.36 2031.08,810.024C2023.38,800.687 2017.73,790.326 2014.13,778.942C2010.52,767.558 2008.72,756.296 2008.72,745.158ZM2032.06,738.278C2032.06,752.529 2034.07,765.469 2038.08,777.099C2042.1,788.729 2047.66,798.639 2054.79,806.829C2061.91,815.02 2070.23,821.326 2079.73,825.749C2089.23,830.171 2099.55,832.383 2110.69,832.383C2116.26,832.383 2122.89,831.359 2130.59,829.311C2138.29,827.264 2145.7,823.21 2152.83,817.149C2159.95,811.088 2166.01,802.53 2171.01,791.473C2176,780.416 2178.5,765.961 2178.5,748.106C2178.5,733.364 2176.41,720.342 2172.24,709.039C2168.06,697.737 2162.53,688.277 2155.65,680.66C2148.77,673.044 2140.83,667.269 2131.82,663.338C2122.81,659.407 2113.47,657.441 2103.81,657.441C2093.49,657.441 2083.95,659.12 2075.18,662.478C2066.42,665.836 2058.84,670.914 2052.46,677.712C2046.07,684.51 2041.07,692.946 2037.47,703.019C2033.86,713.093 2032.06,724.846 2032.06,738.278Z" style="fill-rule:nonzero;"/>
            <path d="M2236,837.542C2231.25,837.542 2227.85,836.068 2225.8,833.12C2223.75,830.171 2222.73,827.141 2222.73,824.029C2222.73,822.555 2222.97,821.039 2223.47,819.483C2223.96,817.927 2224.78,816.494 2225.92,815.183C2227.07,813.873 2228.46,812.767 2230.1,811.866C2231.74,810.965 2233.78,810.515 2236.24,810.515C2240.01,810.515 2243.2,811.662 2245.83,813.955C2248.45,816.248 2249.76,819.36 2249.76,823.292C2249.76,827.223 2248.53,830.581 2246.07,833.365C2243.61,836.15 2240.26,837.542 2236,837.542Z" style="fill-rule:nonzero;"/>
        </g>
    </g>
</svg>
