<svg xmlns="http://www.w3.org/2000/svg" width="1072.1987838043897" height="640" viewBox="25.471024647538712 228.01189274037898 1072.1987838043897 640" version="1.1">
	<path d="M 170.060 226.066 C 167.067 226.601, 163.255 227.835, 161.587 228.809 C 159.060 230.285, 158.172 231.908, 156.259 238.540 C 154.997 242.918, 153.029 251, 151.887 256.500 C 150.293 264.173, 149.918 268.827, 150.277 276.500 C 150.817 288.058, 152.762 293.517, 158.668 300.055 C 160.763 302.373, 165.201 305.991, 168.531 308.094 C 176.186 312.928, 179 317.576, 179 325.386 L 179 331 164.682 331 C 148.002 331, 141.808 332.392, 136.747 337.276 C 134.909 339.049, 127.577 349.950, 120.453 361.500 L 107.500 382.500 107.168 394.768 L 106.836 407.036 110.228 410.428 C 112.671 412.871, 114.864 413.999, 118.060 414.459 C 120.502 414.810, 190.225 414.963, 273 414.799 L 423.500 414.500 429 411.865 C 432.025 410.416, 437.614 406.430, 441.420 403.007 C 445.226 399.584, 450.359 395.918, 452.827 394.860 C 459.076 392.181, 471.109 390.673, 479.960 391.459 C 484.062 391.823, 493.512 392.987, 500.960 394.045 C 517.226 396.356, 528.891 396.518, 535.596 394.527 C 541.379 392.810, 546.577 387.961, 548.017 382.942 C 549.300 378.468, 549.269 365.507, 547.963 360.808 C 546.723 356.341, 539.809 349.920, 534.326 348.141 C 526.482 345.596, 516.317 345.656, 500 348.345 C 478.435 351.898, 468.281 352.470, 458.423 350.685 C 448.667 348.918, 441.336 345.572, 434.031 339.548 C 425.359 332.398, 422.514 331.719, 399.250 331.239 L 379 330.822 379 326.123 C 379 323.238, 379.869 319.701, 381.250 316.962 C 382.950 313.591, 385.278 311.328, 390.771 307.707 C 394.919 304.973, 399.527 300.892, 401.497 298.207 C 406.913 290.825, 408.503 285.080, 408.334 273.500 C 408.254 268, 407.465 260.179, 406.580 256.119 C 403.957 244.075, 400.143 231.816, 398.432 229.925 C 395.763 226.976, 387.401 225.499, 373.500 225.521 C 363.547 225.538, 359.255 225.972, 355.187 227.373 C 351.243 228.731, 349.609 229.886, 348.849 231.851 C 346.663 237.504, 342.049 256.907, 340.966 265 C 339.386 276.805, 340.401 284.533, 344.643 293.014 C 348.110 299.943, 352.997 304.965, 359.500 308.280 C 365.939 311.563, 370 318.598, 370 326.468 L 370 331 327 331 L 284 331 284 326.065 C 284 317.031, 286.381 313.473, 297.062 306.542 C 304.565 301.673, 309.231 295.452, 311.668 287.070 C 314.120 278.636, 313.033 261.660, 309.076 246.582 C 307.356 240.028, 305.393 233.507, 304.715 232.091 C 304.037 230.676, 302.234 228.920, 300.708 228.189 C 299.183 227.458, 293.904 226.351, 288.977 225.729 C 282.410 224.900, 277.390 224.890, 270.168 225.692 C 264.750 226.293, 258.914 227.510, 257.199 228.397 C 254.617 229.732, 253.738 231.167, 252.077 236.754 C 246.964 253.962, 245.633 261.416, 245.605 273 C 245.582 282.627, 245.945 285.423, 247.830 290.168 C 250.648 297.259, 255.651 302.883, 263.954 308.294 C 267.504 310.607, 271.216 313.891, 272.203 315.590 C 273.190 317.290, 274.287 321.452, 274.641 324.840 L 275.285 331 232.142 331 L 189 331 189 325.386 C 189 317.794, 191.692 313.238, 198.884 308.656 C 206.716 303.666, 211.417 298.547, 214.638 291.500 C 216.693 287.004, 217.488 283.457, 217.810 277.350 C 218.047 272.868, 217.715 266.118, 217.074 262.350 C 215.074 250.610, 209.734 231.734, 207.890 229.890 C 206.922 228.922, 204.413 227.639, 202.315 227.038 C 196.979 225.512, 176.594 224.897, 170.060 226.066 M 171.988 228.056 C 165.304 229.041, 161 230.586, 161 232 C 161 233.678, 165.838 235.075, 175.329 236.139 C 187.760 237.532, 207 235.018, 207 232 C 207 230.715, 201.824 228.967, 195.169 228.004 C 187.450 226.888, 179.800 226.905, 171.988 228.056 M 267 228.123 C 260.981 229.097, 256 230.835, 256 231.961 C 256 233.475, 261.428 235.032, 270.390 236.089 C 276.942 236.861, 282.205 236.882, 288.118 236.159 C 296.955 235.078, 302 233.634, 302 232.185 C 302 230.725, 297.163 229.016, 290.169 228.004 C 282.266 226.861, 274.559 226.901, 267 228.123 M 362.500 228.044 C 359.200 228.558, 355.255 229.491, 353.734 230.117 C 351.641 230.979, 351.227 231.569, 352.033 232.540 C 353.991 234.899, 363.308 236.379, 375.500 236.266 C 388.151 236.149, 396.500 234.453, 396.500 232 C 396.500 231.186, 394.593 230.035, 392 229.284 C 386.026 227.552, 369.986 226.878, 362.500 228.044 M 156.184 247.750 C 154.470 254.762, 152.773 263.279, 152.413 266.675 L 151.759 272.849 156.027 271.379 C 168.768 266.989, 199.214 266.983, 211.940 271.367 L 216.176 272.827 215.481 266.663 C 215.099 263.274, 213.357 254.875, 211.611 248 C 209.248 238.695, 208.061 235.562, 206.968 235.744 C 206.161 235.879, 201.900 236.700, 197.500 237.570 C 188.140 239.419, 172.368 238.925, 164.489 236.535 C 161.745 235.703, 159.455 235.017, 159.400 235.011 C 159.345 235.005, 157.897 240.738, 156.184 247.750 M 254.541 236.146 C 251.549 244.651, 246.340 270.673, 247.414 271.747 C 247.618 271.951, 250.421 271.410, 253.643 270.545 C 266.486 267.095, 298.441 267.651, 307.614 271.483 C 310.999 272.898, 311 272.897, 311 270.059 C 311 266.243, 308.311 252.228, 305.808 243 C 304.689 238.875, 303.691 235.404, 303.590 235.287 C 303.489 235.169, 301.178 235.804, 298.453 236.696 C 294.873 237.870, 289.620 238.331, 279.500 238.362 C 266.948 238.399, 262.456 237.835, 256.758 235.505 C 255.667 235.059, 254.839 235.298, 254.541 236.146 M 348.631 240.198 C 344.698 253.727, 341.519 272, 343.098 272 C 343.505 272, 346.687 271.223, 350.169 270.273 C 355.072 268.936, 360.561 268.547, 374.500 268.547 C 388.439 268.547, 393.928 268.936, 398.831 270.273 C 402.313 271.223, 405.350 272, 405.581 272 C 406.474 272, 405.933 264.799, 404.514 257.815 C 403.696 253.792, 402.052 246.991, 400.861 242.702 C 399.374 237.348, 398.292 235.058, 397.410 235.396 C 391.408 237.699, 385.907 238.419, 374.500 238.395 C 363.221 238.372, 357.320 237.595, 351.529 235.373 C 350.602 235.017, 349.700 236.518, 348.631 240.198 M 168 271.009 C 160.308 272.072, 153.149 273.949, 152.446 275.087 C 151.567 276.509, 155.539 277.920, 165.153 279.601 C 172.189 280.830, 177.961 281.098, 188.500 280.681 C 196.400 280.368, 205.096 279.428, 208.458 278.522 C 211.735 277.639, 214.630 276.703, 214.892 276.442 C 215.958 275.376, 212.846 273.699, 207.340 272.372 C 200.064 270.618, 176.685 269.808, 168 271.009 M 263.388 270.979 C 255.442 272.109, 249.241 273.801, 248.470 275.048 C 247.487 276.639, 253.932 278.783, 263.572 280.072 C 279.297 282.176, 306.502 279.898, 310.235 276.165 C 311.023 275.377, 310.516 274.766, 308.413 273.963 C 306.811 273.352, 303.475 272.439, 301 271.933 C 294.384 270.582, 270.450 269.975, 263.388 270.979 M 358.388 270.978 C 350.594 272.088, 344.245 273.795, 343.514 274.977 C 342.554 276.531, 346.807 278.120, 355.859 279.590 C 366.208 281.270, 380.958 281.403, 391.667 279.914 C 400.525 278.681, 406.840 276.440, 405.427 275.029 C 404.917 274.520, 401.800 273.393, 398.500 272.526 C 391.376 270.653, 367.220 269.721, 358.388 270.978 M 152 279.778 C 152 280.334, 152.898 283.696, 153.995 287.248 C 156.611 295.719, 162.350 302.304, 170.460 306.141 C 175.432 308.493, 177.826 308.998, 184 308.998 C 190.206 308.998, 192.535 308.502, 197.500 306.121 C 200.800 304.538, 204.938 301.726, 206.696 299.872 C 208.454 298.017, 210.990 294.025, 212.333 291 C 214.938 285.129, 216.419 278.993, 215.225 279.011 C 214.826 279.017, 212.250 279.730, 209.500 280.597 C 206.296 281.606, 198.934 282.362, 189 282.701 C 177.336 283.100, 171.396 282.844, 165 281.667 C 160.325 280.808, 155.488 279.803, 154.250 279.435 C 152.959 279.052, 152 279.198, 152 279.778 M 248.322 283.335 C 249.644 292.978, 255.834 301.262, 265.222 305.953 C 270.314 308.498, 272.500 309, 278.482 309 C 282.421 309, 287.746 308.284, 290.316 307.408 C 299.638 304.232, 308.722 293.111, 310.589 282.589 C 311.222 279.024, 311.115 278.745, 309.392 279.436 C 304.531 281.385, 291.316 282.930, 279.500 282.930 C 267.669 282.930, 254.470 281.385, 249.591 279.429 C 247.827 278.722, 247.731 279.019, 248.322 283.335 M 343.366 282.888 C 344.900 292.480, 351.548 301.656, 360.209 306.138 C 363.348 307.762, 366.808 308.475, 373.096 308.794 C 380.228 309.156, 382.482 308.880, 386.329 307.179 C 392.959 304.246, 397.443 300.542, 400.914 295.134 C 403.658 290.858, 406.954 280.620, 405.919 279.586 C 405.687 279.354, 403.023 279.836, 399.999 280.658 C 396.849 281.514, 387.878 282.382, 379 282.691 C 367.521 283.091, 361.295 282.837, 355 281.714 C 350.325 280.880, 345.643 279.853, 344.596 279.433 C 342.847 278.730, 342.747 279.013, 343.366 282.888 M 157 285.540 C 157 288.081, 160.612 294.305, 163.898 297.427 C 168.001 301.325, 169.208 299.859, 165.289 295.735 C 163.599 293.956, 161.258 290.587, 160.087 288.250 C 158.917 285.913, 157.743 284, 157.480 284 C 157.216 284, 157 284.693, 157 285.540 M 252 285.040 C 252 286.945, 256.185 294.463, 258.797 297.250 C 263.237 301.988, 264.453 300.321, 260.135 295.416 C 257.915 292.894, 255.592 289.294, 254.972 287.416 C 253.921 284.231, 252 282.696, 252 285.040 M 347.627 284.794 C 346.888 285.990, 350.326 293.068, 353.434 296.750 C 354.943 298.538, 356.859 300, 357.692 300 C 358.733 300, 358.191 298.842, 355.959 296.301 C 354.173 294.266, 351.855 290.666, 350.809 288.301 C 349.763 285.935, 348.729 284, 348.512 284 C 348.295 284, 347.897 284.357, 347.627 284.794 M 179.342 315.395 C 181.349 319.213, 181.500 320.933, 181.500 340 C 181.500 357.335, 181.240 360.974, 179.816 363.573 C 177.901 367.067, 175.236 369.570, 174.362 368.695 C 174.037 368.371, 174.766 366.844, 175.981 365.303 C 178.028 362.707, 178.058 362.473, 176.389 362.137 C 173.609 361.577, 164.830 363.817, 161.232 366.005 C 159.454 367.086, 158 368.620, 158 369.413 C 158 371.688, 162.814 374.890, 168.908 376.666 C 176.478 378.873, 191.635 378.803, 199.683 376.525 C 206.066 374.717, 210 372.018, 210 369.446 C 210 368.635, 208.546 367.086, 206.768 366.005 C 203.170 363.817, 194.391 361.577, 191.611 362.137 C 189.942 362.473, 189.972 362.707, 192.019 365.303 C 194.411 368.338, 194.039 370.107, 191.458 367.965 C 187.564 364.733, 186.674 360.839, 186.211 345 C 185.726 328.393, 186.936 316.833, 189.452 314.053 C 190.303 313.112, 191 312.134, 191 311.880 C 191 311.625, 187.891 311.388, 184.092 311.353 L 177.183 311.290 179.342 315.395 M 274.417 314.976 C 276.350 318.246, 276.500 320.015, 276.500 339.500 C 276.500 358.787, 276.331 360.821, 274.434 364.439 C 272.281 368.543, 270 370.224, 270 367.706 C 270 366.902, 270.675 365.685, 271.500 365 C 273.786 363.103, 273.301 362, 270.182 362 C 265.386 362, 257.497 364.842, 255.045 367.453 C 253.001 369.627, 252.883 370.155, 254.103 371.633 C 256.394 374.407, 263.372 376.969, 271.416 377.989 C 280.981 379.202, 293.858 377.724, 300 374.709 C 303.544 372.969, 304.500 371.969, 304.500 370 C 304.500 368.028, 303.532 367.019, 299.912 365.222 C 297.389 363.969, 292.919 362.659, 289.980 362.311 L 284.635 361.678 286.926 364.897 C 288.187 366.667, 288.904 368.427, 288.519 368.808 C 287.453 369.864, 283.082 363.890, 282.442 360.500 C 282.130 358.850, 282.016 348.424, 282.188 337.331 C 282.479 318.495, 282.643 316.968, 284.660 314.243 L 286.820 311.324 279.577 311.388 L 272.334 311.451 274.417 314.976 M 369.340 314.243 C 371.360 316.972, 371.521 318.496, 371.826 337.739 C 372.097 354.896, 371.880 359.024, 370.523 362.579 C 368.863 366.926, 366.441 369.774, 365.340 368.674 C 365.004 368.337, 365.465 366.939, 366.365 365.566 C 367.264 364.194, 368 362.830, 368 362.535 C 368 360.460, 354.098 363.892, 350.750 366.793 C 346.435 370.533, 350.826 374.971, 360.975 377.124 C 368.809 378.786, 383.733 378.510, 390.371 376.581 C 393.428 375.692, 397.183 373.849, 398.715 372.486 L 401.500 370.007 398.351 367.108 C 395.424 364.413, 388.150 362, 382.951 362 C 380.581 362, 380.504 362.847, 382.602 365.842 C 384.822 369.011, 383.311 370.047, 380.935 366.985 C 377.357 362.376, 376.827 358.223, 377.169 337.500 C 377.477 318.905, 377.652 317.288, 379.657 314.476 L 381.814 311.453 374.497 311.388 L 367.180 311.324 369.340 314.243 M 146.939 334.352 C 144.430 335.035, 141.055 336.546, 139.439 337.708 C 136.076 340.126, 110.253 381.487, 109.379 385.855 C 108.959 387.957, 109.452 389.414, 111.321 391.587 L 113.827 394.500 269.163 394.500 L 424.500 394.500 428.500 392.318 C 430.700 391.118, 434.737 388.264, 437.470 385.976 C 443.423 380.993, 447.569 378.789, 455.530 376.370 C 463.891 373.831, 482.284 374.011, 501.242 376.817 C 518.576 379.384, 527.727 379.567, 534.724 377.489 C 541.441 375.495, 546 370.491, 546 365.113 C 546 359.495, 542.556 355.027, 535.515 351.511 C 530.081 348.797, 528.652 348.528, 520.015 348.591 C 514.697 348.630, 504.766 349.698, 497.500 351.013 C 488.189 352.697, 480.669 353.376, 471 353.405 C 451.700 353.463, 445.951 351.479, 429.500 339.079 C 423.168 334.306, 416.034 333, 396.290 333 L 379 333 379 339.031 C 379 343.006, 379.426 345.180, 380.250 345.407 C 380.938 345.596, 384.628 346.232, 388.452 346.820 C 397.100 348.151, 405.703 352.435, 408.722 356.916 C 410.006 358.820, 411 361.811, 411 363.766 C 411 366.445, 410.146 368.084, 407.250 370.964 C 402.569 375.619, 394.738 378.599, 383.122 380.146 C 376.189 381.069, 372.276 381.062, 365.504 380.115 C 354.708 378.604, 347.410 375.937, 342.576 371.733 C 339.770 369.293, 338.731 367.518, 338.343 364.500 C 337.941 361.379, 338.347 359.735, 340.191 357.018 C 343.307 352.429, 351.824 348.162, 360.548 346.820 C 364.372 346.232, 368.063 345.596, 368.750 345.407 C 369.574 345.180, 370 343.006, 370 339.031 L 370 333 326.952 333 L 283.905 333 284.202 339.250 C 284.481 345.092, 284.663 345.516, 287 345.751 C 293.815 346.436, 301.061 348.504, 306.257 351.247 C 312.343 354.460, 316 358.954, 316 363.220 C 316 367.300, 311.860 372.251, 305.900 375.299 C 302.519 377.028, 296.676 378.758, 290.927 379.732 C 283.209 381.040, 279.778 381.136, 272 380.264 C 260.069 378.927, 251.633 375.820, 246.750 370.964 C 243.584 367.816, 243 366.570, 243 362.963 C 243 359.289, 243.553 358.164, 246.945 354.938 C 251.552 350.555, 260.026 347.107, 268.500 346.166 L 274.500 345.500 274.798 339.250 L 275.095 333 232.048 333 L 189 333 189 339.361 L 189 345.722 194.750 346.261 C 201.867 346.929, 211.016 350.301, 215.152 353.781 C 218.962 356.988, 220.998 361.558, 220.283 365.299 C 219.989 366.839, 218.366 369.480, 216.677 371.169 C 210.570 377.276, 199.190 380.449, 183.500 380.419 C 174.952 380.403, 170.857 379.893, 165.130 378.134 C 155.975 375.321, 150.639 371.866, 148.505 367.369 C 146.368 362.867, 147.232 359.120, 151.296 355.259 C 155.733 351.045, 161.469 348.369, 169.054 346.975 C 172.599 346.324, 176.505 345.607, 177.732 345.381 C 179.794 345.002, 179.934 344.532, 179.561 339.235 L 179.156 333.500 165.328 333.304 C 156.798 333.183, 149.753 333.585, 146.939 334.352 M 167.230 349.550 C 164.332 350.331, 160.507 351.702, 158.730 352.599 C 154.036 354.967, 149.998 359.063, 150.015 361.437 C 150.024 362.603, 150.350 363.044, 150.765 362.452 C 153.449 358.623, 163.621 354.357, 172.860 353.186 C 177.224 352.633, 178.435 352.064, 179.105 350.250 C 179.875 348.165, 179.662 348.005, 176.218 348.066 C 174.173 348.102, 170.129 348.770, 167.230 349.550 M 189.161 350.100 C 189.458 352.198, 190.191 352.584, 195.027 353.185 C 202.872 354.161, 209.898 356.701, 214.250 360.135 C 217.201 362.464, 218 362.743, 218 361.447 C 218 358.604, 211.745 353.411, 205.500 351.070 C 202.200 349.833, 197.097 348.569, 194.161 348.262 C 188.972 347.718, 188.831 347.769, 189.161 350.100 M 262.024 349.603 C 252.700 352.109, 245 357.669, 245 361.897 C 245 362.985, 245.563 362.833, 247.250 361.287 C 251.127 357.735, 257.627 355.053, 265.199 353.881 C 269.215 353.259, 273.063 352.596, 273.750 352.407 C 274.438 352.218, 275 351.149, 275 350.031 C 275 348.339, 274.374 348.011, 271.250 348.066 C 269.188 348.102, 265.036 348.794, 262.024 349.603 M 284 350.362 C 284 352.716, 284.381 353, 287.544 353 C 293.656 353, 304.057 356.174, 309.128 359.586 C 311.808 361.389, 314 362.392, 314 361.815 C 314 361.237, 312.313 359.087, 310.250 357.036 C 305.996 352.806, 297.670 349.331, 289.479 348.369 C 284.062 347.732, 284 347.755, 284 350.362 M 357.024 349.603 C 349.724 351.565, 343.352 355.419, 341.506 358.989 C 340.678 360.591, 340 362.188, 340 362.539 C 340 362.890, 341.343 362.048, 342.984 360.667 C 346.930 357.347, 355.465 354.229, 363.226 353.273 C 368.691 352.600, 369.541 352.210, 369.820 350.250 C 370.104 348.245, 369.724 348.007, 366.320 348.066 C 364.219 348.102, 360.036 348.794, 357.024 349.603 M 379.180 350.250 C 379.459 352.210, 380.309 352.600, 385.774 353.273 C 393.535 354.229, 402.070 357.347, 406.016 360.667 C 407.657 362.048, 409 362.890, 409 362.539 C 409 362.188, 408.322 360.591, 407.494 358.989 C 406.666 357.388, 404.079 354.959, 401.744 353.591 C 396.943 350.778, 387.243 348, 382.220 348 C 379.308 348, 378.903 348.300, 379.180 350.250 M 166.230 356.550 C 163.332 357.331, 159.732 358.613, 158.230 359.400 C 154.599 361.303, 151 364.769, 151 366.365 C 151 367.072, 152.091 368.676, 153.424 369.928 L 155.847 372.205 156.174 369.385 C 156.390 367.520, 157.621 365.811, 159.812 364.340 C 162.688 362.408, 165.746 361.516, 176.750 359.395 C 178.180 359.120, 179 358.240, 179 356.981 C 179 355.347, 178.343 355.012, 175.250 355.066 C 173.188 355.102, 169.129 355.770, 166.230 356.550 M 189 356.838 C 189 358.245, 189.759 359.108, 191.250 359.395 C 202.254 361.516, 205.312 362.408, 208.188 364.340 C 210.379 365.811, 211.610 367.520, 211.826 369.385 L 212.153 372.205 214.576 369.928 C 215.909 368.676, 217 367.139, 217 366.513 C 217 364.415, 211.551 360.164, 206.147 358.046 C 203.202 356.892, 198.140 355.670, 194.897 355.331 C 189.359 354.753, 189 354.844, 189 356.838 M 260.423 357.039 C 253.967 359.086, 248.373 362.397, 246.627 365.205 C 245.796 366.542, 246.083 367.459, 247.958 369.455 C 250.817 372.498, 251.998 372.708, 251.302 370.049 C 250.226 365.930, 256.741 362.483, 271.131 359.557 C 272.641 359.250, 273.985 358.166, 274.287 357.011 C 274.753 355.229, 274.340 355.006, 270.656 355.056 C 268.370 355.087, 263.765 355.980, 260.423 357.039 M 284 356.812 C 284 358.457, 284.808 359.045, 287.750 359.536 C 300.064 361.596, 307 365.220, 307 369.596 C 307 371.957, 307.088 371.988, 309.416 370.463 C 313.209 367.978, 313.343 366.123, 309.957 362.960 C 306.132 359.387, 297.577 356.134, 289.891 355.331 C 284.380 354.755, 284 354.850, 284 356.812 M 354.935 357.290 C 347.360 359.872, 343.518 362.164, 341.996 365.007 C 341.107 366.668, 341.399 367.485, 343.689 369.757 L 346.456 372.500 346.981 369.538 C 347.668 365.666, 352.485 362.447, 359.812 360.964 C 367.522 359.404, 370 358.323, 370 356.521 C 370 354.244, 362.789 354.612, 354.935 357.290 M 379 356.812 C 379 358.456, 379.811 359.047, 382.750 359.544 C 391.328 360.997, 398.123 363.396, 400.558 365.831 C 402.085 367.358, 402.937 369.131, 402.658 370.201 C 402.399 371.190, 402.517 372, 402.919 372 C 404.028 372, 408 367.524, 408 366.274 C 408 364.335, 402.192 360.216, 396.407 358.051 C 393.313 356.894, 388.131 355.669, 384.891 355.331 C 379.380 354.755, 379 354.850, 379 356.812 M 516.308 359.194 C 512.836 360.873, 512.544 363.211, 515.492 365.747 C 517.446 367.427, 519.368 368, 523.056 368 C 526.667 368, 528.539 367.461, 530 366 C 531.100 364.900, 532 363.583, 532 363.073 C 532 362.562, 530.814 361.212, 529.365 360.073 C 526.474 357.798, 520.087 357.369, 516.308 359.194 M 517.441 361.500 C 515.520 362.985, 515.520 363.015, 517.441 364.500 C 520.549 366.901, 529 366.111, 529 363.419 C 529 360.171, 520.900 358.827, 517.441 361.500 M 543.048 375.449 C 537.472 381.384, 523.883 382.483, 500.305 378.905 C 484.082 376.443, 465.827 376.023, 458 377.932 C 450.841 379.678, 444.686 382.868, 438.530 388.023 C 435.796 390.311, 431.746 393.155, 429.530 394.342 L 425.500 396.500 270.628 396.762 C 134.048 396.994, 115.398 396.846, 112.724 395.512 C 111.057 394.681, 109.484 394, 109.230 394 C 108.975 394, 108.954 396.934, 109.182 400.521 C 109.666 408.115, 111.505 410.634, 117.599 412.047 C 119.830 412.565, 184.263 412.963, 268.066 412.976 C 369.929 412.993, 416.436 412.667, 420.546 411.907 C 423.799 411.306, 427.634 410.206, 429.069 409.464 C 430.505 408.722, 435.215 405.110, 439.536 401.438 C 443.857 397.765, 449.340 393.926, 451.721 392.905 C 462.445 388.308, 476.095 388.050, 502 391.953 C 509.425 393.072, 518.681 393.990, 522.568 393.993 C 535.986 394.006, 544.140 389.621, 546.056 381.362 C 547.190 376.475, 547.239 373, 546.174 373 C 545.720 373, 544.313 374.102, 543.048 375.449" stroke="none" fill-rule="evenodd" transform="scale(1.712634548724575)"/>
</svg>