<svg xmlns="http://www.w3.org/2000/svg" width="640" height="640" viewBox="0 0 640 640" version="1.1">
	<path d="M 283 95.097 C 270.725 95.964, 260.525 97.470, 256.460 99.015 C 255.087 99.537, 253.535 101.094, 253.010 102.474 C 249.992 110.413, 237.863 158.214, 235.602 171.081 L 234.973 174.662 229.547 174.212 C 225.221 173.854, 223.420 174.195, 220.667 175.897 C 216.911 178.218, 214 183.261, 214 187.447 C 214 190.517, 218.035 195, 220.800 195 C 223.017 195, 226 192.013, 226 189.794 C 226 187.929, 223.235 185.432, 222.255 186.412 C 221.872 186.795, 222.173 187.489, 222.925 187.953 C 224.594 188.985, 223.665 191.807, 221.367 192.689 C 220.280 193.106, 219.038 192.530, 217.844 191.056 C 216.830 189.803, 216 188.109, 216 187.290 C 216 184.283, 219.348 178.871, 222.085 177.456 C 225.775 175.548, 232.883 175.532, 233.612 177.430 C 233.913 178.217, 233.470 183.279, 232.626 188.680 C 231.782 194.081, 230.562 204.350, 229.915 211.500 C 229.150 219.946, 228.113 225.741, 226.954 228.043 C 225.973 229.992, 224.488 234.198, 223.655 237.390 C 222.821 240.582, 221.995 243.329, 221.820 243.494 C 221.644 243.658, 220.508 241.571, 219.295 238.855 L 217.090 233.916 219.336 233.062 C 222.182 231.980, 223.544 230.253, 224.413 226.624 C 225.057 223.934, 224.931 223.780, 222.466 224.251 C 220.177 224.689, 219.904 224.477, 220.385 222.637 C 220.738 221.286, 219.995 219.157, 218.333 216.759 C 216.900 214.692, 215.391 213, 214.979 213 C 213.552 213, 211 217.943, 210.996 220.715 L 210.993 223.500 209.077 220.359 C 208.024 218.632, 206.653 216.904, 206.031 216.519 C 205.100 215.944, 196.365 215.496, 193.801 215.892 C 193.417 215.951, 193.768 217.595, 194.583 219.544 C 195.397 221.493, 195.827 223.471, 195.537 223.940 C 194.618 225.427, 198.370 228.863, 202 229.859 L 205.500 230.820 202.437 230.910 C 200.468 230.968, 198.415 232.001, 196.687 233.805 C 195.209 235.347, 194 236.854, 194 237.153 C 194 237.452, 195.772 238.495, 197.938 239.472 C 200.235 240.508, 202.885 240.995, 204.296 240.640 C 206.445 240.101, 206.663 240.311, 206.242 242.517 C 205.690 245.401, 206.850 245.646, 210.966 243.517 C 212.857 242.540, 214.075 240.937, 214.541 238.812 L 215.249 235.588 217.566 240.044 C 220.011 244.747, 220.575 247.692, 221.444 260.294 L 221.982 268.087 218.650 267.462 C 213.775 266.548, 207.421 268.624, 203.072 272.554 C 200.974 274.449, 198.332 276, 197.200 276 C 194.281 276, 192 278.653, 192 282.048 C 192 284.029, 192.781 285.465, 194.451 286.560 C 195.799 287.443, 197.664 288.016, 198.595 287.833 C 199.526 287.650, 201.145 286.350, 202.194 284.945 C 203.766 282.837, 203.910 281.895, 203.021 279.555 C 202.136 277.228, 202.261 276.369, 203.719 274.758 C 206.108 272.118, 209.750 270.324, 214.535 269.431 L 218.500 268.690 214.750 272.848 C 212.686 275.136, 211 278.050, 211 279.329 C 211 280.606, 209.875 282.708, 208.500 284 C 205.533 286.787, 205.231 290.994, 207.829 293.345 C 211.675 296.826, 218 294.201, 218 289.124 C 218 287.903, 216.875 285.862, 215.500 284.588 C 212.595 281.896, 212.319 278.395, 214.772 275.367 C 216.503 273.231, 220.077 271, 221.770 271 C 222.266 271, 223.432 273.733, 224.361 277.074 C 226.825 285.937, 232.078 295.735, 238.935 304.259 C 245.179 312.020, 256.562 322.178, 268.250 330.417 C 271.962 333.034, 274.999 335.249, 274.999 335.338 C 274.998 335.427, 270.473 335.518, 264.943 335.540 L 254.889 335.579 255.496 333.161 C 256.562 328.913, 255.039 325.099, 251.249 322.523 C 249.278 321.184, 247.240 320.352, 246.719 320.674 C 246.198 320.996, 246.008 323.024, 246.297 325.180 L 246.823 329.101 244.459 326.551 C 243.159 325.148, 241.581 324, 240.952 324 C 239.703 324, 228.717 327.052, 228.150 327.556 C 227.957 327.727, 229.264 329.690, 231.054 331.917 C 233.353 334.779, 235.364 336.169, 237.904 336.655 L 241.500 337.342 236.671 338.588 C 231.136 340.015, 227.528 342.727, 228.925 344.410 C 229.512 345.117, 228.972 346.955, 227.427 349.508 C 226.098 351.704, 225.008 354.008, 225.005 354.630 C 225.002 355.299, 227.550 355.956, 231.250 356.240 C 238.657 356.810, 242.241 355.369, 244.557 350.890 C 245.432 349.198, 246.325 347.991, 246.541 348.208 C 246.758 348.425, 246.437 350.223, 245.829 352.205 C 244.911 355.196, 245.045 356.591, 246.611 360.401 C 247.650 362.926, 248.838 364.994, 249.250 364.996 C 249.663 364.998, 251.852 363.148, 254.116 360.884 C 257.865 357.135, 258.185 356.417, 257.704 352.833 L 257.177 348.899 259.541 351.449 C 260.841 352.852, 262.601 354, 263.452 354 C 264.625 354, 265 352.885, 265 349.401 C 265 345.546, 264.498 344.333, 261.894 341.901 C 260.186 340.306, 258.274 338.968, 257.644 338.930 C 257.015 338.891, 257.400 338.473, 258.500 338 C 261.617 336.661, 269.960 336.880, 275.886 338.457 C 280.855 339.780, 297.345 348.937, 302.354 353.155 C 304.494 354.957, 304.491 354.961, 301.240 354.354 C 296.191 353.412, 289.403 355.777, 285.986 359.669 C 284.344 361.539, 283 363.456, 283 363.929 C 283 364.402, 281.701 366.179, 280.114 367.877 C 276.878 371.342, 275.673 375.940, 276.506 381.654 C 277.244 386.720, 275.328 390.198, 270.974 391.694 L 267.500 392.887 270.576 392.944 C 272.616 392.981, 274.444 392.156, 276.005 390.495 C 277.993 388.379, 278.332 387.051, 278.191 381.934 C 278.022 375.807, 280 369, 281.949 369 C 282.527 369, 283 369.614, 283 370.365 C 283 371.116, 283.933 372.916, 285.073 374.365 C 286.586 376.290, 288.063 377, 290.550 377 C 293.080 377, 294.376 376.356, 295.596 374.494 C 296.954 372.421, 297.033 371.494, 296.051 369.124 C 294.830 366.176, 291.391 364, 287.953 364 C 286.879 364, 286 363.590, 286 363.089 C 286 362.588, 287.352 361.040, 289.005 359.649 C 292.799 356.457, 299.119 355.502, 304.962 357.240 C 308.869 358.401, 309.513 358.998, 310.141 362.033 C 311.583 369.016, 313 400.592, 313 425.765 L 313 451.608 309.599 454.905 C 307.728 456.718, 304.717 461.118, 302.908 464.682 L 299.618 471.163 297.325 466.650 C 296.064 464.168, 294.574 461.855, 294.016 461.510 C 292.522 460.587, 292.780 459, 294.423 459 C 295.206 459, 297.231 457.835, 298.923 456.411 C 301.590 454.167, 302 453.167, 302 448.911 C 302 445.769, 301.570 444, 300.805 444 C 300.147 444, 298.357 445.200, 296.827 446.666 L 294.045 449.332 294.969 446.109 C 295.477 444.336, 295.580 442.046, 295.197 441.020 C 294.551 439.293, 285.130 431.372, 284.648 432.152 C 284.529 432.343, 283.885 434.107, 283.216 436.071 C 281.741 440.403, 281.643 444.662, 283 445.500 C 283.550 445.840, 284 446.799, 284 447.630 C 284 448.578, 282.767 447.835, 280.696 445.640 C 277.228 441.962, 272.261 439.960, 271.133 441.784 C 270.775 442.364, 267.890 443.213, 264.723 443.670 L 258.965 444.500 261.705 448.500 C 263.212 450.700, 264.320 453.263, 264.168 454.197 C 263.777 456.601, 268.935 458.986, 274.700 459.068 C 279.632 459.137, 279.206 459.640, 272.521 461.642 C 270.883 462.132, 269.023 463.576, 268.387 464.851 C 267.752 466.125, 266.730 467.670, 266.116 468.284 C 264.045 470.355, 264.981 471.787, 268.750 472.314 C 270.813 472.603, 273.711 473.147, 275.190 473.525 C 277.306 474.064, 278.437 473.654, 280.486 471.605 C 281.919 470.172, 283.272 469, 283.493 469 C 283.715 469, 283.423 470.356, 282.846 472.013 C 281.736 475.196, 282.255 478, 283.953 478 C 284.511 478, 286.411 476.711, 288.173 475.137 C 290.695 472.883, 291.497 471.233, 291.939 467.387 L 292.500 462.500 294.788 466.180 C 296.046 468.203, 297.544 472.478, 298.116 475.680 C 300.606 489.607, 301.178 491.862, 303.162 495.576 C 304.316 497.734, 306.309 500.752, 307.593 502.283 C 309.550 504.617, 309.761 505.503, 308.903 507.783 C 307.351 511.908, 301.259 517.645, 296.107 519.833 C 291.496 521.791, 289.789 522.190, 269.771 525.981 C 263.870 527.098, 257.462 528.766, 255.531 529.687 C 251.965 531.387, 250.307 534.070, 251.565 536.104 C 252.766 538.048, 260.202 540.793, 268.500 542.354 C 283.155 545.113, 305.307 546.308, 330.500 545.699 C 369.227 544.764, 390.192 540.352, 388.838 533.421 C 388.239 530.358, 381.423 527.905, 365.285 524.944 C 356.603 523.351, 347.518 521.299, 345.096 520.383 C 339.017 518.084, 333.647 512.932, 331.059 506.916 C 329.305 502.839, 328.703 498.691, 327.976 485.675 C 326.716 463.120, 326.757 444.268, 328.068 443.458 C 328.655 443.095, 331.693 442.571, 334.818 442.293 C 339.614 441.866, 340.929 442.127, 343.250 443.966 C 345.099 445.432, 346 447.080, 346 449.001 C 346 452.307, 343.404 455.369, 341.289 454.558 C 340.490 454.251, 339.648 454, 339.418 454 C 339.188 454, 339 453.100, 339 452 C 339 450.900, 339.450 450, 340 450 C 340.550 450, 341 449.517, 341 448.927 C 341 446.987, 337.745 448.449, 336.886 450.774 C 336.257 452.478, 336.542 453.542, 338.024 455.024 C 340.582 457.582, 343.468 457.532, 346.116 454.884 C 347.861 453.139, 348.150 451.910, 347.763 447.884 C 347.329 443.365, 347.460 443, 349.512 443 C 352.063 443, 356.504 439.795, 358.110 436.795 C 358.949 435.226, 358.889 434.545, 357.853 433.888 C 355.697 432.522, 349.163 432.864, 345.980 434.510 C 344.374 435.341, 342.580 436.916, 341.994 438.010 C 341.179 439.534, 339.899 440, 336.530 440 C 334.110 440, 330.976 440.439, 329.565 440.975 C 328.154 441.512, 327 441.621, 327 441.218 C 327 440.815, 329.054 438.014, 331.565 434.993 C 337.030 428.418, 340.486 421.981, 342.099 415.373 C 342.753 412.693, 343.729 409.938, 344.267 409.250 C 345.577 407.575, 350.158 407.664, 352.546 409.410 C 354.380 410.751, 354.389 410.912, 352.737 412.738 C 349.050 416.812, 351.914 422, 357.850 422 C 360.259 422, 361.314 421.405, 362.148 419.574 C 363.735 416.092, 362.423 412.139, 359.222 410.756 C 357.725 410.109, 355.427 408.774, 354.115 407.790 C 352.783 406.790, 350.024 406, 347.865 406 C 344.521 406, 344.001 405.697, 344.010 403.750 C 344.024 400.470, 348.322 391.881, 351.338 389.104 L 353.940 386.707 353.356 391.641 C 352.840 396.001, 353.087 396.949, 355.475 399.788 C 359.283 404.314, 360.997 403.992, 361.011 398.750 L 361.022 394.500 363.447 397.576 C 365.701 400.434, 366.343 400.659, 372.526 400.752 L 379.180 400.853 378.516 398.177 C 377.241 393.039, 375.472 390.546, 371.500 388.292 L 367.500 386.021 373.582 386.635 C 379.977 387.281, 384.303 385.994, 383.782 383.599 C 383.627 382.887, 384.962 381.070, 386.750 379.563 C 388.538 378.055, 390 376.419, 390 375.926 C 390 375.432, 387.933 374.508, 385.406 373.872 C 382.880 373.236, 379.984 371.825, 378.970 370.738 C 377.366 369.016, 376.704 368.908, 373.857 369.900 C 372.058 370.527, 369.556 372.008, 368.297 373.191 C 365.261 376.043, 364.423 375.003, 367.058 371.653 C 368.840 369.387, 369.044 368.201, 368.457 363.501 C 368.079 360.475, 367.573 358, 367.332 358 C 367.091 358, 365.238 359.125, 363.215 360.500 C 361.191 361.875, 358.981 363, 358.303 363 C 356.556 363, 355.011 366.298, 354.937 370.184 C 354.885 372.895, 354.724 373.135, 354.055 371.500 C 353.604 370.400, 352.294 368.653, 351.143 367.618 C 349.078 365.760, 349.038 365.771, 348.025 368.433 C 346.050 373.629, 346.756 377.034, 350.554 380.615 L 354.107 383.967 350.500 387.134 C 348.517 388.876, 346.064 391.917, 345.051 393.893 L 343.208 397.485 342.002 393.009 C 340.338 386.828, 336.835 380.189, 332.502 375.003 C 328.935 370.733, 328.863 370.481, 329.506 364.564 C 330.559 354.878, 332.889 345.862, 335.460 341.522 C 339.011 335.531, 346.063 329.203, 360 319.504 C 380.123 305.501, 391.516 293.196, 399.922 276.390 C 408.122 259.996, 411.782 240.047, 410.614 218.122 C 409.137 190.404, 402.891 157.964, 390.565 114 C 388.317 105.979, 386.360 100.926, 385.104 99.899 C 380.801 96.379, 352.353 93.940, 318 94.145 C 305.075 94.222, 289.325 94.651, 283 95.097 M 293 96.597 C 270.729 98.120, 255.499 100.380, 256.507 102.012 C 257.275 103.254, 268.277 104.865, 284.448 106.103 C 304.921 107.672, 359.081 106.739, 372.457 104.588 C 377.933 103.707, 382.807 102.593, 383.287 102.113 C 384.400 101, 377.140 99.306, 365.500 97.962 C 356.384 96.909, 303.109 95.906, 293 96.597 M 254.420 105.401 C 252.782 109.888, 243.372 146.138, 240.457 159.194 L 236.867 175.268 239.883 178.384 C 243.929 182.565, 246 187.867, 246 194.044 L 246 199.152 248.932 196.826 C 250.544 195.547, 252.132 193.868, 252.460 193.095 C 252.788 192.322, 252.144 190.718, 251.028 189.530 C 249.685 188.100, 249 186.013, 249 183.352 C 249 181.142, 249.296 179.037, 249.658 178.675 C 250.020 178.313, 250.962 178.554, 251.752 179.209 C 252.899 180.161, 253.522 179.983, 254.844 178.326 C 255.755 177.184, 257.696 175.494, 259.157 174.571 C 262.473 172.475, 263.208 173.453, 263.308 180.094 C 263.368 184.072, 263.713 185, 265.132 185 C 268.212 185, 268.216 186.938, 265.143 190.011 C 263.083 192.071, 261.170 193, 258.987 193 C 256.608 193, 254.446 194.225, 250.295 197.925 C 245.549 202.154, 241 207.849, 241 209.559 C 241 209.840, 241.870 209.605, 242.934 209.035 C 246.898 206.914, 252.921 208.270, 255.718 211.913 C 257.579 214.338, 257.229 218.771, 255 221 C 252.273 223.727, 248.415 223.564, 246.500 220.641 C 244.627 217.782, 245.479 215, 248.229 215 C 249.900 215, 250.034 215.255, 249.011 216.487 C 247.526 218.276, 248.363 221, 250.397 221 C 252.451 221, 255 218.213, 255 215.968 C 255 213.363, 251.140 210, 248.149 210 C 244.344 210, 237.637 214.438, 234.672 218.920 C 232.278 222.537, 232 223.885, 232 231.868 C 232 247.754, 236.666 265.559, 244.502 279.570 C 246.472 283.092, 250.843 289.447, 254.217 293.693 L 260.351 301.412 261.600 297.956 C 263.446 292.843, 263.277 292, 260.401 292 C 258.783 292, 256.707 290.828, 254.901 288.894 C 253.306 287.186, 252 285.386, 252 284.894 C 252 283.995, 253.433 283.624, 255.750 283.925 C 257.300 284.127, 257.370 282.770, 255.886 281.286 C 255.066 280.466, 255.117 278.824, 256.075 275.086 C 256.792 272.289, 257.747 270, 258.198 270 C 259.943 270, 265.005 275.437, 265.102 277.415 C 265.173 278.862, 265.426 278.582, 265.929 276.500 C 267.132 271.513, 268.926 269, 271.285 268.996 C 272.503 268.994, 274.973 268.094, 276.774 266.996 C 278.575 265.898, 280.207 265, 280.400 265 C 281.355 265, 281.580 276.803, 280.664 278.825 C 280.084 280.104, 278.306 281.824, 276.712 282.649 C 273.156 284.488, 273.697 285.446, 277.480 284.008 C 279.621 283.194, 281.086 283.334, 284.042 284.638 L 287.847 286.317 284.673 290.141 C 282.321 292.975, 280.737 293.969, 278.550 293.982 C 276.256 293.996, 275.867 294.267, 276.800 295.200 C 279.123 297.523, 278.128 299.001, 274.250 298.985 C 270.008 298.967, 269.051 298.475, 266.770 295.139 L 265.156 292.777 264.083 296.639 C 263.494 298.762, 263.009 301.209, 263.006 302.075 C 262.999 303.952, 271.898 311.233, 285 320.071 C 296.088 327.551, 303.921 334.965, 306.895 340.795 C 308.058 343.074, 309.679 347.540, 310.497 350.720 C 311.400 354.229, 312.872 357.203, 314.242 358.290 C 315.484 359.275, 318.664 361.910, 321.310 364.147 C 323.955 366.384, 326.244 368.053, 326.395 367.857 C 326.547 367.661, 327.370 363.106, 328.225 357.736 C 329.167 351.818, 330.855 345.773, 332.511 342.387 C 334.014 339.316, 337.616 334.467, 340.516 331.614 C 343.416 328.760, 351.123 322.766, 357.644 318.295 C 372.116 308.370, 379.541 301.806, 387.214 292.151 C 394.245 283.303, 402.140 267.464, 404.951 256.567 C 408.166 244.103, 409.248 228.700, 408.009 213.030 C 406.201 190.148, 402.701 169.836, 395.857 142.500 C 392.600 129.490, 386.066 105.915, 385.433 104.892 C 385.218 104.543, 382.445 104.846, 379.271 105.564 C 368.306 108.046, 349.395 109.230, 321 109.215 C 292.182 109.199, 272.739 108.032, 261.161 105.622 C 256.633 104.679, 254.707 104.616, 254.420 105.401 M 255.165 127.250 C 251.517 140.651, 247.655 159.466, 248.211 161.132 C 248.428 161.785, 250.952 152.910, 253.818 141.410 C 256.684 129.909, 259.300 119.487, 259.631 118.250 C 259.962 117.012, 259.782 116, 259.231 116 C 258.679 116, 256.850 121.063, 255.165 127.250 M 383.365 131.500 C 383.689 132.600, 385.520 140.025, 387.433 148 C 391.873 166.514, 395.586 186.683, 397.162 200.859 C 397.843 206.986, 398.776 212, 399.235 212 C 399.694 212, 399.822 209.863, 399.519 207.250 C 397.250 187.633, 395.628 176.117, 393.918 167.500 C 391.357 154.588, 385.123 131.790, 383.800 130.500 C 383.105 129.822, 382.965 130.144, 383.365 131.500 M 258.235 177.995 C 256.894 179.245, 256 181.262, 256 183.039 C 256 184.668, 255.654 186, 255.232 186 C 254.809 186, 253.696 184.762, 252.758 183.250 L 251.053 180.500 251.027 183.679 C 250.999 186.956, 253.456 190.454, 255.081 189.450 C 255.586 189.138, 256 189.359, 256 189.941 C 256 191.761, 260.667 191.098, 263.139 188.927 L 265.500 186.853 262.250 187.402 C 260.462 187.703, 259 187.714, 259 187.425 C 259 187.137, 259.702 185.543, 260.561 183.883 C 261.622 181.831, 261.857 180.072, 261.296 178.389 L 260.471 175.913 258.235 177.995 M 235.593 183.250 C 233.601 196.609, 232.037 210.069, 232.020 213.997 L 232 218.494 235.487 213.588 C 242.874 203.199, 245.367 194.671, 243.060 187.681 C 241.818 183.919, 238.408 179, 237.041 179 C 236.593 179, 235.942 180.912, 235.593 183.250 M 214.177 217.223 C 213.530 217.870, 213 220.143, 213 222.273 C 213 225.402, 212.669 226.083, 211.275 225.814 C 210.326 225.632, 209.029 224.436, 208.391 223.157 C 206.567 219.499, 205.427 218.763, 200.958 218.360 C 196.833 217.989, 196.788 218.020, 197.493 220.742 C 197.886 222.259, 198.316 224.175, 198.449 225 C 198.582 225.825, 200.672 227.189, 203.095 228.032 C 208.508 229.915, 208.969 232.362, 204 232.828 C 202.075 233.009, 199.691 233.885, 198.703 234.776 C 196.988 236.321, 197.024 236.457, 199.490 237.749 C 201.592 238.850, 202.715 238.871, 205.512 237.860 C 207.403 237.176, 209.223 236.889, 209.556 237.223 C 209.889 237.556, 209.660 238.767, 209.046 239.914 C 208.145 241.598, 208.219 242, 209.430 242 C 211.222 242, 213 238.983, 213 235.941 C 213 234.083, 212.582 233.834, 210.250 234.305 C 208.738 234.610, 206.713 235.165, 205.750 235.537 C 204.787 235.909, 204 235.787, 204 235.265 C 204 234.743, 205.901 233.747, 208.225 233.051 L 212.451 231.785 209.958 229.642 C 208.586 228.464, 206.122 226.502, 204.482 225.282 C 202.541 223.838, 202.048 223.052, 203.070 223.032 C 203.934 223.014, 206.511 224.602, 208.799 226.560 L 212.957 230.119 213.604 226.078 C 214.491 220.530, 215.883 221.856, 215.233 227.629 L 214.707 232.290 217.594 231.566 C 220.562 230.821, 221.958 229.446, 221.985 227.242 C 221.997 226.243, 221.596 226.235, 220.045 227.204 C 218.970 227.875, 217.793 228.127, 217.430 227.763 C 217.066 227.400, 217.201 225.842, 217.730 224.301 C 218.464 222.163, 218.297 220.855, 217.023 218.773 C 215.743 216.680, 215.081 216.319, 214.177 217.223 M 226.628 235.233 C 223.937 243.787, 222.829 252.999, 223.557 260.766 C 224.183 267.447, 224.491 268.206, 227.369 270.178 C 233.985 274.709, 236.504 279.558, 237.488 289.658 C 237.855 293.421, 238.582 297.893, 239.104 299.595 C 239.635 301.328, 243.453 306.037, 247.777 310.291 C 255.588 317.979, 266 326.694, 266 325.545 C 266 325.202, 265.155 323.251, 264.122 321.210 C 262.065 317.147, 261.119 313.372, 260.811 308 C 260.660 305.376, 259.390 303.148, 255.737 299.095 C 241.340 283.127, 232.745 263.543, 229.999 240.454 C 229.348 234.979, 228.697 230.377, 228.552 230.227 C 228.407 230.077, 227.541 232.330, 226.628 235.233 M 347.500 233.058 C 342.550 233.568, 332.425 235.125, 325 236.519 C 305.158 240.242, 299.013 240.567, 289 238.421 C 283.465 237.235, 276.139 236.582, 268 236.550 C 257.588 236.508, 254.247 236.892, 248 238.847 C 243.875 240.138, 239.957 241.640, 239.292 242.184 C 237.927 243.304, 238.261 245.982, 241.130 256.895 C 243.387 265.483, 249.383 279, 250.935 279 C 251.521 279, 252 278.762, 252 278.471 C 252 278.181, 250.654 275.277, 249.009 272.018 C 245.684 265.430, 241 250.257, 241 246.071 C 241 243.678, 241.617 243.171, 246.336 241.683 C 255.858 238.682, 266.840 237.712, 277.156 238.961 C 288.039 240.280, 296.485 242.327, 318.500 248.982 C 327.300 251.642, 338.292 254.373, 342.926 255.050 C 359.156 257.422, 380.309 254.529, 393.250 248.168 C 398.838 245.421, 399 245.400, 399 247.424 C 399 250.352, 395.719 261.469, 392.926 268 C 385.076 286.364, 371.181 301.501, 354 310.406 C 349.325 312.829, 342.125 315.852, 338 317.124 C 332.182 318.918, 328.145 319.437, 320 319.437 C 311.845 319.437, 307.833 318.921, 302.035 317.125 C 294.177 314.690, 285.220 310.497, 278.798 306.247 C 274.478 303.389, 272.173 304.077, 276.015 307.078 C 280.193 310.342, 293.751 316.835, 301.327 319.201 C 306.973 320.963, 310.948 321.446, 320 321.467 C 329.278 321.489, 332.949 321.045, 339 319.167 C 348.760 316.139, 361.531 309.341, 369.752 302.799 C 378.759 295.632, 387.421 284.403, 393.127 272.493 C 397.957 262.414, 402.379 247.014, 401.808 242.262 C 401.639 240.852, 400.375 238.864, 399 237.845 C 397.625 236.827, 393.350 235.330, 389.500 234.521 C 380.469 232.621, 359.002 231.873, 347.500 233.058 M 375.820 243.535 C 368.804 247.345, 350.856 249.143, 340.277 247.096 C 337.954 246.646, 336.268 246.625, 336.531 247.049 C 337.452 248.541, 351.473 250.245, 357.890 249.646 C 365.301 248.954, 376.276 245.577, 378.047 243.444 C 379.517 241.672, 379.229 241.684, 375.820 243.535 M 247.590 253.750 C 248.596 259.289, 251.332 266.277, 252.670 266.723 C 253.388 266.963, 252.904 264.349, 251.420 259.961 C 250.089 256.027, 249 252.177, 249 251.404 C 249 250.632, 248.530 250, 247.955 250 C 247.292 250, 247.159 251.374, 247.590 253.750 M 383.240 270.958 C 376.386 283.438, 365.308 295.327, 353.656 302.709 C 351.541 304.048, 350.048 305.382, 350.338 305.671 C 351.360 306.693, 361.098 300.603, 367.039 295.226 C 370.347 292.233, 375.013 287.020, 377.408 283.642 C 382.170 276.927, 388.484 264.993, 387.264 265.012 C 386.844 265.018, 385.033 267.694, 383.240 270.958 M 273.088 271.076 C 269.004 273.267, 268.036 274.625, 268.015 278.191 C 268.007 279.671, 267.530 281.172, 266.956 281.527 C 265.540 282.402, 263 280.158, 263 278.033 C 263 277.085, 262.111 275.506, 261.025 274.523 C 259.111 272.790, 259.019 272.820, 258 275.500 C 256.823 278.596, 257.359 281.223, 259.539 283.032 C 261.854 284.953, 261.256 286, 257.845 286 C 254.753 286, 254.726 286.040, 256.500 288 C 258.589 290.308, 262.810 290.659, 263.604 288.590 C 263.901 287.815, 263.410 285.759, 262.512 284.022 C 261.613 282.286, 261.034 280.397, 261.225 279.826 C 261.415 279.255, 262.445 280.411, 263.513 282.394 C 264.581 284.377, 265.690 285.976, 265.977 285.946 C 266.265 285.916, 267.850 283.804, 269.500 281.254 C 271.150 278.703, 273.110 276.424, 273.857 276.189 C 274.603 275.954, 273.590 278.172, 271.607 281.118 C 269.623 284.063, 268 286.817, 268 287.237 C 268 287.656, 270.052 288, 272.559 288 C 275.344 288, 276.878 288.389, 276.500 289 C 276.160 289.550, 274.109 290, 271.941 290 C 268.805 290, 268 290.370, 268 291.809 C 268 294.282, 270.044 296.637, 272.750 297.279 C 275.410 297.910, 275.578 297.296, 273.402 294.892 C 272.523 293.921, 272.081 292.677, 272.420 292.129 C 272.759 291.580, 274.491 291.366, 276.268 291.653 C 278.828 292.066, 279.987 291.654, 281.844 289.673 C 284.152 287.209, 284.158 287.155, 282.193 286.103 C 280.774 285.344, 279.298 285.349, 277.086 286.120 C 273.816 287.260, 271 286.763, 271 285.046 C 271 284.486, 272.742 282.876, 274.870 281.467 C 278.460 279.091, 278.749 278.547, 278.852 273.953 C 278.977 268.432, 278.479 268.183, 273.088 271.076 M 226.666 277.248 C 228.310 282.784, 234.614 296, 235.611 296 C 236.406 296, 234.983 284.115, 233.815 281 C 232.844 278.410, 227.176 272, 225.858 272 C 225.445 272, 225.809 274.362, 226.666 277.248 M 195.200 279.200 C 192.214 282.186, 195.526 286.859, 199.224 284.880 C 200.201 284.357, 201 283.135, 201 282.165 C 201 280.182, 199.166 278, 197.500 278 C 196.895 278, 195.860 278.540, 195.200 279.200 M 209.582 286.316 C 207.458 287.869, 207.784 290.835, 210.250 292.388 C 211.525 293.190, 212.475 293.190, 213.750 292.388 C 216.135 290.886, 216.428 288.570, 214.479 286.621 C 212.515 284.658, 211.903 284.620, 209.582 286.316 M 263.313 311.244 C 264.184 317.630, 268.212 325.282, 273.365 330.338 C 277.844 334.732, 307.827 354.506, 308.696 353.638 C 309.754 352.579, 305.666 342.716, 302.390 338.423 C 297.589 332.135, 294.118 329.141, 281 319.977 C 274.675 315.558, 267.962 310.718, 266.083 309.221 L 262.666 306.500 263.313 311.244 M 248.609 326.955 C 249.168 330.451, 249.006 331, 247.415 331 C 246.403 331, 244.652 329.842, 243.523 328.426 C 241.550 325.953, 241.287 325.899, 236.735 327.045 C 234.131 327.701, 232 328.568, 232 328.973 C 232 330.778, 237.134 335, 239.330 335 C 241.907 335, 244.774 337.557, 243.562 338.774 C 243.164 339.173, 240.513 339.950, 237.669 340.500 C 234.156 341.180, 232.511 341.981, 232.533 343 C 232.552 343.825, 231.507 346.396, 230.210 348.713 L 227.854 352.925 230.177 353.413 C 231.455 353.682, 234.296 353.811, 236.492 353.701 C 239.909 353.529, 240.833 352.960, 242.909 349.750 C 246.995 343.434, 250.949 345.628, 247.827 352.479 C 246.878 354.563, 246.966 355.706, 248.292 358.485 L 249.928 361.918 253.053 358.793 C 255.890 355.956, 256.118 355.270, 255.527 351.334 C 254.943 347.434, 255.080 347, 256.904 347 C 258.018 347, 259.411 347.900, 260 349 C 261.391 351.598, 263 351.563, 263 348.934 C 263 345.523, 261.042 342.916, 257.311 341.357 C 255.371 340.546, 253.586 340.081, 253.344 340.323 C 253.102 340.565, 252.635 343.966, 252.307 347.882 C 251.978 351.797, 251.429 355, 251.086 355 C 250.742 355, 250.633 351.587, 250.844 347.416 L 251.227 339.831 247.864 341.558 C 246.014 342.508, 242.137 344.791, 239.250 346.630 C 236.363 348.470, 234 349.592, 234 349.124 C 234 348.158, 239.406 344.303, 245.835 340.684 L 250.169 338.244 244.390 334.937 C 241.211 333.118, 239.110 331.463, 239.722 331.259 C 240.333 331.056, 243.270 332.264, 246.248 333.944 C 249.225 335.625, 251.923 337, 252.243 337 C 252.563 337, 253.123 335.234, 253.487 333.075 C 254.226 328.706, 253.029 325.621, 249.958 323.978 C 248.076 322.970, 247.999 323.141, 248.609 326.955 M 310.001 328.133 C 309.998 329.836, 321.554 330.639, 327.875 329.375 C 333.753 328.199, 331.003 327.500, 320.502 327.500 C 314.727 327.500, 310.002 327.785, 310.001 328.133 M 312.362 361.664 C 313.293 364.764, 314.872 394.150, 315.569 421.345 L 316.231 447.189 320.616 442.887 L 325 438.584 325.084 417.042 C 325.130 405.194, 325.516 390.325, 325.942 384 L 326.716 372.500 321.337 367.274 C 318.379 364.400, 315.025 361.549, 313.885 360.938 C 312.092 359.979, 311.886 360.078, 312.362 361.664 M 360.750 364.165 C 357.292 366.038, 357 366.539, 357 370.598 C 357 374.205, 356.668 375, 355.161 375 C 354.149 375, 352.808 373.875, 352.182 372.500 C 351.555 371.125, 350.583 370, 350.021 370 C 349.460 370, 349 371.535, 349 373.411 C 349 375.992, 349.748 377.452, 352.077 379.411 C 353.769 380.835, 355.497 382, 355.916 382 C 356.738 382, 359 377.540, 359 375.921 C 359 374.319, 361.986 367.653, 362.481 368.148 C 362.732 368.399, 362.054 371.505, 360.976 375.052 C 359.898 378.598, 359.012 381.565, 359.008 381.645 C 359.003 381.725, 361.740 380.937, 365.089 379.895 C 368.438 378.853, 373.051 378.033, 375.339 378.072 C 379.060 378.137, 378.676 378.347, 371.707 380.060 C 367.421 381.113, 363.025 382.451, 361.937 383.033 C 360.101 384.017, 360.335 384.437, 365.230 388.949 C 368.129 391.621, 370.251 394.062, 369.948 394.373 C 369.644 394.684, 367.096 392.927, 364.286 390.469 C 361.476 388.011, 358.676 386, 358.064 386 C 356.731 386, 355 390.211, 355 393.454 C 355 394.733, 355.885 396.841, 356.967 398.139 L 358.933 400.500 358.967 396.809 C 358.985 394.779, 359.518 392.798, 360.151 392.407 C 360.821 391.992, 362.409 393.051, 363.951 394.940 C 366.165 397.653, 367.382 398.234, 371.381 398.486 C 376.099 398.782, 376.154 398.751, 375.501 396.149 C 374.603 392.568, 373.266 391.138, 369.253 389.461 C 366.881 388.470, 365.954 387.501, 366.202 386.269 C 366.509 384.746, 367.492 384.547, 373.279 384.839 C 378.768 385.116, 380 384.900, 380 383.661 C 380 382.827, 381.462 380.985, 383.250 379.566 C 385.959 377.417, 386.250 376.822, 385 375.993 C 384.175 375.446, 381.813 374.717, 379.750 374.372 C 377.593 374.011, 376 373.175, 376 372.404 C 376 370.598, 373.415 371.638, 368.826 375.289 C 363.304 379.683, 360.858 376.816, 365.077 370.892 C 366.597 368.758, 366.978 367.174, 366.497 364.988 C 366.136 363.345, 365.539 362.030, 365.171 362.067 C 364.802 362.104, 362.813 363.048, 360.750 364.165 M 285.301 367.657 C 284.952 368.568, 285.318 370.481, 286.114 371.907 C 288.006 375.294, 292.427 375.939, 293.972 373.053 C 294.892 371.334, 294.659 370.568, 292.584 368.493 C 289.725 365.634, 286.232 365.233, 285.301 367.657 M 328.636 377.210 C 328.296 378.470, 327.760 392.325, 327.444 408 L 326.871 436.500 330.481 432.531 C 332.466 430.349, 335.532 425.633, 337.295 422.052 C 340.317 415.914, 340.500 414.909, 340.500 404.469 C 340.500 393.710, 340.395 393.183, 336.790 385.889 C 334.749 381.760, 332.219 377.603, 331.167 376.651 C 329.340 374.997, 329.227 375.022, 328.636 377.210 M 353.930 414.584 C 352.980 415.729, 352.905 416.630, 353.660 417.834 C 356.077 421.691, 361.876 419.334, 360.515 415.048 C 359.728 412.569, 355.831 412.294, 353.930 414.584 M 346.869 436.510 C 345.421 437.296, 343.973 438.628, 343.650 439.470 C 342.718 441.900, 350.111 441.487, 353.365 438.927 C 354.814 437.788, 356 436.438, 356 435.927 C 356 434.508, 349.829 434.901, 346.869 436.510 M 284.454 439.395 C 284.104 441.262, 284.308 443.707, 284.908 444.829 C 285.509 445.951, 286 447.798, 286 448.934 C 286 452.161, 282.869 451.438, 279.500 447.435 L 276.500 443.869 270.118 444.900 C 266.607 445.467, 263.524 446.142, 263.267 446.400 C 263.009 446.658, 263.911 448.361, 265.271 450.184 C 266.632 452.008, 267.548 454.037, 267.308 454.693 C 266.870 455.890, 270.041 456.723, 277 457.240 C 279.747 457.444, 280.500 457.930, 280.500 459.500 C 280.500 461.041, 279.474 461.747, 276.030 462.577 C 272.805 463.355, 271.068 464.468, 269.792 466.577 L 268.024 469.500 272.752 470.708 C 277.225 471.850, 277.617 471.783, 280.044 469.458 C 284.200 465.476, 286.860 466.607, 284.979 471.555 C 284.410 473.052, 284.183 474.517, 284.476 474.809 C 284.769 475.102, 286.131 474.286, 287.504 472.996 C 289.425 471.192, 290 469.647, 290 466.294 C 290 463.347, 289.515 461.751, 288.503 461.363 C 287.679 461.047, 284.764 462.226, 282.024 463.985 C 279.284 465.743, 276.532 467.011, 275.908 466.803 C 275.284 466.595, 277.563 464.702, 280.972 462.598 C 284.382 460.493, 286.795 458.402, 286.336 457.950 C 285.876 457.498, 282.800 455.831, 279.500 454.246 C 267.105 448.292, 268.080 448.887, 271.595 449.419 C 274.051 449.791, 281.298 452.737, 287.250 455.783 C 287.663 455.994, 288 452.904, 288 448.917 C 288 444.929, 288.309 441.976, 288.687 442.354 C 289.065 442.732, 289.628 446.259, 289.937 450.191 C 290.247 454.124, 290.981 457.500, 291.568 457.693 C 292.156 457.887, 294.181 457.008, 296.068 455.741 C 298.685 453.983, 299.579 452.613, 299.832 449.968 L 300.163 446.500 297.632 448.877 C 294.664 451.664, 291.541 451.141, 292.431 448.005 C 292.744 446.902, 293.215 445.212, 293.477 444.250 C 293.740 443.288, 293.627 442.034, 293.227 441.466 C 292.167 439.958, 286.869 436, 285.910 436 C 285.460 436, 284.804 437.528, 284.454 439.395 M 319.305 448.471 L 315.321 451.881 314.555 474.690 C 314.134 487.236, 313.724 499.266, 313.644 501.425 C 313.512 505.011, 313.939 505.701, 318.591 509.425 C 321.391 511.666, 327.877 516.419, 333.005 519.987 C 341.256 525.728, 350 534.527, 350 537.090 C 350 539.080, 348.259 537.776, 344.876 533.250 C 342.629 530.245, 337.131 525.607, 329.912 520.626 C 323.636 516.295, 317.129 511.458, 315.453 509.876 L 312.405 507 308.953 512.250 C 303.923 519.898, 296.613 523.335, 278.500 526.570 C 263.055 529.328, 255.749 531.393, 254.006 533.493 C 253.094 534.591, 253.460 535.187, 255.787 536.390 C 257.397 537.223, 263.167 538.801, 268.608 539.896 C 294.337 545.078, 340.996 545.344, 369.423 540.470 C 378.433 538.925, 387 535.873, 387 534.208 C 387 533.119, 381.014 530.451, 375.500 529.083 C 373.300 528.537, 366.775 527.346, 361 526.437 C 344.486 523.837, 336.465 520.092, 331.381 512.610 C 327.063 506.255, 326.053 499.424, 325.342 471.761 C 324.977 457.548, 324.365 445.726, 323.984 445.490 C 323.602 445.254, 321.496 446.595, 319.305 448.471 M 308.881 459.250 C 303.481 466.578, 301.615 471.775, 301.610 479.500 C 301.606 485.043, 302.189 487.789, 304.415 492.697 C 305.961 496.106, 308.015 499.609, 308.981 500.483 C 310.611 501.958, 310.777 501.864, 311.319 499.156 C 312.197 494.767, 313.404 455, 312.659 455 C 312.304 455, 310.603 456.913, 308.881 459.250" stroke="none"  fill-rule="evenodd"/>
</svg>