<?xml version="1.0" encoding="UTF-8" standalone="no"?>
<!-- Created with Inkscape (http://www.inkscape.org/) -->

<svg
   version="1.1"
   id="svg1491"
   xml:space="preserve"
   width="682.66669"
   height="682.66669"
   viewBox="0 0 682.66669 682.66669"
   xmlns="http://www.w3.org/2000/svg"
   xmlns:svg="http://www.w3.org/2000/svg"><defs
     id="defs1495"><clipPath
       clipPathUnits="userSpaceOnUse"
       id="clipPath1505"><path
         d="M 0,512 H 512 V 0 H 0 Z"
         id="path1503" /></clipPath></defs><g
     id="g1497"
     transform="matrix(1.3333333,0,0,-1.3333333,0,682.66667)"><g
       id="g1499"><g
         id="g1501"
         clip-path="url(#clipPath1505)"><g
           id="g1507"
           transform="translate(325.8301,109.1802)"><path
             d="m 0,0 c 0.103,0 3.14,-9.697 3.14,-21.21 0,-40.3 -32.67,-72.97 -72.97,-72.97 -48.917,0 -84.027,47.285 -69.84,94.18 h 0.01"
             style="fill:none;stroke:currentColor;stroke-width:30;stroke-linecap:round;stroke-linejoin:round;stroke-miterlimit:10;stroke-dasharray:none;stroke-opacity:1"
             id="path1509" /></g><g
           id="g1511"
           transform="translate(128.0898,214.2598)"><path
             d="m 0,0 c -23.928,-48.052 10.906,-105.44 65.36,-105.44 26.55,0 49.78,14.18 62.55,35.37"
             style="fill:none;stroke:currentColor;stroke-width:30;stroke-linecap:round;stroke-linejoin:round;stroke-miterlimit:10;stroke-dasharray:none;stroke-opacity:1"
             id="path1513" /></g><g
           id="g1515"
           transform="translate(198.6699,240.8901)"><path
             d="m 0,0 c -13.37,-16.95 -34.08,-27.83 -57.34,-27.83 -40.3,0 -72.97,32.67 -72.97,72.97 0,40.3 32.67,72.97 72.97,72.97 23.26,0 43.97,-10.88 57.34,-27.83"
             style="fill:none;stroke:currentColor;stroke-width:30;stroke-linecap:round;stroke-linejoin:round;stroke-miterlimit:10;stroke-dasharray:none;stroke-opacity:1"
             id="path1517" /></g><g
           id="g1519"
           transform="translate(383.9102,214.2598)"><path
             d="m 0,0 c 22.601,-45.387 -7.229,-100.047 -58.08,-105.08 -28.045,-2.816 -55.203,10.739 -69.83,35.01 -12.771,21.243 -13.712,47.268 -3.35,68.95"
             style="fill:none;stroke:currentColor;stroke-width:30;stroke-linecap:round;stroke-linejoin:round;stroke-miterlimit:10;stroke-dasharray:none;stroke-opacity:1"
             id="path1521" /></g><g
           id="g1523"
           transform="translate(313.3398,240.8901)"><path
             d="m 0,0 c 13.36,-16.95 34.07,-27.83 57.33,-27.83 40.3,0 72.97,32.67 72.97,72.97 0,40.3 -32.67,72.97 -72.97,72.97 C 34.07,118.11 13.36,107.23 0,90.28"
             style="fill:none;stroke:currentColor;stroke-width:30;stroke-linecap:round;stroke-linejoin:round;stroke-miterlimit:10;stroke-dasharray:none;stroke-opacity:1"
             id="path1525" /></g><g
           id="g1527"
           transform="translate(183.0303,286.0303)"><path
             d="m 0,0 c 0,-40.3 32.669,-72.97 72.97,-72.97 40.3,0 72.969,32.67 72.969,72.97 0,40.3 -32.669,72.97 -72.969,72.97 C 32.669,72.97 0,40.3 0,0 Z"
             style="fill:none;stroke:currentColor;stroke-width:30;stroke-linecap:round;stroke-linejoin:round;stroke-miterlimit:10;stroke-dasharray:none;stroke-opacity:1"
             id="path1529" /></g><g
           id="g1531"
           transform="translate(256,359)"><path
             d="M 0,0 C 0.656,95.221 96,104 96,104"
             style="fill:none;stroke:currentColor;stroke-width:30;stroke-linecap:round;stroke-linejoin:round;stroke-miterlimit:10;stroke-dasharray:none;stroke-opacity:1"
             id="path1533" /></g><g
           id="g1535"
           transform="translate(246.0254,359.0161)"><path
             d="M 0,0 C 9.462,103.877 -73,138 -73,138 -73,138 -103.223,48 0,0"
             style="fill:none;stroke:currentColor;stroke-width:30;stroke-linecap:round;stroke-linejoin:round;stroke-miterlimit:10;stroke-dasharray:none;stroke-opacity:1"
             id="path1537" /></g></g></g></g></svg>
